<svg viewBox="0 0 488 696" fill="none" xmlns="http://www.w3.org/2000/svg">
<path d="M377.808 695.2C381.259 695.1 384.814 694.9 388.264 694.5C388.474 694.5 388.578 694.3 388.578 694.2C388.578 694 388.369 693.9 388.264 693.9C384.814 694.5 381.363 694.9 377.808 695.2Z" fill="white" stroke="white"/>
<path d="M408.445 690.3C415.032 688.3 421.411 685.7 427.475 682.6C428.103 682.3 428.416 681.5 427.998 680.8C427.684 680.2 426.848 679.9 426.116 680.3C420.26 683.6 414.196 686.4 407.817 688.7C407.399 688.9 407.085 689.4 407.295 689.8C407.504 690.2 408.026 690.4 408.445 690.3Z" fill="white" stroke="white"/>
<path d="M444.937 671.7C450.374 667.6 455.393 662.9 459.994 657.9C460.726 657 460.726 655.8 459.785 655C458.844 654.3 457.589 654.3 456.753 655.2C456.753 655.2 456.753 655.2 456.753 655.3C452.57 660.3 447.76 664.9 442.637 669.1C441.905 669.7 441.8 670.8 442.428 671.5C443.055 672.1 444.205 672.2 444.937 671.7Z" fill="white" stroke="white"/>
<path d="M472.123 641.5C475.574 635.7 478.502 629.5 480.802 623.2C481.325 621.8 480.593 620.4 479.129 619.9C477.665 619.4 476.201 620.1 475.679 621.5C475.679 621.5 475.679 621.5 475.679 621.6C473.692 627.7 471.078 633.6 467.836 639.2C467.209 640.4 467.627 641.8 468.882 642.4C470.032 643.1 471.496 642.7 472.123 641.5Z" fill="white" stroke="white"/>
<path d="M485.822 603.7C486.867 597.1 487.39 590.3 487.181 583.6C487.181 581.9 485.717 580.6 483.94 580.7C482.162 580.7 480.803 582.1 480.907 583.8C481.221 590.2 480.907 596.6 479.966 602.9C479.757 604.5 480.907 605.9 482.476 606.1C484.149 606.3 485.613 605.3 485.822 603.7Z" fill="white" stroke="white"/>
<path d="M484.777 563.6C484.045 560.3 483.104 557 482.058 553.8C481.535 552.2 480.908 550.6 480.385 549L478.398 544.3C477.666 542.6 475.68 541.8 473.902 542.5C472.125 543.2 471.288 545.1 472.02 546.8L472.125 547L474.007 551.4C474.634 552.9 475.157 554.4 475.68 555.9C476.725 558.9 477.562 562 478.294 565.1C478.712 566.8 480.49 567.9 482.267 567.5C484.045 567 485.09 565.3 484.777 563.6Z" fill="white" stroke="white"/>
<path d="M466.164 527C463.445 524.6 460.203 522.5 456.753 521C453.302 519.5 449.643 518.5 445.878 518.1C443.892 517.9 442.114 519.2 441.905 521.1C441.696 523 443.055 524.7 445.042 524.9C448.074 525.3 451.106 526 453.93 527.2C456.753 528.4 459.262 530 461.563 532C463.027 533.3 465.222 533.2 466.582 531.8C467.627 530.4 467.627 528.3 466.164 527Z" fill="white" stroke="white"/>
<path d="M423.816 521C422.143 521.8 420.365 522.5 418.797 523.4C417.228 524.3 415.66 525.3 414.196 526.4C411.268 528.6 408.654 531.1 406.249 533.8C404.995 535.3 405.204 537.5 406.772 538.7C408.341 539.9 410.641 539.7 411.896 538.2C413.882 535.9 416.183 533.8 418.692 531.9C419.947 531 421.202 530.1 422.561 529.4C423.92 528.6 425.28 528.1 426.744 527.4L427.162 527.2C428.939 526.3 429.671 524.2 428.73 522.5C427.789 520.8 425.593 520.2 423.816 521Z" fill="white" stroke="white"/>
<path d="M395.897 552.1C395.374 553.8 394.852 555.4 394.433 557.2C394.015 558.9 393.701 560.7 393.597 562.5C393.283 566.1 393.388 569.8 394.433 573.5C394.956 575.3 396.943 576.4 398.825 575.9C400.707 575.4 401.857 573.6 401.334 571.8C400.602 569.1 400.393 566.2 400.707 563.3C400.812 561.8 401.125 560.3 401.439 558.899C401.753 557.399 402.275 555.9 402.694 554.5L402.798 554.3C403.321 552.5 402.275 550.599 400.393 549.999C398.511 549.199 396.42 550.3 395.897 552.1Z" fill="white" stroke="white"/>
<path d="M411.896 588.3C413.987 588.5 416.183 588.2 418.274 587.6C420.261 587 422.143 586.1 423.816 585C427.162 582.8 429.671 580 431.763 577.1C432.808 575.6 432.39 573.7 430.821 572.7C429.358 571.7 427.266 572.1 426.221 573.5C424.443 575.9 422.352 578.1 419.947 579.6C417.542 581.1 415.032 581.9 412.418 581.7C410.536 581.5 408.863 582.9 408.654 584.7C408.445 586.5 409.909 588.1 411.896 588.3C411.791 588.3 411.791 588.3 411.896 588.3Z" fill="white" stroke="white"/>
<path d="M439.605 557.8C441.174 551.1 441.801 544.3 441.592 537.6C441.592 536 440.128 534.8 438.559 534.8C436.991 534.8 435.632 536.1 435.632 537.7C435.632 544 435.004 550.3 433.436 556.5C433.018 558.1 434.063 559.8 435.841 560.1C437.514 560.5 439.187 559.5 439.605 557.8Z" fill="white" stroke="white"/>
<path d="M438.768 517.599C437.095 511.099 434.899 504.699 432.18 498.599C431.658 497.399 430.194 496.799 428.939 497.399C427.684 497.899 427.161 499.299 427.58 500.499C430.089 506.499 432.076 512.599 433.435 518.799C433.749 520.199 435.213 521.099 436.677 520.799C438.14 520.399 439.081 519.099 438.768 517.599Z" fill="white" stroke="white"/>
<path d="M422.247 481C418.483 475.4 414.405 470.1 409.909 465C409.282 464.3 408.131 464.2 407.399 464.8C406.668 465.4 406.563 466.4 407.086 467.2C411.268 472.3 415.137 477.7 418.588 483.2C419.215 484.2 420.47 484.5 421.515 483.9C422.561 483.3 422.875 482 422.247 481Z" fill="white" stroke="white"/>
<path d="M395.897 450.4C390.983 445.7 385.964 441.3 380.84 437C380.422 436.7 379.899 436.7 379.586 437.1C379.272 437.4 379.272 438 379.586 438.3C384.5 442.9 389.31 447.5 393.911 452.3C394.434 452.8 395.27 452.9 395.793 452.4C396.42 451.8 396.42 451 395.897 450.4Z" fill="white" stroke="white"/>
<path d="M365.156 424.3L357 418L364.738 424.8C364.842 424.9 365.051 424.9 365.156 424.8C365.261 424.6 365.261 424.4 365.156 424.3Z" fill="white" stroke="white"/>
<path d="M174.055 592.147C157.185 593.556 140.445 591.194 124.719 585.897C108.993 580.6 94.391 572.564 81.4083 562.483C68.3427 552.346 56.8406 540.249 46.6475 527.104C36.3715 513.904 27.5434 499.629 18.9948 484.94C24.8191 500.807 32.5599 516.158 42.2209 530.27C51.8261 544.466 63.4902 557.396 77.0803 568.007C90.7534 578.674 106.437 586.716 123.139 591.103C131.503 593.366 140.038 594.659 148.663 594.926C157.26 595.054 165.834 594.323 174.055 592.147Z" fill="white" stroke="white"/>
<path d="M175.71 578.066C163.877 576.118 152.636 572.398 142.263 567.212C131.889 562.027 122.356 555.237 113.966 547.288C105.576 539.34 98.2469 530.176 91.9469 520.38C85.7028 510.502 80.4613 499.851 75.8599 488.789C77.7389 500.669 81.5885 512.311 87.2176 523.101C92.8467 533.892 100.199 543.916 109.197 552.394C118.194 560.873 128.67 567.696 140.073 572.249C151.393 576.746 163.723 579.029 175.71 578.066Z" fill="white" stroke="white"/>
<path d="M174.588 601.552C160.259 604.916 145.716 606.809 131.238 606.816C116.76 606.823 102.43 605.001 88.4706 601.377C74.5669 597.671 61.1161 592.22 48.5058 585.164C35.9514 578.026 24.1816 569.366 13.3063 559.379C22.0359 571.296 33.1869 581.589 45.6797 589.892C58.1725 598.195 72.063 604.425 86.6318 608.218C101.201 612.011 116.392 613.45 131.375 612.336C146.414 611.139 161.16 607.694 174.588 601.552Z" fill="white" stroke="white"/>
<path d="M120.77 641.48C119.53 639.921 117.927 638.72 116.157 637.767C114.387 636.815 112.505 636.029 110.539 635.547C106.661 634.5 102.753 634.036 98.7599 633.876C90.8567 633.613 82.973 634.93 75.4171 637.193C67.9171 639.372 60.7449 642.496 53.9873 645.9C47.1738 649.387 40.5532 653.124 34.1235 657.472C41.6486 655.792 48.9828 653.501 56.1241 650.959C63.2925 648.556 70.3509 645.958 77.4345 643.86C84.518 641.762 91.6826 640.08 98.9533 639.313C102.561 638.972 106.334 638.742 109.966 638.9C113.682 639.113 117.312 639.632 120.77 641.48Z" fill="white" stroke="white"/>
<path d="M175.119 542.811C175.032 543.476 174.504 543.723 174.004 543.748C173.505 543.774 172.923 543.743 172.452 543.546C172.147 543.461 171.982 543.35 171.677 543.265L170.819 542.927L169.159 542.17C168.052 541.665 167.001 541.077 165.977 540.628L162.852 539.003C158.814 536.763 155.139 534.164 151.605 531.178C148.153 528.247 144.925 524.985 142.004 521.448C139.082 517.91 136.44 513.958 133.801 509.645C133.635 514.719 135.051 519.775 137.467 524.419C139.801 529.008 143.135 533.186 147.167 536.507C151.143 539.912 155.817 542.46 160.801 544.012C162.019 544.351 163.321 544.746 164.512 544.947C165.843 545.12 167.034 545.321 168.282 545.438L171.11 545.536C171.471 545.538 171.831 545.54 172.248 545.459C172.942 545.324 173.692 545.106 174.249 544.637C174.556 544.362 174.806 544.169 174.947 543.781C175.309 543.422 175.228 543.006 175.119 542.811Z" fill="white" stroke="white"/>
<path d="M37.7854 558.946C30.4299 560.016 32.1759 570.842 36.755 570.312C41.3342 569.781 42.7791 558.694 37.7854 558.946Z" fill="white" stroke="white"/>
<path d="M25.5458 551.478C19.7829 553.145 22.4502 561.577 26.0538 560.647C29.6574 559.718 29.514 550.725 25.5458 551.478Z" fill="white" stroke="white"/>
<path d="M11.8016 547.482C8.66104 549.406 11.6124 553.964 13.5946 552.828C15.5768 551.691 14.0285 546.39 11.8016 547.482Z" fill="white" stroke="white"/>
<path d="M0.866011 548.524C-0.402399 550.315 2.28418 552.119 3.10309 551.031C3.922 549.943 1.82958 547.403 0.866011 548.524Z" fill="white" stroke="white"/>
<path d="M92.7333 492.298C87.0404 490.406 84.4604 498.865 87.9562 500.141C91.452 501.417 96.4294 493.926 92.7333 492.298Z" fill="white" stroke="white"/>
<path d="M83.6731 481.217C79.9948 481.024 79.8439 486.452 82.1213 486.638C84.3986 486.825 86.1264 481.58 83.6731 481.217Z" fill="white" stroke="white"/>
<path d="M147.626 515.897C143.948 515.703 143.797 521.131 146.075 521.318C148.352 521.504 150.08 516.26 147.626 515.897Z" fill="white" stroke="white"/>
<path d="M74.0722 475.879C72.0119 476.637 73.2035 479.645 74.4948 479.213C75.786 478.78 75.5011 475.502 74.0722 475.879Z" fill="white" stroke="white"/>
<path d="M38.6844 646.417C36.6241 647.174 37.8157 650.183 39.1069 649.75C40.3982 649.318 40.1133 646.04 38.6844 646.417Z" fill="white" stroke="white"/>
<path d="M43.512 492.972C36.3269 491.069 33.6814 501.711 38.1011 503.021C42.5208 504.331 48.2032 494.702 43.512 492.972Z" fill="white" stroke="white"/>
<path d="M52.1465 505.892C43.4956 503.6 40.3105 516.413 45.6318 517.99C50.953 519.567 57.7946 507.975 52.1465 505.892Z" fill="white" stroke="white"/>
<path d="M35.1879 481.298C29.2334 480.568 28.3754 489.37 32.0545 489.931C35.7335 490.491 39.1329 482.165 35.1879 481.298Z" fill="white" stroke="white"/>
<path d="M24.1171 472.226C20.473 472.763 21.3974 478.114 23.6668 477.847C25.9361 477.58 26.5937 472.097 24.1171 472.226Z" fill="white" stroke="white"/>
<path d="M13.6507 468.89C11.7807 470.039 13.5432 472.753 14.7235 472.074C15.9039 471.395 14.9769 468.238 13.6507 468.89Z" fill="white" stroke="white"/>
<path d="M284.311 106.817C285.297 101.077 286.643 95.6954 288.436 90.4936C290.23 85.2917 292.562 80.359 295.342 75.6953C298.123 71.0315 301.351 66.6369 305.029 62.601C308.706 58.4754 312.831 54.7982 317.405 51.1211C311.665 52.3767 306.284 55.2467 301.71 59.0135C297.046 62.7804 293.1 67.3544 290.051 72.5562C287.001 77.6684 284.849 83.4083 283.773 89.2379C282.697 95.0676 282.696 101.166 284.311 106.817Z" fill="white" stroke="white"/>
<path d="M259.019 95.8747C258.212 92.3769 257.494 88.9688 256.956 85.5607C256.687 83.8566 256.508 82.1526 256.328 80.4485L255.88 75.2467C255.521 71.7489 255.162 68.2511 254.893 64.9327C254.803 63.2287 254.714 61.6143 254.714 59.9103C254.714 59.1031 254.714 58.2959 254.803 57.399C254.803 56.5022 254.893 55.695 254.893 54.8878C255.252 48.0716 256.149 41.3451 257.763 34.7083C259.288 28.0715 261.62 21.5244 264.131 14.7979C259.377 20.1791 255.611 26.4571 253.01 33.1836C250.409 39.9998 248.974 47.2645 248.615 54.4394C248.525 55.3363 248.525 56.2331 248.525 57.13C248.525 58.0269 248.436 58.9237 248.525 59.9103C248.615 61.7937 248.705 63.6771 248.974 65.4709C249.512 69.0583 250.229 72.5561 251.037 75.9642L251.664 78.5651C251.844 79.462 252.113 80.3588 252.292 81.166C252.741 82.9598 253.368 84.6638 253.996 86.2782C254.624 87.9822 255.342 89.5966 256.238 91.211C257.046 92.915 257.943 94.4397 259.019 95.8747Z" fill="white" stroke="white"/>
<path d="M221.081 103.05C220.812 93.6326 219.736 84.3949 217.942 75.1571C216.148 65.9194 213.547 56.861 209.96 48.0717C206.462 39.2824 201.978 30.8519 196.417 23.1388C190.857 15.4258 184.22 8.51988 176.507 3.13867C182.426 10.4033 187.718 17.937 192.292 25.8294C196.866 33.7218 200.812 41.973 204.22 50.4036C207.628 58.8341 210.498 67.5338 213.189 76.3231C215.79 85.1124 218.211 94.081 221.081 103.05Z" fill="white" stroke="white"/>
<path d="M193.1 115.516C190.14 109.776 185.925 104.664 181.082 100.269C176.238 95.8744 170.768 92.1076 164.938 89.2376C159.019 86.2779 152.741 84.2151 146.373 83.0492C145.566 82.8698 144.758 82.7802 143.951 82.6905L141.53 82.4214C139.915 82.242 138.301 82.242 136.687 82.1523C135.072 82.1523 133.458 82.1523 131.844 82.3317C130.229 82.5111 128.615 82.6905 127 82.8698C128.525 83.3183 130.14 83.677 131.664 84.0358C133.189 84.4842 134.714 84.8429 136.238 85.2017L140.723 86.4573C142.247 86.9954 143.682 87.3542 145.117 87.8923C150.947 89.8654 156.687 92.1973 162.158 94.8879C167.629 97.5785 172.92 100.717 178.032 104.126C183.234 107.534 188.167 111.39 193.1 115.516Z" fill="white" stroke="white"/>
<path d="M176.328 54.2596C176.687 53.0937 176.328 51.8381 175.79 50.7618C175.252 49.6856 174.445 48.7887 173.548 47.8918C171.754 46.1878 169.691 44.7528 167.36 43.5869C165.028 42.5106 162.427 41.6138 159.557 41.7035C158.122 41.7035 156.597 41.8828 155.072 42.6003C154.714 42.7797 154.265 43.0488 153.907 43.2281C153.548 43.4972 153.099 43.7663 152.741 44.125C152.023 44.8425 151.395 45.829 151.037 46.9053C150.768 47.9815 150.768 49.2371 150.947 50.2237C151.037 50.7618 151.216 51.2103 151.395 51.6587C151.575 52.0174 151.844 52.4659 152.023 52.8246C153.01 54.2596 154.176 55.2462 155.342 55.9637C157.763 57.4883 160.364 58.2058 162.965 58.4749C165.566 58.7439 168.077 58.6542 170.499 58.1161C171.665 57.8471 172.92 57.4883 173.907 56.8605C175.073 56.3224 175.97 55.4255 176.328 54.2596ZM176.328 54.2596C175.97 55.4255 174.983 56.2327 173.907 56.6811C172.83 57.1296 171.665 57.309 170.499 57.309C168.167 57.309 165.925 56.5018 163.951 55.5152C161.978 54.439 160.185 53.1834 158.839 51.7484C158.212 51.0309 157.673 50.3134 157.315 49.6856C157.225 49.5062 157.225 49.4165 157.135 49.2371C157.135 49.1475 157.046 48.9681 157.046 48.9681C157.046 48.7887 157.046 48.7887 157.046 48.699C157.046 48.699 157.046 48.6093 157.135 48.5196C157.135 48.43 157.315 48.3403 157.315 48.2506C157.404 48.1609 157.494 48.0712 157.673 47.9815C158.212 47.6228 159.108 47.264 160.005 47.0847C161.889 46.6362 164.131 46.4569 166.373 46.6362C168.615 46.8156 170.947 47.3537 172.92 48.6093C173.907 49.2371 174.804 49.9546 175.521 50.9412C176.239 51.8381 176.597 53.0937 176.328 54.2596Z" fill="white" stroke="white"/>
<path d="M226.552 26.3679C227.718 26.4576 228.884 25.8298 229.781 25.0226C230.678 24.2154 231.485 23.2289 232.113 22.1526C233.369 20.0898 234.355 17.6683 234.983 15.1571C235.521 12.6458 235.79 9.95523 235.162 7.17494C234.803 5.73995 234.265 4.39465 233.279 2.95966C233.01 2.60091 232.741 2.24217 232.382 1.97311C232.023 1.61436 231.664 1.3453 231.216 1.07624C230.319 0.538118 229.243 0.179373 228.077 0C226.911 0 225.745 0.179371 224.848 0.627804C224.4 0.807178 223.951 1.07624 223.593 1.43499C223.234 1.70405 222.875 2.06279 222.606 2.33185C221.44 3.58747 220.723 4.93277 220.274 6.27807C219.288 8.96867 219.198 11.6593 219.467 14.2602C219.736 16.8611 220.454 19.2826 221.44 21.5248C221.978 22.6011 222.606 23.6773 223.413 24.5742C224.31 25.5607 225.386 26.2782 226.552 26.3679ZM226.552 26.3679C225.386 26.2782 224.31 25.5607 223.593 24.5742C222.875 23.5876 222.516 22.5114 222.247 21.3454C221.799 19.1033 222.068 16.6817 222.606 14.5292C223.144 12.3768 224.041 10.314 225.117 8.69961C225.655 7.89243 226.283 7.17494 226.732 6.81619C226.821 6.63682 227.001 6.63681 227.09 6.54713C227.18 6.54713 227.27 6.45744 227.359 6.45744C227.539 6.36776 227.539 6.45744 227.629 6.36776C227.629 6.36776 227.718 6.36776 227.898 6.45744C227.987 6.45744 228.077 6.54713 228.167 6.63682C228.256 6.72651 228.436 6.81619 228.525 6.90588C228.974 7.35431 229.512 8.16149 229.96 8.96867C230.857 10.6727 231.485 12.8252 231.844 15.0674C232.113 17.3095 232.113 19.6414 231.395 21.8836C231.037 22.9598 230.499 24.036 229.691 24.9329C228.974 25.8298 227.808 26.3679 226.552 26.3679Z" fill="white" stroke="white"/>
</svg>
