<svg viewBox="0 0 167 51" fill="none" xmlns="http://www.w3.org/2000/svg">
<rect width="167" height="51" rx="12" fill="#012B23"/>
<path d="M40.4445 25.2423C40.4445 23.3023 41.4716 21.4764 43.1833 20.4493C42.1563 18.9658 40.4445 18.0529 38.6186 17.9387C36.6786 17.7105 34.8527 19.0799 33.8257 19.0799C32.7986 19.0799 31.3151 17.9387 29.7174 17.9387C27.5492 18.0529 25.6092 19.194 24.5821 21.0199C22.4139 24.7858 24.0115 30.4917 26.1798 33.5729C27.2068 35.0564 28.4621 36.7682 30.0598 36.7682C31.6574 36.6541 32.228 35.7412 34.168 35.7412C36.108 35.7412 36.5645 36.7682 38.2763 36.7682C39.988 36.7682 41.0151 35.2847 42.0422 33.687C42.841 32.66 43.4116 31.4047 43.7539 30.1494C41.6998 29.4647 40.4445 27.4105 40.4445 25.2423Z" fill="white"/>
<path d="M37.2491 15.999C38.162 14.8578 38.6185 13.4884 38.5044 12.0049C37.135 12.119 35.7656 12.8037 34.8526 13.9449C33.9397 14.972 33.4832 16.3414 33.5973 17.8249C35.0808 17.8249 36.3361 17.1402 37.2491 15.999Z" fill="white"/>
<path d="M60.4149 33.004H55.0513L53.796 36.884H51.5137L56.649 22.7334H58.9313L64.0667 36.884H61.7843L60.4149 33.004ZM55.6219 31.2922H59.9584L57.7902 25.0158H57.676L55.6219 31.2922Z" fill="white"/>
<path d="M75.1356 31.7479C75.1356 34.9432 73.4238 36.9973 70.7991 36.9973C69.4297 37.1114 68.1744 36.3126 67.6038 35.1714V40.3067H65.4355V26.6126H67.4897V28.3243C68.1744 27.1831 69.4297 26.4984 70.7991 26.4984C73.3097 26.3843 75.1356 28.5526 75.1356 31.7479ZM72.8532 31.7479C72.8532 29.6937 71.8262 28.3243 70.1144 28.3243C68.5167 28.3243 67.3756 29.6937 67.3756 31.7479C67.3756 33.802 68.5167 35.1714 70.1144 35.1714C71.8262 35.1714 72.8532 33.802 72.8532 31.7479Z" fill="white"/>
<path d="M86.4344 31.7479C86.4344 34.9432 84.7226 36.9973 82.0979 36.9973C80.7285 37.1114 79.4732 36.3126 78.9026 35.1714V40.3067H76.7344V26.6126H78.7885V28.3243C79.4732 27.1831 80.7285 26.4984 82.0979 26.4984C84.7226 26.3843 86.4344 28.5526 86.4344 31.7479ZM84.2662 31.7479C84.2662 29.6937 83.2391 28.3243 81.5273 28.3243C79.9297 28.3243 78.7885 29.6937 78.7885 31.7479C78.7885 33.802 79.9297 35.1714 81.5273 35.1714C83.2391 35.1714 84.2662 33.802 84.2662 31.7479Z" fill="white"/>
<path d="M93.9654 32.8896C94.0795 34.259 95.4489 35.172 97.3889 35.172C99.2148 35.172 100.47 34.259 100.47 33.0037C100.47 31.8626 99.6713 31.292 97.8454 30.8355L96.0195 30.379C93.3948 29.6943 92.2536 28.5531 92.2536 26.6131C92.2536 24.2167 94.4219 22.5049 97.3889 22.5049C100.356 22.5049 102.41 24.2167 102.524 26.6131H100.356C100.242 25.2437 99.1007 24.3308 97.3889 24.3308C95.6772 24.3308 94.536 25.2437 94.536 26.499C94.536 27.5261 95.3348 28.0967 97.1607 28.5531L98.7584 28.8955C101.611 29.5802 102.867 30.7214 102.867 32.7755C102.867 35.4002 100.698 37.112 97.3889 37.112C94.1936 37.112 92.1395 35.5143 92.0254 32.8896H93.9654Z" fill="white"/>
<path d="M107.204 24.1025V26.499H109.144V28.2108H107.204V33.9167C107.204 34.8296 107.546 35.172 108.459 35.172C108.687 35.172 108.915 35.172 109.144 35.172V36.8838C108.801 36.9979 108.345 36.9979 108.003 36.9979C105.948 36.9979 105.15 36.199 105.15 34.259V28.3249H103.666V26.6131H105.15V24.2167H107.204V24.1025Z" fill="white"/>
<path d="M110.398 31.7485C110.398 28.5531 112.338 26.499 115.306 26.499C118.273 26.499 120.213 28.5531 120.213 31.7485C120.213 35.0579 118.273 36.9979 115.306 36.9979C112.224 36.9979 110.398 34.9438 110.398 31.7485ZM118.044 31.7485C118.044 29.4661 117.017 28.2108 115.306 28.2108C113.594 28.2108 112.567 29.4661 112.567 31.7485C112.567 34.0308 113.594 35.2861 115.306 35.2861C117.017 35.2861 118.044 33.9167 118.044 31.7485Z" fill="white"/>
<path d="M121.924 26.4981H123.978V28.324C124.206 27.1829 125.347 26.384 126.489 26.4981C126.717 26.4981 126.945 26.4981 127.173 26.6123V28.5523C126.831 28.4382 126.489 28.4382 126.26 28.4382C125.119 28.4382 124.092 29.3511 124.092 30.4923C124.092 30.6064 124.092 30.7205 124.092 30.8346V36.997H121.924V26.4981Z" fill="white"/>
<path d="M136.989 33.8024C136.646 35.6283 134.82 36.9977 132.538 36.9977C129.571 36.9977 127.631 34.9436 127.631 31.7483C127.631 28.553 129.457 26.3848 132.424 26.3848C135.277 26.3848 137.103 28.3248 137.103 31.5201V32.2048H129.799V32.3189C129.685 33.8024 130.712 35.0577 132.196 35.286C132.31 35.286 132.424 35.286 132.538 35.286C133.565 35.4001 134.592 34.8295 134.934 33.8024H136.989ZM129.799 30.7213H134.934C135.049 29.3518 133.907 28.2107 132.538 28.0965C132.424 28.0965 132.424 28.0965 132.31 28.0965C130.94 28.0965 129.799 29.2377 129.799 30.7213Z" fill="white"/>
<path d="M54.0254 14.9707H54.9383C55.5089 15.0848 56.0795 14.6283 56.1936 13.9436V13.8295C56.1936 13.1448 55.7372 12.8025 54.9383 12.8025C54.2536 12.6883 53.683 13.1448 53.5689 13.8295H52.5419C52.656 12.6883 53.5689 11.7754 54.8242 11.7754H54.9383C56.3077 11.7754 57.2207 12.5742 57.2207 13.6013C57.2207 14.4001 56.7642 14.9707 55.9654 15.1989V15.313C56.8783 15.313 57.563 16.1119 57.4489 16.9107C57.3348 18.166 56.1936 19.0789 54.9383 18.9648C53.683 19.0789 52.5419 18.2801 52.4277 17.0248C52.4277 17.0248 52.4277 17.0248 52.4277 16.9107H53.4548C53.5689 17.5954 54.1395 17.9378 55.0524 17.9378C55.9654 17.9378 56.536 17.4813 56.536 16.7966C56.536 16.1119 55.9654 15.6554 55.0524 15.6554H54.1395V14.9707H54.0254Z" fill="white"/>
<path d="M58.704 17.3665C58.704 16.4535 59.3887 15.8829 60.644 15.8829L62.0134 15.7688V15.3124C62.0134 14.7418 61.671 14.5135 60.9863 14.5135C60.4157 14.5135 60.0734 14.7418 59.9593 15.0841H58.9322C59.0463 14.1712 59.8451 13.6006 60.9863 13.6006C62.2416 13.6006 63.0404 14.2853 63.0404 15.3124V18.85H62.0134V18.1653H61.8993C61.5569 18.7359 60.9863 18.9641 60.3016 18.9641C59.5028 19.0783 58.704 18.3935 58.5898 17.5947C58.704 17.4806 58.704 17.4806 58.704 17.3665ZM62.0134 16.91V16.4535L60.7581 16.5677C60.0734 16.5677 59.731 16.91 59.731 17.2524C59.731 17.7088 60.1875 17.9371 60.644 17.9371C61.3287 18.1653 62.0134 17.7088 62.0134 16.91C62.0134 17.0241 62.0134 17.0241 62.0134 16.91Z" fill="white"/>
<path d="M65.779 14.5137V18.8502H64.752V13.7148H68.1755V14.5137H65.779Z" fill="white"/>
<path d="M74.2235 16.2252C74.2235 17.8228 73.4247 18.8499 72.0552 18.8499C71.3705 18.8499 70.7999 18.5075 70.4576 17.9369H70.3435V20.4475H69.3164V13.6004H70.3435V14.3993H70.4576C70.7999 13.8287 71.3705 13.4863 72.0552 13.4863C73.4247 13.6004 74.2235 14.6275 74.2235 16.2252ZM73.1964 16.2252C73.1964 15.084 72.6258 14.5134 71.827 14.5134C71.0282 14.5134 70.4576 15.1981 70.4576 16.2252C70.4576 17.2522 71.0282 17.9369 71.827 17.9369C72.7399 18.051 73.1964 17.3663 73.1964 16.2252Z" fill="white"/>
<path d="M75.5932 20.676V19.7631C75.7073 19.7631 75.8214 19.7631 75.9355 19.7631C76.392 19.7631 76.7344 19.5349 76.8485 19.0784L76.9626 18.8502L75.1367 13.7148H76.2779L77.5332 17.8231H77.6473L78.9026 13.7148H79.9297L77.9897 19.0784C77.5332 20.3337 77.0767 20.676 76.0497 20.676C75.9355 20.676 75.7073 20.676 75.5932 20.676Z" fill="white"/>
<path d="M80.7285 17.3662H81.7556C81.8697 17.8227 82.3262 18.0509 82.8968 18.0509C83.5815 18.0509 84.0379 17.7086 84.0379 17.2521C84.0379 16.7956 83.6956 16.5674 82.8968 16.5674H82.0979V15.7686H82.8968C83.4673 15.7686 83.8097 15.5403 83.8097 15.0839C83.8097 14.7415 83.4673 14.3992 82.8968 14.3992C82.3262 14.3992 81.8697 14.6274 81.8697 15.0839H80.8426C80.9568 14.1709 81.8697 13.4862 82.8968 13.6003C84.1521 13.6003 84.8368 14.1709 84.8368 14.9697C84.8368 15.4262 84.4944 15.8827 84.0379 15.9968V16.1109C84.6085 16.225 85.065 16.6815 85.065 17.2521C85.065 18.2792 84.2662 18.8498 83.0109 18.8498C81.7556 18.9639 80.8426 18.3933 80.7285 17.3662Z" fill="white"/>
<path d="M86.4355 18.8502V13.7148H87.4626V17.2525L89.8591 13.7148H90.8862V18.8502H89.8591V15.3125H89.745L87.3485 18.8502H86.4355Z" fill="white"/>
<path d="M96.363 14.5137H94.7653V18.8502H93.7383V14.5137H92.1406V13.7148H96.363V14.5137Z" fill="white"/>
<path d="M101.841 17.4807C101.613 18.3937 100.585 19.0784 99.5584 18.9643C98.3031 18.9643 97.1619 17.9372 97.1619 16.6819C97.1619 16.5678 97.1619 16.4537 97.1619 16.3396C96.9337 15.0843 97.8466 13.829 99.216 13.7148C99.3302 13.7148 99.4443 13.7148 99.5584 13.7148C101.042 13.7148 101.841 14.7419 101.841 16.3396V16.6819H98.189C98.0749 17.4807 98.6454 18.0513 99.4443 18.1654H99.5584C100.015 18.2796 100.585 17.9372 100.814 17.5949L101.841 17.4807ZM98.3031 15.769H100.928C100.928 15.0843 100.471 14.5137 99.7866 14.3996H99.6725C98.8737 14.5137 98.3031 15.0843 98.3031 15.769Z" fill="white"/>
<path d="M106.177 13.7148H108.459C109.486 13.7148 110.057 14.1713 110.057 14.9701C110.057 15.5407 109.714 15.9972 109.144 16.1113V16.2254C109.714 16.2254 110.285 16.796 110.285 17.3666C110.285 18.2796 109.6 18.8502 108.459 18.8502H106.062V13.7148H106.177ZM107.204 14.5137V15.769H108.231C108.801 15.769 109.144 15.5407 109.144 15.0843C109.144 14.6278 108.915 14.3996 108.345 14.3996L107.204 14.5137ZM107.204 16.5678V18.0513H108.459C109.03 18.0513 109.372 17.8231 109.372 17.2525C109.372 16.6819 109.03 16.4537 108.345 16.4537L107.204 16.5678Z" fill="white"/>
</svg>
