<svg viewBox="0 0 165 38" fill="none" xmlns="http://www.w3.org/2000/svg">
<rect width="165" height="38" rx="10" fill="#012B23"/>
<path d="M83.4589 20.7561C81.6515 20.7561 80.2206 22.1052 80.2206 23.979C80.2206 25.7778 81.6515 27.2018 83.4589 27.2018C85.2664 27.2018 86.6973 25.8527 86.6973 23.979C86.6973 22.0302 85.2664 20.7561 83.4589 20.7561ZM83.4589 25.8527C82.4799 25.8527 81.6515 25.0283 81.6515 23.904C81.6515 22.7797 82.4799 21.9553 83.4589 21.9553C84.438 21.9553 85.2664 22.7048 85.2664 23.904C85.2664 25.0283 84.438 25.8527 83.4589 25.8527ZM76.455 20.7561C74.6476 20.7561 73.2167 22.1052 73.2167 23.979C73.2167 25.7778 74.6476 27.2018 76.455 27.2018C78.2625 27.2018 79.6934 25.8527 79.6934 23.979C79.6934 22.0302 78.2625 20.7561 76.455 20.7561ZM76.455 25.8527C75.476 25.8527 74.6476 25.0283 74.6476 23.904C74.6476 22.7797 75.476 21.9553 76.455 21.9553C77.4341 21.9553 78.2625 22.7048 78.2625 23.904C78.2625 25.0283 77.4341 25.8527 76.455 25.8527ZM68.0955 21.7304V23.0796H71.3339C71.2586 23.8291 70.9573 24.4287 70.5808 24.8034C70.1289 25.2531 69.3758 25.7778 68.0955 25.7778C66.0621 25.7778 64.5559 24.2038 64.5559 22.1801C64.5559 20.1565 66.1374 18.5825 68.0955 18.5825C69.1499 18.5825 69.9783 19.0322 70.5808 19.5569L71.5598 18.5825C70.7314 17.833 69.677 17.2334 68.1708 17.2334C65.4596 17.2334 63.125 19.4819 63.125 22.1801C63.125 24.8784 65.4596 27.1269 68.1708 27.1269C69.677 27.1269 70.7314 26.6772 71.6351 25.7028C72.5389 24.8034 72.8401 23.5293 72.8401 22.5549C72.8401 22.2551 72.8401 21.9553 72.7648 21.7304H68.0955ZM102.287 22.7797C101.985 22.0302 101.232 20.7561 99.5755 20.7561C97.9186 20.7561 96.563 22.0302 96.563 23.979C96.563 25.7778 97.9186 27.2018 99.7261 27.2018C101.157 27.2018 102.061 26.3024 102.362 25.7778L101.308 25.0283C100.931 25.5529 100.479 25.9277 99.7261 25.9277C98.973 25.9277 98.5211 25.6279 98.1446 24.9533L102.437 23.1545L102.287 22.7797ZM97.9186 23.8291C97.9186 22.6298 98.8977 21.9553 99.5755 21.9553C100.103 21.9553 100.63 22.2551 100.78 22.6298L97.9186 23.8291ZM94.379 26.902H95.8099V17.5332H94.379V26.902ZM92.1197 21.4306C91.7431 21.0559 91.1407 20.6811 90.3876 20.6811C88.806 20.6811 87.2998 22.1052 87.2998 23.904C87.2998 25.7028 88.7307 27.0519 90.3876 27.0519C91.1407 27.0519 91.7431 26.6772 92.0444 26.3024H92.1197V26.7521C92.1197 27.9513 91.4419 28.6259 90.3876 28.6259C89.5591 28.6259 88.9566 28.0263 88.806 27.5016L87.601 28.0263C87.9776 28.8508 88.8813 29.9001 90.4629 29.9001C92.1197 29.9001 93.4753 28.9257 93.4753 26.6022V20.906H92.1197V21.4306ZM90.4629 25.8527C89.4838 25.8527 88.6554 25.0283 88.6554 23.904C88.6554 22.7797 89.4838 21.9553 90.4629 21.9553C91.4419 21.9553 92.195 22.7797 92.195 23.904C92.195 25.0283 91.4419 25.8527 90.4629 25.8527ZM108.839 17.5332H105.45V26.902H106.881V23.3794H108.839C110.42 23.3794 111.926 22.2551 111.926 20.4563C111.926 18.6575 110.42 17.5332 108.839 17.5332ZM108.914 22.0302H106.881V18.8074H108.914C109.968 18.8074 110.571 19.7068 110.571 20.3813C110.496 21.2058 109.893 22.0302 108.914 22.0302ZM117.575 20.6811C116.52 20.6811 115.466 21.1308 115.09 22.1052L116.37 22.6298C116.671 22.1052 117.123 21.9553 117.65 21.9553C118.403 21.9553 119.081 22.405 119.156 23.1545V23.2295C118.93 23.0796 118.328 22.8547 117.725 22.8547C116.37 22.8547 115.014 23.6042 115.014 24.9533C115.014 26.2275 116.144 27.0519 117.349 27.0519C118.328 27.0519 118.78 26.6022 119.156 26.1525H119.232V26.902H120.587V23.3044C120.437 21.6555 119.156 20.6811 117.575 20.6811ZM117.424 25.8527C116.972 25.8527 116.294 25.6279 116.294 25.0283C116.294 24.2788 117.123 24.0539 117.801 24.0539C118.403 24.0539 118.704 24.2038 119.081 24.3537C118.93 25.2531 118.177 25.8527 117.424 25.8527ZM125.332 20.906L123.75 24.9533H123.675L122.018 20.906H120.512L122.997 26.6022L121.566 29.7502H122.997L126.838 20.906H125.332ZM112.68 26.902H114.11V17.5332H112.68V26.902Z" fill="white"/>
<path d="M39.3793 9.4668C39.1517 9.69982 39 10.0882 39 10.5542V27.7203C39 28.1864 39.1517 28.5747 39.3793 28.8078L39.4552 28.8854L48.8624 19.2538V19.1761V19.0984L39.3793 9.4668Z" fill="url(#paint0_linear)"/>
<path d="M51.9737 22.5154L48.8633 19.3308V19.1754V19.0977L51.9737 15.9131L52.0496 15.9908L55.7669 18.1656C56.829 18.787 56.829 19.7968 55.7669 20.4182L51.9737 22.5154Z" fill="url(#paint1_linear)"/>
<path d="M52.0482 22.4381L48.8619 19.1758L39.3789 28.8851C39.7582 29.2735 40.2893 29.2735 40.9721 28.9628L52.0482 22.4381Z" fill="url(#paint2_linear)"/>
<path d="M52.0482 15.9133L40.9721 9.46627C40.2893 9.0779 39.7582 9.15558 39.3789 9.54395L48.8619 19.1756L52.0482 15.9133Z" fill="url(#paint3_linear)"/>
<path opacity="0.2" d="M51.9724 22.3594L40.9721 28.7287C40.3651 29.1171 39.8341 29.0394 39.4548 28.7287L39.3789 28.8064L39.4548 28.884C39.8341 29.1947 40.3651 29.2724 40.9721 28.884L51.9724 22.3594Z" fill="black"/>
<path opacity="0.12" d="M39.3796 28.7281C39.152 28.495 39.0762 28.1067 39.0762 27.6406V27.7183C39.0762 28.1843 39.2279 28.5727 39.4555 28.8057V28.7281H39.3796Z" fill="black"/>
<path opacity="0.12" d="M55.7659 20.1855L51.9727 22.3604L52.0485 22.4381L55.7659 20.2632C56.2969 19.9525 56.5245 19.5642 56.5245 19.1758C56.5245 19.5642 56.2211 19.8749 55.7659 20.1855Z" fill="black"/>
<path opacity="0.25" d="M40.9728 9.54387L55.7663 18.1657C56.2215 18.4764 56.525 18.7871 56.525 19.1755C56.525 18.7871 56.2974 18.3988 55.7663 18.0881L40.9728 9.4662C39.9107 8.8448 39.0762 9.38852 39.0762 10.6313V10.709C39.0762 9.4662 39.9107 8.92248 40.9728 9.54387Z" fill="white"/>
<path d="M63.4295 14.7484H62.8984V13.1949H63.3536C63.7329 12.8842 63.9605 12.2628 63.9605 11.4084V9.07812H66.9951V13.1949H67.5262V14.7484H66.9951V13.7386H63.5054V14.7484H63.4295ZM64.4916 11.4084C64.4916 12.1074 64.3399 12.7288 64.0364 13.1949H66.3123V9.69952H64.4157V11.4084H64.4916Z" fill="white" stroke="white" stroke-width="0.2" stroke-miterlimit="10"/>
<path d="M72.0013 13.1168C71.5461 13.5828 71.015 13.8158 70.3323 13.8158C69.6495 13.8158 69.1184 13.5828 68.6632 13.1168C68.2081 12.6507 67.9805 12.107 67.9805 11.4079C67.9805 10.7088 68.2081 10.1651 68.6632 9.69907C69.1184 9.23302 69.6495 9 70.3323 9C71.015 9 71.5461 9.23302 72.0013 9.69907C72.4565 10.1651 72.6841 10.7088 72.6841 11.4079C72.6841 12.107 72.4565 12.6507 72.0013 13.1168ZM69.1184 12.7284C69.4219 13.0391 69.8771 13.2721 70.3323 13.2721C70.7874 13.2721 71.2426 13.1168 71.5461 12.7284C71.8495 12.4177 72.0771 11.9516 72.0771 11.4079C72.0771 10.8642 71.9254 10.3981 71.5461 10.0874C71.2426 9.77675 70.7874 9.54372 70.3323 9.54372C69.8771 9.54372 69.4219 9.69907 69.1184 10.0874C68.815 10.3981 68.5874 10.8642 68.5874 11.4079C68.5874 11.9516 68.7391 12.4177 69.1184 12.7284Z" fill="white" stroke="white" stroke-width="0.2" stroke-miterlimit="10"/>
<path d="M75.6428 13.8158C74.96 13.8158 74.429 13.5828 73.9738 13.1168C73.5186 12.6507 73.291 12.107 73.291 11.4079C73.291 10.7088 73.5186 10.1651 73.9738 9.69907C74.429 9.23302 74.96 9 75.6428 9C76.3256 9 76.8566 9.23302 77.3118 9.77675L76.9325 10.1651C76.629 9.77675 76.1739 9.54372 75.6428 9.54372C75.1118 9.54372 74.7324 9.69907 74.3531 10.0874C73.9738 10.3981 73.8221 10.8642 73.8221 11.4079C73.8221 11.9516 73.9738 12.4177 74.3531 12.7284C74.6566 13.0391 75.1118 13.2721 75.6428 13.2721C76.1739 13.2721 76.629 13.0391 77.0084 12.573L77.3877 12.9614C77.1601 13.1944 76.9325 13.4274 76.629 13.5828C76.3256 13.7381 76.0221 13.8158 75.6428 13.8158Z" fill="white" stroke="white" stroke-width="0.2" stroke-miterlimit="10"/>
<path d="M79.8165 13.7386H79.2096V9.62185H77.9199V9.07812H81.0304V9.62185H79.7407V13.7386H79.8165Z" fill="white" stroke="white" stroke-width="0.2" stroke-miterlimit="10"/>
<path d="M85.0516 9.07812L83.3068 13.0395C83.0792 13.5832 82.6998 13.8939 82.2447 13.8939C82.0929 13.8939 81.9412 13.8939 81.7895 13.8163L81.9412 13.2725C82.0171 13.3502 82.1688 13.3502 82.2447 13.3502C82.3964 13.3502 82.4723 13.3502 82.5481 13.2725C82.624 13.1949 82.6998 13.1172 82.7757 12.9619L82.9274 12.5735L81.4102 9.1558H82.0929L83.2309 11.7967L84.293 9.1558H85.0516V9.07812Z" fill="white" stroke="white" stroke-width="0.2" stroke-miterlimit="10"/>
<path d="M85.7344 13.7386V9.07812H88.9965V13.7386H88.3896V9.62185H86.2654V13.7386H85.7344Z" fill="white" stroke="white" stroke-width="0.2" stroke-miterlimit="10"/>
<path d="M90.0566 13.7386V9.07812H90.6636V11.0977H92.9395V9.07812H93.5464V13.7386H92.9395V11.6414H90.6636V13.7386H90.0566Z" fill="white" stroke="white" stroke-width="0.2" stroke-miterlimit="10"/>
<path d="M98.3274 13.1168C97.8723 13.5828 97.3412 13.8158 96.6584 13.8158C95.9757 13.8158 95.4446 13.5828 94.9894 13.1168C94.5342 12.6507 94.3066 12.107 94.3066 11.4079C94.3066 10.7088 94.5342 10.1651 94.9894 9.69907C95.4446 9.23302 95.9757 9 96.6584 9C97.3412 9 97.8723 9.23302 98.3274 9.69907C98.7826 10.1651 99.0102 10.7088 99.0102 11.4079C98.9344 12.107 98.7068 12.6507 98.3274 13.1168ZM95.3687 12.7284C95.6722 13.0391 96.1274 13.2721 96.5826 13.2721C97.0378 13.2721 97.4929 13.1168 97.7964 12.7284C98.0999 12.4177 98.3274 11.9516 98.3274 11.4079C98.3274 10.8642 98.1757 10.3981 97.7964 10.0874C97.4929 9.77675 97.0378 9.54372 96.5826 9.54372C96.1274 9.54372 95.6722 9.69907 95.3687 10.0874C95.0653 10.3981 94.8377 10.8642 94.8377 11.4079C94.8377 11.9516 95.0653 12.4177 95.3687 12.7284Z" fill="white" stroke="white" stroke-width="0.2" stroke-miterlimit="10"/>
<path d="M101.361 13.7386V9.07812H103.03C103.41 9.07812 103.713 9.23347 103.941 9.4665C104.168 9.69952 104.32 10.0102 104.32 10.3986C104.32 10.6316 104.244 10.787 104.168 11.02C104.092 11.1753 103.941 11.3307 103.713 11.4084C103.941 11.486 104.092 11.6414 104.244 11.7967C104.396 11.9521 104.472 12.1851 104.472 12.4958C104.472 12.8842 104.32 13.1949 104.092 13.4279C103.789 13.6609 103.486 13.8163 103.106 13.8163H101.361V13.7386ZM101.968 11.0977H103.03C103.258 11.0977 103.41 11.02 103.561 10.8646C103.713 10.7093 103.789 10.5539 103.789 10.3986C103.789 10.2432 103.713 10.0879 103.561 9.93255C103.41 9.7772 103.258 9.69952 103.03 9.69952H101.968V11.0977ZM101.968 13.1949H103.182C103.41 13.1949 103.561 13.1172 103.713 12.9619C103.865 12.8065 103.941 12.6512 103.941 12.4181C103.941 12.2628 103.865 12.0298 103.713 11.8744C103.561 11.7191 103.41 11.6414 103.182 11.6414H102.044V13.1949H101.968Z" fill="white" stroke="white" stroke-width="0.2" stroke-miterlimit="10"/>
<defs>
<linearGradient id="paint0_linear" x1="48.0276" y1="10.4064" x2="34.9956" y2="23.1347" gradientUnits="userSpaceOnUse">
<stop stop-color="#00A0FF"/>
<stop offset="0.00657445" stop-color="#00A1FF"/>
<stop offset="0.2601" stop-color="#00BEFF"/>
<stop offset="0.5122" stop-color="#00D2FF"/>
<stop offset="0.7604" stop-color="#00DFFF"/>
<stop offset="1" stop-color="#00E3FF"/>
</linearGradient>
<linearGradient id="paint1_linear" x1="57.1586" y1="19.1765" x2="38.8018" y2="19.1765" gradientUnits="userSpaceOnUse">
<stop stop-color="#FFE000"/>
<stop offset="0.4087" stop-color="#FFBD00"/>
<stop offset="0.7754" stop-color="#FFA500"/>
<stop offset="1" stop-color="#FF9C00"/>
</linearGradient>
<linearGradient id="paint2_linear" x1="50.3238" y1="20.9593" x2="32.6514" y2="38.2199" gradientUnits="userSpaceOnUse">
<stop stop-color="#FF3A44"/>
<stop offset="1" stop-color="#C31162"/>
</linearGradient>
<linearGradient id="paint3_linear" x1="37.0251" y1="3.77755" x2="44.9166" y2="11.4851" gradientUnits="userSpaceOnUse">
<stop stop-color="#32A071"/>
<stop offset="0.0685" stop-color="#2DA771"/>
<stop offset="0.4762" stop-color="#15CF74"/>
<stop offset="0.8009" stop-color="#06E775"/>
<stop offset="1" stop-color="#00F076"/>
</linearGradient>
</defs>
</svg>
