<svg viewBox="0 0 122 37" fill="none" xmlns="http://www.w3.org/2000/svg">
<path d="M117.188 36.0577H4.50721C1.98317 36.0577 0 33.9844 0 31.5505V4.50721C0 1.98317 2.07332 0 4.50721 0H117.188C119.712 0 121.695 2.07332 121.695 4.50721V31.5505C121.695 33.9844 119.712 36.0577 117.188 36.0577Z" fill="black"/>
<path d="M117.188 0.721154C119.261 0.721154 120.974 2.4339 120.974 4.50721V31.5505C120.974 33.6238 119.261 35.3366 117.188 35.3366H4.50721C2.4339 35.3366 0.721154 33.6238 0.721154 31.5505V4.50721C0.721154 2.4339 2.4339 0.721154 4.50721 0.721154H117.188ZM117.188 0H4.50721C1.98317 0 0 2.07332 0 4.50721V31.5505C0 34.0745 2.07332 36.0577 4.50721 36.0577H117.188C119.712 36.0577 121.695 33.9844 121.695 31.5505V4.50721C121.695 2.07332 119.712 0 117.188 0Z" fill="#A6A6A6"/>
<path d="M61.3878 19.6508C59.2243 19.6508 57.5116 21.2734 57.5116 23.527C57.5116 25.6905 59.2243 27.4033 61.3878 27.4033C63.5513 27.4033 65.264 25.7807 65.264 23.527C65.264 21.1833 63.5513 19.6508 61.3878 19.6508ZM61.3878 25.7807C60.2159 25.7807 59.2243 24.7891 59.2243 23.4369C59.2243 22.0847 60.2159 21.0932 61.3878 21.0932C62.5597 21.0932 63.5513 21.9946 63.5513 23.4369C63.5513 24.7891 62.5597 25.7807 61.3878 25.7807ZM53.0044 19.6508C50.8409 19.6508 49.1282 21.2734 49.1282 23.527C49.1282 25.6905 50.8409 27.4033 53.0044 27.4033C55.1678 27.4033 56.8806 25.7807 56.8806 23.527C56.8806 21.1833 55.1678 19.6508 53.0044 19.6508ZM53.0044 25.7807C51.8325 25.7807 50.8409 24.7891 50.8409 23.4369C50.8409 22.0847 51.8325 21.0932 53.0044 21.0932C54.1762 21.0932 55.1678 21.9946 55.1678 23.4369C55.1678 24.7891 54.1762 25.7807 53.0044 25.7807ZM42.9984 20.8227V22.4453H46.8746C46.7844 23.3468 46.4238 24.0679 45.9731 24.5186C45.4322 25.0595 44.5308 25.6905 42.9984 25.6905C40.5645 25.6905 38.7616 23.7975 38.7616 21.3636C38.7616 18.9297 40.6546 17.0367 42.9984 17.0367C44.2604 17.0367 45.252 17.5775 45.9731 18.2085L47.145 17.0367C46.1534 16.1352 44.8914 15.4141 43.0885 15.4141C39.8433 15.4141 37.0488 18.1184 37.0488 21.3636C37.0488 24.6088 39.8433 27.3131 43.0885 27.3131C44.8914 27.3131 46.1534 26.7722 47.2351 25.6004C48.3169 24.5186 48.6774 22.9862 48.6774 21.8143C48.6774 21.4537 48.6774 21.0932 48.5873 20.8227H42.9984ZM83.9239 22.0847C83.5633 21.1833 82.6618 19.6508 80.6787 19.6508C78.6955 19.6508 77.0729 21.1833 77.0729 23.527C77.0729 25.6905 78.6955 27.4033 80.859 27.4033C82.5717 27.4033 83.6534 26.3215 84.014 25.6905L82.752 24.7891C82.3013 25.4201 81.7604 25.8708 80.859 25.8708C79.9575 25.8708 79.4166 25.5102 78.9659 24.6989L84.1042 22.5355L83.9239 22.0847ZM78.6955 23.3468C78.6955 21.9045 79.8674 21.0932 80.6787 21.0932C81.3097 21.0932 81.9407 21.4537 82.121 21.9044L78.6955 23.3468ZM74.4587 27.0427H76.1715V15.7746H74.4587V27.0427ZM71.7544 20.4621C71.3037 20.0114 70.5825 19.5607 69.6811 19.5607C67.788 19.5607 65.9851 21.2734 65.9851 23.4369C65.9851 25.6004 67.6979 27.223 69.6811 27.223C70.5825 27.223 71.3037 26.7722 71.6642 26.3215H71.7544V26.8624C71.7544 28.3047 70.9431 29.116 69.6811 29.116C68.6895 29.116 67.9683 28.3948 67.788 27.7638L66.3457 28.3948C66.7964 29.3864 67.8782 30.6484 69.7712 30.6484C71.7544 30.6484 73.377 29.4766 73.377 26.6821V19.8311H71.7544V20.4621ZM69.7712 25.7807C68.5993 25.7807 67.6077 24.7891 67.6077 23.4369C67.6077 22.0847 68.5993 21.0932 69.7712 21.0932C70.9431 21.0932 71.8445 22.0847 71.8445 23.4369C71.8445 24.7891 70.9431 25.7807 69.7712 25.7807ZM91.7664 15.7746H87.7099V27.0427H89.4227V22.8059H91.7664C93.6595 22.8059 95.4623 21.4537 95.4623 19.2903C95.4623 17.1268 93.6595 15.7746 91.7664 15.7746ZM91.8566 21.1833H89.4227V17.3071H91.8566C93.1186 17.3071 93.8397 18.3888 93.8397 19.2001C93.7496 20.1917 93.0284 21.1833 91.8566 21.1833ZM102.223 19.5607C100.961 19.5607 99.6991 20.1016 99.2484 21.2734L100.781 21.9044C101.141 21.2734 101.682 21.0932 102.313 21.0932C103.215 21.0932 104.026 21.634 104.116 22.5355V22.6256C103.846 22.4453 103.125 22.1749 102.403 22.1749C100.781 22.1749 99.1582 23.0763 99.1582 24.6989C99.1582 26.2314 100.51 27.223 101.953 27.223C103.125 27.223 103.665 26.6821 104.116 26.1412H104.206V27.0427H105.829V22.7157C105.649 20.7326 104.116 19.5607 102.223 19.5607ZM102.043 25.7807C101.502 25.7807 100.691 25.5102 100.691 24.7891C100.691 23.8876 101.682 23.6172 102.494 23.6172C103.215 23.6172 103.575 23.7975 104.026 23.9778C103.846 25.0595 102.944 25.7807 102.043 25.7807ZM111.508 19.8311L109.615 24.6989H109.525L107.542 19.8311H105.739L108.714 26.6821L107.001 30.4682H108.714L113.311 19.8311H111.508ZM96.3638 27.0427H98.0765V15.7746H96.3638V27.0427Z" fill="white"/>
<path d="M9.37455 6.75977C9.10412 7.0302 8.92383 7.48092 8.92383 8.02179V27.9437C8.92383 28.4845 9.10412 28.9353 9.37455 29.2057L9.46469 29.2958L20.6426 18.1179V18.0278V17.9377L9.37455 6.75977Z" fill="url(#paint0_linear)"/>
<path d="M24.3385 21.9045L20.6426 18.2085V18.0282V17.9381L24.3385 14.2422L24.4286 14.3323L28.8457 16.8564C30.1077 17.5775 30.1077 18.7494 28.8457 19.4706L24.3385 21.9045Z" fill="url(#paint1_linear)"/>
<path d="M24.4291 21.8154L20.643 18.0293L9.375 29.2973C9.82572 29.7481 10.4567 29.7481 11.268 29.3875L24.4291 21.8154Z" fill="url(#paint2_linear)"/>
<path d="M24.4291 14.2431L11.268 6.76117C10.4567 6.31045 9.82572 6.40059 9.375 6.85132L20.643 18.0292L24.4291 14.2431Z" fill="url(#paint3_linear)"/>
<path opacity="0.2" d="M24.339 21.7246L11.268 29.1164C10.5469 29.5672 9.91587 29.477 9.46514 29.1164L9.375 29.2066L9.46514 29.2967C9.91587 29.6573 10.5469 29.7475 11.268 29.2967L24.339 21.7246Z" fill="black"/>
<path opacity="0.12" d="M9.37425 29.1155C9.10382 28.8451 9.01367 28.3944 9.01367 27.8535V27.9437C9.01367 28.4845 9.19396 28.9352 9.46439 29.2057V29.1155H9.37425Z" fill="black"/>
<path opacity="0.12" d="M28.8451 19.2012L24.3379 21.7252L24.428 21.8154L28.8451 19.2913C29.4761 18.9307 29.7465 18.48 29.7465 18.0293C29.7465 18.48 29.386 18.8406 28.8451 19.2012Z" fill="black"/>
<path opacity="0.25" d="M11.2692 6.85072L28.8474 16.8567C29.3882 17.2173 29.7488 17.5779 29.7488 18.0286C29.7488 17.5779 29.4784 17.1272 28.8474 16.7666L11.2692 6.76058C10.0072 6.03942 9.01562 6.67043 9.01562 8.11274V8.20289C9.01562 6.76058 10.0072 6.12957 11.2692 6.85072Z" fill="white"/>
<path d="M37.9513 12.8891H37.3203V11.0862H37.8612C38.3119 10.7257 38.5823 10.0045 38.5823 9.01292V6.30859H42.1881V11.0862H42.8191V12.8891H42.1881V11.7173H38.0415V12.8891H37.9513ZM39.2133 9.01292C39.2133 9.82422 39.0331 10.5454 38.6725 11.0862H41.3768V7.02975H39.1232V9.01292H39.2133Z" fill="white" stroke="white" stroke-width="0.2" stroke-miterlimit="10"/>
<path d="M48.137 10.9964C47.5962 11.5373 46.9651 11.8077 46.1538 11.8077C45.3426 11.8077 44.7115 11.5373 44.1707 10.9964C43.6298 10.4555 43.3594 9.82452 43.3594 9.01322C43.3594 8.20192 43.6298 7.57091 44.1707 7.03005C44.7115 6.48918 45.3426 6.21875 46.1538 6.21875C46.9651 6.21875 47.5962 6.48918 48.137 7.03005C48.6779 7.57091 48.9483 8.20192 48.9483 9.01322C48.9483 9.82452 48.6779 10.4555 48.137 10.9964ZM44.7115 10.5457C45.0721 10.9063 45.613 11.1767 46.1538 11.1767C46.6947 11.1767 47.2356 10.9964 47.5962 10.5457C47.9567 10.1851 48.2272 9.64423 48.2272 9.01322C48.2272 8.38221 48.0469 7.84135 47.5962 7.48077C47.2356 7.12019 46.6947 6.84976 46.1538 6.84976C45.613 6.84976 45.0721 7.03005 44.7115 7.48077C44.351 7.84135 44.0805 8.38221 44.0805 9.01322C44.0805 9.64423 44.2608 10.1851 44.7115 10.5457Z" fill="white" stroke="white" stroke-width="0.2" stroke-miterlimit="10"/>
<path d="M52.4644 11.8077C51.6531 11.8077 51.0221 11.5373 50.4812 10.9964C49.9404 10.4555 49.6699 9.82452 49.6699 9.01322C49.6699 8.20192 49.9404 7.57091 50.4812 7.03005C51.0221 6.48918 51.6531 6.21875 52.4644 6.21875C53.2757 6.21875 53.9067 6.48918 54.4476 7.12019L53.9969 7.57091C53.6363 7.12019 53.0954 6.84976 52.4644 6.84976C51.8334 6.84976 51.3827 7.03005 50.9319 7.48077C50.4812 7.84135 50.3009 8.38221 50.3009 9.01322C50.3009 9.64423 50.4812 10.1851 50.9319 10.5457C51.2925 10.9063 51.8334 11.1767 52.4644 11.1767C53.0954 11.1767 53.6363 10.9063 54.087 10.3654L54.5377 10.8161C54.2673 11.0865 53.9968 11.357 53.6363 11.5373C53.2757 11.7176 52.9151 11.8077 52.4644 11.8077Z" fill="white" stroke="white" stroke-width="0.2" stroke-miterlimit="10"/>
<path d="M57.4216 11.7173H56.7004V6.9396H55.168V6.30859H58.8639V6.9396H57.3314V11.7173H57.4216Z" fill="white" stroke="white" stroke-width="0.2" stroke-miterlimit="10"/>
<path d="M63.6414 6.30859L61.5681 10.906C61.2976 11.537 60.8469 11.8975 60.306 11.8975C60.1258 11.8975 59.9455 11.8975 59.7652 11.8074L59.9455 11.1764C60.0356 11.2665 60.2159 11.2665 60.306 11.2665C60.4863 11.2665 60.5765 11.2665 60.6666 11.1764C60.7568 11.0862 60.8469 10.9961 60.937 10.8158L61.1173 10.3651L59.3145 6.39874H60.1257L61.4779 9.46364L62.7399 6.39874H63.6414V6.30859Z" fill="white" stroke="white" stroke-width="0.2" stroke-miterlimit="10"/>
<path d="M64.4531 11.7173V6.30859H68.3293V11.7173H67.6082V6.9396H65.0841V11.7173H64.4531Z" fill="white" stroke="white" stroke-width="0.2" stroke-miterlimit="10"/>
<path d="M69.5918 11.7173V6.30859H70.313V8.65235H73.0173V6.30859H73.7384V11.7173H73.0173V9.28335H70.313V11.7173H69.5918Z" fill="white" stroke="white" stroke-width="0.2" stroke-miterlimit="10"/>
<path d="M79.4183 10.9964C78.8774 11.5373 78.2464 11.8077 77.4351 11.8077C76.6238 11.8077 75.9928 11.5373 75.4519 10.9964C74.9111 10.4555 74.6406 9.82452 74.6406 9.01322C74.6406 8.20192 74.9111 7.57091 75.4519 7.03005C75.9928 6.48918 76.6238 6.21875 77.4351 6.21875C78.2464 6.21875 78.8774 6.48918 79.4183 7.03005C79.9591 7.57091 80.2296 8.20192 80.2296 9.01322C80.1394 9.82452 79.869 10.4555 79.4183 10.9964ZM75.9026 10.5457C76.2632 10.9063 76.8041 11.1767 77.345 11.1767C77.8858 11.1767 78.4267 10.9964 78.7873 10.5457C79.1478 10.1851 79.4183 9.64423 79.4183 9.01322C79.4183 8.38221 79.238 7.84135 78.7873 7.48077C78.4267 7.12019 77.8858 6.84976 77.345 6.84976C76.8041 6.84976 76.2632 7.03005 75.9026 7.48077C75.5421 7.84135 75.2716 8.38221 75.2716 9.01322C75.2716 9.64423 75.5421 10.1851 75.9026 10.5457Z" fill="white" stroke="white" stroke-width="0.2" stroke-miterlimit="10"/>
<path d="M83.0234 11.7173V6.30859H85.0066C85.4573 6.30859 85.8179 6.48888 86.0883 6.75932C86.3588 7.02975 86.5391 7.39033 86.5391 7.84105C86.5391 8.11148 86.4489 8.29177 86.3588 8.5622C86.2686 8.74249 86.0883 8.92278 85.8179 9.01292C86.0883 9.10307 86.2686 9.28335 86.4489 9.46364C86.6292 9.64393 86.7194 9.91436 86.7194 10.2749C86.7194 10.7257 86.5391 11.0862 86.2686 11.3567C85.9081 11.6271 85.5475 11.8074 85.0968 11.8074H83.0234V11.7173ZM83.7446 8.65235H85.0066C85.277 8.65235 85.4573 8.5622 85.6376 8.38191C85.8179 8.20162 85.9081 8.02134 85.9081 7.84105C85.9081 7.66076 85.8179 7.48047 85.6376 7.30018C85.4573 7.11989 85.277 7.02975 85.0066 7.02975H83.7446V8.65235ZM83.7446 11.0862H85.1869C85.4573 11.0862 85.6376 10.9961 85.8179 10.8158C85.9982 10.6355 86.0883 10.4552 86.0883 10.1848C86.0883 10.0045 85.9982 9.73408 85.8179 9.55379C85.6376 9.3735 85.4573 9.28335 85.1869 9.28335H83.8347V11.0862H83.7446Z" fill="white" stroke="white" stroke-width="0.2" stroke-miterlimit="10"/>
<defs>
<linearGradient id="paint0_linear" x1="19.6507" y1="7.85024" x2="4.52235" y2="22.9786" gradientUnits="userSpaceOnUse">
<stop stop-color="#00A0FF"/>
<stop offset="0.00657445" stop-color="#00A1FF"/>
<stop offset="0.2601" stop-color="#00BEFF"/>
<stop offset="0.5122" stop-color="#00D2FF"/>
<stop offset="0.7604" stop-color="#00DFFF"/>
<stop offset="1" stop-color="#00E3FF"/>
</linearGradient>
<linearGradient id="paint1_linear" x1="30.4993" y1="18.0295" x2="8.68719" y2="18.0295" gradientUnits="userSpaceOnUse">
<stop stop-color="#FFE000"/>
<stop offset="0.4087" stop-color="#FFBD00"/>
<stop offset="0.7754" stop-color="#FFA500"/>
<stop offset="1" stop-color="#FF9C00"/>
</linearGradient>
<linearGradient id="paint2_linear" x1="22.3801" y1="20.0991" x2="1.86481" y2="40.6144" gradientUnits="userSpaceOnUse">
<stop stop-color="#FF3A44"/>
<stop offset="1" stop-color="#C31162"/>
</linearGradient>
<linearGradient id="paint3_linear" x1="6.57809" y1="0.159183" x2="15.7391" y2="9.3201" gradientUnits="userSpaceOnUse">
<stop stop-color="#32A071"/>
<stop offset="0.0685" stop-color="#2DA771"/>
<stop offset="0.4762" stop-color="#15CF74"/>
<stop offset="0.8009" stop-color="#06E775"/>
<stop offset="1" stop-color="#00F076"/>
</linearGradient>
</defs>
</svg>
