<svg viewBox="0 0 122 37" fill="none" xmlns="http://www.w3.org/2000/svg">
<path d="M112.336 0H10.0142C9.70906 0 9.30221 0 8.89537 0C8.59023 0 8.2851 0 7.97996 0C7.26798 0 6.6577 0.0901443 5.94572 0.180289C5.33545 0.270433 4.62347 0.450721 4.01319 0.721154C3.40292 0.991587 2.89436 1.35216 2.3858 1.80289C1.87724 2.25361 1.47039 2.70433 1.16526 3.24519C0.860122 3.78606 0.656698 4.41707 0.554986 4.95794C0.453274 5.58895 0.351562 6.21996 0.351562 6.76082C0.351562 7.03125 0.351562 7.30169 0.351562 7.57212V28.3954C0.351562 28.6659 0.351562 28.9363 0.351562 29.2067C0.351562 29.8378 0.453274 30.3786 0.554986 31.0096C0.656698 31.6406 0.860122 32.1815 1.16526 32.7224C1.47039 33.3534 1.87724 33.8041 2.3858 34.2548C2.89436 34.7055 3.40292 35.0661 4.01319 35.3366C4.62347 35.607 5.23374 35.7873 5.94572 35.8774C6.6577 35.9676 7.26798 36.0577 7.97996 36.0577C8.2851 36.0577 8.59023 36.0577 8.89537 36.0577C9.30221 36.0577 9.60735 36.0577 10.0142 36.0577H112.336C112.743 36.0577 113.048 36.0577 113.455 36.0577C113.76 36.0577 114.066 36.0577 114.371 36.0577C115.083 36.0577 115.693 35.9676 116.405 35.8774C117.117 35.7873 117.727 35.607 118.337 35.3366C118.948 35.0661 119.456 34.7055 119.965 34.2548C120.473 33.8041 120.88 33.3534 121.185 32.8125C121.491 32.2717 121.694 31.7308 121.796 31.0998C121.897 30.4688 121.999 29.9279 121.999 29.2969C121.999 29.0265 121.999 28.756 121.999 28.4856C121.999 28.125 121.999 27.8546 121.999 27.494V8.56371C121.999 8.20313 121.999 7.9327 121.999 7.57212C121.999 7.30169 121.999 7.03125 121.999 6.76082C121.999 6.12981 121.897 5.58895 121.796 4.95794C121.694 4.32693 121.491 3.78606 121.185 3.24519C120.575 2.16346 119.558 1.26202 118.337 0.721154C117.727 0.450721 117.117 0.270433 116.405 0.180289C115.693 0.0901443 115.083 0 114.371 0C114.066 0 113.76 0 113.455 0C113.15 0 112.743 0 112.336 0Z" fill="#A6A6A6"/>
<path d="M8.89612 35.2457C8.59099 35.2457 8.28585 35.2457 7.98072 35.2457C7.37045 35.2457 6.65846 35.1555 6.04819 35.0654C5.43792 34.9752 4.92936 34.7949 4.31909 34.6147C3.81053 34.3442 3.30197 34.0738 2.89512 33.7132C2.48827 33.3526 2.08142 32.9019 1.878 32.4512C1.57286 32.0005 1.47115 31.4596 1.36944 30.9187C1.26773 30.3779 1.16602 29.837 1.16602 29.206C1.16602 29.0257 1.16602 28.3947 1.16602 28.3947V7.57137C1.16602 7.57137 1.16602 6.94036 1.16602 6.76007C1.16602 6.2192 1.26773 5.58819 1.36944 5.04733C1.47115 4.59661 1.67458 4.05574 1.97971 3.60502C2.28485 3.1543 2.58998 2.70358 2.99683 2.343C3.40368 1.98242 3.91224 1.71199 4.4208 1.44156C4.92936 1.17112 5.53963 1.08098 6.1499 0.990835C6.76017 0.900691 7.37045 0.810547 8.08243 0.810547H8.99784H113.558H114.473C115.083 0.810547 115.694 0.900691 116.406 0.990835C117.016 1.08098 117.525 1.26127 118.135 1.44156C119.152 1.89228 120.067 2.70358 120.576 3.60502C120.881 4.05574 120.983 4.59661 121.084 5.04733C121.186 5.58819 121.288 6.2192 121.288 6.76007C121.288 7.0305 121.288 7.30094 121.288 7.57137C121.288 7.93195 121.288 8.20238 121.288 8.56296V27.4031C121.288 27.7637 121.288 28.0341 121.288 28.3947C121.288 28.6651 121.288 28.9356 121.288 29.206C121.288 29.7469 121.186 30.2877 121.084 30.9187C120.983 31.4596 120.779 31.9103 120.576 32.4512C120.271 32.9019 119.966 33.3526 119.559 33.7132C119.152 34.0738 118.643 34.4344 118.135 34.6147C117.626 34.8851 117.016 35.0654 116.406 35.0654C115.795 35.1555 115.185 35.2457 114.473 35.2457C114.168 35.2457 113.863 35.2457 113.558 35.2457H112.439H8.89612Z" fill="black"/>
<path d="M29.3447 18.3012C29.3447 16.7688 30.156 15.3265 31.5082 14.5152C30.6969 13.3433 29.3447 12.6221 27.9024 12.532C26.37 12.3517 24.9277 13.4334 24.1164 13.4334C23.3051 13.4334 22.1332 12.532 20.8712 12.532C19.1584 12.6221 17.626 13.5236 16.8147 14.9659C15.1019 17.9406 16.364 22.4479 18.0767 24.8818C18.888 26.0536 19.8796 27.4058 21.1416 27.4058C22.4036 27.3157 22.8543 26.5945 24.3868 26.5945C25.9192 26.5945 26.2798 27.4058 27.632 27.4058C28.9842 27.4058 29.7954 26.2339 30.6067 24.9719C31.2378 24.1606 31.6885 23.169 31.9589 22.1774C30.3363 21.6366 29.3447 20.014 29.3447 18.3012Z" fill="white"/>
<path d="M26.8201 10.9988C27.5413 10.0974 27.9018 9.01563 27.8117 7.84375C26.73 7.93389 25.6482 8.47476 24.9271 9.3762C24.2059 10.1875 23.8453 11.2692 23.9355 12.4411C25.1074 12.4411 26.099 11.9002 26.8201 10.9988Z" fill="white"/>
<path d="M45.1191 24.4294H40.8824L39.8908 27.4943H38.0879L42.1444 16.3164H43.9473L48.0038 27.4943H46.2009L45.1191 24.4294ZM41.3331 23.0772H44.7586L43.0458 18.1193H42.9557L41.3331 23.0772Z" fill="white"/>
<path d="M56.7482 23.4371C56.7482 25.9612 55.396 27.5838 53.3227 27.5838C52.241 27.6739 51.2494 27.0429 50.7987 26.1415V30.198H49.0859V19.3807H50.7085V20.7328C51.2494 19.8314 52.241 19.2905 53.3227 19.2905C55.3059 19.2004 56.7482 20.9131 56.7482 23.4371ZM54.9453 23.4371C54.9453 21.8145 54.134 20.7328 52.7819 20.7328C51.5198 20.7328 50.6184 21.8145 50.6184 23.4371C50.6184 25.0597 51.5198 26.1415 52.7819 26.1415C54.134 26.1415 54.9453 25.0597 54.9453 23.4371Z" fill="white"/>
<path d="M65.672 23.4371C65.672 25.9612 64.3199 27.5838 62.2465 27.5838C61.1648 27.6739 60.1732 27.0429 59.7225 26.1415V30.198H58.0098V19.3807H59.6324V20.7328C60.1732 19.8314 61.1648 19.2905 62.2465 19.2905C64.3199 19.2004 65.672 20.9131 65.672 23.4371ZM63.9593 23.4371C63.9593 21.8145 63.148 20.7328 61.7958 20.7328C60.5338 20.7328 59.6324 21.8145 59.6324 23.4371C59.6324 25.0597 60.5338 26.1415 61.7958 26.1415C63.148 26.1415 63.9593 25.0597 63.9593 23.4371Z" fill="white"/>
<path d="M71.6223 24.3398C71.7124 25.4216 72.7942 26.1427 74.3266 26.1427C75.7689 26.1427 76.7605 25.4216 76.7605 24.43C76.7605 23.5286 76.1295 23.0778 74.6872 22.7173L73.2449 22.3567C71.1716 21.8158 70.2701 20.9144 70.2701 19.3819C70.2701 17.4889 71.9829 16.1367 74.3266 16.1367C76.6704 16.1367 78.293 17.4889 78.3831 19.3819H76.6704C76.5802 18.3002 75.6788 17.579 74.3266 17.579C72.9745 17.579 72.073 18.3002 72.073 19.2918C72.073 20.1031 72.704 20.5538 74.1463 20.9144L75.4084 21.1848C77.662 21.7257 78.6536 22.6271 78.6536 24.2497C78.6536 26.323 76.9408 27.6752 74.3266 27.6752C71.8026 27.6752 70.18 26.4132 70.0898 24.3398H71.6223Z" fill="white"/>
<path d="M82.0777 17.3984V19.2915H83.6101V20.6436H82.0777V25.1508C82.0777 25.872 82.3481 26.1424 83.0693 26.1424C83.2496 26.1424 83.4298 26.1424 83.6101 26.1424V27.4946C83.3397 27.5847 82.9791 27.5847 82.7087 27.5847C81.0861 27.5847 80.4551 26.9537 80.4551 25.4213V20.7338H79.2832V19.3816H80.4551V17.4886H82.0777V17.3984Z" fill="white"/>
<path d="M84.6016 23.4377C84.6016 20.9136 86.134 19.291 88.4778 19.291C90.8215 19.291 92.354 20.9136 92.354 23.4377C92.354 26.0518 90.8215 27.5843 88.4778 27.5843C86.0439 27.5843 84.6016 25.9617 84.6016 23.4377ZM90.6412 23.4377C90.6412 21.6348 89.8299 20.6432 88.4778 20.6432C87.1256 20.6432 86.3143 21.6348 86.3143 23.4377C86.3143 25.2405 87.1256 26.2321 88.4778 26.2321C89.8299 26.2321 90.6412 25.1504 90.6412 23.4377Z" fill="white"/>
<path d="M93.707 19.2918H95.3296V20.7341C95.5099 19.8326 96.4114 19.2016 97.3128 19.2918C97.4931 19.2918 97.6734 19.2918 97.8537 19.3819V20.9144C97.5832 20.8242 97.3128 20.8242 97.1325 20.8242C96.2311 20.8242 95.4198 21.5454 95.4198 22.4468C95.4198 22.537 95.4198 22.6271 95.4198 22.7173V27.585H93.707V19.2918Z" fill="white"/>
<path d="M105.607 25.0606C105.336 26.5029 103.894 27.5846 102.091 27.5846C99.7473 27.5846 98.2148 25.962 98.2148 23.438C98.2148 20.9139 99.6572 19.2012 102.001 19.2012C104.255 19.2012 105.697 20.7336 105.697 23.2577V23.7985H99.9276V23.8887C99.8374 25.0606 100.649 26.0521 101.821 26.2324C101.911 26.2324 102.001 26.2324 102.091 26.2324C102.902 26.3226 103.714 25.8718 103.984 25.0606H105.607ZM99.9276 22.6267H103.984C104.074 21.5449 103.173 20.6435 102.091 20.5533C102.001 20.5533 102.001 20.5533 101.911 20.5533C100.829 20.5533 99.9276 21.4548 99.9276 22.6267Z" fill="white"/>
<path d="M40.0706 10.1861H40.7918C41.2425 10.2763 41.6932 9.91572 41.7834 9.37485V9.28471C41.7834 8.74384 41.4228 8.47341 40.7918 8.47341C40.2509 8.38326 39.8002 8.74384 39.71 9.28471H38.8987C38.9889 8.38326 39.71 7.66211 40.7016 7.66211H40.7918C41.8735 7.66211 42.5947 8.29312 42.5947 9.10442C42.5947 9.73543 42.2341 10.1861 41.6031 10.3664V10.4566C42.3242 10.4566 42.8651 11.0876 42.7749 11.7186C42.6848 12.7102 41.7834 13.4313 40.7918 13.3412C39.8002 13.4313 38.8987 12.8003 38.8086 11.8087C38.8086 11.8087 38.8086 11.8087 38.8086 11.7186H39.6199C39.71 12.2595 40.1608 12.5299 40.8819 12.5299C41.6031 12.5299 42.0538 12.1693 42.0538 11.6285C42.0538 11.0876 41.6031 10.727 40.8819 10.727H40.1608V10.1861H40.0706Z" fill="white"/>
<path d="M43.7659 12.0783C43.7659 11.3571 44.3068 10.9064 45.2984 10.9064L46.3801 10.8163V10.4557C46.3801 10.005 46.1097 9.82467 45.5688 9.82467C45.1181 9.82467 44.8477 10.005 44.7575 10.2754H43.9462C44.0364 9.55424 44.6674 9.10352 45.5688 9.10352C46.5604 9.10352 47.1914 9.64438 47.1914 10.4557V13.2502H46.3801V12.7093H46.29C46.0195 13.16 45.5688 13.3403 45.0279 13.3403C44.3969 13.4304 43.7659 12.8896 43.6758 12.2586C43.7659 12.1684 43.7659 12.1684 43.7659 12.0783ZM46.3801 11.7177V11.3571L45.3885 11.4473C44.8477 11.4473 44.5772 11.7177 44.5772 11.9881C44.5772 12.3487 44.9378 12.529 45.2984 12.529C45.8392 12.7093 46.3801 12.3487 46.3801 11.7177C46.3801 11.8078 46.3801 11.8078 46.3801 11.7177Z" fill="white"/>
<path d="M49.3562 9.82632V13.2518H48.5449V9.19531H51.2493V9.82632H49.3562Z" fill="white"/>
<path d="M56.0266 11.1771C56.0266 12.4392 55.3956 13.2505 54.3139 13.2505C53.773 13.2505 53.3223 12.98 53.0518 12.5293H52.9617V14.5125H52.1504V9.10382H52.9617V9.73483H53.0518C53.3223 9.2841 53.773 9.01367 54.3139 9.01367C55.3956 9.10382 56.0266 9.91511 56.0266 11.1771ZM55.2153 11.1771C55.2153 10.2757 54.7646 9.82497 54.1336 9.82497C53.5026 9.82497 53.0518 10.3658 53.0518 11.1771C53.0518 11.9884 53.5026 12.5293 54.1336 12.5293C54.8547 12.6194 55.2153 12.0786 55.2153 11.1771Z" fill="white"/>
<path d="M57.1086 14.6941V13.973C57.1988 13.973 57.2889 13.973 57.3791 13.973C57.7396 13.973 58.0101 13.7927 58.1002 13.4321L58.1904 13.2518L56.748 9.19531H57.6495L58.6411 12.4405H58.7312L59.7228 9.19531H60.5341L59.0017 13.4321C58.6411 14.4237 58.2805 14.6941 57.4692 14.6941C57.3791 14.6941 57.1988 14.6941 57.1086 14.6941Z" fill="white"/>
<path d="M61.1641 12.0783H61.9754C62.0655 12.4389 62.4261 12.6192 62.8768 12.6192C63.4177 12.6192 63.7782 12.3488 63.7782 11.9882C63.7782 11.6276 63.5078 11.4473 62.8768 11.4473H62.2458V10.8163H62.8768C63.3275 10.8163 63.598 10.636 63.598 10.2755C63.598 10.005 63.3275 9.73459 62.8768 9.73459C62.4261 9.73459 62.0655 9.91488 62.0655 10.2755H61.2542C61.3444 9.5543 62.0655 9.01343 62.8768 9.10358C63.8684 9.10358 64.4093 9.5543 64.4093 10.1853C64.4093 10.5459 64.1388 10.9065 63.7782 10.9966V11.0868C64.229 11.1769 64.5895 11.5375 64.5895 11.9882C64.5895 12.7995 63.9585 13.2502 62.9669 13.2502C61.9754 13.3404 61.2542 12.8896 61.1641 12.0783Z" fill="white"/>
<path d="M65.6719 13.2518V9.19531H66.4832V11.9898L68.3762 9.19531H69.1875V13.2518H68.3762V10.4573H68.2861L66.393 13.2518H65.6719Z" fill="white"/>
<path d="M73.515 9.82632H72.253V13.2518H71.4417V9.82632H70.1797V9.19531H73.515V9.82632Z" fill="white"/>
<path d="M77.8407 12.1701C77.6604 12.8912 76.8491 13.4321 76.0378 13.3419C75.0462 13.3419 74.1448 12.5307 74.1448 11.5391C74.1448 11.4489 74.1448 11.3588 74.1448 11.2686C73.9645 10.277 74.6857 9.28546 75.7674 9.19531C75.8575 9.19531 75.9477 9.19531 76.0378 9.19531C77.2097 9.19531 77.8407 10.0066 77.8407 11.2686V11.5391H74.9561C74.866 12.1701 75.3167 12.6208 75.9477 12.7109H76.0378C76.3984 12.8011 76.8491 12.5307 77.0294 12.2602L77.8407 12.1701ZM75.0462 10.8179H77.1196C77.1196 10.277 76.759 9.82632 76.2181 9.73618H76.128C75.497 9.82632 75.0462 10.277 75.0462 10.8179Z" fill="white"/>
<path d="M81.2659 9.19531H83.0688C83.8801 9.19531 84.3308 9.55589 84.3308 10.1869C84.3308 10.6376 84.0604 10.9982 83.6097 11.0883V11.1785C84.0604 11.1785 84.5111 11.6292 84.5111 12.0799C84.5111 12.8011 83.9703 13.2518 83.0688 13.2518H81.1758V9.19531H81.2659ZM82.0772 9.82632V10.8179H82.8885C83.3392 10.8179 83.6097 10.6376 83.6097 10.277C83.6097 9.91647 83.4294 9.73618 82.9787 9.73618L82.0772 9.82632ZM82.0772 11.4489V12.6208H83.0688C83.5195 12.6208 83.79 12.4405 83.79 11.9898C83.79 11.5391 83.5195 11.3588 82.9787 11.3588L82.0772 11.4489Z" fill="white"/>
</svg>
