<svg id="Group_4923" data-name="Group 4923" xmlns="http://www.w3.org/2000/svg" xmlns:xlink="http://www.w3.org/1999/xlink" viewBox="0 0 89 30">
  <defs>
    <linearGradient id="linear-gradient" x1="0.037" y1="-1.02" x2="0.962" y2="2.149" gradientUnits="objectBoundingBox">
      <stop offset="0" stop-color="#0cf"/>
      <stop offset="0.451" stop-color="#4de57e"/>
      <stop offset="1" stop-color="#9f0"/>
    </linearGradient>
  </defs>
  <path id="Path_4332" data-name="Path 4332" d="M23.4,30V0H65.6V30Z" transform="translate(89.037 30) rotate(180)" fill-rule="evenodd" fill="url(#linear-gradient)"/>
  <path id="Path_4333" data-name="Path 4333" d="M65.6,30h4.588V0H65.6ZM19.268,30H23.4V0H19.268ZM42.206,0,31.2,12.273q-2.752,2.727,0,5.454L42.206,30H37.16L27.067,19.091a5.724,5.724,0,0,1,0-8.182L37.16,0ZM0,0,11.469,12.273q2.753,2.727,0,5.454L0,30H5.505L15.6,19.091a5.724,5.724,0,0,0,0-8.182L5.505,0ZM89,0,77.99,12.273q-2.752,2.727,0,5.454L89,30H83.954L73.861,19.091a5.724,5.724,0,0,1,0-8.182L83.954,0Z" fill-rule="evenodd"/>
</svg>
