<svg viewBox="0 0 208 205" fill="none" xmlns="http://www.w3.org/2000/svg">
<path d="M136.064 131.068C138.949 126.775 142.88 123.111 147.543 120.504C148.095 120.114 148.745 119.91 149.3 119.614L151.152 118.815C152.405 118.36 153.706 117.951 155.007 117.542C155.66 117.431 156.359 117.272 157.011 117.16C157.664 117.049 158.363 116.89 159.018 116.873L161.076 116.725C161.731 116.707 162.432 116.642 163.088 116.624C168.475 116.622 173.756 117.887 178.586 119.821C183.416 121.754 187.934 124.304 192.047 127.474C187.09 126.06 182.316 124.453 177.46 123.317C172.65 122.133 167.85 121.324 163.073 121.357C162.463 121.326 161.901 121.341 161.294 121.404L159.469 121.499C158.3 121.577 157.136 121.842 155.921 121.968C154.757 122.233 153.593 122.498 152.428 122.763L150.71 123.324C150.153 123.527 149.548 123.683 148.991 123.885C144.585 125.548 140.297 128.145 136.064 131.068Z" fill="white" stroke="white"/>
<path d="M118.2 121.703C118.98 115.78 120.888 110.014 123.462 104.604C126.035 99.1954 129.272 94.0498 133.083 89.3575C136.845 84.6196 141.137 80.383 145.959 76.7413C150.736 73.1477 156.135 70.053 161.906 68.5881C156.886 71.8602 152.486 75.5375 148.329 79.5362C144.172 83.535 140.303 87.8073 136.675 92.3074C133.046 96.8075 129.704 101.487 126.695 106.393C123.59 111.207 120.822 116.34 118.2 121.703Z" fill="white" stroke="white"/>
<path d="M81.6337 133.121C77.2985 128.645 72.6518 124.786 67.7341 121.309C62.8163 117.832 57.6757 114.783 52.2716 112.396C50.9434 111.776 49.5696 111.203 48.1982 110.724C47.5354 110.461 46.8269 110.245 46.0704 109.984C45.3619 109.769 44.6535 109.553 43.9931 109.384C41.1642 108.709 38.1556 108.32 35.1039 108.073C32.0977 107.778 29.0484 107.625 25.9561 107.613C24.4099 107.608 22.9118 107.647 21.3681 107.735C19.8725 107.869 18.2832 108.004 16.8431 108.464C17.4886 108.072 18.2302 107.772 18.9718 107.471C19.7134 107.17 20.4575 106.963 21.2496 106.801C22.7859 106.433 24.3246 106.158 25.8633 105.883C28.9432 105.426 32.0762 105.202 35.2141 105.166C38.352 105.129 41.4949 105.28 44.6933 105.758C47.9398 106.281 51.0064 107.089 54.0349 108.227C60.0464 110.55 65.5234 113.919 70.3193 118.102C72.7173 120.193 74.9329 122.477 76.8727 124.955C78.7668 127.481 80.4787 130.2 81.6337 133.121Z" fill="white" stroke="white"/>
<path d="M95.8317 122.672C96.2452 120.6 96.3753 118.441 96.5054 116.283C96.6355 114.124 96.6264 112.017 96.6629 109.86C96.6538 107.753 96.5967 105.599 96.494 103.494C96.4335 102.98 96.373 102.466 96.3125 101.952L96.199 101.206L96.0374 100.414C95.8228 99.3886 95.5602 98.318 95.2975 97.2475C94.7747 95.2 94.2974 93.1045 93.7746 91.057C93.4664 90.0345 93.2518 89.0095 92.9436 87.987C92.6353 86.9645 92.3752 85.9876 92.0669 84.9651C90.8365 80.9687 89.3732 77.0254 87.7708 73.1326C86.1227 69.2879 84.3786 65.352 82.5457 61.6059C80.7104 57.7661 78.6928 54.1186 76.488 50.476C71.9871 43.287 66.7496 36.5861 60.9121 30.229C68.0687 35.0987 74.3262 41.3978 79.3864 48.4783C81.9633 52.0173 84.2643 55.751 86.2869 59.5858C88.3095 63.4206 90.1473 67.354 91.8483 71.4315C93.5014 75.4635 94.8784 79.6902 95.881 83.9269C96.4063 86.068 96.838 88.2116 97.176 90.3577C97.5141 92.5038 97.8521 94.6499 98.0029 96.8009C98.0783 97.8764 98.2473 98.9495 98.3227 100.025L98.4611 101.708C98.476 102.27 98.4909 102.831 98.5058 103.393C98.5174 105.595 98.2936 107.756 98.1635 109.914C97.9398 112.075 97.668 114.191 97.3506 116.354C96.9371 118.427 96.5741 120.638 95.8317 122.672Z" fill="white" stroke="white"/>
<path d="M60.5679 82.5682C60.0715 83.2841 59.2413 83.7746 58.3555 83.9387C57.4697 84.1027 56.5814 84.1731 55.6426 84.1043C53.8587 83.9643 52.0192 83.4978 50.2659 82.7479C48.5125 81.998 46.7974 80.9191 45.4443 79.3621C44.7665 78.5368 44.1798 77.6154 43.773 76.4081C43.6719 76.1297 43.6164 75.8033 43.5609 75.4768C43.551 75.1023 43.4954 74.7758 43.4855 74.4013C43.5593 73.6497 43.8178 72.7996 44.2205 72.0862C44.7168 71.3703 45.3574 70.7911 46.0509 70.4447C46.4205 70.2475 46.6989 70.1464 47.0709 70.0429C47.3974 69.9874 47.7214 69.8382 48.0503 69.8763C49.3106 69.7023 50.3936 69.9078 51.431 70.1614C53.4603 70.7166 55.0843 71.8916 56.5236 73.1651C57.9173 74.4868 59.0806 75.9551 59.9655 77.5245C60.408 78.3092 60.7593 79.19 60.9234 80.0757C61.1305 80.8198 61.1098 81.8042 60.5679 82.5682ZM60.5679 82.5682C61.0162 81.8067 61.0369 80.8223 60.7817 80.0326C60.4784 79.1974 59.9904 78.4608 59.4593 77.8658C58.3009 76.5848 56.7779 75.6882 55.2624 75.0726C53.7469 74.4569 52.0972 74.079 50.6902 74.0227C49.9867 73.9945 49.2857 74.06 48.82 74.166C48.6808 74.2166 48.6353 74.2646 48.5416 74.2671C48.4961 74.3152 48.3569 74.3657 48.3569 74.3657C48.2176 74.4162 48.2657 74.4618 48.2201 74.5099C48.2201 74.5099 48.1746 74.5579 48.1315 74.6996C48.0859 74.7477 48.0884 74.8413 48.0909 74.9349C48.0934 75.0286 48.0958 75.1222 48.1464 75.2614C48.2069 75.7751 48.4571 76.3775 48.7554 77.0255C49.3975 78.2734 50.3711 79.653 51.5726 80.7924C52.774 81.9317 54.2059 82.9244 55.8606 83.4895C56.7107 83.7481 57.5584 83.913 58.3986 83.797C59.2388 83.681 60.0715 83.2841 60.5679 82.5682Z" fill="white" stroke="white"/>
<path d="M114.25 80.5341C114.622 80.4306 115.04 80.2789 115.359 79.9425C115.632 79.6542 115.903 79.2722 116.129 78.9383C116.483 78.1793 116.696 77.3772 116.674 76.5345C116.771 74.8922 116.352 73.2168 115.798 71.7791C115.197 70.2959 114.365 68.9594 113.492 67.8582C113.057 67.3544 112.577 66.8986 112.195 66.6277C112.002 66.4454 111.815 66.4504 111.767 66.4048C111.673 66.4073 111.673 66.4073 111.719 66.3592C111.767 66.4048 111.765 66.3111 111.673 66.4073C111.628 66.4553 111.443 66.5539 111.309 66.7917C111.038 67.1737 110.772 67.743 110.508 68.4058C110.075 69.7291 109.788 71.2827 109.737 72.877C109.686 74.4712 109.918 76.1516 110.613 77.6323C110.914 78.3739 111.402 79.1106 111.978 79.6574C112.267 79.9309 112.649 80.2018 112.98 80.3336C113.408 80.5565 113.83 80.5921 114.25 80.5341ZM114.25 80.5341C113.41 80.6501 112.512 80.346 111.89 79.8472C111.174 79.3508 110.595 78.7103 110.061 78.0218C108.994 76.6446 108.109 75.0752 107.454 73.3592C106.8 71.6431 106.375 69.7804 106.556 67.7611C106.622 66.7287 106.876 65.6913 107.41 64.6464C107.676 64.0772 108.084 63.551 108.633 63.068C109.183 62.5849 109.967 62.1424 110.853 61.9784C111.693 61.8624 112.587 61.9792 113.295 62.1947C113.958 62.4582 114.578 62.8634 115.01 63.2735C115.921 64.0458 116.508 64.9672 116.907 65.8936C117.751 67.6983 118.036 69.6115 118.038 71.4386C118.04 73.2657 117.806 75.0521 117.289 76.7524C117.03 77.6026 116.724 78.4071 116.227 79.123C115.777 79.7909 115.09 80.4181 114.25 80.5341Z" fill="white" stroke="white"/>
</svg>
