<svg viewBox="0 0 274 14" fill="none" xmlns="http://www.w3.org/2000/svg">
<path d="M0 12.1084C5.21481 9.89862 10.5406 7.77388 16.3101 6.24406C22.0797 4.71424 28.2931 3.86432 34.6174 4.62923L35.8379 4.79922C36.2817 4.88421 36.6146 4.96919 36.9475 5.05418C37.7241 5.22416 38.5008 5.39415 39.2775 5.56413C40.8308 5.98908 42.1623 6.41403 43.6047 6.83898C44.9361 7.26392 46.2675 7.68889 47.599 7.94386C48.9304 8.28382 50.1509 8.36879 51.4824 8.45378C56.6972 8.70875 61.912 7.00895 67.2377 5.05418C72.5635 3.18441 78.2221 0.889695 84.9903 0.209776C88.3189 -0.130183 91.7584 -0.0452091 94.9761 0.37974C98.1937 0.80469 101.189 1.48462 104.185 2.24953C110.066 3.69436 115.391 5.47913 120.717 6.32903C126.043 7.17893 131.591 6.92396 137.249 6.41403C142.908 5.8191 148.677 4.88422 154.669 4.03432C160.66 3.26941 166.985 2.58948 173.42 3.01443C179.966 3.35439 185.847 4.88422 191.505 6.15907C194.39 6.83899 197.164 7.43391 199.938 7.85886C202.712 8.28381 205.375 8.62376 208.038 8.53877C209.369 8.53877 210.7 8.45379 212.032 8.19882C213.363 8.02884 214.584 7.68888 215.915 7.34892C218.578 6.669 221.241 5.64912 224.126 4.79922C227.011 3.94932 230.228 3.26942 233.668 3.26942C235.332 3.26942 237.107 3.52438 238.661 3.94932C240.214 4.37427 241.656 4.8842 242.988 5.47913C245.651 6.584 248.092 7.85885 250.755 8.45378C253.306 9.1337 256.191 9.21869 259.076 8.96372C264.735 8.36879 270.171 5.98908 273.5 2.16453C272.28 4.20429 270.282 6.07408 267.841 7.51891C265.4 8.96374 262.516 10.0686 259.52 10.5785C256.524 11.1735 253.196 11.2584 250.089 10.6635C246.871 10.1536 244.097 8.96372 241.434 8.11382C238.772 7.17894 236.331 6.584 233.779 6.75398C231.227 6.83897 228.675 7.51889 226.123 8.45378C223.571 9.38867 220.908 10.4086 217.912 11.3435C215.028 12.2783 211.588 12.9582 208.37 13.1282C201.713 13.5532 195.5 12.2783 189.73 11.1735C183.961 9.98361 178.302 8.79375 172.865 8.62377C167.429 8.3688 161.77 8.96372 156 9.72863C150.231 10.5785 144.35 11.5984 138.248 12.2783C132.145 12.8733 125.599 13.1282 119.164 12.0234C112.84 11.0035 107.181 9.1337 101.744 7.60388C96.3075 6.07406 90.9817 4.96921 85.7669 5.39416C80.5521 5.81911 75.2264 7.60388 69.6787 9.30368C66.9049 10.1536 64.0201 11.0035 60.9134 11.6834C57.8067 12.2783 54.4781 12.6183 51.0385 12.3633C49.3742 12.1933 47.7099 11.9384 46.1566 11.4284C44.6032 11.0035 43.1609 10.4936 41.8294 9.98361C40.498 9.47367 39.1665 8.96372 37.946 8.53877C37.2803 8.2838 36.6146 8.19881 35.9489 8.02883C35.616 7.94384 35.2832 7.85886 34.9503 7.77387L33.9517 7.60388C28.515 6.49901 22.6345 6.92398 16.9759 7.94386C11.2063 8.79376 5.54767 10.4086 0 12.1084Z" fill="white"/>
</svg>
