<?xml version="1.0" encoding="UTF-8" ?>
<!DOCTYPE svg PUBLIC "-//W3C//DTD SVG 1.1//EN" "http://www.w3.org/Graphics/SVG/1.1/DTD/svg11.dtd">
<svg viewBox="0 0 264 456" version="1.1" xmlns="http://www.w3.org/2000/svg">
<g id="#05d9aeff">
<path fill="#05d9ae" opacity="1.00" d=" M 74.20 0.00 L 75.79 0.00 C 97.82 19.07 122.37 35.14 148.04 48.87 C 161.11 56.13 175.02 61.79 189.17 66.57 C 206.81 71.87 222.95 80.97 238.76 90.23 C 246.17 94.39 252.75 101.42 261.84 101.29 C 262.57 102.07 263.29 102.86 264.00 103.66 L 264.00 103.75 C 262.61 105.37 261.27 107.11 259.46 108.29 C 249.94 113.86 238.56 113.17 227.96 112.54 C 210.40 111.06 192.90 106.29 177.70 97.23 C 160.36 86.55 143.66 74.85 127.47 62.50 C 106.62 44.84 87.85 24.60 72.30 2.11 C 72.78 1.59 73.73 0.53 74.20 0.00 Z" />
<path fill="#05d9ae" opacity="1.00" d=" M 0.01 190.18 C 0.37 189.46 1.08 188.02 1.43 187.30 C 25.21 194.42 49.45 200.09 74.03 203.57 C 89.27 205.84 104.57 208.01 119.99 208.38 C 129.83 208.40 139.75 207.98 149.49 209.75 C 159.09 211.74 168.87 212.92 178.28 215.79 C 187.72 218.48 197.29 220.97 206.23 225.13 C 205.81 226.64 206.35 228.83 204.47 229.45 C 197.76 233.24 190.66 236.45 183.19 238.42 C 170.71 241.47 157.91 243.73 145.01 243.37 C 135.54 243.15 126.21 241.16 117.15 238.48 C 106.56 235.40 95.92 232.53 85.24 229.78 C 55.28 220.47 26.35 207.50 0.00 190.43 L 0.00 188.59 L 0.01 190.18 Z" />
<path fill="#05d9ae" opacity="1.00" d=" M 144.22 374.12 C 161.54 368.00 180.87 366.30 198.65 371.52 C 199.07 372.68 199.49 373.85 199.90 375.02 C 191.40 384.03 181.33 391.42 170.95 398.12 C 163.23 403.37 154.71 407.40 145.96 410.61 C 127.74 415.57 111.38 425.26 94.92 434.21 C 84.50 439.85 75.15 447.32 64.47 452.49 C 59.34 455.01 53.55 456.14 47.87 455.18 C 47.87 453.92 47.88 452.67 47.92 451.42 C 54.75 450.27 59.89 445.18 64.06 440.01 C 73.25 428.66 83.76 418.47 94.54 408.66 C 101.84 402.91 109.01 397.00 116.68 391.74 C 125.59 385.46 133.79 377.88 144.22 374.12 Z" />
</g>
</svg>
