<svg viewBox="0 0 162 12" fill="none" xmlns="http://www.w3.org/2000/svg">
<path d="M0.587891 9.01701C3.4616 6.91938 6.5652 5.2186 9.89869 3.80129C11.5654 3.12097 13.2322 2.44066 14.9564 1.93043C16.6806 1.42019 18.4623 0.90996 20.3015 0.683189C22.1407 0.456418 24.1523 0.399724 26.1064 0.796573C27.0835 1.02334 28.0605 1.3635 28.9226 1.70365C29.7847 2.1005 30.5894 2.49736 31.394 2.8942C32.1412 3.29105 32.8883 3.63121 33.6355 3.91467C34.3827 4.19813 35.1298 4.42491 35.877 4.65168C37.4288 5.04853 39.0381 5.2186 40.6473 5.2186C43.9234 5.2753 47.3718 4.76506 50.8203 4.14144C54.2687 3.51782 57.7172 2.72412 61.2805 2.21389C64.7865 1.70366 68.4648 1.47689 72.0282 2.38397C73.8099 2.78082 75.5341 3.51782 77.1434 4.31152C78.7527 5.10522 80.3045 5.89892 81.8563 6.40915C83.4081 6.91938 85.0173 7.20285 86.6841 7.20285C88.2934 7.20285 89.9601 7.03277 91.5694 6.69261C94.8454 6.0123 98.1215 4.87845 101.455 3.7446C104.788 2.61074 108.237 1.42019 111.973 0.853265C113.812 0.569801 115.766 0.456416 117.72 0.569801C119.674 0.739879 121.628 1.19342 123.41 1.87373C126.973 3.23436 129.905 5.16191 132.951 6.23907L134.1 6.63592L135.25 6.97608L135.824 7.14616L136.399 7.25954L137.606 7.48631C139.215 7.71308 140.882 7.88316 142.549 7.76978C143.354 7.76978 144.216 7.65639 145.02 7.5997C145.423 7.543 145.825 7.48631 146.285 7.42962C146.687 7.37293 147.089 7.31623 147.492 7.20285C148.296 6.97608 149.158 6.806 149.906 6.52253C150.308 6.40915 150.71 6.29576 151.113 6.12569L152.32 5.67214C155.481 4.36821 158.354 2.44066 160.883 0.0595703L161.171 0.286338C159.159 3.17766 156.4 5.67215 153.239 7.48631C150.078 9.30048 146.515 10.491 142.779 10.9446C140.94 11.228 139.043 11.1713 137.146 11.0579L135.767 10.8879L135.077 10.7745L134.388 10.6044L133.008 10.3209L131.629 9.9241C129.79 9.41386 128.123 8.62016 126.514 7.88316C124.904 7.14615 123.353 6.40915 121.858 5.89891C120.364 5.33199 118.87 4.99183 117.318 4.87845C115.766 4.76506 114.157 4.82175 112.547 4.99183C109.271 5.38868 105.995 6.35246 102.604 7.31623C99.2135 8.28001 95.765 9.35717 92.0867 9.81071C90.2475 10.0375 88.3508 10.0942 86.4542 9.8674C84.5576 9.64063 82.7184 9.1304 80.9942 8.39339C77.6032 6.806 74.9594 4.4816 71.6834 3.63121C68.4073 2.66743 64.9014 2.83751 61.5104 3.46113C58.062 4.08475 54.786 5.2186 51.395 6.23907C48.004 7.25954 44.4981 8.28001 40.7623 8.50678C38.8656 8.62016 36.969 8.50678 35.0724 8.05324C34.0953 7.82647 33.1757 7.543 32.3136 7.20285C31.394 6.86269 30.5319 6.40915 29.7847 5.95561C28.2329 5.10522 26.8536 4.31152 25.4167 3.97136C23.9799 3.57451 22.3706 3.51782 20.7038 3.63121C17.4278 3.91467 13.9794 4.76506 10.7033 5.67214C7.36983 6.63592 4.09381 7.88316 0.875261 9.24378L0.587891 9.01701Z" fill="#05D9AE"/>
</svg>
