<svg viewBox="0 0 78 92" fill="none" xmlns="http://www.w3.org/2000/svg">
<path d="M36.1649 88.8292C35.1264 87.9298 34.1641 86.8936 33.2018 85.8575C33.0257 85.7238 32.7339 85.6691 32.5999 85.8453C32.4659 86.0216 32.4108 86.3133 32.587 86.4469L32.6264 86.5047C33.1943 86.9635 33.7805 87.3251 34.3667 87.6867C34.9346 88.1455 35.5208 88.5071 36.1649 88.8292Z" fill="black"/>
<path d="M28.3243 79.9599C26.8466 77.921 25.5423 75.7637 24.4508 73.5457C24.0353 72.8134 23.1784 72.5521 22.4636 72.8711C21.7488 73.1901 21.4678 74.1442 21.7861 74.8582C21.8255 74.9159 21.8255 74.9159 21.8649 74.9737C23.306 77.2069 24.9204 79.3217 26.7267 81.2208C27.1 81.6431 27.7992 81.6735 28.2222 81.2998C28.5875 80.9656 28.6977 80.3822 28.3243 79.9599Z" fill="black"/>
<path d="M21.6611 66.7307C20.8982 64.3729 20.3876 62.012 20.0504 59.5327C19.9029 58.4479 18.8855 57.7035 17.8 57.8524C16.7146 58.0012 15.9684 59.0191 16.1159 60.1038L16.1554 60.1615C16.6109 62.8141 17.3765 65.4241 18.3156 67.9157C18.6943 68.8424 19.709 69.3346 20.6367 68.9548C21.4672 68.5568 21.9426 67.6392 21.6611 66.7307Z" fill="black"/>
<path d="M19.7197 52.2219L19.8558 50.4353C19.9266 49.7942 19.9396 49.1925 20.0498 48.6092C20.173 47.4242 20.4118 46.1602 20.6322 44.9935C20.8921 43.8844 20.2005 42.748 19.0334 42.5293C17.9242 42.271 16.7863 42.9637 16.5658 44.1305C16.2692 45.4339 16.0121 46.7951 15.8127 48.1169C15.7419 48.758 15.7106 49.4568 15.6398 50.0979L15.5064 52.1367C15.441 53.2822 16.306 54.3001 17.452 54.3639C18.598 54.4277 19.5598 53.6013 19.6829 52.4163L19.7197 52.2219Z" fill="black"/>
<path d="M22.8475 38.0598C23.7747 35.8175 24.9936 33.6298 26.3308 31.6154C26.8852 30.8132 26.6982 29.6708 25.8386 29.1573C25.0368 28.6042 23.9908 28.8108 23.397 29.5552C21.7312 31.7095 20.3389 34.0156 19.1805 36.4159C18.6866 37.4308 19.1259 38.5702 20.1406 39.0624C21.1553 39.5547 22.3537 39.0746 22.8475 38.0598C22.7897 38.0993 22.8475 38.0598 22.8475 38.0598Z" fill="black"/>
<path d="M31.0048 25.7969C32.7127 23.9526 34.5389 22.2815 36.5018 20.6864C36.9249 20.3126 36.9957 19.6715 36.6801 19.2097C36.3068 18.7873 35.7232 18.6779 35.3186 18.9544C33.0428 20.3399 30.9432 21.8591 28.9435 23.6487C28.2892 24.1804 28.2606 25.1314 28.7917 25.7847C29.3228 26.438 30.2743 26.4653 30.9286 25.9336C30.8892 25.8759 30.947 25.8364 31.0048 25.7969Z" fill="black"/>
<path d="M42.765 16.3236C43.9607 15.5914 45.1564 14.8591 46.431 14.2423C45.7529 14.3669 45.0564 14.5887 44.36 14.8105C43.6635 15.0323 43.0643 15.2723 42.3679 15.4941C42.155 15.5549 42.0026 15.8283 42.1604 16.0592C42.3182 16.2902 42.4943 16.4239 42.7256 16.2659C42.6677 16.3054 42.7072 16.3631 42.765 16.3236Z" fill="black"/>
<path d="M38.3141 8.69393C39.6049 9.5903 41.048 10.2132 42.4912 10.8361C43.9922 11.4195 45.4721 11.848 47.0676 12.1974C48.6237 12.4891 50.256 12.6441 51.8855 12.5469C53.5151 12.4497 55.1814 12.1581 56.8055 11.5565L55.6719 9.0285C54.2634 9.82151 53.0309 10.7482 51.838 11.7326C50.645 12.7171 49.5309 13.8169 48.5535 14.9928C47.5761 16.1687 46.717 17.5177 46.0524 18.9032C45.3879 20.2887 44.9572 21.7684 44.8184 23.3028C45.5224 21.9751 46.3053 20.7627 47.2249 19.6264C48.1445 18.49 49.143 17.4691 50.1809 16.506C51.2188 15.5428 52.3356 14.6951 53.5102 13.8079C54.627 12.9602 55.8805 12.1885 57.0184 11.4957C57.6938 11.119 57.9564 10.2622 57.5803 9.58761C57.2437 8.97081 56.5813 8.74595 55.8848 8.96774C54.5892 9.42956 53.1752 9.71818 51.7796 9.90957C50.3445 10.0432 48.8884 10.0219 47.4323 10.0006C45.9367 9.92161 44.4595 9.74535 42.9429 9.51136C41.3684 9.31687 39.8124 9.02515 38.3141 8.69393Z" fill="black"/>
</svg>
