<svg viewBox="0 0 82 91" fill="none" xmlns="http://www.w3.org/2000/svg">
<path d="M43.8378 88.8339C44.8766 87.9325 45.8398 86.8946 46.8029 85.8567C46.9791 85.7227 47.2704 85.6672 47.4036 85.843C47.5368 86.0187 47.5909 86.31 47.4148 86.444L47.3753 86.5018C46.8073 86.9618 46.2213 87.3247 45.6353 87.6875C45.0674 88.1475 44.4814 88.5104 43.8378 88.8339Z" fill="black"/>
<path d="M51.6772 79.9659C53.1571 77.9252 54.4643 75.7666 55.5592 73.5478C55.9758 72.8151 56.8315 72.5519 57.5438 72.8688C58.2561 73.1857 58.5338 74.1381 58.2144 74.8523C58.1749 74.9101 58.1749 74.9101 58.1354 74.9679C56.6916 77.2028 55.0751 79.3197 53.2678 81.2216C52.8941 81.6445 52.1965 81.6767 51.7754 81.3044C51.4119 80.9714 51.3035 80.3888 51.6772 79.9659Z" fill="black"/>
<path d="M58.3351 66.7373C59.1037 64.3781 59.6203 62.0165 59.9641 59.5369C60.1145 58.452 61.1326 57.7051 62.2161 57.851C63.2996 57.9969 64.0417 59.0125 63.8913 60.0973L63.8518 60.1551C63.3894 62.8082 62.6174 65.4196 61.6725 67.913C61.2916 68.8405 60.277 69.3353 59.3517 68.9581C58.5236 68.5624 58.0514 67.6463 58.3351 66.7373Z" fill="black"/>
<path d="M60.2739 52.2285L60.1429 50.4416C60.074 49.8004 60.0628 49.1986 59.9543 48.6153C59.8346 47.4302 59.5996 46.1663 59.3826 44.9997C59.1261 43.891 59.8205 42.7523 60.9874 42.5303C62.0967 42.2689 63.2318 42.9589 63.4488 44.1255C63.7415 45.4287 63.9946 46.7897 64.19 48.1114C64.2589 48.7526 64.2882 49.4516 64.3571 50.0928L64.4847 52.132C64.5467 53.2778 63.6793 54.2984 62.5339 54.3653C61.3885 54.4322 60.4298 53.6081 60.31 52.4229L60.2739 52.2285Z" fill="black"/>
<path d="M57.1435 38.0643C56.2228 35.8221 55.0102 33.6355 53.6788 31.6226C53.1267 30.8211 53.3169 29.677 54.178 29.1607C54.9814 28.6049 56.0268 28.8089 56.6184 29.5525C58.278 31.7044 59.6637 34.0092 60.8152 36.4089C61.3061 37.4234 60.8636 38.5652 59.8475 39.0607C58.8314 39.5561 57.6344 39.0788 57.1435 38.0643C57.2012 38.1037 57.1435 38.0643 57.1435 38.0643Z" fill="black"/>
<path d="M48.9897 25.7994C47.2857 23.9559 45.4628 22.2863 43.5028 20.6932C43.0805 20.3199 43.0115 19.6776 43.3286 19.214C43.7035 18.7898 44.2878 18.6786 44.692 18.9546C46.9657 20.3368 49.0626 21.8534 51.0588 23.6412C51.7121 24.1723 51.738 25.1252 51.2046 25.7812C50.6711 26.4372 49.7188 26.4672 49.0655 25.9362C49.1052 25.8782 49.0474 25.8388 48.9897 25.7994Z" fill="black"/>
<path d="M37.2349 16.3231C36.0402 15.5925 34.8455 14.8618 33.5716 14.247C34.2499 14.3701 34.9463 14.5906 35.6427 14.8111C36.339 15.0316 36.9381 15.2706 37.6344 15.4911C37.8473 15.5515 37.9991 15.8251 37.8406 16.0568C37.6821 16.2885 37.5055 16.4229 37.2745 16.2652C37.3322 16.3046 37.2926 16.3626 37.2349 16.3231Z" fill="black"/>
<path d="M41.6893 8.66721C40.3965 9.56736 38.9522 10.1943 37.5079 10.8212C36.0059 11.4087 34.5254 11.8411 32.9295 12.1948C31.3732 12.4906 29.7412 12.6498 28.1125 12.5567C26.4837 12.4635 24.8188 12.1758 23.1969 11.578L24.3368 9.04561C25.7428 9.83555 26.9723 10.7597 28.1622 11.7417C29.3521 12.7238 30.4628 13.8215 31.4367 14.9956C32.4106 16.1697 33.2658 17.5174 33.9264 18.9021C34.587 20.2868 35.0135 21.7663 35.1482 23.3013C34.448 21.9745 33.6686 20.7634 32.7524 19.6287C31.8362 18.4939 30.8408 17.4749 29.8059 16.5138C28.7709 15.5527 27.6568 14.7073 26.485 13.8225C25.3708 12.9771 24.1199 12.208 22.9842 11.5177C22.3101 11.1424 22.0499 10.2857 22.4277 9.60985C22.7658 8.99183 23.4286 8.76517 24.1242 8.98534C25.4181 9.44418 26.8308 9.72943 28.2254 9.91743C29.6596 10.0476 31.1152 10.0226 32.5709 9.99763C34.0661 9.91479 35.5432 9.73471 37.0599 9.49677C38.6343 9.2982 40.1906 9.0024 41.6893 8.66721Z" fill="black"/>
</svg>
