<svg viewBox="0 0 793 535" fill="none" xmlns="http://www.w3.org/2000/svg">
<path d="M676.812 266.557C720.269 152.503 601.06 100.235 497.661 135.572C304.078 201.784 230.57 -27.2831 89.8406 90.017C-17.9195 179.8 -21.3832 493.854 259.018 485.85C414.564 481.386 603.305 459.439 676.812 266.557Z" fill="url(#paint0_linear)"/>
<g opacity="0.7">
<path d="M132.734 177.958L115.683 180.155C115.165 180.219 114.779 180.596 114.675 181.093L111.808 195.101C105.349 197.537 99.4878 200.981 94.298 205.187L80.71 200.629C80.2181 200.484 79.6901 200.632 79.3876 201.019L68.9199 214.646C68.6174 215.034 68.5925 215.583 68.881 216.001L76.7579 227.972C74.0147 234.05 72.1879 240.624 71.5125 247.508L58.7067 253.881C58.2522 254.122 57.9813 254.599 58.0503 255.075L60.2475 272.126C60.3114 272.644 60.6888 273.03 61.1859 273.133L75.1939 276.001C77.6296 282.46 81.0734 288.321 85.2795 293.511L80.722 307.099C80.5766 307.591 80.7242 308.119 81.1119 308.421L94.744 318.847C95.1317 319.149 95.681 319.174 96.0988 318.886L108.07 311.009C114.148 313.752 120.721 315.579 127.606 316.254L133.978 329.06C134.22 329.515 134.696 329.786 135.172 329.717L152.224 327.519C152.741 327.455 153.128 327.078 153.231 326.581L156.098 312.573C162.558 310.137 168.419 306.693 173.608 302.487L187.196 307.045C187.688 307.19 188.216 307.043 188.519 306.655L198.986 293.028C199.289 292.64 199.314 292.091 199.025 291.673L191.149 279.702C193.892 273.624 195.719 267.051 196.394 260.166L209.2 253.794C209.654 253.552 209.925 253.076 209.856 252.6L207.659 235.548C207.595 235.031 207.218 234.644 206.72 234.541L192.713 231.674C190.277 225.214 186.833 219.353 182.627 214.164L187.184 200.576C187.33 200.084 187.182 199.556 186.794 199.253L173.168 188.786C172.78 188.483 172.231 188.458 171.813 188.747L159.842 196.623C153.764 193.88 147.19 192.054 140.306 191.378L133.933 178.572C133.692 178.118 133.21 177.889 132.734 177.958ZM127.466 237.47C136.486 233.904 146.731 238.348 150.339 247.373C151.48 250.19 151.795 253.16 151.451 255.964C150.69 262.159 146.644 267.78 140.44 270.205C131.421 273.77 121.175 269.326 117.567 260.301C114.002 251.281 118.446 241.036 127.466 237.47ZM177.706 248.355C178.185 252.067 178.198 255.765 177.756 259.365C175.377 278.743 160.145 294.844 139.94 297.461C136.228 297.94 132.488 297.948 128.847 297.501C121.145 296.555 113.864 293.579 107.535 288.724C98.2562 281.594 92.3025 271.261 90.7971 259.648C90.6803 258.869 90.6105 258.053 90.5356 257.279L90.5408 257.237C90.4005 255.266 90.3909 253.268 90.5018 251.327C90.5429 250.992 90.5421 250.652 90.5781 250.359L95.2863 250.767C95.0727 253.545 95.1153 256.312 95.4979 259.078C96.8007 268.882 101.627 277.674 109.177 283.997C109.602 284.347 109.984 284.691 110.414 284.999C116.046 289.301 122.558 291.97 129.422 292.813C132.645 293.209 136.003 293.196 139.328 292.755C160.699 289.984 175.814 270.342 173.047 248.93C170.675 230.88 156.325 217.307 139.039 215.184C135.858 214.794 132.548 214.769 129.222 215.211C122.184 216.131 115.553 218.928 110.044 223.307L107.102 219.59C113.31 214.701 120.751 211.537 128.61 210.505C132.323 210.026 136.021 210.013 139.62 210.455C158.946 212.913 175.047 228.145 177.706 248.355Z" fill="#5D88E6"/>
<path d="M138.684 265.825C145.295 263.196 148.552 255.693 145.923 249.083C143.293 242.472 135.791 239.214 129.18 241.844C122.57 244.473 119.312 251.975 121.941 258.586C124.571 265.197 132.073 268.455 138.684 265.825Z" fill="#5D88E6"/>
<path d="M77.6508 145.618L72.0351 146.373C71.8625 146.394 71.7215 146.504 71.701 146.672L70.7487 151.313C68.6112 152.113 66.6889 153.236 64.945 154.637L60.4541 153.151C60.2918 153.088 60.1141 153.151 60.015 153.267L56.5728 157.772C56.4737 157.887 56.448 158.097 56.5581 158.238L59.1766 162.17C58.25 164.181 57.6846 166.363 57.4489 168.629L53.196 170.74C53.0602 170.809 52.9559 170.966 52.9772 171.138L53.7322 176.754C53.7534 176.927 53.8636 177.068 54.031 177.088L58.6724 178.041C59.4721 180.178 60.5956 182.1 61.9959 183.844L60.5097 188.335C60.4473 188.497 60.5105 188.675 60.6258 188.774L65.1314 192.216C65.2467 192.316 65.4559 192.341 65.5969 192.231L69.5297 189.613C71.5401 190.539 73.7224 191.105 75.9877 191.34L78.0995 195.593C78.1678 195.729 78.325 195.833 78.4975 195.812L84.1133 195.057C84.2858 195.036 84.4268 194.926 84.4474 194.758L85.3997 190.117C87.5371 189.317 89.4595 188.194 91.2034 186.793L95.6943 188.279C95.8565 188.342 96.0342 188.279 96.1334 188.163L99.5756 183.658C99.6747 183.543 99.7004 183.333 99.5903 183.192L96.9718 179.26C97.8984 177.249 98.4638 175.067 98.6994 172.801L102.952 170.69C103.088 170.621 103.192 170.464 103.171 170.292L102.416 164.676C102.395 164.503 102.285 164.362 102.117 164.342L97.476 163.39C96.6763 161.252 95.5528 159.33 94.1525 157.586L95.6386 153.095C95.701 152.933 95.6379 152.755 95.5226 152.656L91.017 149.214C90.9017 149.114 90.6924 149.089 90.5515 149.199L86.6187 151.817C84.6082 150.891 82.4259 150.325 80.1607 150.09L78.0488 145.837C77.9387 145.696 77.7815 145.592 77.6508 145.618ZM75.9153 165.288C78.9045 164.126 82.297 165.562 83.4594 168.551C83.8118 169.486 83.9448 170.48 83.8317 171.401C83.5799 173.452 82.2501 175.285 80.1963 176.095C77.2071 177.257 73.8147 175.821 72.6523 172.832C71.448 169.838 72.9261 166.45 75.9153 165.288ZM92.5086 168.897C92.6526 170.147 92.6761 171.34 92.5322 172.512C91.7459 178.915 86.7154 184.245 80.0276 185.081C78.7779 185.225 77.5854 185.249 76.3716 185.1C73.8185 184.786 71.4314 183.813 69.3357 182.196C66.2708 179.823 64.3073 176.438 63.802 172.595C63.7491 172.334 63.7381 172.077 63.7271 171.821C63.6786 171.178 63.6771 170.498 63.7124 169.865C63.7278 169.739 63.7381 169.656 63.7535 169.53L65.3072 169.678C65.236 170.604 65.2537 171.499 65.3499 172.445C65.7596 175.682 67.356 178.597 69.8607 180.689C70.0178 180.793 70.1331 180.892 70.2851 181.038C72.1502 182.457 74.2914 183.357 76.5515 183.635C77.6397 183.768 78.7015 183.771 79.8256 183.612C86.8637 182.692 91.8655 176.211 90.9505 169.131C90.153 163.17 85.4359 158.682 79.7019 157.978C78.6555 157.85 77.5519 157.842 76.4696 158.006C74.1375 158.315 71.9428 159.235 70.1519 160.672L69.1973 159.45C71.2231 157.829 73.6896 156.773 76.3198 156.458C77.5695 156.314 78.762 156.291 79.9339 156.435C86.3008 157.174 91.6311 162.204 92.5086 168.897Z" fill="#5D88E6"/>
<path d="M79.6074 174.663C81.797 173.785 82.8639 171.324 81.9857 169.135C81.1074 166.945 78.6468 165.878 76.4572 166.756C74.2676 167.635 73.2007 170.095 74.079 172.285C74.9624 174.433 77.4229 175.499 79.6074 174.663Z" fill="#5D88E6"/>
</g>
<path d="M668.844 305.794C668.844 305.794 628.32 212.224 658.979 113.57C659.207 112.963 660.345 113.039 660.421 113.722C667.782 173.446 669.983 238.026 668.844 305.794Z" fill="#91B3FA"/>
<path opacity="0.64" d="M668.616 303.821C668.692 303.821 668.692 303.821 668.768 303.821C669.072 303.745 669.224 303.441 669.148 303.213C662.014 277.791 659.282 234.459 658.22 202.662C657.082 168.133 657.689 139.296 657.689 138.993C657.689 138.689 657.461 138.461 657.158 138.461C656.854 138.461 656.626 138.689 656.626 138.993C656.626 139.296 656.019 168.209 657.158 202.738C658.22 234.611 660.952 278.019 668.085 303.593C668.237 303.669 668.389 303.821 668.616 303.821Z" fill="white"/>
<path d="M678.103 290.54C678.103 290.54 653.06 175.722 700.338 59.4622C700.641 58.7034 701.78 58.931 701.704 59.7658C699.2 131.783 690.624 209.34 678.103 290.54Z" fill="#91B3FA"/>
<path opacity="0.64" d="M678.33 288.112C678.33 288.112 678.406 288.112 678.33 288.112C678.634 288.112 678.862 287.808 678.862 287.581C673.246 228.312 694.646 91.2593 694.874 89.8933C694.95 89.5897 694.722 89.3621 694.419 89.2862C694.115 89.2103 693.887 89.438 693.811 89.7415C693.584 91.1075 672.184 228.312 677.799 287.732C677.875 287.884 678.103 288.112 678.33 288.112Z" fill="white"/>
<path d="M682.049 321.73C682.049 321.73 670.058 221.558 729.63 131.404C730.01 130.797 731.072 131.176 730.996 131.859C720.524 191.81 703.449 255.556 682.049 321.73Z" fill="#91B3FA"/>
<path opacity="0.64" d="M682.656 319.757C682.959 319.757 683.187 319.53 683.187 319.226C683.718 292.817 693.963 249.865 702.387 218.447C711.569 184.374 720.752 156.219 720.827 155.992C720.903 155.688 720.752 155.46 720.524 155.309C720.22 155.233 719.993 155.385 719.841 155.612C719.765 155.916 710.583 184.07 701.324 218.144C692.825 249.637 682.58 292.665 682.049 319.226C682.125 319.53 682.352 319.757 682.656 319.757Z" fill="white"/>
<path d="M706.712 266.484H651.618C647.975 266.484 645.319 269.823 646.154 273.39C649.645 288.643 653.895 304.124 662.546 319.833C664.139 322.717 667.175 324.538 670.514 324.538H688.499C691.763 324.538 694.722 322.717 696.316 319.909C703.222 307.084 709.9 291.678 713.163 274.3C713.922 270.278 710.81 266.484 706.712 266.484Z" fill="url(#paint1_linear)"/>
<g opacity="0.8">
<path d="M432.94 394.903C432.94 394.903 446.486 337.521 476.745 329.159C507.018 320.738 559.422 324.253 582.683 242.905C596.317 195.281 602.976 174.599 606.121 165.686C607.352 162.176 604.93 158.466 601.277 158.265C575.179 156.472 489.36 154.653 458.02 205.377C420.806 265.369 432.94 394.903 432.94 394.903Z" fill="#5D88E6"/>
<path d="M576.064 175.921C542.425 193.135 499.596 227.983 471.464 266.67C467.43 273.215 457.192 286.682 447.425 312.769C439.104 334.524 434.164 358.482 433.077 374.904C432.993 375.949 433.764 376.842 434.81 376.927C436.592 377.078 436.848 375.135 436.833 375.194C440.411 347.553 450.515 314.644 466.124 286.629C485.69 252.361 517.209 222.347 548.048 198.058L551.183 195.674C574.898 177.501 578.706 178.307 577.416 176.275C577.156 175.83 576.568 175.676 576.064 175.921Z" fill="#BDD0FB"/>
<path d="M388 463.5C384.012 464.342 407.433 457.2 438.257 386.809C452.771 353.608 464.208 310.308 488.281 298.698C508.325 289.049 561.874 312.459 579.283 320.587C581.469 321.597 581.48 324.678 579.317 325.745C568.637 330.806 545.351 343.25 535.895 359.496C523.465 380.869 497.696 389.838 477.03 388.647C456.349 387.515 444.474 388.495 426.689 417.387C408.919 446.22 399.403 461.203 388 463.5Z" fill="#A6BAE7"/>
<path d="M551.041 323.634C527.498 318.552 499.688 322.592 481.767 339.264L480.099 340.838C476.169 344.584 452.177 372.231 436.61 396.239C436.401 396.561 436.485 396.96 436.822 397.111C437.305 397.425 437.753 396.914 437.679 396.957C447.62 383.665 461.295 367.14 471.919 354.842C483.394 341.447 491.287 332.393 510.889 326.837C532.631 321.023 550.957 324.68 550.898 324.665C551.192 324.741 551.445 324.493 551.507 324.258C551.466 323.934 551.277 323.696 551.041 323.634Z" fill="url(#paint2_linear)"/>
</g>
<path d="M633.001 533.306C633.942 533.306 634.707 532.541 634.707 531.6V329C634.707 328.059 633.942 327.294 633.001 327.294C632.06 327.294 631.295 328.059 631.295 329V531.6C631.354 532.541 632.119 533.306 633.001 533.306Z" fill="url(#paint3_linear)"/>
<path d="M678.944 533.306C679.886 533.306 680.65 532.541 680.65 531.6V329C680.65 328.059 679.886 327.294 678.944 327.294C678.003 327.294 677.238 328.059 677.238 329V531.6C677.297 532.541 678.062 533.306 678.944 533.306Z" fill="url(#paint4_linear)"/>
<path d="M791.833 534.6C792.069 534.6 792.304 534.541 792.48 534.482C793.363 534.129 793.716 533.129 793.363 532.247L706.652 328.353C706.299 327.471 705.299 327.118 704.417 327.471C703.534 327.824 703.181 328.824 703.534 329.706L790.245 533.6C790.539 534.188 791.186 534.6 791.833 534.6Z" fill="url(#paint5_linear)"/>
<path d="M738.301 534.6C738.536 534.6 738.772 534.541 738.948 534.482C739.831 534.129 740.184 533.129 739.831 532.247L653.12 328.353C652.767 327.471 651.767 327.118 650.884 327.471C650.002 327.824 649.649 328.824 650.002 329.706L736.713 533.6C737.007 534.188 737.654 534.6 738.301 534.6Z" fill="url(#paint6_linear)"/>
<path d="M629.824 330.824H710.417C711.417 330.824 712.24 330 712.24 329V327.824C712.24 326.824 711.417 326 710.417 326H629.824C628.824 326 628 326.824 628 327.824V329C628 330.059 628.824 330.824 629.824 330.824Z" fill="url(#paint7_linear)"/>
<path d="M664.708 361.826H718.417C719.358 361.826 720.123 361.061 720.123 360.12C720.123 359.178 719.358 358.414 718.417 358.414H664.708C663.767 358.414 663.002 359.178 663.002 360.12C663.002 361.12 663.767 361.826 664.708 361.826Z" fill="url(#paint8_linear)"/>
<path d="M681.179 397.004H734.888V400.416H681.179V397.004Z" fill="url(#paint9_linear)"/>
<path d="M697.123 435.594H750.832V439.006H697.123V435.594Z" fill="url(#paint10_linear)"/>
<path d="M713.887 477.538H767.596C768.538 477.538 769.302 476.773 769.302 475.832C769.302 474.891 768.538 474.126 767.596 474.126H713.887C712.946 474.126 712.181 474.891 712.181 475.832C712.181 476.773 712.946 477.538 713.887 477.538Z" fill="url(#paint11_linear)"/>
<path d="M730.006 516.128H783.715C784.656 516.128 785.421 515.364 785.421 514.422C785.421 513.481 784.656 512.716 783.715 512.716H730.006C729.065 512.716 728.3 513.481 728.3 514.422C728.359 515.364 729.124 516.128 730.006 516.128Z" fill="url(#paint12_linear)"/>
<path d="M63.2225 279.884L60.7863 280.849H60.7457C60.3396 281.033 59.893 280.757 59.7306 280.298C59.5681 279.838 59.8118 279.333 60.2178 279.149L62.6947 278.139C63.1007 277.955 63.5474 278.23 63.7098 278.69C63.8722 279.195 63.6286 279.7 63.2225 279.884Z" fill="#DCE5FE"/>
<path d="M54.4094 283.881L52.0949 285.167H52.0543C51.6483 285.397 51.161 285.213 50.958 284.754C50.755 284.294 50.9174 283.743 51.3235 283.513L53.6785 282.181C54.0845 281.952 54.5718 282.135 54.7748 282.595C55.0184 283.1 54.856 283.651 54.4094 283.881Z" fill="#DCE5FE"/>
<path d="M46.1278 289.072L43.9351 290.68H43.8945C43.5291 290.955 43.0012 290.817 42.7576 290.404C42.514 289.99 42.6358 289.393 43.0012 289.118L45.2345 287.51C45.5999 287.234 46.1278 287.372 46.3714 287.786C46.615 288.199 46.5338 288.796 46.1278 289.072Z" fill="#DCE5FE"/>
<path d="M38.3703 295.227L36.3806 297.064C36.0152 297.386 35.4874 297.34 35.2031 296.926C34.9189 296.513 34.9595 295.916 35.3249 295.594L37.3551 293.711C37.7206 293.389 38.2078 293.435 38.5327 293.849C38.8169 294.308 38.7357 294.905 38.3703 295.227Z" fill="#DCE5FE"/>
<path d="M31.2654 302.346L29.4382 304.414C29.1134 304.781 28.5855 304.781 28.2607 304.414C27.9359 304.046 27.9359 303.449 28.2607 303.081L30.1285 300.968C30.4533 300.601 30.9812 300.601 31.306 300.968C31.5903 301.336 31.5903 301.933 31.2654 302.346Z" fill="#DCE5FE"/>
<path d="M24.8112 310.202L23.187 312.452C22.9028 312.866 22.3749 312.912 22.0095 312.59C21.6441 312.269 21.6035 311.671 21.8877 311.258L23.5525 308.961C23.8367 308.548 24.3646 308.502 24.73 308.823C25.0548 309.191 25.136 309.788 24.8112 310.202Z" fill="#DCE5FE"/>
<path d="M19.0838 318.745L17.6627 321.18C17.4191 321.639 16.8506 321.731 16.4852 321.456C16.0791 321.18 15.9979 320.583 16.2415 320.124L17.7033 317.643C17.9469 317.184 18.4748 317.092 18.8808 317.367C19.2462 317.689 19.3681 318.286 19.0838 318.745Z" fill="#DCE5FE"/>
<path d="M14.0892 327.887L12.8711 330.459C12.6275 330.919 12.1402 331.102 11.6936 330.873C11.2875 330.597 11.1251 330.046 11.3281 329.541L12.5868 326.922C12.8305 326.463 13.3177 326.279 13.7644 326.509C14.1704 326.83 14.3328 327.382 14.0892 327.887Z" fill="#DCE5FE"/>
<path d="M9.90754 337.533L8.89244 340.244V340.29C8.68942 340.795 8.20216 341.024 7.75551 340.795C7.30887 340.565 7.10584 340.014 7.30886 339.509L8.32397 336.752C8.52699 336.247 9.01425 336.018 9.46089 336.247C9.90754 336.431 10.1106 336.982 9.90754 337.533Z" fill="#DCE5FE"/>
<path d="M6.53565 347.548L5.76417 350.35V350.396C5.60175 350.901 5.1145 351.222 4.66785 351.039C4.2212 350.855 3.93698 350.304 4.09939 349.798L4.87087 346.95C5.03329 346.445 5.52054 346.123 5.96719 346.307C6.41384 346.445 6.69806 346.996 6.53565 347.548Z" fill="#DCE5FE"/>
<path d="M4.01876 357.883L3.4909 360.731V360.777C3.40969 361.328 2.92245 361.695 2.4352 361.558C1.94795 361.466 1.62311 360.915 1.74493 360.363L2.27278 357.469C2.35398 356.918 2.84124 356.597 3.32849 356.689C3.81574 356.78 4.14058 357.332 4.01876 357.883Z" fill="#DCE5FE"/>
<path d="M2.43767 368.494L2.15344 371.388V371.434C2.11284 371.985 1.66619 372.399 1.17894 372.353C0.691685 372.307 0.326247 371.801 0.366851 371.25L0.65108 368.264C0.691684 367.713 1.13833 367.3 1.62558 367.346C2.11283 367.392 2.47827 367.897 2.43767 368.494Z" fill="#DCE5FE"/>
<path d="M1.78658 379.151V382.091V382.136C1.78658 382.688 1.38054 383.147 0.893291 383.147C0.406041 383.147 0 382.688 0 382.136V379.151C0 378.599 0.406041 378.14 0.893291 378.14C1.38054 378.094 1.78658 378.554 1.78658 379.151Z" fill="#DCE5FE"/>
<path d="M2.11103 389.9L2.35466 392.793V392.839C2.39526 393.391 2.02983 393.942 1.54258 393.988C1.05533 394.034 0.568075 393.62 0.527471 393.069L0.283844 390.083C0.243239 389.532 0.608677 388.981 1.09593 388.935C1.62378 388.889 2.07043 389.302 2.11103 389.9Z" fill="#DCE5FE"/>
<path d="M3.41197 400.511L3.89921 403.359V403.405C3.98042 403.956 3.65559 404.507 3.16834 404.645C2.68109 404.737 2.19384 404.369 2.07202 403.818L1.54417 400.878C1.46297 400.327 1.7878 399.776 2.27505 399.638C2.8029 399.546 3.33076 399.914 3.41197 400.511Z" fill="#DCE5FE"/>
<path d="M5.60277 410.938L6.33364 413.74V413.786C6.49605 414.337 6.21182 414.934 5.68397 415.118C5.19672 415.302 4.66887 414.98 4.50645 414.383L3.77558 411.535C3.61316 410.984 3.89739 410.387 4.42525 410.203C4.9125 410.065 5.44035 410.387 5.60277 410.938Z" fill="#DCE5FE"/>
<path d="M8.60928 421.136L9.58378 423.846V423.892C9.7868 424.443 9.54318 425.086 9.05593 425.27C8.56868 425.5 8.00022 425.224 7.8378 424.673L6.86331 421.917C6.66029 421.366 6.90391 420.723 7.39116 420.539C7.8378 420.263 8.40626 420.539 8.60928 421.136Z" fill="#DCE5FE"/>
<path d="M12.3843 430.966L13.5618 433.585C13.8054 434.136 13.6024 434.779 13.1558 435.055C12.6685 435.33 12.1001 435.101 11.8564 434.595L10.6789 431.931C10.4353 431.38 10.6383 430.737 11.1256 430.461C11.5722 430.185 12.1407 430.415 12.3843 430.966Z" fill="#DCE5FE"/>
<path d="M16.9327 440.383L18.2727 442.864C18.5569 443.369 18.3945 444.058 17.9478 444.379C17.5012 444.701 16.8921 444.517 16.6079 444.012L15.2273 441.485C14.9431 440.98 15.1055 440.291 15.5522 439.97C16.0394 439.694 16.6079 439.878 16.9327 440.383Z" fill="#DCE5FE"/>
<path d="M22.1303 449.386L23.6733 451.729C23.9981 452.234 23.9169 452.923 23.4702 453.291C23.0236 453.658 22.4145 453.566 22.0897 453.061L20.5467 450.672C20.2219 450.167 20.3437 449.478 20.7497 449.11C21.1964 448.743 21.8055 448.881 22.1303 449.386Z" fill="#DCE5FE"/>
<path d="M27.935 457.838L29.6404 460.043C30.0058 460.503 29.9652 461.238 29.5592 461.605C29.1531 462.019 28.5034 461.973 28.1786 461.513L26.4732 459.262C26.1078 458.803 26.1484 458.114 26.595 457.701C26.9605 457.333 27.5696 457.379 27.935 457.838Z" fill="#DCE5FE"/>
<path d="M34.3512 465.785L36.1784 467.852C36.5845 468.312 36.5845 469.001 36.1784 469.46C35.7724 469.919 35.1633 469.919 34.7573 469.46L32.8895 467.347C32.4835 466.888 32.4835 466.199 32.8895 465.739C33.3361 465.326 33.9452 465.326 34.3512 465.785Z" fill="#DCE5FE"/>
<path d="M41.2933 473.089L43.2829 474.972C43.7295 475.385 43.7701 476.074 43.4047 476.58C43.0393 477.039 42.4302 477.131 41.9835 476.717L39.9533 474.788C39.5473 474.375 39.4661 473.686 39.8315 473.18C40.2376 472.721 40.8872 472.675 41.2933 473.089Z" fill="#DCE5FE"/>
<path d="M48.7659 479.749L50.8773 481.449C51.324 481.817 51.4458 482.551 51.1209 483.057C50.7961 483.562 50.1464 483.7 49.6998 483.332L47.5478 481.587C47.1011 481.219 46.9793 480.484 47.3041 479.979C47.6696 479.474 48.2786 479.336 48.7659 479.749Z" fill="#DCE5FE"/>
<path d="M56.6426 485.675L58.8758 487.145C59.3631 487.467 59.5255 488.202 59.2413 488.753C58.9571 489.304 58.3074 489.488 57.8201 489.166L55.5463 487.65C55.0591 487.329 54.8966 486.594 55.1809 486.043C55.5463 485.491 56.1554 485.308 56.6426 485.675Z" fill="#DCE5FE"/>
<path d="M64.9667 490.82L67.2812 492.106H67.3218C67.8496 492.382 68.0526 493.071 67.809 493.668C67.5654 494.265 66.9563 494.495 66.4285 494.219L64.0734 492.933C63.5456 492.658 63.3425 491.969 63.5862 491.371C63.8298 490.774 64.4389 490.545 64.9667 490.82Z" fill="#DCE5FE"/>
<path d="M73.6157 495.23L76.0114 496.286H76.052C76.5799 496.516 76.8641 497.205 76.6611 497.802C76.458 498.399 75.849 498.721 75.3211 498.491L72.8849 497.389C72.357 497.159 72.0728 496.47 72.2758 495.873C72.4788 495.276 73.0879 494.954 73.6157 495.23Z" fill="#DCE5FE"/>
<path d="M82.5883 498.813L85.0652 499.64H85.1058C85.6742 499.823 85.9991 500.512 85.796 501.11C85.6336 501.753 85.0246 502.12 84.4967 501.89L81.9793 501.018C81.4108 500.834 81.1266 500.145 81.289 499.548C81.4108 498.951 81.9793 498.629 82.5883 498.813Z" fill="#DCE5FE"/>
<path d="M91.7241 501.615L94.2415 502.258H94.2821C94.8506 502.396 95.216 503.039 95.0942 503.682C94.9724 504.325 94.4039 504.738 93.8355 504.601L91.2774 503.958C90.7089 503.82 90.3435 503.177 90.4653 502.533C90.5871 501.89 91.1556 501.477 91.7241 501.615Z" fill="#DCE5FE"/>
<path d="M101.064 503.682L103.622 504.095H103.663C104.232 504.187 104.638 504.83 104.556 505.473C104.475 506.116 103.907 506.576 103.338 506.484L100.74 506.024C100.171 505.932 99.7651 505.289 99.8463 504.646C99.8869 504.049 100.455 503.59 101.064 503.682Z" fill="#DCE5FE"/>
<path d="M110.482 504.968L113.08 505.198C113.689 505.244 114.136 505.841 114.095 506.53C114.055 507.219 113.527 507.725 112.918 507.679L110.278 507.449C109.669 507.403 109.223 506.806 109.304 506.117C109.345 505.428 109.872 504.923 110.482 504.968Z" fill="#DCE5FE"/>
<path d="M119.945 505.519H122.543C123.152 505.519 123.64 506.071 123.64 506.76C123.64 507.449 123.152 508 122.543 508L119.904 507.954C119.295 507.954 118.808 507.403 118.808 506.714C118.848 506.071 119.335 505.519 119.945 505.519Z" fill="#DCE5FE"/>
<path d="M129.445 505.335L132.044 505.152C132.653 505.106 133.181 505.657 133.222 506.346C133.262 507.035 132.775 507.632 132.166 507.678L129.527 507.862C128.918 507.908 128.39 507.356 128.349 506.667C128.39 505.978 128.836 505.381 129.445 505.335Z" fill="#DCE5FE"/>
<path d="M138.947 504.463L141.505 504.095C142.114 504.003 142.683 504.509 142.723 505.198C142.804 505.887 142.358 506.53 141.749 506.576L139.15 506.943C138.541 507.035 138.013 506.53 137.932 505.841C137.891 505.152 138.297 504.555 138.947 504.463Z" fill="#DCE5FE"/>
<path d="M148.329 502.901L150.887 502.35C151.496 502.212 152.065 502.672 152.186 503.361C152.308 504.05 151.902 504.693 151.293 504.83L148.694 505.382C148.085 505.52 147.517 505.06 147.395 504.371C147.314 503.682 147.72 503.039 148.329 502.901Z" fill="#DCE5FE"/>
<path d="M157.625 500.604L160.142 499.869C160.751 499.685 161.36 500.099 161.482 500.788C161.644 501.477 161.279 502.166 160.67 502.304L158.112 503.039C157.503 503.222 156.934 502.809 156.772 502.12C156.65 501.477 157.015 500.788 157.625 500.604Z" fill="#DCE5FE"/>
<path d="M166.763 497.711L169.24 496.792C169.808 496.562 170.458 496.93 170.661 497.573C170.864 498.216 170.539 498.951 169.971 499.181L167.453 500.099C166.885 500.329 166.235 499.961 166.032 499.318C165.829 498.629 166.154 497.94 166.763 497.711Z" fill="#DCE5FE"/>
<path d="M175.696 494.127L178.091 493.025C178.66 492.749 179.309 493.071 179.553 493.714C179.797 494.357 179.512 495.092 178.944 495.368L176.508 496.47C175.939 496.746 175.29 496.424 175.046 495.781C174.843 495.092 175.127 494.357 175.696 494.127Z" fill="#DCE5FE"/>
<path d="M184.426 489.855L186.781 488.615C187.349 488.293 187.999 488.569 188.283 489.212C188.567 489.855 188.324 490.59 187.755 490.911L185.4 492.198C184.832 492.519 184.182 492.243 183.898 491.6C183.614 490.911 183.857 490.176 184.426 489.855Z" fill="#DCE5FE"/>
<path d="M192.952 485.032L195.226 483.608C195.754 483.287 196.444 483.516 196.728 484.113C197.013 484.711 196.81 485.492 196.282 485.813L193.967 487.237C193.439 487.559 192.749 487.329 192.465 486.732C192.181 486.181 192.384 485.4 192.952 485.032Z" fill="#DCE5FE"/>
<path d="M201.194 479.704L203.387 478.142C203.915 477.774 204.605 477.958 204.93 478.555C205.255 479.153 205.092 479.933 204.564 480.301L202.331 481.863C201.803 482.23 201.113 482.046 200.788 481.449C200.504 480.852 200.666 480.071 201.194 479.704Z" fill="#DCE5FE"/>
<path d="M209.194 473.87L211.346 472.216C211.873 471.803 212.564 471.987 212.888 472.538C213.254 473.135 213.092 473.916 212.604 474.283L210.452 475.983C209.924 476.396 209.234 476.213 208.909 475.661C208.544 475.064 208.666 474.283 209.194 473.87Z" fill="#DCE5FE"/>
<path d="M216.948 467.623L219.019 465.831C219.506 465.418 220.237 465.51 220.603 466.061C220.968 466.612 220.887 467.439 220.4 467.852L218.288 469.644C217.801 470.057 217.07 469.965 216.705 469.414C216.339 468.863 216.42 468.036 216.948 467.623Z" fill="#DCE5FE"/>
<path d="M224.46 460.962L226.45 459.078C226.937 458.619 227.628 458.711 228.034 459.262C228.44 459.813 228.358 460.594 227.871 461.054L225.841 462.937C225.354 463.396 224.663 463.305 224.257 462.753C223.892 462.248 223.973 461.421 224.46 460.962Z" fill="#DCE5FE"/>
<path d="M231.728 453.98L233.677 452.05C234.124 451.591 234.855 451.637 235.261 452.142C235.667 452.647 235.626 453.474 235.18 453.934L233.231 455.909C232.784 456.368 232.053 456.322 231.647 455.817C231.2 455.266 231.241 454.485 231.728 453.98Z" fill="#DCE5FE"/>
<path d="M238.793 446.768L240.701 444.747C241.148 444.241 241.878 444.287 242.285 444.793C242.731 445.298 242.691 446.125 242.244 446.584L240.336 448.605C239.889 449.11 239.158 449.065 238.752 448.559C238.305 448.054 238.305 447.227 238.793 446.768Z" fill="#DCE5FE"/>
<path d="M245.657 439.28L247.484 437.213C247.931 436.708 248.662 436.708 249.068 437.213C249.515 437.718 249.515 438.545 249.068 439.005L247.2 441.072C246.753 441.577 246.023 441.577 245.617 441.072C245.21 440.566 245.21 439.786 245.657 439.28Z" fill="#DCE5FE"/>
<path d="M252.353 431.609L254.14 429.496C254.587 428.991 255.277 428.991 255.764 429.45C256.211 429.956 256.211 430.737 255.805 431.288L253.978 433.401C253.531 433.906 252.841 433.906 252.353 433.447C251.947 432.896 251.947 432.115 252.353 431.609Z" fill="#DCE5FE"/>
<path d="M258.933 423.754L260.72 421.595C261.167 421.09 261.857 421.044 262.344 421.549C262.791 422.055 262.831 422.836 262.385 423.387L260.598 425.546C260.152 426.051 259.461 426.097 258.974 425.592C258.527 425.086 258.527 424.26 258.933 423.754Z" fill="#DCE5FE"/>
<path d="M265.428 415.807L267.174 413.602C267.58 413.051 268.311 413.051 268.798 413.511C269.286 413.97 269.286 414.797 268.88 415.348L267.134 417.553C266.728 418.058 265.997 418.104 265.509 417.645C265.022 417.139 264.982 416.313 265.428 415.807Z" fill="#DCE5FE"/>
<path d="M271.805 407.723L273.551 405.518C273.957 404.967 274.688 404.921 275.175 405.426C275.663 405.886 275.703 406.712 275.257 407.264L273.511 409.468C273.105 410.02 272.374 410.066 271.886 409.56C271.44 409.101 271.399 408.274 271.805 407.723Z" fill="#DCE5FE"/>
<path d="M278.138 399.638L279.843 397.433C280.249 396.882 280.98 396.836 281.467 397.295C281.954 397.755 281.995 398.582 281.589 399.133L279.884 401.338C279.478 401.889 278.747 401.935 278.259 401.475C277.772 400.97 277.732 400.189 278.138 399.638Z" fill="#DCE5FE"/>
<path d="M284.433 391.508L286.138 389.303C286.545 388.751 287.275 388.706 287.763 389.165C288.25 389.624 288.29 390.451 287.884 391.002L286.179 393.207C285.773 393.758 285.042 393.804 284.555 393.345C284.068 392.84 284.027 392.013 284.433 391.508Z" fill="#DCE5FE"/>
<path d="M290.766 383.331L292.512 381.126C292.918 380.575 293.649 380.529 294.136 380.988C294.623 381.448 294.664 382.275 294.258 382.826L292.552 385.031C292.146 385.582 291.415 385.628 290.928 385.169C290.4 384.709 290.36 383.882 290.766 383.331Z" fill="#DCE5FE"/>
<path d="M297.101 375.247L298.847 373.042C299.253 372.491 299.984 372.445 300.471 372.95C300.958 373.409 300.999 374.236 300.552 374.787L298.806 376.992C298.4 377.543 297.67 377.589 297.182 377.084C296.736 376.579 296.695 375.752 297.101 375.247Z" fill="#DCE5FE"/>
<path d="M303.517 367.162L305.263 364.957C305.709 364.406 306.44 364.406 306.887 364.865C307.374 365.37 307.374 366.197 306.968 366.702L305.222 368.861C304.775 369.413 304.085 369.458 303.598 368.953C303.111 368.54 303.07 367.713 303.517 367.162Z" fill="#DCE5FE"/>
<path d="M310.011 359.169L311.798 357.01C312.244 356.505 312.975 356.459 313.422 356.964C313.869 357.469 313.909 358.296 313.463 358.802L311.676 360.961C311.229 361.466 310.498 361.512 310.052 361.007C309.605 360.547 309.565 359.72 310.011 359.169Z" fill="#DCE5FE"/>
<path d="M316.591 351.314L318.418 349.201C318.865 348.696 319.596 348.65 320.043 349.155C320.489 349.66 320.53 350.487 320.083 350.992L318.256 353.105C317.809 353.611 317.078 353.657 316.632 353.151C316.185 352.646 316.145 351.819 316.591 351.314Z" fill="#DCE5FE"/>
<path d="M323.333 343.597L325.201 341.529C325.647 341.024 326.378 341.024 326.825 341.529C327.272 342.035 327.272 342.862 326.825 343.367L324.957 345.434C324.511 345.939 323.78 345.939 323.333 345.434C322.886 344.929 322.886 344.102 323.333 343.597Z" fill="#DCE5FE"/>
<path d="M330.274 336.018L332.182 333.997C332.669 333.491 333.4 333.537 333.806 334.043C334.253 334.594 334.212 335.421 333.766 335.88L331.857 337.901C331.37 338.406 330.639 338.361 330.233 337.855C329.786 337.35 329.786 336.523 330.274 336.018Z" fill="#DCE5FE"/>
<path d="M337.379 328.714L339.369 326.739C339.856 326.279 340.587 326.325 340.993 326.876C341.399 327.428 341.358 328.254 340.871 328.714L338.922 330.643C338.435 331.102 337.704 331.057 337.298 330.505C336.851 330.046 336.892 329.219 337.379 328.714Z" fill="#DCE5FE"/>
<path d="M344.689 321.64L346.72 319.756C347.207 319.297 347.938 319.389 348.344 319.94C348.75 320.491 348.669 321.318 348.181 321.778L346.151 323.615C345.664 324.074 344.933 323.982 344.527 323.431C344.121 322.926 344.162 322.099 344.689 321.64Z" fill="#DCE5FE"/>
<path d="M352.202 314.887L354.313 313.096C354.841 312.636 355.572 312.774 355.937 313.371C356.344 313.968 356.222 314.795 355.694 315.209L353.623 316.954C353.095 317.414 352.364 317.276 351.999 316.679C351.593 316.173 351.715 315.347 352.202 314.887Z" fill="#DCE5FE"/>
<path d="M359.998 308.502L362.15 306.848C362.678 306.435 363.408 306.573 363.774 307.216C364.139 307.813 364.017 308.64 363.449 309.053L361.297 310.707C360.769 311.12 360.038 310.982 359.673 310.339C359.348 309.742 359.47 308.915 359.998 308.502Z" fill="#DCE5FE"/>
<path d="M368.077 302.531L370.31 300.969C370.879 300.602 371.569 300.785 371.934 301.428C372.259 302.071 372.097 302.852 371.528 303.266L369.295 304.782C368.727 305.149 368.036 304.965 367.671 304.322C367.346 303.725 367.509 302.898 368.077 302.531Z" fill="#DCE5FE"/>
<path d="M376.359 297.019L378.673 295.595C379.242 295.227 379.972 295.457 380.257 296.1C380.582 296.743 380.378 297.57 379.81 297.891L377.536 299.315C376.968 299.683 376.237 299.453 375.953 298.81C375.587 298.167 375.79 297.34 376.359 297.019Z" fill="#DCE5FE"/>
<path d="M384.847 291.919L387.202 290.633C387.771 290.312 388.501 290.587 388.786 291.23C389.07 291.874 388.826 292.7 388.258 293.022L385.943 294.308C385.375 294.63 384.644 294.354 384.36 293.711C384.035 293.022 384.279 292.241 384.847 291.919Z" fill="#DCE5FE"/>
<path d="M393.578 287.28L395.974 286.086C396.583 285.81 397.273 286.086 397.517 286.775C397.76 287.464 397.517 288.245 396.907 288.52L394.512 289.669C393.903 289.944 393.212 289.669 392.969 288.98C392.725 288.382 392.969 287.556 393.578 287.28Z" fill="#DCE5FE"/>
<path d="M402.47 283.1L404.906 282.043C405.515 281.768 406.206 282.135 406.449 282.824C406.693 283.513 406.368 284.294 405.759 284.57L403.323 285.626C402.714 285.902 402.023 285.534 401.78 284.845C401.577 284.156 401.861 283.375 402.47 283.1Z" fill="#DCE5FE"/>
<path d="M411.524 279.379L414.001 278.461C414.61 278.231 415.3 278.598 415.503 279.288C415.706 279.977 415.381 280.757 414.772 280.987L412.295 281.906C411.686 282.136 410.996 281.768 410.793 281.079C410.549 280.39 410.915 279.609 411.524 279.379Z" fill="#DCE5FE"/>
<path d="M420.698 276.118L423.216 275.291C423.865 275.107 424.515 275.52 424.677 276.209C424.84 276.944 424.474 277.679 423.865 277.863L421.348 278.644C420.698 278.828 420.049 278.414 419.886 277.725C419.683 277.082 420.049 276.347 420.698 276.118Z" fill="#DCE5FE"/>
<path d="M429.999 273.316L432.557 272.627C433.206 272.443 433.815 272.903 433.978 273.638C434.14 274.372 433.734 275.062 433.084 275.245L430.567 275.934C429.917 276.118 429.308 275.659 429.146 274.924C428.983 274.235 429.349 273.5 429.999 273.316Z" fill="#DCE5FE"/>
<path d="M439.378 270.973L441.936 270.422C442.586 270.284 443.195 270.743 443.316 271.478C443.438 272.213 443.032 272.902 442.383 273.04L439.824 273.591C439.175 273.729 438.566 273.27 438.444 272.535C438.322 271.8 438.769 271.111 439.378 270.973Z" fill="#DCE5FE"/>
<path d="M448.88 269.09L451.479 268.676C452.129 268.584 452.738 269.09 452.819 269.825C452.9 270.56 452.453 271.249 451.804 271.34L449.246 271.754C448.596 271.846 447.987 271.34 447.906 270.605C447.784 269.871 448.231 269.181 448.88 269.09Z" fill="#DCE5FE"/>
<path d="M458.423 267.665L461.022 267.344C461.671 267.252 462.28 267.803 462.321 268.538C462.402 269.273 461.915 269.962 461.265 270.008L458.667 270.33C458.017 270.422 457.408 269.87 457.367 269.135C457.286 268.4 457.773 267.711 458.423 267.665Z" fill="#DCE5FE"/>
<path d="M468.005 266.701L470.644 266.517C471.293 266.471 471.862 267.022 471.903 267.803C471.943 268.538 471.456 269.181 470.766 269.227L468.167 269.411C467.517 269.457 466.949 268.906 466.908 268.125C466.827 267.39 467.355 266.747 468.005 266.701Z" fill="#DCE5FE"/>
<path d="M477.627 266.15L480.266 266.104C480.916 266.104 481.484 266.701 481.484 267.436C481.484 268.171 480.957 268.814 480.307 268.814L477.708 268.86C477.059 268.86 476.49 268.263 476.49 267.528C476.409 266.793 476.937 266.196 477.627 266.15Z" fill="#DCE5FE"/>
<path d="M487.251 266.104L489.89 266.15C490.539 266.15 491.067 266.793 491.067 267.528C491.067 268.263 490.499 268.86 489.849 268.86L487.251 268.814C486.601 268.814 486.073 268.171 486.073 267.436C486.032 266.655 486.56 266.104 487.251 266.104Z" fill="#DCE5FE"/>
<path d="M496.833 266.518L499.472 266.701C500.122 266.747 500.649 267.39 500.609 268.125C500.568 268.86 500 269.457 499.35 269.411L496.751 269.228C496.102 269.182 495.574 268.539 495.615 267.804C495.615 267.023 496.183 266.426 496.833 266.518Z" fill="#DCE5FE"/>
<path d="M506.455 267.344L509.054 267.665C509.704 267.757 510.191 268.4 510.11 269.181C510.028 269.916 509.46 270.467 508.77 270.376L506.171 270.054C505.521 269.962 505.034 269.319 505.115 268.538C505.197 267.803 505.765 267.252 506.455 267.344Z" fill="#DCE5FE"/>
<path d="M515.997 268.676L518.596 269.135C519.246 269.227 519.692 269.962 519.611 270.697C519.53 271.432 518.88 271.937 518.231 271.845L515.673 271.432C515.023 271.34 514.576 270.605 514.657 269.87C514.739 269.089 515.348 268.538 515.997 268.676Z" fill="#DCE5FE"/>
<path d="M525.499 270.468L528.057 271.019C528.707 271.157 529.153 271.892 529.031 272.627C528.91 273.362 528.26 273.867 527.61 273.729L525.052 273.178C524.403 273.04 523.956 272.305 524.078 271.57C524.199 270.79 524.849 270.284 525.499 270.468Z" fill="#DCE5FE"/>
<path d="M534.919 272.672L537.477 273.361C538.127 273.545 538.533 274.28 538.37 275.015C538.208 275.75 537.558 276.209 536.908 276.026L534.391 275.337C533.741 275.153 533.335 274.418 533.498 273.683C533.62 272.948 534.269 272.489 534.919 272.672Z" fill="#DCE5FE"/>
<path d="M544.217 275.383L546.735 276.21C547.384 276.439 547.75 277.174 547.547 277.909C547.344 278.644 546.694 279.058 546.044 278.828L543.567 278.001C542.918 277.772 542.552 277.037 542.755 276.302C542.918 275.613 543.608 275.199 544.217 275.383Z" fill="#DCE5FE"/>
<path d="M553.438 278.552L555.914 279.517C556.564 279.746 556.889 280.527 556.686 281.262C556.483 281.997 555.793 282.365 555.143 282.135L552.666 281.216C552.016 280.987 551.692 280.206 551.895 279.471C552.138 278.69 552.828 278.322 553.438 278.552Z" fill="#DCE5FE"/>
<path d="M562.532 282.181L564.968 283.238C565.577 283.513 565.902 284.294 565.658 285.029C565.415 285.718 564.724 286.086 564.075 285.81L561.638 284.753C561.029 284.478 560.704 283.697 560.948 282.962C561.192 282.273 561.882 281.951 562.532 282.181Z" fill="#DCE5FE"/>
<path d="M571.424 286.315L573.819 287.51C574.429 287.831 574.713 288.612 574.429 289.347C574.144 290.036 573.454 290.358 572.804 290.036L570.449 288.842C569.84 288.52 569.556 287.739 569.84 287.004C570.084 286.315 570.815 285.994 571.424 286.315Z" fill="#DCE5FE"/>
<path d="M580.193 290.863L582.548 292.196C583.157 292.517 583.401 293.344 583.076 294.033C582.792 294.722 582.061 294.998 581.452 294.63L579.138 293.298C578.528 292.977 578.285 292.15 578.61 291.461C578.853 290.818 579.584 290.542 580.193 290.863Z" fill="#DCE5FE"/>
<path d="M588.72 295.916L590.994 297.386C591.603 297.754 591.806 298.626 591.481 299.269C591.157 299.958 590.385 300.188 589.817 299.821L587.543 298.397C586.934 298.029 586.731 297.202 587.056 296.513C587.38 295.778 588.111 295.549 588.72 295.916Z" fill="#DCE5FE"/>
<path d="M597.045 301.383L599.278 302.944C599.847 303.358 600.009 304.185 599.684 304.874C599.319 305.517 598.588 305.701 597.979 305.333L595.786 303.771C595.218 303.358 595.056 302.531 595.38 301.842C595.705 301.199 596.477 301.015 597.045 301.383Z" fill="#DCE5FE"/>
<path d="M605.124 307.308L607.276 308.962C607.845 309.375 607.966 310.248 607.601 310.891C607.235 311.534 606.464 311.672 605.896 311.259L603.744 309.605C603.175 309.192 603.053 308.319 603.419 307.676C603.784 307.033 604.556 306.895 605.124 307.308Z" fill="#DCE5FE"/>
<path d="M613.042 313.463L615.194 315.163C615.763 315.622 615.884 316.495 615.478 317.092C615.072 317.735 614.301 317.873 613.773 317.414L611.661 315.714C611.093 315.255 610.971 314.382 611.377 313.785C611.702 313.188 612.474 313.004 613.042 313.463Z" fill="#DCE5FE"/>
<path d="M620.839 319.757L622.95 321.502C623.519 321.962 623.641 322.834 623.235 323.432C622.829 324.075 622.057 324.212 621.529 323.753L619.418 322.008C618.849 321.548 618.728 320.675 619.134 320.078C619.499 319.481 620.271 319.343 620.839 319.757Z" fill="#DCE5FE"/>
<path d="M628.593 326.095L630.705 327.795C631.273 328.254 631.395 329.127 630.989 329.724C630.583 330.367 629.812 330.505 629.284 330.046L627.172 328.3C626.604 327.841 626.482 326.968 626.888 326.371C627.253 325.82 628.025 325.682 628.593 326.095Z" fill="#DCE5FE"/>
<path d="M636.391 332.389L638.543 334.088C639.111 334.548 639.233 335.42 638.868 336.017C638.461 336.661 637.69 336.798 637.162 336.385L635.01 334.685C634.442 334.226 634.32 333.353 634.685 332.756C635.051 332.067 635.822 331.929 636.391 332.389Z" fill="#DCE5FE"/>
<path d="M644.266 338.452L646.459 340.06C647.027 340.473 647.19 341.346 646.824 341.989C646.459 342.632 645.687 342.816 645.119 342.402L642.926 340.795C642.358 340.381 642.195 339.508 642.561 338.865C642.926 338.176 643.698 337.993 644.266 338.452Z" fill="#DCE5FE"/>
<path d="M652.306 344.194L654.539 345.71C655.148 346.123 655.311 346.95 654.986 347.639C654.62 348.328 653.889 348.512 653.28 348.144L651.007 346.629C650.398 346.215 650.235 345.388 650.56 344.699C650.966 344.01 651.737 343.781 652.306 344.194Z" fill="#DCE5FE"/>
<path d="M660.589 349.476L662.903 350.809C663.512 351.176 663.756 352.003 663.431 352.692C663.106 353.381 662.376 353.656 661.766 353.289L659.411 351.911C658.802 351.543 658.559 350.717 658.884 350.028C659.208 349.384 659.98 349.109 660.589 349.476Z" fill="#DCE5FE"/>
<path d="M669.115 354.162L671.511 355.311H671.551C672.201 355.632 672.485 356.459 672.201 357.148C671.917 357.883 671.186 358.205 670.577 357.883L668.141 356.735C667.491 356.413 667.207 355.586 667.491 354.897C667.734 354.162 668.465 353.841 669.115 354.162Z" fill="#DCE5FE"/>
<path d="M677.927 358.021L680.364 358.893H680.404C681.054 359.123 681.419 359.95 681.216 360.685C681.013 361.42 680.282 361.833 679.633 361.604L677.115 360.685C676.466 360.455 676.1 359.628 676.303 358.893C676.547 358.158 677.278 357.791 677.927 358.021Z" fill="#DCE5FE"/>
<path d="M687.023 360.914L689.54 361.511H689.581C690.271 361.649 690.677 362.43 690.555 363.165C690.434 363.946 689.743 364.405 689.094 364.268L686.495 363.67C685.805 363.533 685.399 362.752 685.52 362.017C685.642 361.236 686.333 360.731 687.023 360.914Z" fill="#DCE5FE"/>
<path d="M696.322 362.66L698.88 362.936H698.921C699.611 363.028 700.098 363.671 700.057 364.452C699.976 365.233 699.408 365.784 698.717 365.738L696.078 365.462C695.388 365.37 694.901 364.727 694.941 363.946C694.982 363.165 695.591 362.568 696.322 362.66Z" fill="#DCE5FE"/>
<path d="M705.74 363.074L708.298 362.936H708.338C709.029 362.89 709.597 363.487 709.638 364.314C709.678 365.095 709.151 365.738 708.42 365.784L705.78 365.922C705.09 365.967 704.522 365.324 704.481 364.543C704.44 363.763 705.009 363.119 705.699 363.074H705.74Z" fill="#DCE5FE"/>
<path d="M715.081 362.155L717.599 361.65H717.639C718.329 361.512 718.979 362.017 719.101 362.798C719.223 363.579 718.776 364.314 718.086 364.452L715.487 364.957C714.797 365.095 714.147 364.59 714.025 363.809C713.904 363.028 714.35 362.293 715.04 362.155H715.081Z" fill="#DCE5FE"/>
<path d="M724.298 359.858L726.775 359.031H726.816C727.466 358.801 728.196 359.215 728.399 359.996C728.602 360.731 728.237 361.557 727.547 361.787L725.029 362.66C724.38 362.889 723.649 362.476 723.446 361.695C723.202 360.868 723.568 360.087 724.298 359.858Z" fill="#DCE5FE"/>
<path d="M733.149 356.321L735.504 355.172H735.545C736.195 354.851 736.925 355.172 737.21 355.907C737.494 356.642 737.21 357.469 736.56 357.791L734.124 358.985C733.474 359.307 732.743 358.985 732.459 358.25C732.215 357.469 732.5 356.642 733.149 356.321Z" fill="#DCE5FE"/>
<path d="M741.634 351.636L743.867 350.166H743.908C744.517 349.753 745.288 350.028 745.613 350.671C745.979 351.36 745.735 352.233 745.167 352.601L742.852 354.071C742.243 354.484 741.472 354.208 741.147 353.519C740.822 352.922 741.025 352.049 741.634 351.636Z" fill="#DCE5FE"/>
<path d="M749.636 345.985L751.706 344.286L751.747 344.24C752.315 343.78 753.087 343.918 753.493 344.561C753.899 345.204 753.777 346.077 753.209 346.537L751.057 348.282C750.488 348.742 749.717 348.604 749.311 347.961C748.945 347.363 749.067 346.491 749.636 345.985Z" fill="#DCE5FE"/>
<path d="M757.105 339.417L759.013 337.488L759.054 337.442C759.582 336.936 760.394 336.982 760.84 337.579C761.287 338.177 761.247 339.095 760.719 339.601L758.729 341.576C758.201 342.081 757.389 342.035 756.942 341.438C756.496 340.887 756.536 339.968 757.105 339.417Z" fill="#DCE5FE"/>
<path d="M763.926 332.067L765.672 329.908L765.713 329.862C766.2 329.265 767.012 329.265 767.5 329.77C768.027 330.321 768.027 331.24 767.581 331.791L765.794 333.996C765.307 334.593 764.495 334.593 764.008 334.088C763.48 333.583 763.439 332.664 763.926 332.067Z" fill="#DCE5FE"/>
<path d="M770.099 323.983L771.642 321.686L771.683 321.64C772.089 320.997 772.901 320.905 773.469 321.364C774.038 321.824 774.119 322.742 773.713 323.385L772.129 325.774C771.723 326.417 770.911 326.509 770.343 326.05C769.774 325.544 769.653 324.626 770.099 323.983Z" fill="#DCE5FE"/>
<path d="M775.582 315.255L776.922 312.774V312.728C777.287 312.039 778.059 311.855 778.668 312.269C779.277 312.682 779.439 313.555 779.074 314.244L777.693 316.77C777.328 317.46 776.556 317.643 775.947 317.23C775.379 316.816 775.176 315.944 775.582 315.255Z" fill="#DCE5FE"/>
<path d="M780.252 305.976L781.389 303.357V303.311C781.714 302.576 782.444 302.301 783.094 302.668C783.744 303.036 783.987 303.862 783.663 304.597L782.485 307.308C782.16 308.043 781.429 308.318 780.78 307.951C780.171 307.583 779.927 306.71 780.252 305.976Z" fill="#DCE5FE"/>
<path d="M784.027 296.192L784.92 293.436V293.39C785.163 292.655 785.894 292.241 786.544 292.517C787.194 292.793 787.559 293.619 787.316 294.354L786.422 297.157C786.179 297.891 785.448 298.305 784.798 298.029C784.148 297.8 783.783 296.973 784.027 296.192Z" fill="#DCE5FE"/>
<path d="M786.909 286.04L787.559 283.192V283.146C787.721 282.365 788.412 281.905 789.102 282.089C789.792 282.273 790.198 283.054 790.036 283.835L789.386 286.729C789.224 287.51 788.533 287.969 787.843 287.785C787.153 287.601 786.747 286.821 786.909 286.04Z" fill="#DCE5FE"/>
<path d="M788.94 275.567L789.346 272.673V272.627C789.467 271.846 790.117 271.295 790.807 271.432C791.498 271.57 791.985 272.305 791.863 273.086L791.457 276.026C791.335 276.807 790.686 277.358 789.995 277.22C789.305 277.128 788.818 276.393 788.94 275.567Z" fill="#DCE5FE"/>
<path d="M790.077 264.955L790.24 262.062V262.016C790.28 261.235 790.889 260.592 791.62 260.683C792.311 260.729 792.879 261.418 792.798 262.245L792.635 265.231C792.595 266.012 791.986 266.655 791.255 266.563C790.565 266.471 790.037 265.782 790.077 264.955Z" fill="#DCE5FE"/>
<path d="M790.442 254.253L790.402 251.313V251.267C790.402 250.486 790.97 249.797 791.661 249.797C792.351 249.797 792.96 250.44 792.96 251.221L793.001 254.207C793.001 254.988 792.432 255.677 791.742 255.677C791.052 255.723 790.442 255.079 790.442 254.253Z" fill="#DCE5FE"/>
<path d="M789.995 243.549L789.752 240.655V240.609C789.671 239.828 790.199 239.094 790.929 239.002C791.62 238.91 792.269 239.507 792.351 240.334L792.594 243.32C792.675 244.1 792.147 244.835 791.417 244.927C790.686 244.973 790.077 244.376 789.995 243.549Z" fill="#DCE5FE"/>
<path d="M788.818 232.938L788.371 230.044V229.998C788.249 229.218 788.737 228.437 789.427 228.299C790.117 228.161 790.808 228.712 790.929 229.493L791.376 232.433C791.498 233.214 791.011 233.995 790.32 234.133C789.63 234.27 788.94 233.765 788.818 232.938Z" fill="#DCE5FE"/>
<path d="M786.949 222.42L786.3 219.572V219.526C786.137 218.745 786.543 217.964 787.234 217.734C787.924 217.55 788.614 218.01 788.817 218.791L789.467 221.685C789.629 222.466 789.223 223.246 788.533 223.476C787.802 223.706 787.112 223.246 786.949 222.42Z" fill="#DCE5FE"/>
<path d="M784.394 212.084L783.582 209.282V209.236C783.379 208.455 783.744 207.628 784.394 207.398C785.084 207.169 785.815 207.582 786.018 208.317L786.83 211.165C787.033 211.946 786.668 212.773 786.018 213.003C785.369 213.324 784.638 212.865 784.394 212.084Z" fill="#DCE5FE"/>
<path d="M781.224 201.978L780.249 199.268V199.222C779.965 198.487 780.29 197.614 780.98 197.292C781.63 196.971 782.401 197.338 782.686 198.119L783.66 200.875C783.944 201.61 783.619 202.483 782.929 202.805C782.239 203.126 781.508 202.759 781.224 201.978Z" fill="#DCE5FE"/>
<path d="M777.448 192.102L776.311 189.484V189.438C775.986 188.703 776.27 187.83 776.92 187.462C777.569 187.095 778.341 187.416 778.666 188.151L779.803 190.816C780.128 191.551 779.843 192.423 779.194 192.791C778.544 193.204 777.773 192.883 777.448 192.102Z" fill="#DCE5FE"/>
<path d="M773.145 182.547L771.887 179.975C771.521 179.286 771.765 178.367 772.374 177.954C772.983 177.54 773.795 177.816 774.16 178.505L775.46 181.123C775.825 181.812 775.581 182.731 774.972 183.145C774.323 183.558 773.511 183.282 773.145 182.547Z" fill="#DCE5FE"/>
<path d="M768.312 173.36L766.891 170.926C766.485 170.237 766.688 169.318 767.257 168.905C767.866 168.445 768.678 168.675 769.043 169.318L770.465 171.798C770.871 172.487 770.667 173.406 770.099 173.82C769.531 174.233 768.719 174.049 768.312 173.36Z" fill="#DCE5FE"/>
<path d="M762.953 164.494L761.41 162.152V162.106C760.964 161.463 761.085 160.544 761.654 160.039C762.222 159.533 763.034 159.671 763.481 160.314C764.009 161.095 764.537 161.922 765.065 162.703C765.471 163.346 765.349 164.265 764.78 164.77C764.171 165.275 763.359 165.137 762.953 164.494Z" fill="#DCE5FE"/>
<path d="M757.066 156.088L755.361 153.883C754.914 153.286 754.955 152.368 755.483 151.816C756.01 151.311 756.822 151.357 757.31 151.954L759.056 154.205C759.543 154.802 759.462 155.721 758.934 156.272C758.365 156.777 757.553 156.731 757.066 156.088Z" fill="#DCE5FE"/>
<path d="M750.651 148.141L748.864 146.028C748.377 145.477 748.377 144.558 748.905 144.007C749.392 143.456 750.204 143.456 750.692 144.053L752.519 146.166C753.006 146.717 753.006 147.636 752.478 148.187C751.991 148.739 751.179 148.739 750.651 148.141Z" fill="#DCE5FE"/>
<path d="M743.95 140.516L742.082 138.495C741.595 137.944 741.554 137.071 742.042 136.52C742.529 135.969 743.3 135.923 743.788 136.474L745.696 138.495C746.183 139.046 746.224 139.919 745.737 140.516C745.249 141.022 744.437 141.067 743.95 140.516Z" fill="#DCE5FE"/>
<path d="M736.965 133.167L735.016 131.192C734.529 130.686 734.448 129.814 734.935 129.216C735.382 128.665 736.153 128.573 736.681 129.124L738.63 131.1C739.158 131.605 739.199 132.478 738.752 133.075C738.265 133.626 737.493 133.672 736.965 133.167Z" fill="#DCE5FE"/>
<path d="M729.819 126.046L727.829 124.117C727.301 123.612 727.261 122.739 727.707 122.188C728.154 121.59 728.885 121.544 729.413 122.05L731.402 123.979C731.93 124.484 731.971 125.357 731.565 125.908C731.078 126.46 730.347 126.551 729.819 126.046Z" fill="#DCE5FE"/>
<path d="M722.47 119.111L720.44 117.273C719.912 116.814 719.831 115.941 720.278 115.39C720.684 114.793 721.455 114.701 721.943 115.206L723.973 117.044C724.501 117.503 724.582 118.376 724.135 118.973C723.77 119.478 722.998 119.57 722.47 119.111Z" fill="#DCE5FE"/>
<path d="M714.999 112.358L712.929 110.566C712.401 110.107 712.32 109.28 712.726 108.683C713.132 108.132 713.862 107.994 714.35 108.453L716.421 110.245C716.948 110.704 717.03 111.531 716.624 112.128C716.299 112.725 715.568 112.817 714.999 112.358Z" fill="#DCE5FE"/>
<path d="M707.447 105.789L705.377 103.998C704.889 103.584 704.768 102.804 705.174 102.206C705.539 101.655 706.229 101.517 706.717 101.931L708.828 103.676C709.315 104.09 709.437 104.917 709.072 105.468C708.706 106.065 707.975 106.203 707.447 105.789Z" fill="#DCE5FE"/>
<path d="M699.772 99.358L697.661 97.6125C697.173 97.1991 697.092 96.4641 697.417 95.9129C697.742 95.3616 698.432 95.2698 698.919 95.6372L701.071 97.3369C701.559 97.7503 701.681 98.4852 701.315 99.0365C700.95 99.5877 700.3 99.7255 699.772 99.358Z" fill="#DCE5FE"/>
<path d="M692.018 93.0649L689.866 91.3653C689.419 90.9978 689.298 90.2628 689.622 89.7575C689.947 89.2522 690.556 89.1144 691.044 89.4819L693.196 91.1356C693.683 91.5031 693.805 92.238 693.48 92.7433C693.114 93.2946 692.505 93.4324 692.018 93.0649Z" fill="#DCE5FE"/>
<path d="M684.101 86.9555L681.949 85.3018C681.502 84.9802 681.38 84.2912 681.665 83.7859C681.949 83.2806 682.558 83.1428 683.005 83.4644L685.197 85.0721C685.644 85.3936 685.766 86.0827 685.481 86.6339C685.197 87.1392 684.588 87.3229 684.101 86.9555Z" fill="#DCE5FE"/>
<path d="M676.14 81.0296L673.948 79.4219C673.542 79.1003 673.379 78.4572 673.664 77.9979C673.948 77.5385 674.476 77.4007 674.922 77.6763L677.155 79.2381C677.602 79.5597 677.724 80.2028 677.44 80.7081C677.155 81.2134 676.587 81.3512 676.14 81.0296Z" fill="#DCE5FE"/>
<path d="M668.063 75.2416L665.83 73.7257C665.424 73.4501 665.302 72.8529 665.546 72.4395C665.79 71.9802 666.277 71.8424 666.683 72.118L668.957 73.6338C669.363 73.9095 669.485 74.5066 669.241 74.966C668.997 75.3794 668.469 75.5631 668.063 75.2416C668.063 75.2875 668.063 75.2875 668.063 75.2416Z" fill="#DCE5FE"/>
<path d="M659.86 69.7296L657.587 68.2596C657.221 68.03 657.099 67.5247 657.302 67.1113C657.505 66.6978 657.952 66.56 658.317 66.7897L660.591 68.2137C660.957 68.4434 661.119 68.9946 660.876 69.408C660.713 69.8215 660.226 69.9593 659.86 69.7296Z" fill="#DCE5FE"/>
<path d="M651.537 64.4475L649.222 63.0694C648.897 62.8857 648.775 62.4263 648.938 62.0588C649.1 61.6913 649.506 61.5535 649.831 61.7373L652.146 63.0694C652.47 63.2532 652.633 63.7584 652.43 64.1259C652.308 64.4934 651.861 64.6312 651.537 64.4475Z" fill="#DCE5FE"/>
<path d="M643.048 59.4862L640.693 58.2C640.409 58.0622 640.287 57.6947 640.45 57.3732C640.572 57.0516 640.896 56.9138 641.181 57.0516L643.576 58.2459C643.86 58.3838 644.023 58.7972 643.86 59.1187C643.698 59.4862 643.333 59.67 643.048 59.4862Z" fill="#DCE5FE"/>
<path d="M635.413 25.2188L632.205 40.6071L624.369 31.5119L635.413 25.2188Z" fill="#7D97F4"/>
<path d="M576.05 0L605.204 46.3029C605.773 47.1757 606.625 47.7729 607.559 47.9566C608.493 48.0944 609.468 47.8188 610.239 47.1757L650.234 12.3107C650.681 11.8973 650.884 11.2542 650.721 10.6111C650.559 9.96799 650.072 9.50864 649.503 9.4627L576.05 0Z" fill="#91B3FA"/>
<path d="M635.414 25.2186L576.05 0L628.998 30.8686L628.267 35.1406L635.414 25.2186Z" fill="#7D97F4"/>
<path d="M625.14 34.1761L632.205 40.6071L628.998 30.8688L625.14 34.1761Z" fill="#7D97F4"/>
<defs>
<linearGradient id="paint0_linear" x1="-10" y1="140.5" x2="-9.99998" y2="640.5" gradientUnits="userSpaceOnUse">
<stop stop-color="#D5DFF7"/>
<stop offset="1" stop-color="#82A9FE"/>
</linearGradient>
<linearGradient id="paint1_linear" x1="769.03" y1="115.866" x2="709.838" y2="224.386" gradientUnits="userSpaceOnUse">
<stop stop-color="#09005D"/>
<stop offset="1" stop-color="#1A0F91"/>
</linearGradient>
<linearGradient id="paint2_linear" x1="476.263" y1="167.823" x2="527.715" y2="727.97" gradientUnits="userSpaceOnUse">
<stop stop-color="#DAE3FE"/>
<stop offset="1" stop-color="#E9EFFD"/>
</linearGradient>
<linearGradient id="paint3_linear" x1="634.724" y1="430.295" x2="631.334" y2="430.295" gradientUnits="userSpaceOnUse">
<stop stop-color="#09005D"/>
<stop offset="1" stop-color="#1A0F91"/>
</linearGradient>
<linearGradient id="paint4_linear" x1="680.665" y1="430.295" x2="677.274" y2="430.295" gradientUnits="userSpaceOnUse">
<stop stop-color="#09005D"/>
<stop offset="1" stop-color="#1A0F91"/>
</linearGradient>
<linearGradient id="paint5_linear" x1="793.535" y1="430.937" x2="703.453" y2="430.937" gradientUnits="userSpaceOnUse">
<stop stop-color="#09005D"/>
<stop offset="1" stop-color="#1A0F91"/>
</linearGradient>
<linearGradient id="paint6_linear" x1="739.987" y1="430.937" x2="649.905" y2="430.937" gradientUnits="userSpaceOnUse">
<stop stop-color="#09005D"/>
<stop offset="1" stop-color="#1A0F91"/>
</linearGradient>
<linearGradient id="paint7_linear" x1="712.197" y1="328.453" x2="628.007" y2="328.453" gradientUnits="userSpaceOnUse">
<stop stop-color="#09005D"/>
<stop offset="1" stop-color="#1A0F91"/>
</linearGradient>
<linearGradient id="paint8_linear" x1="720.099" y1="360.159" x2="663.001" y2="360.159" gradientUnits="userSpaceOnUse">
<stop stop-color="#09005D"/>
<stop offset="1" stop-color="#1A0F91"/>
</linearGradient>
<linearGradient id="paint9_linear" x1="734.882" y1="398.725" x2="681.175" y2="398.725" gradientUnits="userSpaceOnUse">
<stop stop-color="#09005D"/>
<stop offset="1" stop-color="#1A0F91"/>
</linearGradient>
<linearGradient id="paint10_linear" x1="750.837" y1="437.291" x2="697.13" y2="437.291" gradientUnits="userSpaceOnUse">
<stop stop-color="#09005D"/>
<stop offset="1" stop-color="#1A0F91"/>
</linearGradient>
<linearGradient id="paint11_linear" x1="769.261" y1="475.857" x2="712.164" y2="475.857" gradientUnits="userSpaceOnUse">
<stop stop-color="#09005D"/>
<stop offset="1" stop-color="#1A0F91"/>
</linearGradient>
<linearGradient id="paint12_linear" x1="785.436" y1="514.424" x2="728.339" y2="514.424" gradientUnits="userSpaceOnUse">
<stop stop-color="#09005D"/>
<stop offset="1" stop-color="#1A0F91"/>
</linearGradient>
</defs>
</svg>
