<svg viewBox="0 0 198 60" fill="none" xmlns="http://www.w3.org/2000/svg">
<rect width="198" height="60" rx="12" fill="black"/>
<path d="M48.0848 30.0095C48.0848 27.7031 49.3058 25.5323 51.3409 24.3112C50.1199 22.5475 48.0848 21.4621 45.914 21.3264C43.6075 21.0551 41.4368 22.6831 40.2157 22.6831C38.9946 22.6831 37.2309 21.3264 35.3315 21.3264C32.7537 21.4621 30.4472 22.8188 29.2261 24.9896C26.6483 29.4668 28.5478 36.2505 31.1256 39.9137C32.3466 41.6775 33.839 43.7126 35.7385 43.7126C37.6379 43.5769 38.3163 42.4915 40.6227 42.4915C42.9292 42.4915 43.4719 43.7126 45.507 43.7126C47.5421 43.7126 48.7631 41.9488 49.9842 40.0494C50.9339 38.8283 51.6123 37.3359 52.0193 35.8435C49.5772 35.0294 48.0848 32.5873 48.0848 30.0095Z" fill="white"/>
<path d="M44.2859 19.0201C45.3713 17.6633 45.914 16.0352 45.7783 14.2715C44.1502 14.4072 42.5221 15.2212 41.4367 16.5779C40.3513 17.799 39.8086 19.4271 39.9443 21.1908C41.7081 21.1908 43.2005 20.3768 44.2859 19.0201Z" fill="white"/>
<path d="M71.8267 39.236H65.45L63.9576 43.8489H61.2441L67.3495 27.0254H70.0629L76.1682 43.8489H73.4548L71.8267 39.236ZM66.1284 37.2009H71.284L68.7062 29.7389H68.5705L66.1284 37.2009Z" fill="white"/>
<path d="M89.3291 37.7432C89.3291 41.542 87.294 43.9842 84.1735 43.9842C82.5455 44.1198 81.053 43.1701 80.3747 41.8134V47.9187H77.7969V31.6379H80.239V33.673C81.053 32.3162 82.5455 31.5022 84.1735 31.5022C87.1584 31.3665 89.3291 33.9443 89.3291 37.7432ZM86.6157 37.7432C86.6157 35.301 85.3946 33.673 83.3595 33.673C81.4601 33.673 80.1033 35.301 80.1033 37.7432C80.1033 40.1853 81.4601 41.8134 83.3595 41.8134C85.3946 41.8134 86.6157 40.1853 86.6157 37.7432Z" fill="white"/>
<path d="M102.761 37.7432C102.761 41.542 100.726 43.9842 97.6052 43.9842C95.9771 44.1198 94.4847 43.1701 93.8063 41.8134V47.9187H91.2285V31.6379H93.6706V33.673C94.4847 32.3162 95.9771 31.5022 97.6052 31.5022C100.726 31.3665 102.761 33.9443 102.761 37.7432ZM100.183 37.7432C100.183 35.301 98.9619 33.673 96.9268 33.673C95.0274 33.673 93.6706 35.301 93.6706 37.7432C93.6706 40.1853 95.0274 41.8134 96.9268 41.8134C98.9619 41.8134 100.183 40.1853 100.183 37.7432Z" fill="white"/>
<path d="M111.715 39.1002C111.85 40.7283 113.478 41.8137 115.785 41.8137C117.956 41.8137 119.448 40.7283 119.448 39.2359C119.448 37.8791 118.498 37.2008 116.328 36.6581L114.157 36.1154C111.036 35.3013 109.68 33.9446 109.68 31.6382C109.68 28.789 112.257 26.7539 115.785 26.7539C119.312 26.7539 121.755 28.789 121.89 31.6382H119.312C119.177 30.0101 117.82 28.9247 115.785 28.9247C113.75 28.9247 112.393 30.0101 112.393 31.5025C112.393 32.7235 113.343 33.4019 115.514 33.9446L117.413 34.3516C120.805 35.1657 122.297 36.5224 122.297 38.9645C122.297 42.085 119.719 44.1201 115.785 44.1201C111.986 44.1201 109.544 42.2207 109.408 39.1002H111.715Z" fill="white"/>
<path d="M127.452 28.6533V31.5025H129.758V33.5376H127.452V40.3213C127.452 41.4066 127.859 41.8137 128.944 41.8137C129.216 41.8137 129.487 41.8137 129.758 41.8137V43.8488C129.351 43.9844 128.809 43.9844 128.402 43.9844C125.96 43.9844 125.01 43.0347 125.01 40.7283V33.6732H123.246V31.6381H125.01V28.789H127.452V28.6533Z" fill="white"/>
<path d="M131.252 37.7439C131.252 33.9451 133.558 31.5029 137.086 31.5029C140.613 31.5029 142.92 33.9451 142.92 37.7439C142.92 41.6785 140.613 43.9849 137.086 43.9849C133.423 43.9849 131.252 41.5428 131.252 37.7439ZM140.342 37.7439C140.342 35.0304 139.121 33.538 137.086 33.538C135.051 33.538 133.83 35.0304 133.83 37.7439C133.83 40.4574 135.051 41.9498 137.086 41.9498C139.121 41.9498 140.342 40.3217 140.342 37.7439Z" fill="white"/>
<path d="M144.955 31.5021H147.397V33.6729C147.669 32.3162 149.025 31.3665 150.382 31.5021C150.653 31.5021 150.925 31.5021 151.196 31.6378V33.9443C150.789 33.8086 150.382 33.8086 150.111 33.8086C148.754 33.8086 147.533 34.894 147.533 36.2507C147.533 36.3864 147.533 36.5221 147.533 36.6577V43.9841H144.955V31.5021Z" fill="white"/>
<path d="M162.864 40.186C162.457 42.3568 160.286 43.9848 157.572 43.9848C154.045 43.9848 151.738 41.5427 151.738 37.7438C151.738 33.945 153.909 31.3672 157.437 31.3672C160.828 31.3672 162.999 33.6736 162.999 37.4725V38.2865H154.316V38.4222C154.18 40.186 155.401 41.6784 157.165 41.9497C157.301 41.9497 157.437 41.9497 157.572 41.9497C158.793 42.0854 160.014 41.407 160.421 40.186H162.864ZM154.316 36.5228H160.421C160.557 34.8947 159.2 33.538 157.572 33.4023C157.437 33.4023 157.437 33.4023 157.301 33.4023C155.673 33.4023 154.316 34.759 154.316 36.5228Z" fill="white"/>
<path d="M64.2295 17.7989H65.3149C65.9933 17.9345 66.6716 17.3918 66.8073 16.5778V16.4421C66.8073 15.6281 66.2646 15.2211 65.3149 15.2211C64.5009 15.0854 63.8225 15.6281 63.6868 16.4421H62.4658C62.6014 15.0854 63.6868 14 65.1792 14H65.3149C66.943 14 68.0284 14.9497 68.0284 16.1708C68.0284 17.1205 67.4857 17.7989 66.536 18.0702V18.2059C67.6214 18.2059 68.4354 19.1556 68.2997 20.1053C68.164 21.5977 66.8073 22.6831 65.3149 22.5474C63.8225 22.6831 62.4658 21.7334 62.3301 20.241C62.3301 20.241 62.3301 20.241 62.3301 20.1053H63.5511C63.6868 20.9194 64.3652 21.3264 65.4506 21.3264C66.536 21.3264 67.2143 20.7837 67.2143 19.9696C67.2143 19.1556 66.536 18.6129 65.4506 18.6129H64.3652V17.7989H64.2295Z" fill="white"/>
<path d="M69.7919 20.6472C69.7919 19.5618 70.606 18.8834 72.0984 18.8834L73.7265 18.7477V18.205C73.7265 17.5267 73.3194 17.2553 72.5054 17.2553C71.827 17.2553 71.42 17.5267 71.2843 17.9337H70.0633C70.1989 16.8483 71.1487 16.1699 72.5054 16.1699C73.9978 16.1699 74.9475 16.984 74.9475 18.205V22.4109H73.7265V21.5969H73.5908C73.1838 22.2752 72.5054 22.5466 71.6914 22.5466C70.7416 22.6823 69.7919 21.8682 69.6562 20.9185C69.7919 20.7828 69.7919 20.7828 69.7919 20.6472ZM73.7265 20.1045V19.5618L72.234 19.6974C71.42 19.6974 71.013 20.1045 71.013 20.5115C71.013 21.0542 71.5557 21.3255 72.0984 21.3255C72.9124 21.5969 73.7265 21.0542 73.7265 20.1045C73.7265 20.2401 73.7265 20.2401 73.7265 20.1045Z" fill="white"/>
<path d="M78.2035 17.2554V22.411H76.9824V16.3057H81.0526V17.2554H78.2035Z" fill="white"/>
<path d="M88.2441 19.2903C88.2441 21.1898 87.2944 22.4108 85.6663 22.4108C84.8523 22.4108 84.1739 22.0038 83.7669 21.3255H83.6312V24.3103H82.4102V16.1699H83.6312V17.1196H83.7669C84.1739 16.4412 84.8523 16.0342 85.6663 16.0342C87.2944 16.1699 88.2441 17.3909 88.2441 19.2903ZM87.0231 19.2903C87.0231 17.9336 86.3447 17.2552 85.395 17.2552C84.4453 17.2552 83.7669 18.0693 83.7669 19.2903C83.7669 20.5114 84.4453 21.3255 85.395 21.3255C86.4804 21.4611 87.0231 20.6471 87.0231 19.2903Z" fill="white"/>
<path d="M89.8728 24.5818V23.4964C90.0084 23.4964 90.1441 23.4964 90.2798 23.4964C90.8225 23.4964 91.2295 23.225 91.3652 22.6823L91.5009 22.411L89.3301 16.3057H90.6868L92.1792 21.1899H92.3149L93.8073 16.3057H95.0284L92.7219 22.6823C92.1792 24.1747 91.6365 24.5818 90.4155 24.5818C90.2798 24.5818 90.0084 24.5818 89.8728 24.5818Z" fill="white"/>
<path d="M95.9766 20.6463H97.1976C97.3333 21.189 97.876 21.4604 98.5544 21.4604C99.3684 21.4604 99.9111 21.0533 99.9111 20.5106C99.9111 19.968 99.5041 19.6966 98.5544 19.6966H97.6046V18.7469H98.5544C99.2327 18.7469 99.6398 18.4755 99.6398 17.9328C99.6398 17.5258 99.2327 17.1188 98.5544 17.1188C97.876 17.1188 97.3333 17.3902 97.3333 17.9328H96.1122C96.2479 16.8475 97.3333 16.0334 98.5544 16.1691C100.047 16.1691 100.861 16.8475 100.861 17.7972C100.861 18.3399 100.454 18.8826 99.9111 19.0182V19.1539C100.589 19.2896 101.132 19.8323 101.132 20.5106C101.132 21.7317 100.182 22.4101 98.69 22.4101C97.1976 22.5458 96.1122 21.8674 95.9766 20.6463Z" fill="white"/>
<path d="M102.76 22.411V16.3057H103.981V20.5115L106.83 16.3057H108.051V22.411H106.83V18.2051H106.694L103.845 22.411H102.76Z" fill="white"/>
<path d="M114.565 17.2554H112.665V22.411H111.444V17.2554H109.545V16.3057H114.565V17.2554Z" fill="white"/>
<path d="M121.077 20.7829C120.805 21.8683 119.584 22.6823 118.363 22.5467C116.871 22.5467 115.514 21.3256 115.514 19.8332C115.514 19.6975 115.514 19.5618 115.514 19.4262C115.243 17.9337 116.328 16.4413 117.956 16.3057C118.092 16.3057 118.228 16.3057 118.363 16.3057C120.127 16.3057 121.077 17.5267 121.077 19.4262V19.8332H116.735C116.6 20.7829 117.278 21.4613 118.228 21.5969H118.363C118.906 21.7326 119.584 21.3256 119.856 20.9186L121.077 20.7829ZM116.871 18.7478H119.991C119.991 17.9337 119.449 17.2554 118.635 17.1197H118.499C117.549 17.2554 116.871 17.9337 116.871 18.7478Z" fill="white"/>
<path d="M126.231 16.3057H128.945C130.166 16.3057 130.844 16.8484 130.844 17.7981C130.844 18.4764 130.437 19.0191 129.759 19.1548V19.2905C130.437 19.2905 131.116 19.9689 131.116 20.6472C131.116 21.7326 130.302 22.411 128.945 22.411H126.096V16.3057H126.231ZM127.452 17.2554V18.7478H128.673C129.352 18.7478 129.759 18.4764 129.759 17.9337C129.759 17.3911 129.488 17.1197 128.809 17.1197L127.452 17.2554ZM127.452 19.6975V21.4613H128.945C129.623 21.4613 130.03 21.1899 130.03 20.5115C130.03 19.8332 129.623 19.5618 128.809 19.5618L127.452 19.6975Z" fill="white"/>
</svg>
