<svg viewBox="0 0 198 60" fill="none" xmlns="http://www.w3.org/2000/svg">
<rect width="198" height="60" rx="12" fill="black"/>
<path d="M94.8723 34.5621C91.9504 34.5621 89.6371 36.6923 89.6371 39.6509C89.6371 42.4911 91.9504 44.7396 94.8723 44.7396C97.7943 44.7396 100.108 42.6095 100.108 39.6509C100.108 36.574 97.7943 34.5621 94.8723 34.5621ZM94.8723 42.6095C93.2896 42.6095 91.9504 41.3077 91.9504 39.5325C91.9504 37.7574 93.2896 36.4556 94.8723 36.4556C96.4551 36.4556 97.7943 37.6391 97.7943 39.5325C97.7943 41.3077 96.4551 42.6095 94.8723 42.6095ZM83.5497 34.5621C80.6277 34.5621 78.3144 36.6923 78.3144 39.6509C78.3144 42.4911 80.6277 44.7396 83.5497 44.7396C86.4716 44.7396 88.7849 42.6095 88.7849 39.6509C88.7849 36.574 86.4716 34.5621 83.5497 34.5621ZM83.5497 42.6095C81.9669 42.6095 80.6277 41.3077 80.6277 39.5325C80.6277 37.7574 81.9669 36.4556 83.5497 36.4556C85.1324 36.4556 86.4716 37.6391 86.4716 39.5325C86.4716 41.3077 85.1324 42.6095 83.5497 42.6095ZM70.0355 36.1006V38.2308H75.2707C75.1489 39.4142 74.6619 40.3609 74.0532 40.9527C73.3227 41.6627 72.1052 42.4911 70.0355 42.4911C66.7482 42.4911 64.3132 40.0059 64.3132 36.8107C64.3132 33.6154 66.87 31.1302 70.0355 31.1302C71.74 31.1302 73.0792 31.8402 74.0532 32.6686L75.6359 31.1302C74.2967 29.9467 72.5922 29 70.1572 29C65.7742 29 62 32.5503 62 36.8107C62 41.071 65.7742 44.6213 70.1572 44.6213C72.5922 44.6213 74.2967 43.9112 75.7577 42.3728C77.2187 40.9527 77.7057 38.9408 77.7057 37.4024C77.7057 36.929 77.7057 36.4556 77.5839 36.1006H70.0355ZM125.31 37.7574C124.823 36.574 123.605 34.5621 120.927 34.5621C118.248 34.5621 116.057 36.574 116.057 39.6509C116.057 42.4911 118.248 44.7396 121.17 44.7396C123.483 44.7396 124.944 43.3195 125.431 42.4911L123.727 41.3077C123.118 42.1361 122.388 42.7278 121.17 42.7278C119.953 42.7278 119.222 42.2544 118.613 41.1894L125.553 38.3491L125.31 37.7574ZM118.248 39.4142C118.248 37.5207 119.831 36.4556 120.927 36.4556C121.779 36.4556 122.631 36.929 122.875 37.5207L118.248 39.4142ZM112.526 44.2663H114.839V29.4734H112.526V44.2663ZM108.874 35.6272C108.265 35.0355 107.291 34.4438 106.073 34.4438C103.517 34.4438 101.082 36.6923 101.082 39.5325C101.082 42.3728 103.395 44.503 106.073 44.503C107.291 44.503 108.265 43.9112 108.752 43.3195H108.874V44.0296C108.874 45.9231 107.778 46.9882 106.073 46.9882C104.734 46.9882 103.76 46.0414 103.517 45.213L101.569 46.0414C102.177 47.3432 103.638 49 106.195 49C108.874 49 111.065 47.4615 111.065 43.7929V34.7988H108.874V35.6272ZM106.195 42.6095C104.612 42.6095 103.273 41.3077 103.273 39.5325C103.273 37.7574 104.612 36.4556 106.195 36.4556C107.778 36.4556 108.995 37.7574 108.995 39.5325C108.995 41.3077 107.778 42.6095 106.195 42.6095ZM135.902 29.4734H130.423V44.2663H132.736V38.7041H135.902C138.459 38.7041 140.894 36.929 140.894 34.0888C140.894 31.2485 138.459 29.4734 135.902 29.4734ZM136.024 36.574H132.736V31.4852H136.024C137.728 31.4852 138.702 32.9053 138.702 33.9704C138.58 35.2722 137.606 36.574 136.024 36.574ZM150.025 34.4438C148.32 34.4438 146.616 35.1538 146.007 36.6923L148.077 37.5207C148.564 36.6923 149.294 36.4556 150.147 36.4556C151.364 36.4556 152.46 37.1657 152.582 38.3491V38.4675C152.216 38.2308 151.242 37.8757 150.268 37.8757C148.077 37.8757 145.885 39.0592 145.885 41.1894C145.885 43.2012 147.712 44.503 149.66 44.503C151.242 44.503 151.973 43.7929 152.582 43.0828H152.703V44.2663H154.895V38.5858C154.651 35.9822 152.582 34.4438 150.025 34.4438ZM149.781 42.6095C149.051 42.6095 147.955 42.2544 147.955 41.3077C147.955 40.1243 149.294 39.7692 150.39 39.7692C151.364 39.7692 151.851 40.0059 152.46 40.2426C152.216 41.6627 150.999 42.6095 149.781 42.6095ZM162.565 34.7988L160.008 41.1894H159.887L157.208 34.7988H154.773L158.791 43.7929L156.478 48.7633H158.791L165 34.7988H162.565ZM142.111 44.2663H144.424V29.4734H142.111V44.2663Z" fill="white"/>
<path d="M23.6132 16.7363C23.2453 17.1043 23 17.7175 23 18.4533V45.5577C23 46.2935 23.2453 46.9068 23.6132 47.2747L23.7359 47.3973L38.9437 32.1895V32.0668V31.9442L23.6132 16.7363Z" fill="url(#paint0_linear)"/>
<path d="M43.9718 37.3398L38.9434 32.3114V32.0661V31.9434L43.9718 26.915L44.0944 27.0377L50.104 30.4717C51.821 31.4529 51.821 33.0472 50.104 34.0284L43.9718 37.3398Z" fill="url(#paint1_linear)"/>
<path d="M44.0948 37.2175L38.9438 32.0664L23.6133 47.3969C24.2265 48.0101 25.085 48.0101 26.1888 47.5196L44.0948 37.2175Z" fill="url(#paint2_linear)"/>
<path d="M44.0948 26.9156L26.1888 16.7362C25.085 16.1229 24.2265 16.2456 23.6133 16.8588L38.9438 32.0667L44.0948 26.9156Z" fill="url(#paint3_linear)"/>
<path opacity="0.2" d="M43.9722 37.0938L26.1888 47.1506C25.2077 47.7638 24.3491 47.6411 23.7359 47.1506L23.6133 47.2732L23.7359 47.3958C24.3491 47.8864 25.2077 48.0091 26.1888 47.3958L43.9722 37.0938Z" fill="black"/>
<path opacity="0.12" d="M23.6136 47.1506C23.2457 46.7827 23.123 46.1695 23.123 45.4336V45.5562C23.123 46.2921 23.3683 46.9053 23.7363 47.2733V47.1506H23.6136Z" fill="black"/>
<path opacity="0.12" d="M50.1049 33.6608L43.9727 37.0948L44.0953 37.2175L50.1049 33.7834C50.9634 33.2928 51.3313 32.6796 51.3313 32.0664C51.3313 32.6796 50.8407 33.1702 50.1049 33.6608Z" fill="black"/>
<path opacity="0.25" d="M26.1911 16.8584L50.1067 30.4719C50.8425 30.9625 51.3331 31.4531 51.3331 32.0663C51.3331 31.4531 50.9652 30.8399 50.1067 30.3493L26.1911 16.7358C24.4741 15.7546 23.125 16.6131 23.125 18.5755V18.6981C23.125 16.7358 24.4741 15.8773 26.1911 16.8584Z" fill="white"/>
<path d="M62.4913 25.0761H61.6328V22.6232H62.3687C62.9819 22.1326 63.3498 21.1515 63.3498 19.8024V16.123H68.2556V22.6232H69.1141V25.0761H68.2556V23.4817H62.614V25.0761H62.4913ZM64.2083 19.8024C64.2083 20.9062 63.963 21.8873 63.4725 22.6232H67.1518V17.1042H64.0857V19.8024H64.2083Z" fill="white" stroke="white" stroke-width="0.2" stroke-miterlimit="10"/>
<path d="M76.3497 22.5001C75.6139 23.236 74.7554 23.6039 73.6516 23.6039C72.5478 23.6039 71.6893 23.236 70.9534 22.5001C70.2175 21.7643 69.8496 20.9058 69.8496 19.802C69.8496 18.6982 70.2175 17.8397 70.9534 17.1038C71.6893 16.3679 72.5478 16 73.6516 16C74.7554 16 75.6139 16.3679 76.3497 17.1038C77.0856 17.8397 77.4535 18.6982 77.4535 19.802C77.4535 20.9058 77.0856 21.7643 76.3497 22.5001ZM71.6893 21.8869C72.1798 22.3775 72.9157 22.7454 73.6516 22.7454C74.3874 22.7454 75.1233 22.5001 75.6139 21.8869C76.1045 21.3963 76.4724 20.6605 76.4724 19.802C76.4724 18.9435 76.2271 18.2076 75.6139 17.717C75.1233 17.2264 74.3874 16.8585 73.6516 16.8585C72.9157 16.8585 72.1798 17.1038 71.6893 17.717C71.1987 18.2076 70.8308 18.9435 70.8308 19.802C70.8308 20.6605 71.076 21.3963 71.6893 21.8869Z" fill="white" stroke="white" stroke-width="0.2" stroke-miterlimit="10"/>
<path d="M82.2375 23.6039C81.1337 23.6039 80.2752 23.236 79.5393 22.5001C78.8035 21.7643 78.4355 20.9058 78.4355 19.802C78.4355 18.6982 78.8035 17.8397 79.5393 17.1038C80.2752 16.3679 81.1337 16 82.2375 16C83.3413 16 84.1998 16.3679 84.9357 17.2264L84.3225 17.8397C83.8319 17.2264 83.096 16.8585 82.2375 16.8585C81.379 16.8585 80.7658 17.1038 80.1526 17.717C79.5393 18.2076 79.2941 18.9435 79.2941 19.802C79.2941 20.6605 79.5393 21.3963 80.1526 21.8869C80.6431 22.3775 81.379 22.7454 82.2375 22.7454C83.096 22.7454 83.8319 22.3775 84.4451 21.6416L85.0583 22.2548C84.6904 22.6228 84.3225 22.9907 83.8319 23.236C83.3413 23.4813 82.8507 23.6039 82.2375 23.6039Z" fill="white" stroke="white" stroke-width="0.2" stroke-miterlimit="10"/>
<path d="M88.9821 23.4817H88.001V16.9816H85.916V16.123H90.9444V16.9816H88.8595V23.4817H88.9821Z" fill="white" stroke="white" stroke-width="0.2" stroke-miterlimit="10"/>
<path d="M97.4455 16.123L94.6247 22.3779C94.2568 23.2364 93.6435 23.727 92.9077 23.727C92.6624 23.727 92.4171 23.727 92.1718 23.6043L92.4171 22.7458C92.5397 22.8685 92.785 22.8685 92.9077 22.8685C93.153 22.8685 93.2756 22.8685 93.3983 22.7458C93.5209 22.6232 93.6435 22.5005 93.7662 22.2552L94.0115 21.642L91.5586 16.2457H92.6624L94.502 20.4156L96.2191 16.2457H97.4455V16.123Z" fill="white" stroke="white" stroke-width="0.2" stroke-miterlimit="10"/>
<path d="M98.5488 23.4817V16.123H103.823V23.4817H102.841V16.9816H99.4073V23.4817H98.5488Z" fill="white" stroke="white" stroke-width="0.2" stroke-miterlimit="10"/>
<path d="M105.539 23.4817V16.123H106.52V19.3118H110.2V16.123H111.181V23.4817H110.2V20.1703H106.52V23.4817H105.539Z" fill="white" stroke="white" stroke-width="0.2" stroke-miterlimit="10"/>
<path d="M118.906 22.5001C118.171 23.236 117.312 23.6039 116.208 23.6039C115.104 23.6039 114.246 23.236 113.51 22.5001C112.774 21.7643 112.406 20.9058 112.406 19.802C112.406 18.6982 112.774 17.8397 113.51 17.1038C114.246 16.3679 115.104 16 116.208 16C117.312 16 118.171 16.3679 118.906 17.1038C119.642 17.8397 120.01 18.6982 120.01 19.802C119.888 20.9058 119.52 21.7643 118.906 22.5001ZM114.123 21.8869C114.614 22.3775 115.35 22.7454 116.086 22.7454C116.821 22.7454 117.557 22.5001 118.048 21.8869C118.538 21.3963 118.906 20.6605 118.906 19.802C118.906 18.9435 118.661 18.2076 118.048 17.717C117.557 17.2264 116.821 16.8585 116.086 16.8585C115.35 16.8585 114.614 17.1038 114.123 17.717C113.633 18.2076 113.265 18.9435 113.265 19.802C113.265 20.6605 113.633 21.3963 114.123 21.8869Z" fill="white" stroke="white" stroke-width="0.2" stroke-miterlimit="10"/>
<path d="M123.812 23.4817V16.123H126.511C127.124 16.123 127.614 16.3683 127.982 16.7363C128.35 17.1042 128.596 17.5948 128.596 18.208C128.596 18.5759 128.473 18.8212 128.35 19.1891C128.228 19.4344 127.982 19.6797 127.614 19.8024C127.982 19.925 128.228 20.1703 128.473 20.4156C128.718 20.6609 128.841 21.0288 128.841 21.5194C128.841 22.1326 128.596 22.6232 128.228 22.9911C127.737 23.359 127.247 23.6043 126.633 23.6043H123.812V23.4817ZM124.794 19.3118H126.511C126.879 19.3118 127.124 19.1891 127.369 18.9439C127.614 18.6986 127.737 18.4533 127.737 18.208C127.737 17.9627 127.614 17.7174 127.369 17.4721C127.124 17.2268 126.879 17.1042 126.511 17.1042H124.794V19.3118ZM124.794 22.6232H126.756C127.124 22.6232 127.369 22.5005 127.614 22.2552C127.86 22.01 127.982 21.7647 127.982 21.3967C127.982 21.1515 127.86 20.7835 127.614 20.5382C127.369 20.2929 127.124 20.1703 126.756 20.1703H124.916V22.6232H124.794Z" fill="white" stroke="white" stroke-width="0.2" stroke-miterlimit="10"/>
<defs>
<linearGradient id="paint0_linear" x1="37.5943" y1="18.22" x2="17.0117" y2="38.8026" gradientUnits="userSpaceOnUse">
<stop stop-color="#00A0FF"/>
<stop offset="0.00657445" stop-color="#00A1FF"/>
<stop offset="0.2601" stop-color="#00BEFF"/>
<stop offset="0.5122" stop-color="#00D2FF"/>
<stop offset="0.7604" stop-color="#00DFFF"/>
<stop offset="1" stop-color="#00E3FF"/>
</linearGradient>
<linearGradient id="paint1_linear" x1="52.3537" y1="32.0678" x2="22.6777" y2="32.0678" gradientUnits="userSpaceOnUse">
<stop stop-color="#FFE000"/>
<stop offset="0.4087" stop-color="#FFBD00"/>
<stop offset="0.7754" stop-color="#FFA500"/>
<stop offset="1" stop-color="#FF9C00"/>
</linearGradient>
<linearGradient id="paint2_linear" x1="41.3071" y1="34.8824" x2="13.3954" y2="62.7941" gradientUnits="userSpaceOnUse">
<stop stop-color="#FF3A44"/>
<stop offset="1" stop-color="#C31162"/>
</linearGradient>
<linearGradient id="paint3_linear" x1="19.808" y1="7.75397" x2="32.2718" y2="20.2177" gradientUnits="userSpaceOnUse">
<stop stop-color="#32A071"/>
<stop offset="0.0685" stop-color="#2DA771"/>
<stop offset="0.4762" stop-color="#15CF74"/>
<stop offset="0.8009" stop-color="#06E775"/>
<stop offset="1" stop-color="#00F076"/>
</linearGradient>
</defs>
</svg>
