<svg viewBox="0 0 562 828" fill="none" xmlns="http://www.w3.org/2000/svg">
<path d="M351.217 43.0846C356.276 38.4068 361.909 34.2064 367.637 30.2924C373.364 26.3784 379.379 22.8462 385.679 19.6959C391.98 16.5456 398.471 13.8726 405.154 11.677C411.932 9.57677 418.996 8.14481 426.156 7.66749L429.306 7.47656L429.688 10.6269C430.165 14.5409 430.356 18.264 430.452 22.0825C430.643 25.9011 430.547 29.7196 430.452 33.4427C430.165 40.9844 429.497 48.6215 428.256 56.0676L427.206 61.7C426.824 63.6093 426.347 65.4231 425.965 67.2369L425.297 70.0053L424.437 72.7738C423.865 74.5876 423.387 76.4014 422.719 78.2152C420.142 85.375 416.896 92.2484 412.695 98.549C413.364 96.7352 414.032 95.0169 414.7 93.2985C414.987 92.4393 415.464 91.5802 415.655 90.721L416.514 88.048C416.8 87.1888 417.087 86.2342 417.373 85.375L417.755 84.0385C417.85 83.5612 417.946 83.1794 418.137 82.702L419.473 77.3561C419.951 75.5422 420.237 73.7284 420.619 71.9146L421.192 69.2416L421.574 66.4732C421.86 64.6594 422.146 62.8456 422.433 61.0318L423.006 55.4949C423.674 48.1441 424.056 40.7934 424.056 33.4427C424.056 29.7196 423.96 26.092 423.865 22.3689C423.769 18.7413 423.483 15.0182 423.101 11.486L426.633 14.4454C420.046 14.9227 413.459 16.1638 406.968 17.7867C400.476 19.6005 394.08 21.8916 387.875 24.4691C381.67 27.1421 375.465 30.006 369.355 33.1563C363.15 36.1157 357.136 39.5524 351.217 43.0846Z" fill="#05D9AE"/>
<path d="M372.791 62.7507C373.173 59.314 374.318 56.2591 375.369 53.1088C375.941 51.5814 376.61 50.054 377.373 48.622C378.137 47.1901 378.901 45.6627 379.664 44.2307C382.91 38.5983 387.015 33.3478 391.597 28.6701C392.838 27.5245 393.889 26.379 395.225 25.3289C396.466 24.2788 397.707 23.2287 399.044 22.1786C400.38 21.1285 401.717 20.2693 403.148 19.3147C403.817 18.8373 404.485 18.36 405.249 17.9782C405.917 17.5008 406.681 17.2145 407.444 16.7371C408.876 15.9734 410.404 15.2097 411.836 14.446C413.363 13.7778 414.891 13.205 416.513 12.6322L418.9 11.8685C419.759 11.6776 420.523 11.4866 421.382 11.2957L423.864 10.8184C424.723 10.7229 425.487 10.532 426.346 10.4365L426.633 11.0093L422.528 13.3004L420.427 14.446L418.423 15.687L414.413 18.1691L410.595 20.9375C409.926 21.4149 409.354 21.7967 408.685 22.3695L406.872 23.8969C405.631 24.947 404.39 25.8062 403.244 26.8563L399.807 30.0066C398.662 31.0567 397.612 32.2023 396.466 33.3478C391.979 37.7392 387.874 42.4169 384.056 47.381L381.287 51.1041C380.428 52.3451 379.473 53.6816 378.614 54.9226C376.801 57.5002 375.082 60.1732 373.555 62.8461L372.791 62.7507Z" fill="#05D9AE"/>
<path d="M282.959 29.5291C279.14 26.1878 274.844 23.5148 270.549 21.1282C266.157 18.7417 261.67 16.7369 257.088 15.0186L253.651 13.7775C252.506 13.3957 251.265 13.0138 250.119 12.632C247.828 11.8683 245.346 11.2 243.055 10.5318C240.668 9.86352 238.282 9.3862 235.895 8.81342L228.64 7.38146L231.981 5.94951L231.504 6.80868C231.313 7.09507 231.217 7.47693 231.027 7.76332C230.74 8.43156 230.454 9.09981 230.167 9.76806C229.881 10.4363 229.595 11.2 229.404 11.8683C229.117 12.5365 228.926 13.3002 228.735 13.9685L228.067 16.1641L227.59 18.3598C227.208 19.7918 227.017 21.3192 226.826 22.8466C225.967 28.8608 226.062 35.066 226.731 41.1756L227.399 45.7579C227.59 47.2853 227.972 48.8127 228.354 50.3402C228.831 53.395 229.881 56.4499 230.74 59.5047L231.027 60.6503L231.408 61.7958L232.172 63.9915L233.7 68.4783C234.272 70.0057 234.941 71.4377 235.513 72.8696C236.086 74.397 236.754 75.829 237.327 77.3564C235.418 74.7789 233.604 72.0104 231.886 69.3375L229.595 65.0416L228.449 62.8459C228.258 62.4641 228.067 62.0822 227.876 61.7958L227.399 60.6503L225.49 56.1635C224.821 54.636 224.344 53.1086 223.867 51.4857L223.103 49.0991C222.912 48.3354 222.53 47.5717 222.435 46.7125L221.385 41.8439C220.239 35.3524 219.762 28.5744 220.526 21.7965C220.716 20.0781 220.907 18.4553 221.289 16.7369C221.48 15.8777 221.671 15.114 221.862 14.2549L222.53 11.7728C222.721 10.9136 223.008 10.1499 223.294 9.29074C223.58 8.52703 223.867 7.66786 224.249 6.90414C224.63 6.14043 224.917 5.28126 225.299 4.51755C225.49 4.13569 225.681 3.75384 225.872 3.37198C226.062 2.99013 226.253 2.60827 226.635 2.13096L227.876 0.22168L229.976 0.698999C232.459 1.27178 235.036 1.7491 237.518 2.41735L241.241 3.46745C242.482 3.8493 243.723 4.13569 244.964 4.61301C247.446 5.47219 249.833 6.2359 252.219 7.286C253.365 7.76332 254.606 8.24064 255.752 8.81342L259.284 10.4363C263.866 12.7274 268.353 15.4004 272.458 18.5507C274.463 20.0781 276.467 21.7965 278.281 23.6103C279.809 25.4241 281.527 27.3334 282.959 29.5291Z" fill="#05D9AE"/>
<path d="M260.621 42.6072C257.376 39.075 254.703 35.9247 252.03 32.8699C249.452 29.815 246.97 26.8556 244.488 23.8963C243.915 23.1326 243.247 22.4643 242.579 21.7006C242.006 20.9369 241.338 20.1732 240.67 19.5049C240.001 18.7412 239.429 18.073 238.76 17.2138C238.092 16.4501 237.424 15.6864 236.756 14.9227C235.514 13.2998 234.083 11.7724 232.842 10.054C231.505 8.33567 230.073 6.61732 228.832 4.51712L229.118 3.94434L231.982 5.47176C232.937 6.04454 233.892 6.4264 234.751 7.09464C236.565 8.33567 238.378 9.38577 240.001 10.8177C240.86 11.486 241.72 12.1542 242.579 12.8225L244.965 15.0181C245.825 15.6864 246.493 16.5456 247.257 17.3093C248.02 18.073 248.784 18.8367 249.452 19.6959C252.221 23.0371 254.607 26.6647 256.612 30.4833C257.662 32.3926 258.521 34.3973 259.285 36.402C260.049 38.4068 260.717 40.507 261.099 42.6072H260.621Z" fill="#05D9AE"/>
<path d="M240.573 118.883C246.397 119.456 252.029 119.933 257.757 120.41C263.485 120.792 269.117 121.269 274.845 121.556C280.573 121.842 286.205 122.129 291.933 122.224C297.661 122.32 303.293 122.32 309.021 122.129C320.476 121.842 331.837 121.46 343.292 120.888L377.564 119.456L379.378 119.36L379.569 121.174C380.141 126.997 380.332 132.725 380.141 138.548C379.95 144.372 379.378 150.195 377.85 155.827C377.086 158.691 376.132 161.46 374.604 164.133C374.223 164.801 373.841 165.469 373.363 166.042C372.982 166.71 372.409 167.283 371.931 167.856C371.359 168.429 370.786 169.001 370.213 169.479C369.545 169.956 368.972 170.433 368.304 170.815C363.149 173.87 357.325 175.397 351.598 176.161C345.87 176.925 340.046 177.02 334.319 176.543C328.591 176.066 322.863 175.206 317.517 172.724L316.562 172.152C316.276 171.961 315.894 171.77 315.608 171.579C315.321 171.388 315.035 171.101 314.749 170.815L314.367 170.433L313.985 169.956C313.03 168.715 312.457 167.378 311.885 166.042C310.739 163.369 310.071 160.505 309.403 157.737C308.734 154.968 308.066 152.2 307.302 149.431C306.539 146.758 305.584 143.99 304.057 141.89C303.293 140.839 302.338 139.885 301.193 139.408C300.143 138.93 298.806 138.835 297.565 139.026C295.083 139.408 293.651 141.603 292.792 144.181C291.933 146.758 291.551 149.527 291.265 152.295C290.883 155.064 290.692 157.927 290.119 160.887C289.546 163.751 288.878 166.71 287.064 169.479C286.205 170.815 284.868 172.152 283.436 172.915L282.386 173.488C282.005 173.679 281.623 173.774 281.241 173.965C280.477 174.252 279.713 174.443 279.045 174.634C276.086 175.397 273.126 175.588 270.167 175.588C267.208 175.588 264.344 175.397 261.48 175.111C258.616 174.825 255.752 174.443 252.888 173.87L251.838 173.679C251.456 173.584 251.074 173.488 250.692 173.393C249.929 173.202 249.165 172.82 248.401 172.438C246.969 171.674 245.633 170.624 244.678 169.383C243.628 168.142 242.864 166.71 242.387 165.087C242.292 164.705 242.196 164.324 242.101 163.942L241.91 162.892L241.528 160.791C240.955 158.023 240.478 155.159 240 152.295C239.046 146.663 238.282 140.935 237.9 135.207C237.709 132.343 237.614 129.479 237.709 126.615C237.805 125.183 237.9 123.751 238.282 122.32C238.473 121.651 238.664 120.888 239.046 120.219C239.332 119.837 239.714 119.169 240.573 118.883ZM240.573 119.265C240.096 119.551 239.619 120.124 239.428 120.697C239.141 121.365 238.95 122.033 238.855 122.701C238.664 124.038 238.568 125.47 238.568 126.902C238.568 129.766 238.855 132.534 239.237 135.398C240 141.03 241.051 146.663 242.196 152.2C242.769 154.968 243.342 157.737 244.01 160.505L244.487 162.605L244.774 163.655C244.869 164.037 244.965 164.228 245.06 164.61C245.442 165.756 246.015 166.901 246.874 167.856C247.638 168.81 248.688 169.574 249.738 170.147C250.311 170.433 250.883 170.624 251.456 170.815C251.742 170.911 252.029 170.911 252.315 171.006L253.365 171.197C256.134 171.579 258.998 171.961 261.766 172.247C264.535 172.533 267.399 172.629 270.167 172.629C272.935 172.533 275.704 172.343 278.281 171.77C278.95 171.579 279.522 171.483 280.095 171.197C280.382 171.102 280.668 171.006 280.954 170.815L281.814 170.433C282.864 169.86 283.627 169.097 284.296 168.047C285.728 166.042 286.491 163.369 287.064 160.696C287.637 158.023 288.019 155.159 288.496 152.295C288.973 149.431 289.451 146.567 290.501 143.703C291.074 142.271 291.742 140.839 292.887 139.598C293.174 139.312 293.46 139.026 293.842 138.739C294.128 138.453 294.51 138.262 294.892 138.071C295.274 137.88 295.656 137.689 296.038 137.594C296.42 137.498 296.801 137.403 297.279 137.307C298.902 137.116 300.62 137.212 302.052 137.976C303.579 138.739 304.629 139.98 305.489 141.221C306.348 142.462 306.921 143.894 307.398 145.231C307.875 146.567 308.257 147.999 308.639 149.431C309.403 152.2 309.88 155.064 310.548 157.832C311.216 160.6 311.885 163.369 312.839 165.946C313.317 167.283 313.985 168.524 314.844 169.574L315.13 169.956L315.512 170.338C315.703 170.624 315.99 170.815 316.276 171.006C316.562 171.197 316.849 171.388 317.135 171.579L317.994 172.056C323.054 174.347 328.782 175.206 334.414 175.493C340.046 175.779 345.774 175.493 351.311 174.538C356.848 173.584 362.29 171.865 366.872 168.906C369.163 167.569 370.69 165.469 372.027 163.083C373.268 160.696 374.127 158.118 374.795 155.445C376.036 150.099 376.514 144.467 376.705 138.835C376.8 133.202 376.514 127.57 375.941 122.033L377.946 123.751C366.49 124.42 355.034 124.992 343.579 125.374C332.123 125.756 320.667 126.043 309.212 126.043C303.484 126.043 297.661 125.947 291.933 125.565C286.205 125.279 280.477 124.706 274.749 124.133C269.021 123.561 263.389 122.892 257.661 122.129C251.838 121.078 246.11 120.219 240.573 119.265Z" fill="#05D9AE"/>
<path d="M308.352 129.48C308.448 129.48 308.448 129.384 308.352 129.48L308.448 129.575L308.543 129.766L308.639 130.243L308.925 131.198L309.402 133.107L310.452 136.926C311.121 139.408 311.789 141.985 312.553 144.468C313.985 149.432 315.417 154.491 317.23 159.169C317.708 160.315 318.185 161.46 318.758 162.51C318.853 162.797 319.044 162.988 319.235 163.274C319.426 163.56 319.522 163.751 319.712 163.942C319.999 164.324 320.285 164.61 320.667 164.801C321.526 165.279 322.672 165.66 323.817 166.042C324.963 166.329 326.204 166.615 327.445 166.902C332.409 167.761 337.564 168.333 342.815 168.524C347.97 168.715 353.22 168.429 358.28 167.474C359.521 167.188 360.762 166.902 362.003 166.52C362.576 166.329 363.148 166.042 363.721 165.756C364.008 165.661 364.199 165.47 364.485 165.279C364.676 165.088 364.867 164.897 365.058 164.706C366.49 162.892 367.062 160.315 367.635 157.832C368.685 152.773 368.972 147.618 369.354 142.463C369.64 137.308 369.926 132.153 369.926 126.998L371.931 128.907L364.199 129.289L356.466 129.575C351.311 129.671 346.06 129.766 340.81 129.766C330.309 129.766 319.617 129.671 308.352 129.48ZM308.066 129.289C317.994 128.334 328.495 127.38 339.283 126.616C344.628 126.234 350.07 125.852 355.511 125.566L363.721 125.184L371.836 124.993L373.936 124.897L373.84 126.902C373.649 132.153 373.268 137.403 372.599 142.654C371.931 147.904 371.072 153.059 369.64 158.214C369.258 159.455 368.876 160.792 368.303 162.033C367.731 163.274 367.158 164.515 366.108 165.565C365.821 165.851 365.535 166.042 365.249 166.329C364.962 166.52 364.58 166.711 364.294 166.806C363.626 167.092 363.053 167.283 362.385 167.57C361.144 167.952 359.807 168.238 358.471 168.524C355.893 169.002 353.316 169.288 350.643 169.575C348.065 169.861 345.392 170.052 342.815 170.243C337.564 170.529 332.314 170.72 326.968 170.052C324.295 169.67 321.622 169.288 318.853 167.761C318.471 167.57 318.09 167.283 317.803 166.997C317.517 166.711 317.135 166.329 316.944 166.042C316.658 165.756 316.467 165.374 316.276 165.088C316.085 164.801 315.894 164.419 315.703 164.133C315.035 162.892 314.462 161.651 314.08 160.315C312.266 155.255 311.121 150.1 310.071 144.945C309.593 142.367 309.116 139.79 308.83 137.212C308.639 135.876 308.448 134.635 308.352 133.298C308.257 132.63 308.161 131.962 308.161 131.389L308.066 130.434V129.957V129.671V129.575C308.066 129.48 307.97 129.289 308.066 129.289Z" fill="#05D9AE"/>
<path d="M242.961 125.47C246.684 125.47 250.598 125.565 254.512 125.756L260.431 126.043L266.445 126.424C270.455 126.711 274.56 126.997 278.664 127.474C282.769 127.952 286.779 128.62 290.788 129.193L292.029 129.384L291.743 130.434C290.693 134.921 289.643 139.217 288.593 143.703C287.543 148.095 286.492 152.486 285.251 156.877C284.583 159.073 283.915 161.269 282.769 163.369C282.197 164.419 281.624 165.565 280.383 166.519C280.192 166.615 280.096 166.806 279.905 166.806L279.428 166.996C279.142 167.187 278.855 167.283 278.569 167.378C277.996 167.665 277.423 167.856 276.851 168.047C272.268 169.383 267.591 169.669 262.913 169.574C260.622 169.479 258.235 169.383 255.849 168.906C254.703 168.715 253.462 168.428 252.316 168.047C251.171 167.665 249.93 167.092 248.689 166.233C248.402 166.042 248.116 165.755 247.83 165.469C247.543 165.183 247.257 164.801 247.066 164.514C246.684 163.942 246.302 163.273 246.111 162.701C245.634 161.555 245.252 160.409 244.87 159.264C244.202 157.068 243.629 154.777 243.247 152.486C242.77 150.195 242.484 147.999 242.197 145.708C242.102 144.562 241.911 143.417 241.815 142.271L241.529 138.835C241.529 137.689 241.434 136.544 241.434 135.398C241.434 134.252 241.434 133.107 241.529 131.961C241.529 130.816 241.72 129.67 241.815 128.525L242.102 126.806C242.579 126.615 242.77 126.043 242.961 125.47ZM243.247 125.852L243.152 127.379V129.002C243.247 130.147 243.247 131.198 243.343 132.343C243.534 134.539 243.916 136.734 244.202 138.93C244.966 143.321 245.92 147.713 246.97 152.009C247.543 154.204 248.212 156.305 248.784 158.309C249.166 159.264 249.548 160.314 249.93 161.269C250.121 161.746 250.407 162.032 250.598 162.414C250.694 162.605 250.789 162.605 250.885 162.796C251.075 162.892 251.075 162.987 251.266 163.178C251.935 163.655 252.794 164.037 253.748 164.419C254.703 164.705 255.753 164.992 256.708 165.183C258.808 165.66 260.908 165.851 263.104 166.042C265.3 166.137 267.495 166.137 269.691 166.042C271.887 165.946 274.082 165.66 276.087 165.183C276.564 165.087 277.137 164.896 277.614 164.801C277.805 164.705 278.092 164.61 278.283 164.514L278.569 164.419C278.664 164.419 278.76 164.323 278.76 164.323C279.333 163.942 280.096 163.178 280.669 162.319C281.815 160.6 282.769 158.5 283.533 156.495C286.874 148.19 288.593 139.217 289.547 130.338L290.502 131.579C286.588 131.484 282.674 131.293 278.76 131.007C274.846 130.72 271.027 130.147 267.113 129.67L261.195 128.906L255.276 128.047C251.457 127.284 247.448 126.615 243.247 125.852Z" fill="#05D9AE"/>
<path d="M358.757 128.812C355.034 133.012 351.12 137.021 347.301 141.031L344.438 144.086C343.483 145.136 342.624 146.09 341.86 147.141C341.669 147.332 341.478 147.618 341.478 147.809C341.478 147.809 341.478 147.904 341.478 147.809C341.478 147.809 341.478 147.809 341.478 147.713C341.478 147.618 341.478 147.522 341.478 147.522C341.478 147.427 341.478 147.332 341.478 147.236C341.478 147.141 341.478 147.045 341.383 146.95C341.287 146.663 341.096 146.377 340.81 146.186C340.237 145.804 340.046 145.9 339.951 145.9C339.855 145.9 339.951 145.9 339.951 145.9H340.046C340.142 145.9 340.142 145.9 340.237 145.9L340.619 145.804C340.905 145.709 341.192 145.709 341.478 145.613C342.719 145.327 343.96 144.849 345.488 144.468C346.251 144.277 347.015 144.086 348.161 144.181C348.447 144.181 348.829 144.277 349.306 144.468C349.688 144.659 350.261 145.04 350.547 145.518C350.834 145.995 350.929 146.472 351.025 146.854C351.025 147.141 351.025 147.522 350.929 147.809C350.834 148 350.834 148.095 350.738 148.286C350.643 148.668 350.547 148.763 350.356 148.954C350.261 149.145 350.165 149.336 349.974 149.527C349.784 149.909 349.497 150.195 349.306 150.482C348.829 151.055 348.352 151.627 347.874 152.2C345.965 154.3 343.96 156.305 341.86 158.214C337.755 162.033 333.459 165.661 328.877 168.906C332.409 164.515 336.037 160.315 339.76 156.114C341.574 154.014 343.387 151.914 345.106 149.814C345.488 149.241 345.965 148.763 346.347 148.286C346.538 148 346.729 147.809 346.824 147.522C346.92 147.427 347.015 147.236 347.015 147.141C347.015 147.045 347.111 146.854 347.111 146.95C347.111 146.95 347.111 146.854 347.111 146.95C347.111 147.045 347.015 147.236 347.111 147.332C347.111 147.427 347.111 147.427 347.206 147.618C347.301 147.809 347.492 147.904 347.588 148C347.683 148.095 347.683 148 347.683 148C347.492 148 346.824 148.095 346.251 148.286C345.01 148.573 343.674 149.05 342.146 149.432C341.765 149.527 341.383 149.623 341.001 149.623C340.81 149.623 340.619 149.718 340.428 149.718C340.333 149.718 340.237 149.718 340.142 149.718H339.951C339.855 149.718 339.855 149.718 339.664 149.718C339.378 149.718 338.996 149.718 338.328 149.241C338.041 148.954 337.755 148.668 337.66 148.286C337.564 148.095 337.564 148 337.564 147.809C337.564 147.713 337.564 147.522 337.564 147.427C337.564 147.236 337.66 147.141 337.66 146.95L337.755 146.663C337.851 146.472 337.851 146.377 337.946 146.186C338.232 145.709 338.423 145.422 338.71 145.136C339.76 143.895 340.714 142.94 341.765 141.986C342.815 141.031 343.865 140.076 344.915 139.217C349.497 135.303 353.984 131.866 358.757 128.812Z" fill="#05D9AE"/>
<path d="M261.29 128.812C259.381 131.485 257.28 133.871 255.276 136.162C254.226 137.308 253.175 138.549 252.412 139.599C252.316 139.694 252.221 139.885 252.221 139.885C252.221 139.885 252.221 139.885 252.221 139.79V139.694C252.221 139.599 252.221 139.503 252.316 139.408C252.316 139.408 252.316 139.217 252.316 139.122C252.316 139.026 252.316 138.931 252.221 138.74C252.125 138.358 251.934 138.072 251.648 137.881C251.362 137.69 251.171 137.594 250.98 137.594H250.884H250.789H250.693C250.598 137.594 250.598 137.594 250.598 137.594H250.693C250.789 137.594 250.789 137.594 250.884 137.594C250.98 137.594 251.171 137.499 251.362 137.499C252.03 137.308 252.698 137.117 253.653 136.83C254.13 136.735 254.512 136.544 255.467 136.64C255.562 136.64 255.753 136.64 255.848 136.735C256.039 136.735 256.135 136.83 256.326 136.926C256.517 137.021 256.708 137.117 256.899 137.308C257.09 137.499 257.28 137.69 257.376 137.881C257.567 138.072 257.567 138.262 257.662 138.453C257.758 138.644 257.758 138.835 257.758 139.026C257.758 139.313 257.758 139.599 257.662 139.885C257.567 140.076 257.567 140.172 257.567 140.267C257.471 140.554 257.376 140.649 257.28 140.744C257.185 140.935 257.089 140.935 257.089 141.126C256.899 141.317 256.803 141.508 256.708 141.699C256.421 142.081 256.135 142.367 255.848 142.654C254.703 143.895 253.557 144.945 252.316 145.995C249.93 148.095 247.352 150.004 244.488 151.627C246.207 148.859 248.211 146.377 250.121 143.895C251.075 142.654 252.125 141.508 252.985 140.267L253.653 139.408C253.748 139.313 253.844 139.122 253.939 139.026C253.939 138.931 254.035 138.931 254.035 138.835C254.035 138.835 254.13 138.74 254.035 138.835C254.035 138.835 254.035 138.835 254.035 138.931C253.939 139.122 253.939 139.313 254.035 139.408C254.035 139.503 254.035 139.599 254.13 139.694C254.13 139.79 254.226 139.885 254.321 139.981C254.417 140.076 254.512 140.172 254.607 140.267C254.703 140.363 254.798 140.458 254.894 140.458L255.085 140.554H255.18C255.276 140.554 254.989 140.554 254.607 140.649C253.939 140.84 253.175 141.031 252.316 141.222C252.125 141.222 251.839 141.317 251.648 141.317C251.553 141.317 251.362 141.317 251.266 141.317H251.075H250.98C250.98 141.317 250.98 141.317 250.789 141.317H250.598H250.502H250.312C250.121 141.222 249.93 141.222 249.548 140.935C249.261 140.745 248.975 140.363 248.88 139.981C248.784 139.79 248.784 139.694 248.784 139.599C248.784 139.503 248.784 139.313 248.784 139.217C248.784 139.122 248.784 138.931 248.88 138.835L248.975 138.549C249.071 138.453 249.071 138.262 249.166 138.262C249.357 137.881 249.548 137.785 249.643 137.499C250.312 136.735 250.884 136.258 251.457 135.685C252.03 135.112 252.698 134.635 253.366 134.158C255.753 132.057 258.426 130.339 261.29 128.812Z" fill="#05D9AE"/>
<path d="M503.004 204.896C504.913 206.519 506.536 208.524 507.777 210.72C509.018 212.915 509.877 215.397 510.259 217.975C510.45 219.311 510.45 220.552 510.259 221.889C510.068 223.225 509.877 224.466 509.4 225.803C508.636 228.285 507.395 230.672 505.868 232.867C504.34 235.063 502.622 236.972 500.713 238.691C498.803 240.504 496.703 242.127 494.412 243.464C492.121 244.8 489.639 245.946 486.966 246.519C484.293 247.187 481.524 247.473 478.851 247.282C473.314 246.9 467.969 244.8 463.577 241.65C459.186 238.5 455.558 234.299 452.79 229.812C447.062 220.743 444.675 210.147 444.007 199.932C443.625 195.064 443.052 190.195 442.193 185.422C441.334 180.649 440.284 175.875 438.948 171.198C437.611 166.52 436.084 161.842 434.365 157.26C432.647 152.678 430.738 148.191 428.542 143.8C426.442 139.408 424.151 135.017 421.669 130.816C420.428 128.716 419.091 126.616 417.755 124.516C416.418 122.416 415.177 120.411 413.65 118.502C407.731 110.96 399.903 104.564 390.738 100.459C395.607 101.605 400.285 103.705 404.676 106.282C409.067 108.955 413.077 112.106 416.609 115.924C420.237 119.743 423.005 123.943 425.774 128.143C428.542 132.344 431.119 136.735 433.506 141.222C438.184 150.196 442.098 159.647 444.962 169.479C447.826 179.312 449.735 189.336 450.403 199.55C450.499 200.887 450.594 201.937 450.69 203.178C450.785 204.324 450.976 205.565 451.071 206.71C451.453 209.097 451.931 211.388 452.503 213.679C453.076 215.97 453.84 218.166 454.795 220.361C455.654 222.557 456.704 224.657 457.849 226.662C460.236 230.672 463.195 234.299 466.823 237.068C470.451 239.836 474.651 241.841 479.042 242.318C483.529 242.891 488.111 241.936 492.216 239.836C496.417 237.831 500.14 234.586 503.195 230.958C506.25 227.33 508.35 222.844 508.254 218.07C508.254 216.925 508.063 215.684 507.777 214.538C507.491 213.393 507.109 212.247 506.631 211.101C505.963 208.906 504.627 206.806 503.004 204.896Z" fill="#05D9AE"/>
<path d="M418.803 341.505C422.145 338.927 424.34 335.491 425.963 331.767C427.49 328.044 428.541 324.13 429.209 320.121C430.641 312.102 431.023 303.892 431.309 295.778L431.5 289.572L431.595 286.518C431.595 285.563 431.595 284.513 431.595 283.558C431.5 279.644 431.023 275.635 430.259 271.721C428.827 263.893 426.44 256.065 423.767 248.428C421.094 240.791 417.944 233.249 414.698 225.707L409.734 214.443L407.252 208.715C406.393 206.71 405.629 204.705 404.961 202.7C403.529 198.691 402.574 194.586 401.811 190.386C401.429 188.285 401.142 186.185 400.856 184.18C400.57 182.08 400.474 179.98 400.379 177.88C400.188 173.679 400.379 169.479 401.047 165.279C401.429 163.178 401.906 161.174 402.574 159.169C403.338 157.164 404.293 155.255 405.629 153.728C404.579 155.541 403.815 157.451 403.434 159.455C402.956 161.46 402.765 163.465 402.67 165.47C402.479 169.575 402.765 173.584 403.243 177.593C404.293 185.612 406.393 193.631 409.352 201.078C410.116 202.987 410.88 204.705 411.834 206.519L414.698 211.96C416.608 215.588 418.517 219.311 420.331 223.034C423.958 230.48 427.3 238.213 430.163 246.136C433.027 254.06 435.319 262.174 436.56 270.671C437.228 274.871 437.514 279.167 437.514 283.463C437.514 284.513 437.419 285.658 437.419 286.709L437.132 289.859L436.56 296.064C435.796 304.369 434.65 312.675 432.455 320.789C431.309 324.799 429.877 328.904 427.777 332.531C426.727 334.345 425.486 336.159 424.054 337.686C422.335 339.214 420.617 340.55 418.803 341.505Z" fill="#05D9AE"/>
<path d="M457.563 294.346C458.708 298.642 460.045 302.842 461.572 306.947C463.1 311.052 464.722 315.061 466.632 318.88C470.45 326.517 475.319 333.486 481.715 338.545C483.338 339.786 484.961 340.932 486.775 341.887C488.588 342.841 490.402 343.796 492.312 344.464C496.035 345.896 500.044 346.469 503.958 346.087C507.872 345.705 511.786 344.178 515.223 341.791C518.755 339.405 521.81 336.35 524.387 332.722C523.815 334.918 522.764 336.923 521.619 338.927C520.473 340.932 518.946 342.746 517.323 344.369C513.982 347.71 509.686 350.192 504.817 351.242C500.044 352.388 494.889 351.91 490.307 350.478C485.629 349.046 481.524 346.755 477.61 343.796C473.887 340.837 470.641 337.209 468.064 333.295C465.486 329.381 463.386 325.181 461.859 320.885C460.331 316.589 459.186 312.197 458.422 307.711C458.04 305.515 457.754 303.224 457.658 301.028C457.467 298.832 457.467 296.541 457.563 294.346Z" fill="#05D9AE"/>
<path d="M506.132 522.998C507.657 527.235 508.89 531.291 510.304 535.054C511.717 538.817 513.477 542.421 515.606 545.225C516.138 545.926 516.717 546.501 517.462 547.209C518.121 547.957 518.914 548.538 519.532 549.199C520.944 550.442 522.489 551.518 524.08 552.468C525.759 553.378 527.445 554.074 529.437 554.525C530.41 554.813 531.43 554.975 532.577 555.184C533.596 555.346 534.743 555.554 535.842 555.89C533.72 556.759 531.646 557.502 529.371 557.811C527.01 558.161 524.624 557.996 522.211 557.318C519.799 556.641 517.614 555.543 515.649 554.239C514.691 553.524 513.732 552.809 512.86 552.054C511.988 551.299 511.036 550.371 510.258 549.362C507.184 545.416 505.673 540.753 505.094 536.292C504.785 534.017 504.689 531.75 504.846 529.577C505.177 527.324 505.461 525.197 506.132 522.998Z" fill="#05D9AE"/>
<path d="M447.829 344C448.307 344.573 448.593 345.241 448.88 345.909C449.166 346.578 449.357 347.341 449.548 348.009C449.834 349.441 450.121 350.873 450.216 352.305C450.502 355.169 450.598 358.129 450.598 361.088C450.502 366.911 450.025 372.735 449.07 378.558C448.116 384.286 446.779 390.014 444.87 395.646C443.915 398.414 442.865 401.278 441.624 403.951C440.383 406.624 438.951 409.393 437.328 411.875C435.706 414.357 433.987 416.839 432.078 419.13C430.169 421.421 428.164 423.617 426.064 425.717C421.768 429.822 416.899 433.545 411.362 436.123C408.594 437.364 405.634 438.414 402.58 438.796C399.525 439.273 396.374 439.177 393.32 438.414C390.36 437.65 387.496 436.313 385.11 434.595C382.723 432.877 380.718 430.681 379 428.39C381.196 430.204 383.582 431.922 386.064 433.163C388.546 434.404 391.219 435.168 393.892 435.454C399.238 436.027 404.489 434.309 409.071 431.636C413.749 428.963 417.949 425.335 421.672 421.326C425.395 417.316 428.832 412.925 431.792 408.247C434.655 403.665 436.947 398.701 438.856 393.45C440.765 388.2 442.388 382.854 443.82 377.412C445.156 371.971 446.397 366.434 447.257 360.802C447.734 358.033 448.116 355.169 448.307 352.401C448.402 350.969 448.498 349.537 448.498 348.2C448.402 346.768 448.498 345.336 447.829 344Z" fill="#05D9AE"/>
<path d="M467.286 465C469.768 469.009 471.391 473.496 472.632 477.983C473.873 482.565 474.636 487.243 474.923 492.016C475.209 496.789 475.018 501.563 474.159 506.336C473.777 508.722 473.204 511.109 472.441 513.4C472.059 514.546 471.677 515.691 471.2 516.837L470.531 518.555L469.863 520.178C467.954 524.474 465.854 528.674 463.276 532.779C460.699 536.884 457.644 540.703 453.825 543.853C450.102 547.003 445.615 549.39 441.033 550.727C436.451 552.063 431.678 552.349 427 551.968C429.291 551.49 431.487 551.013 433.682 550.345C435.878 549.676 437.978 548.817 439.983 547.863C443.993 545.953 447.525 543.376 450.484 540.226C456.403 533.925 460.221 525.906 463.754 517.505L464.422 515.978L464.995 514.45C465.376 513.4 465.758 512.446 466.045 511.395C466.713 509.295 467.286 507.195 467.763 505.095C468.622 500.799 469.195 496.408 469.386 492.016C469.577 487.529 469.481 483.043 469.195 478.556C468.813 474.069 468.24 469.582 467.286 465Z" fill="#05D9AE"/>
<path d="M475.161 386C476.116 394.878 477.834 403.565 480.507 411.966C481.844 416.167 483.466 420.176 485.376 424.09C487.38 427.909 489.576 431.632 492.249 434.782C494.922 438.028 498.072 440.701 501.605 442.801C505.137 444.806 509.051 446.142 513.06 446.715C521.175 447.765 530.148 447.097 536.449 442.801C539.599 440.605 541.89 437.55 543.131 434.018C544.372 430.486 544.563 426.381 543.609 422.658C542.749 418.84 540.84 415.307 538.072 412.825C537.404 412.253 536.64 411.68 535.876 411.202C535.112 410.725 534.253 410.439 533.299 410.057C531.485 409.389 529.575 409.007 527.762 409.102C525.948 409.198 524.134 409.58 522.511 410.439C520.888 411.298 519.456 412.539 518.311 414.066C515.924 417.121 514.683 421.226 515.447 425.045C515.829 426.954 516.688 428.672 518.12 429.913C518.788 430.582 519.647 431.059 520.602 431.536C521.556 432.014 522.511 432.3 523.466 432.491C525.47 432.873 527.571 432.491 529.289 431.345C531.103 430.2 532.535 428.386 533.489 426.477C532.821 428.577 531.676 430.677 529.957 432.204C528.239 433.827 525.661 434.686 523.275 434.496C522.034 434.4 520.888 434.114 519.743 433.732C518.597 433.35 517.452 432.873 516.401 432.014C514.301 430.486 512.774 428.195 512.106 425.808C511.437 423.326 511.437 420.749 511.915 418.362C512.392 415.88 513.347 413.589 514.683 411.393C516.115 409.293 517.929 407.384 520.125 406.047C522.32 404.711 524.898 403.852 527.571 403.661C530.148 403.47 532.821 403.756 535.208 404.52C536.353 404.902 537.69 405.379 538.835 405.952C539.981 406.525 541.127 407.288 542.081 408.148C544.086 409.77 545.709 411.775 547.045 413.971C548.382 416.167 549.336 418.553 549.909 420.94C551.15 425.808 551.055 431.059 549.432 435.927C548.668 438.41 547.427 440.701 545.9 442.801C544.372 444.901 542.463 446.715 540.363 448.147C536.162 451.106 531.198 452.634 526.425 453.206C524.039 453.493 521.652 453.588 519.265 453.493C516.879 453.397 514.588 453.206 512.201 452.825C507.428 452.061 502.75 450.247 498.741 447.67C494.636 445.092 491.199 441.655 488.335 437.837C482.703 430.295 479.552 421.417 477.452 412.634C476.498 408.243 475.829 403.756 475.447 399.269C474.97 394.974 474.875 390.487 475.161 386Z" fill="#05D9AE"/>
<path d="M126.232 335.301C124.93 330.797 124.544 326.133 124.721 321.424C124.821 319.035 125.133 316.716 125.609 314.375C126.085 312.034 126.701 309.741 127.6 307.542C129.349 303.051 131.779 298.867 134.911 295.155C136.466 293.334 138.137 291.631 140.067 290.092C141.926 288.53 143.949 287.18 146.065 286.018C150.367 283.716 155.231 282.308 160.067 282.375C164.927 282.372 169.852 284.033 173.411 287.422C174.301 288.269 175.073 289.233 175.751 290.244C176.43 291.254 176.92 292.357 177.315 293.507C177.711 294.657 178.013 295.853 178.104 296.978C178.265 298.127 178.333 299.322 178.4 300.517C178.457 305.227 177.528 310.073 175.216 314.375C174.036 316.478 172.551 318.557 170.669 320.189C169.751 321.053 168.645 321.774 167.493 322.402C166.341 323.03 165.096 323.47 163.733 323.792C162.394 324.044 161.032 324.132 159.718 324.079C158.427 323.957 157.089 323.74 155.776 323.219C154.439 322.768 153.197 322.037 152.12 321.048C151.019 320.13 150.083 318.954 149.405 317.709C148.051 315.22 147.565 312.477 147.572 309.899C147.509 307.298 147.868 304.84 148.438 302.452C149.008 300.065 149.789 297.748 150.687 295.55C151.136 294.451 151.749 293.328 152.269 292.253C152.859 291.201 153.449 290.149 154.038 289.097C156.585 285.031 159.553 281.342 162.896 277.935C164.568 276.232 166.216 274.599 167.981 273.083C168.428 272.687 168.875 272.29 169.322 271.894L170.71 270.799C171.651 270.1 172.546 269.307 173.487 268.608C177.251 265.812 181.225 263.322 185.386 261.207C189.547 259.093 193.895 257.354 198.359 256.202L198.522 256.647C194.408 258.622 190.411 260.948 186.671 263.439C184.766 264.673 182.978 266.024 181.19 267.375L178.602 269.473C177.732 270.196 176.931 270.942 176.061 271.665C169.424 277.635 163.325 284.333 158.844 291.812L157.263 294.64C156.791 295.576 156.295 296.581 155.893 297.54C155.066 299.528 154.309 301.54 153.764 303.623C153.218 305.706 152.837 307.766 152.808 309.711C152.756 311.726 153.056 313.625 153.849 315.221C154.643 316.818 155.884 318.018 157.526 318.728C158.346 319.083 159.285 319.321 160.247 319.489C161.209 319.657 162.148 319.661 163.064 319.501C164.943 319.275 166.8 318.416 168.446 317.251C170.093 316.087 171.577 314.476 172.802 312.701C175.183 309.126 176.58 304.751 176.663 300.323C176.713 299.245 176.622 298.12 176.531 296.995C176.44 295.87 176.161 294.838 175.883 293.806C175.533 292.75 175.066 291.811 174.435 290.894C173.804 289.978 173.125 289.202 172.282 288.448C170.642 287.035 168.72 285.996 166.608 285.519C164.52 284.971 162.361 284.868 160.177 285.07C155.879 285.497 151.837 287.26 148.238 289.565C144.64 291.869 141.298 294.807 138.425 297.981C136.942 299.592 135.646 301.344 134.49 303.143C133.335 304.942 132.227 306.835 131.305 308.87C127.668 316.868 126.258 325.929 126.797 335.022L126.232 335.301Z" fill="#05D9AE"/>
<path d="M112.779 300.524C111.639 298.002 110.954 295.335 110.301 292.577C109.958 291.244 109.737 289.852 109.516 288.46C109.435 287.824 109.295 287.068 109.214 286.432L109.034 284.346C108.542 278.814 108.596 273.169 109.131 267.592C110.504 256.441 113.626 245.498 118.576 235.396C121.157 230.332 123.977 225.453 127.486 220.916C130.905 216.347 134.86 212.27 139.23 208.742C143.541 205.092 148.357 202.024 153.344 199.622C158.331 197.22 163.674 195.246 169.089 194.511C166.598 195.561 164.133 196.823 161.759 198.116C159.444 199.531 157.16 200.856 154.993 202.424C150.569 205.528 146.474 208.849 142.735 212.598C141.726 213.458 140.866 214.472 140.005 215.486L138.685 216.946C138.226 217.392 137.825 217.959 137.365 218.406L134.874 221.478L134.199 222.253L133.613 223.06L132.442 224.673C131.762 225.75 130.901 226.763 130.19 227.93L128.208 231.282C127.897 231.881 127.527 232.359 127.217 232.958L126.316 234.666L124.482 238.171C119.843 247.673 116.492 257.828 114.254 268.271C113.241 273.48 112.498 278.782 112.237 284.152C112.035 289.644 112.076 295.019 112.779 300.524Z" fill="#05D9AE"/>
<path d="M126.969 186.872C126.492 184.676 126.301 182.385 126.11 180.094C125.919 177.803 126.015 175.511 126.11 173.22C126.397 168.638 127.16 163.96 128.974 159.569C129.929 157.373 131.074 155.178 132.602 153.173C133.365 152.123 134.225 151.264 135.275 150.309C135.752 149.927 136.325 149.45 136.802 149.068C137.279 148.686 137.852 148.304 138.425 148.018C140.621 146.681 143.103 145.631 145.871 145.154C148.64 144.772 151.694 145.058 154.463 146.49C155.799 147.254 157.04 148.304 157.995 149.545C158.95 150.786 159.618 152.314 159.904 153.841C160.573 156.991 159.713 160.046 158.472 162.433C157.136 164.915 155.418 166.824 153.413 168.352C152.936 168.733 152.458 169.211 151.885 169.497L150.263 170.452C149.69 170.738 149.212 171.025 148.64 171.311C148.067 171.597 147.59 171.884 147.017 172.075C144.821 173.029 142.625 173.698 140.621 174.366C138.521 175.034 136.611 175.798 134.797 176.848C131.074 178.948 128.592 182.576 126.969 186.872ZM126.969 186.872C127.16 186.203 127.256 185.631 127.256 185.058V184.294C127.256 184.008 127.256 183.817 127.351 183.53C127.638 182.48 127.924 181.239 128.497 180.189C128.783 179.616 128.974 179.044 129.261 178.566L130.311 177.039C130.692 176.562 131.074 176.084 131.552 175.702C131.743 175.511 131.934 175.225 132.22 175.034L132.888 174.461C133.843 173.602 134.797 173.029 135.848 172.361C136.898 171.788 137.852 171.216 138.902 170.643C140.907 169.593 142.912 168.638 144.726 167.588C146.539 166.538 148.258 165.488 149.594 164.151C150.358 163.578 150.835 162.719 151.504 162.051C152.076 161.287 152.554 160.524 152.936 159.76C153.699 158.232 153.89 156.705 153.604 155.369C153.317 154.128 152.554 153.077 151.313 152.409C148.926 151.073 145.108 151.55 141.766 153.459C141.384 153.65 140.907 153.937 140.525 154.223C140.143 154.509 139.762 154.796 139.38 154.987C138.998 155.273 138.711 155.559 138.33 155.941C138.043 156.323 137.661 156.61 137.279 156.991C135.943 158.423 134.797 160.046 133.843 161.86C131.838 165.488 130.502 169.593 129.451 173.793C128.306 177.993 127.542 182.385 126.969 186.872Z" fill="#05D9AE"/>
<path d="M93.6422 213.191C93.7377 208.132 93.6422 203.168 93.2604 198.299C92.8785 193.43 92.1148 188.562 90.8738 183.979C90.301 181.688 89.5373 179.397 88.5826 177.297C88.1053 176.247 87.7235 175.197 87.0552 174.242C86.4824 173.287 86.0051 172.237 85.3369 171.378C84.0958 169.564 82.6639 168.132 81.1365 167.369C79.609 166.605 78.1771 166.509 76.7451 167.082C75.3132 167.655 73.9767 168.991 73.3084 170.519C72.5447 172.046 72.4493 173.86 72.8311 175.483L73.022 176.056L73.3084 176.629C73.4039 176.82 73.4994 177.01 73.5948 177.201C73.6903 177.297 73.6903 177.392 73.7857 177.488L74.0721 177.774L75.1222 179.111L76.2678 180.447C77.7952 182.166 79.609 183.788 81.4229 185.602C83.2367 187.321 85.1459 189.23 86.6734 191.425C88.2008 193.526 89.6327 195.817 90.6828 198.299L91.0647 199.158L91.3511 200.113L91.9239 201.927C92.2103 203.168 92.5921 204.409 92.783 205.65C92.974 206.891 93.1649 208.227 93.3558 209.373C93.3558 210.423 93.3558 211.759 93.6422 213.191ZM93.6422 213.191C93.4513 212.141 92.8785 210.996 92.4012 209.659C91.9239 208.418 91.542 207.272 91.0647 206.127C90.5874 204.981 90.0146 203.931 89.5373 202.786L88.6781 201.163L88.2008 200.399L87.7235 199.635L86.7688 198.108L85.7187 196.676C85.3369 196.199 84.955 195.721 84.5732 195.339C84.1913 194.862 83.8094 194.48 83.3321 194.098C81.7092 192.38 79.8954 190.948 77.8907 189.421C75.9814 187.893 73.8812 186.366 71.9719 184.457L70.54 183.025C70.0627 182.547 69.6808 181.975 69.2035 181.497L68.8216 181.115C68.7262 180.924 68.6307 180.829 68.4398 180.638C68.2488 180.256 67.9625 179.97 67.7715 179.588C67.5806 179.206 67.3897 178.92 67.1987 178.538L66.7214 177.392C65.5759 174.242 65.8623 170.71 67.1033 167.75C68.4398 164.791 70.8264 162.214 73.9767 160.877C75.5996 160.209 77.4134 159.922 79.1317 160.018C80.8501 160.113 82.5684 160.686 84.0004 161.45C86.8643 163.073 88.869 165.364 90.3964 167.75C93.3558 172.524 94.9787 177.679 95.7424 182.834C96.6016 187.989 96.6971 193.144 96.2197 198.299C95.9333 200.876 95.647 203.358 95.1696 205.841C94.9787 208.323 94.4059 210.805 93.6422 213.191Z" fill="#05D9AE"/>
<path d="M45 211C48.1503 212.267 50.8233 213.981 53.5917 215.769C54.9282 216.663 56.2647 217.558 57.5058 218.526L59.415 219.942L61.2288 221.433C66.0975 225.457 70.4888 229.779 74.3074 234.473C76.1212 236.858 78.0305 239.168 79.5579 241.702C81.2762 244.161 82.6127 246.769 83.9492 249.302C86.4313 254.519 88.5315 259.884 89.677 265.473L90.1544 267.559C90.3453 268.23 90.4408 268.975 90.5362 269.646L91.109 273.745C91.2999 275.086 91.3954 276.502 91.5863 277.843C91.6818 279.184 91.8727 280.6 91.9682 281.942C92.0636 284.699 92.35 287.381 92.35 290.139C92.35 291.48 92.4455 292.896 92.35 294.237L92.2546 298.336C92.1591 301.093 92.0636 303.775 91.7773 306.533C91.6818 307.874 91.4909 309.29 91.2999 310.631C91.109 311.972 91.0135 313.388 90.7271 314.73C89.868 320.17 88.8179 325.535 87.0041 330.826C87.6723 319.946 87.4814 309.141 86.9086 298.336C86.5267 292.97 86.1449 287.605 85.4766 282.24C85.0948 279.557 84.8084 276.874 84.4265 274.192L83.8538 270.168L83.6628 269.199L83.4719 268.23L83.09 266.293L82.7082 264.355C82.6127 263.685 82.4218 263.088 82.2309 262.418L80.9898 258.617C80.608 257.35 80.1307 256.084 79.5579 254.817C78.9851 253.55 78.6032 252.283 78.0305 251.016C75.7393 246.024 72.8754 241.254 69.7251 236.485C66.3839 231.865 62.7563 227.32 58.6513 222.997L57.1239 221.358L55.501 219.793C54.4509 218.75 53.3053 217.707 52.1598 216.663C51.587 216.142 51.0142 215.62 50.4414 215.173C49.8686 214.651 49.2959 214.13 48.6276 213.683C47.5775 212.863 46.3365 211.82 45 211Z" fill="#05D9AE"/>
<path d="M275.514 713.537C276.659 711.15 278.855 709.337 281.432 708.573C282.673 708.191 284.01 708 285.442 708C286.874 708 288.21 708.573 289.356 709.241C291.743 710.578 293.747 712.487 295.466 714.587C297.184 716.687 298.616 718.883 299.857 721.269C302.339 726.043 304.153 731.102 305.394 736.257C306.635 741.508 307.303 746.758 307.589 752.104L302.816 752.2C302.912 747.14 302.625 741.985 301.862 736.926C301.098 731.866 299.761 726.902 297.661 722.224C296.611 719.933 295.466 717.642 293.938 715.542C292.506 713.441 290.788 711.532 288.688 710.196C287.638 709.527 286.492 708.955 285.346 708.859C284.105 708.764 282.769 708.859 281.623 709.146C279.141 709.718 276.755 711.246 275.514 713.537Z" fill="#05D9AE"/>
<path d="M81.7011 532.365C81.892 531.315 82.3693 530.265 83.1331 529.406C83.8968 528.547 84.8514 527.974 85.9015 527.592C88.0017 526.829 90.3883 526.924 92.584 527.21C94.8751 527.592 97.0708 528.26 99.171 529.215C100.221 529.692 101.271 530.265 102.321 530.934L102.703 531.22L103.085 531.506C103.371 531.697 103.562 531.984 103.849 532.175C104.326 532.652 104.708 533.129 105.09 533.702C106.617 535.802 107.476 538.189 108.145 540.48C108.813 542.866 109.099 545.253 109.195 547.64C109.29 550.026 109.099 552.508 108.717 554.895C108.526 556.136 108.24 557.281 107.858 558.523C107.476 559.764 106.999 560.909 106.426 562.15C105.853 563.391 105.09 564.537 104.04 565.682C103.562 566.255 102.799 566.828 102.417 567.21C101.939 567.592 101.462 567.973 100.889 568.355C99.8392 569.119 98.5982 569.787 97.1662 570.265C95.8297 570.837 94.0159 571.124 92.2976 570.837C90.4838 570.646 88.9563 569.787 87.8108 568.833C86.5697 567.878 85.806 566.732 85.1378 565.682C84.4695 564.632 83.8968 563.487 83.4194 562.437C82.9421 561.386 82.4648 560.241 82.0829 559.191C80.4601 554.799 79.8873 550.122 79.9827 545.635C80.0782 541.148 80.8419 536.757 81.7011 532.365ZM81.7011 532.365C80.8419 536.661 80.4601 541.148 81.0328 545.539C81.6056 549.931 83.2285 554.036 85.5196 557.472C86.0924 558.332 86.7607 559.191 87.3335 560.05C88.0017 560.909 88.6699 561.673 89.3382 562.341C90.0064 563.009 90.6747 563.582 91.3429 563.869C92.0112 564.155 92.4885 564.25 92.9658 564.25C93.4431 564.155 93.9205 564.059 94.5887 563.678C95.257 563.296 95.9252 562.914 96.5935 562.246C96.9753 561.959 97.2617 561.673 97.6436 561.291C98.0254 560.909 98.2163 560.814 98.4073 560.527C98.8846 560.05 99.2664 559.286 99.6483 558.523C101.271 555.372 102.226 551.267 102.703 547.258C102.99 545.253 103.085 543.153 102.99 541.148C102.894 539.143 102.608 537.139 101.939 535.42C101.748 534.943 101.558 534.561 101.367 534.179C101.271 533.988 101.176 533.797 100.985 533.606L100.794 533.32L100.507 533.034C99.8392 532.27 99.0755 531.602 98.2163 530.934C96.498 529.692 94.5887 528.642 92.584 527.974C90.5792 527.306 88.2881 527.019 86.1879 527.592C85.1378 527.879 84.1832 528.451 83.324 529.215C82.4648 530.265 81.9875 531.315 81.7011 532.365Z" fill="#05D9AE"/>
<path d="M90.7698 538.571C91.9154 539.144 92.5837 539.812 93.061 540.576C93.5383 541.34 93.9202 542.103 93.6338 543.058C93.5383 543.535 93.3474 544.013 93.2519 544.49C93.1564 544.967 93.1564 545.444 93.2519 545.826C93.4428 546.686 94.2065 547.354 94.8748 548.022L94.302 547.163C95.1612 547.354 95.734 547.736 96.4022 548.118C97.0705 548.499 97.6432 548.881 98.1206 549.454C98.5979 550.027 98.9797 550.695 99.3616 551.459C99.648 552.222 99.9344 552.986 100.03 554.036L99.7434 554.418C98.6933 554.514 97.8342 554.323 97.0705 554.132C96.3068 553.941 95.543 553.654 94.9703 553.177C94.302 552.795 93.8247 552.222 93.3474 551.65C92.8701 551.077 92.3927 550.504 92.1063 549.74L91.5336 548.881C91.7245 547.927 92.1063 546.972 91.82 546.113C91.7245 545.731 91.5336 545.349 91.1517 544.967C90.8653 544.585 90.388 544.299 90.1016 543.917C89.4334 543.249 89.3379 542.39 89.3379 541.435C89.3379 540.576 89.6243 539.621 90.2925 538.476L90.7698 538.571Z" fill="#05D9AE"/>
<path d="M106.141 535.897C108.623 535.802 111.009 535.706 113.3 535.706C115.687 535.611 117.978 535.611 120.174 535.325C122.37 535.038 124.661 534.752 127.047 534.465C129.338 534.274 131.82 533.988 134.112 533.415L135.353 533.129V534.179C135.257 535.897 135.353 537.52 135.448 539.143C135.544 540.766 135.83 542.484 136.021 544.107L136.88 549.071C137.166 550.694 137.357 552.413 137.453 554.035L137.548 555.276L136.307 556.04C133.825 557.472 131.343 558.618 128.67 559.477C125.997 560.336 123.229 560.813 120.365 560.813C117.501 560.813 114.732 560.431 112.155 559.763C109.482 559.095 107 558.14 104.613 556.804L104.709 556.327C107.382 556.422 109.959 556.517 112.537 556.517C115.114 556.517 117.596 556.422 119.983 556.136C122.37 555.849 124.756 555.276 127.143 554.608C128.288 554.322 129.529 553.94 130.675 553.558C131.82 553.176 133.062 552.699 134.112 552.222L132.966 554.226C132.966 552.508 133.062 550.885 133.157 549.167L133.634 544.107C133.73 542.389 133.825 540.766 133.825 539.048C133.825 537.425 133.73 535.706 133.539 534.084L134.684 534.847C132.393 535.897 130.198 536.947 127.906 537.807C125.615 538.666 123.133 539.143 120.556 539.239C117.978 539.334 115.496 539.048 113.014 538.57C110.628 537.998 108.241 537.234 106.045 536.088L106.141 535.897Z" fill="#05D9AE"/>
<path d="M80.4604 533.511C79.5057 533.988 78.4556 534.275 77.4055 534.37C76.3554 534.465 75.3053 534.465 74.2552 534.275C73.2051 534.084 72.2505 533.797 71.2959 533.415C70.3412 533.033 69.4821 532.461 68.7183 531.697L71.3913 530.36C70.8185 531.792 70.0548 533.415 69.9594 534.943C69.7684 536.566 69.9594 538.093 70.4367 539.716C70.8185 541.339 71.2004 542.866 71.3913 544.394C71.6777 545.921 71.9641 547.449 72.155 548.881L70.5322 546.876C71.2959 547.162 72.155 547.544 72.9188 547.926L75.4008 549.071L77.8829 550.217C78.742 550.599 79.5057 550.981 80.4604 551.267L80.5558 551.744C79.6012 552.317 78.5511 552.604 77.5965 552.699C76.5464 552.89 75.4963 552.89 74.5416 552.795C73.4915 552.699 72.5369 552.604 71.5823 552.413C70.6276 552.222 69.673 551.935 68.7183 551.554L67.3819 550.981L67.1909 549.549C66.9045 547.83 67 546.207 67.0955 544.489C67.0955 542.866 67.4773 541.148 67.8592 539.525C68.3365 537.902 68.6229 536.279 68.6229 534.656C68.7183 533.033 68.241 531.411 67.9546 529.692L67.6682 527.688L70.6276 528.356C71.4868 528.547 72.346 528.833 73.1097 529.215L75.3053 530.551C76.9282 531.315 78.5511 532.079 80.3649 533.033L80.4604 533.511Z" fill="#05D9AE"/>
<path d="M300.43 754.205C301.098 753.155 302.244 752.486 303.485 752.2C304.726 751.818 305.967 751.914 307.208 752.105C307.876 752.2 308.449 752.486 309.022 752.773C309.595 753.059 310.168 753.441 310.645 753.918C311.695 754.778 312.554 755.637 313.413 756.782C314.177 757.832 314.941 759.073 315.227 760.696L315.323 761.269L315.418 761.651L315.609 762.415C315.704 762.987 315.895 763.56 315.991 764.229C316.277 765.47 316.468 767.092 315.991 768.906C315.704 769.765 315.132 770.625 314.559 771.388C314.272 771.675 313.891 772.057 313.509 772.247L313.031 772.629L312.65 772.916C311.504 773.584 310.358 774.252 308.927 774.73C307.495 775.207 305.776 775.398 304.153 775.016C303.39 774.825 302.626 774.443 302.053 774.157C301.48 773.87 300.812 773.488 300.239 772.916C299.667 772.438 299.094 771.77 298.712 771.006C298.33 770.243 298.139 769.574 298.044 768.906C297.853 767.57 297.853 766.329 297.757 765.088C297.757 763.847 297.662 762.51 297.757 761.269C297.948 758.596 299.094 756.21 300.43 754.205ZM300.43 754.205C299.762 755.255 299.189 756.305 298.807 757.451C298.426 758.596 298.33 759.837 298.426 761.078C298.521 762.319 298.807 763.465 299.094 764.61C299.476 765.756 299.762 766.997 300.239 768.047C300.43 768.524 300.717 769.002 301.003 769.288C301.289 769.574 301.576 769.765 302.053 769.956C302.435 770.147 303.008 770.338 303.485 770.529C303.962 770.72 304.44 770.815 304.822 770.815C305.681 770.815 306.349 770.625 307.304 770.243C308.163 769.861 309.213 769.288 310.168 768.715L310.549 768.524L310.836 768.333C311.027 768.238 311.122 768.143 311.218 768.047C311.409 767.856 311.599 767.665 311.695 767.379C311.981 766.806 312.077 765.851 311.981 764.706L311.886 762.797C311.886 762.51 311.886 762.128 311.886 761.746V761.174V760.887C311.981 760.028 311.695 758.883 311.313 757.832C310.931 756.782 310.358 755.732 309.595 754.778C308.831 753.823 308.067 753.059 306.922 752.582C305.776 752.2 304.535 752.009 303.39 752.2C302.817 752.295 302.244 752.486 301.671 752.868C301.289 753.346 300.812 753.727 300.43 754.205Z" fill="#05D9AE"/>
<path d="M293.079 777.115C293.556 776.447 293.938 775.779 294.415 775.111C294.893 774.442 295.37 773.774 296.038 773.297C296.42 773.01 296.706 772.82 297.184 772.724C297.566 772.629 298.043 772.724 298.425 772.724C299.189 772.82 300.048 772.724 300.811 772.724C302.434 772.724 304.153 772.724 305.871 773.488C306.73 773.87 307.494 774.538 308.067 775.206C308.639 775.874 309.117 776.638 309.594 777.402C310.453 778.929 311.121 780.552 311.503 782.27C311.885 783.989 312.172 785.803 312.076 787.521C311.981 789.239 311.79 791.053 311.408 792.676C311.026 794.394 310.358 796.113 309.499 797.736C309.021 798.595 308.544 799.358 307.876 800.122C307.303 800.79 306.73 801.459 305.966 802.127C305.203 802.795 304.344 803.368 303.198 803.75C302.148 804.132 300.811 804.227 299.666 804.036C298.52 803.845 297.566 803.368 296.802 802.795C296.038 802.318 295.275 801.65 294.606 800.981C293.27 799.645 292.411 798.022 291.742 796.399C291.17 794.776 290.788 793.058 290.692 791.339C290.501 789.621 290.597 787.998 290.692 786.375C291.17 783.321 291.838 780.17 293.079 777.115ZM293.079 777.115C291.933 780.17 291.361 783.416 291.551 786.566C291.647 788.189 291.838 789.717 292.315 791.244C292.697 792.771 293.365 794.203 294.129 795.444C294.893 796.685 295.943 797.831 296.993 798.595C298.043 799.454 299.475 800.027 300.43 800.027C300.907 800.027 301.289 799.931 301.671 799.74C302.052 799.549 302.53 799.168 303.007 798.786C303.484 798.308 303.962 797.831 304.439 797.258C304.821 796.781 305.203 796.208 305.489 795.635C306.826 793.153 307.685 790.194 308.067 787.33C308.258 785.898 308.353 784.466 308.258 782.939C308.162 781.411 307.971 779.979 307.494 778.547C307.017 777.115 306.444 775.779 305.298 774.92C304.153 774.061 302.53 773.774 301.002 773.583C300.239 773.488 299.379 773.392 298.616 773.297C298.234 773.201 297.852 773.106 297.47 773.106C297.088 773.106 296.706 773.297 296.42 773.488C294.797 774.442 293.938 775.874 293.079 777.115Z" fill="#05D9AE"/>
<path d="M276.373 796.304C277.423 794.777 279.141 794.109 280.86 793.727C282.578 793.345 284.392 793.25 286.206 793.345C286.683 793.345 287.065 793.44 287.542 793.44C288.02 793.536 288.497 793.631 288.974 793.822C289.929 794.204 290.788 794.681 291.552 795.35C293.079 796.591 294.225 798.214 295.179 799.837C295.657 800.696 296.134 801.459 296.516 802.414C296.898 803.369 297.28 804.132 297.566 805.373L297.948 808.142C298.043 809.097 298.139 810.051 298.234 811.006C298.33 813.011 298.139 815.111 297.566 817.115C297.28 818.166 296.898 819.12 296.516 820.075C296.039 821.029 295.561 821.984 294.893 822.843C293.652 824.562 291.934 826.375 289.452 827.33C288.211 827.807 286.779 827.998 285.442 827.903C284.106 827.807 282.865 827.33 281.814 826.757C280.764 826.185 279.905 825.516 279.141 824.753C278.378 823.989 277.71 823.225 277.137 822.461C275.991 820.839 275.037 819.12 274.273 817.402C272.841 813.774 272.364 809.956 272.745 806.424C273.223 802.796 274.368 799.264 276.373 796.304ZM276.373 796.304C274.368 799.264 273.605 802.891 273.891 806.328C274.177 809.765 275.514 813.106 277.519 815.683C278.473 817.02 279.619 818.166 280.86 819.216C282.101 820.266 283.342 821.029 284.487 821.411C285.633 821.793 286.397 821.698 287.16 821.22C287.924 820.839 288.879 819.979 289.643 818.834C290.024 818.261 290.406 817.688 290.693 817.02C290.979 816.352 291.361 815.684 291.552 815.015C292.029 813.679 292.315 812.247 292.506 810.624C292.602 809.86 292.602 809.001 292.697 808.142L292.793 806.805V806.137V805.755C292.793 805.564 292.793 805.66 292.793 805.564C292.793 805.373 292.793 804.896 292.793 804.514C292.793 804.132 292.697 803.751 292.602 803.369C292.506 802.605 292.315 801.746 292.029 800.982C291.074 797.927 289.643 794.491 286.015 794.013C284.297 793.631 282.578 793.44 280.764 793.631C279.141 794.204 277.328 794.872 276.373 796.304Z" fill="#05D9AE"/>
<path d="M265.203 784.753C265.012 786.567 264.917 788.38 264.821 790.099C264.821 791.817 264.821 793.535 265.108 795.158C265.394 796.686 265.872 798.118 266.635 798.881C267.017 799.263 267.399 799.454 267.876 799.55C268.354 799.645 269.022 799.741 269.69 799.645C270.454 799.55 270.836 799.454 271.408 799.263C271.886 799.072 272.363 798.69 272.84 798.213C273.795 797.258 274.654 795.922 275.418 794.49C276.182 793.058 276.754 791.435 277.327 789.812C277.614 788.953 277.805 788.189 278.091 787.33C278.186 786.948 278.282 786.471 278.377 785.994C278.473 785.516 278.473 785.135 278.377 784.657C279.046 785.325 279.332 786.376 279.523 787.33C279.714 788.285 279.809 789.24 279.809 790.194C279.809 792.103 279.618 794.013 279.046 795.922C278.473 797.831 277.709 799.741 276.182 801.459C275.418 802.318 274.559 803.082 273.413 803.655C272.84 803.941 272.268 804.132 271.599 804.323C270.931 804.418 270.454 804.514 269.881 804.514C268.735 804.609 267.59 804.418 266.349 804.036C265.108 803.655 263.962 802.795 263.199 801.745C262.435 800.695 261.958 799.55 261.671 798.499C261.385 797.449 261.385 796.399 261.385 795.349C261.48 793.344 261.862 791.435 262.53 789.717C263.294 787.999 264.058 786.28 265.203 784.753Z" fill="#05D9AE"/>
<path d="M34.5381 236.915C35.3018 235.674 36.7338 234.624 38.4521 234.146C40.1705 233.764 41.8888 234.146 43.3208 235.101C43.989 235.578 44.5618 236.247 45.0391 237.01C45.421 237.678 45.8028 238.347 46.1847 239.11C46.5665 239.779 46.8529 240.542 47.1393 241.306C47.3302 242.07 47.4257 243.024 47.1393 243.884C46.9484 244.361 46.7575 244.743 46.4711 245.125C46.3756 245.316 46.1847 245.506 45.9937 245.602C45.8028 245.793 45.6119 245.888 45.421 246.079C44.6573 246.652 43.6072 246.938 42.6525 246.938C40.7432 246.938 39.1204 246.27 37.7839 245.316C36.4474 244.361 35.3018 243.12 34.6336 241.592C34.3472 240.829 34.0608 239.97 34.0608 239.11C33.8698 238.442 34.1562 237.583 34.5381 236.915ZM34.729 237.106C34.3472 237.678 34.3472 238.442 34.6336 239.11C34.9199 239.683 35.4927 240.161 35.97 240.638L37.6884 241.783C38.2612 242.165 38.7385 242.547 39.3113 242.929C40.3614 243.597 41.5069 244.265 42.5571 244.361C43.1298 244.456 43.6072 244.361 44.0845 244.17C44.2754 244.075 44.5618 243.979 44.8482 243.788C45.0391 243.597 45.3255 243.406 45.5164 243.215C45.8983 242.834 46.0892 242.165 45.9937 241.497C45.8983 240.829 45.6119 240.161 45.23 239.588C44.8482 239.015 44.2754 238.538 43.7026 238.06C43.1298 237.678 42.557 237.392 41.9843 237.201C40.8387 236.724 39.6931 236.342 38.3566 235.96C37.6884 235.769 37.0202 235.674 36.3519 235.865C35.7791 236.056 35.1109 236.437 34.729 237.106Z" fill="#05D9AE"/>
<path d="M136.74 239.307C135.498 238.059 135.225 236.184 135.617 234.509C135.929 232.781 136.665 231.099 137.804 229.674C138.399 228.922 139.103 228.353 139.939 227.754C140.672 227.317 141.538 226.85 142.432 226.516C143.326 226.181 144.249 225.979 145.362 226.011C146.474 226.043 147.674 226.471 148.536 227.249C148.967 227.638 149.347 228.108 149.594 228.606C149.842 229.105 150.009 229.552 150.206 230.13C150.518 231.237 150.354 232.379 149.948 233.366C149.138 235.341 147.758 236.611 146.321 237.618C144.883 238.625 143.256 239.397 141.571 239.905C140.728 240.159 139.856 240.282 138.956 240.272C138.136 240.314 137.309 240.012 136.74 239.307ZM136.74 239.307C137.36 239.931 138.136 240.314 138.956 240.272C139.776 240.23 140.619 239.976 141.381 239.67C142.876 238.927 144.233 237.869 145.349 236.657C146.465 235.444 147.34 234.077 147.607 232.774C147.806 232.109 147.742 231.501 147.494 231.002C147.465 230.87 147.436 230.739 147.327 230.555L147.108 230.189C146.919 229.954 146.729 229.719 146.619 229.536C145.918 228.86 144.645 228.725 143.114 228.992C142.374 229.086 141.612 229.391 140.821 229.565C140.11 229.79 139.428 230.147 138.855 230.688C137.55 231.665 136.595 232.981 136.041 234.554C135.356 236.155 135.498 238.059 136.74 239.307Z" fill="#05D9AE"/>
<path d="M152.767 222.872C151.732 221.488 151.65 219.653 152.173 217.906C152.614 216.207 153.578 214.644 154.899 213.313C155.543 212.713 156.318 212.147 157.271 211.697C158.061 211.344 158.98 211.025 159.818 210.754C160.703 210.565 161.72 210.411 162.799 210.551C163.879 210.692 164.987 211.259 165.814 212.101C166.187 212.546 166.477 213.04 166.685 213.582C166.893 214.124 167.053 214.584 167.096 215.223C167.217 216.37 166.994 217.498 166.544 218.427C165.512 220.252 163.963 221.384 162.482 222.255C160.87 223.092 159.243 223.716 157.554 224.045C156.751 224.185 155.816 224.291 154.95 224.136C154.132 224.063 153.285 223.565 152.767 222.872ZM152.767 222.872C153.285 223.565 154.084 223.981 154.902 224.054C155.72 224.127 156.606 223.938 157.361 223.716C158.905 223.14 160.386 222.269 161.592 221.117C162.845 220.048 163.872 218.78 164.211 217.473C164.381 216.82 164.468 216.215 164.39 215.707C164.294 215.542 164.328 215.411 164.279 215.329L164.12 214.869C163.974 214.622 163.829 214.375 163.684 214.129C163.118 213.354 161.777 213.146 160.287 213.247C159.565 213.339 158.713 213.397 157.958 213.619C157.286 213.793 156.579 214.098 155.838 214.533C154.439 215.356 153.282 216.59 152.614 218.09C151.815 219.556 151.732 221.488 152.767 222.872Z" fill="#05D9AE"/>
</svg>
