<svg width="291" height="264" viewBox="0 0 291 264" fill="none" xmlns="http://www.w3.org/2000/svg">
<path d="M290.104 184.575C289.405 181.791 288.514 178.983 287.57 176.284C287.541 176.203 287.594 176.092 287.676 176.064C287.758 176.035 287.868 176.088 287.897 176.17C288.788 178.979 289.569 181.734 290.104 184.575Z" fill="white" stroke="white"/>
<path d="M280.491 160.773C277.732 155.773 274.511 151.027 270.885 146.697C270.579 146.345 270.652 145.769 271.032 145.544C271.384 145.238 271.96 145.311 272.185 145.692C275.705 150.242 278.82 155.209 281.415 160.266C281.501 160.512 281.452 160.896 281.207 160.982C280.88 161.096 280.577 161.018 280.491 160.773Z" fill="white" stroke="white"/>
<path d="M258.629 135.017C254.14 131.631 249.222 128.855 243.986 126.741C243.242 126.451 242.874 125.662 243.164 124.918C243.454 124.174 244.243 123.806 244.987 124.096C250.392 126.427 255.424 129.53 259.916 133.189C260.415 133.565 260.481 134.277 260.104 134.775C259.81 135.246 259.099 135.311 258.629 135.017Z" fill="white" stroke="white"/>
<path d="M227.761 122.599C222.189 121.888 216.572 121.834 210.963 122.328C209.977 122.398 209.062 121.617 208.992 120.632C208.923 119.646 209.704 118.731 210.689 118.661C216.519 118.273 222.385 118.515 228.178 119.333C229.057 119.484 229.699 120.269 229.576 121.23C229.425 122.109 228.64 122.751 227.761 122.599Z" fill="white" stroke="white"/>
<path d="M194.348 125.205L190.256 126.361C188.919 126.737 187.582 127.113 186.164 127.518L178.151 130.322L177.987 130.379C176.843 130.78 175.547 130.224 175.146 129.079C174.746 127.934 175.302 126.638 176.446 126.238L184.762 123.512C186.18 123.107 187.599 122.702 188.965 122.408L193.167 121.305C194.259 121.015 195.391 121.628 195.71 122.801C196 123.893 195.387 125.025 194.295 125.315L194.348 125.205Z" fill="white" stroke="white"/>
<path d="M163.11 137.697C158.331 140.562 153.916 143.943 150.028 147.781C149.083 148.754 147.44 148.778 146.467 147.834C145.494 146.89 145.47 145.246 146.414 144.273C150.736 140.1 155.56 136.576 160.584 133.625C161.725 132.95 163.156 133.367 163.83 134.508C164.558 135.538 164.251 137.022 163.11 137.697Z" fill="white" stroke="white"/>
<path d="M140.83 161.095C138.683 165.976 137.64 171.388 137.991 176.588C138.069 178.121 136.936 179.344 135.432 179.503C133.928 179.662 132.677 178.448 132.517 176.944C132.207 170.811 133.512 164.573 135.977 159.03C136.533 157.734 138.14 157.08 139.464 157.718C140.842 158.245 141.467 159.77 140.83 161.095Z" fill="white" stroke="white"/>
<path d="M142.679 191.56C145.459 196.094 149.268 199.9 153.72 202.656C155.102 203.457 155.539 205.231 154.738 206.613C153.936 207.995 152.162 208.432 150.78 207.631C145.417 204.368 141.076 199.83 137.928 194.507C137.197 193.203 137.61 191.498 138.885 190.685C140.161 189.871 141.866 190.284 142.679 191.56Z" fill="white" stroke="white"/>
<path d="M168.605 206.899C171.18 206.916 173.834 206.63 176.372 206.017C178.911 205.404 181.417 204.435 183.756 203.25C185.252 202.543 187.014 203.119 187.692 204.534C188.4 206.03 187.823 207.792 186.408 208.47C183.661 209.799 180.775 210.992 177.717 211.695C174.688 212.48 171.597 212.827 168.445 212.737C166.802 212.762 165.575 211.355 165.579 209.794C165.584 208.232 167.043 206.895 168.605 206.899Z" fill="white" stroke="white"/>
<path d="M197.398 193.979C201.535 190.328 205.256 186.273 208.449 181.76C209.442 180.403 211.274 180.129 212.602 181.041C213.931 181.953 214.233 183.866 213.321 185.194C209.858 189.985 205.844 194.511 201.326 198.386C200.055 199.473 198.162 199.31 197.103 198.12C196.044 196.93 196.126 195.066 197.398 193.979Z" fill="white" stroke="white"/>
<path d="M216.566 167.449C218.819 162.348 220.467 157.09 221.701 151.702C222.061 150.108 223.635 149.098 225.311 149.43C226.906 149.789 227.915 151.363 227.556 152.958C226.271 158.73 224.493 164.4 222.08 169.833C221.418 171.35 219.648 172.061 218.131 171.399C216.615 170.736 215.903 168.966 216.566 167.449Z" fill="white" stroke="white"/>
<path d="M223.812 135.178C223.975 129.614 223.673 124.03 222.799 118.645C222.529 117.088 223.629 115.51 225.215 115.322C226.773 115.052 228.351 116.152 228.539 117.738C229.474 123.56 229.809 129.5 229.678 135.419C229.621 137.092 228.214 138.318 226.653 138.314C225.091 138.309 223.754 136.85 223.812 135.178Z" fill="white" stroke="white"/>
<path d="M218.642 102.571C216.73 97.3663 214.326 92.3337 211.326 87.6935C210.512 86.4179 210.897 84.6314 212.172 83.818C213.448 83.0046 215.234 83.389 216.048 84.6645C219.273 89.685 221.954 94.9874 223.982 100.519C224.497 101.991 223.81 103.699 222.256 104.243C220.703 104.787 219.186 104.124 218.642 102.571Z" fill="white" stroke="white"/>
<path d="M201.077 74.6684C197.21 70.6985 192.856 67.1743 188.29 64.0915C187.1 63.3147 186.72 61.7039 187.579 60.4857C188.356 59.2961 189.966 58.9161 191.185 59.7747C196.164 62.9883 200.767 66.7006 204.993 70.9116C206.105 71.991 206.048 73.663 204.969 74.7749C203.942 75.7764 202.189 75.7477 201.077 74.6684Z" fill="white" stroke="white"/>
<path d="M173.545 56.311C168.39 54.1684 163.022 52.4674 157.606 51.1506C156.314 50.8685 155.582 49.5643 155.864 48.2725C156.147 46.9807 157.451 46.249 158.661 46.5597C164.351 47.8724 169.964 49.4876 175.422 51.7078C176.718 52.2639 177.314 53.7071 176.84 54.9744C176.366 56.2417 174.923 56.8384 173.545 56.311C173.627 56.2824 173.545 56.311 173.545 56.311Z" fill="white" stroke="white"/>
<path d="M140.935 48.3573C135.339 47.8377 129.664 47.6206 123.994 47.6775C122.899 47.6937 121.926 46.7493 121.909 45.6537C121.893 44.5581 122.756 43.6138 123.933 43.5689C129.738 43.3731 135.576 43.533 141.336 43.9953C142.571 44.114 143.491 45.1687 143.372 46.4033C143.306 47.5276 142.252 48.4473 140.935 48.3573C141.046 48.4105 141.017 48.3287 140.935 48.3573Z" fill="white" stroke="white"/>
<path d="M107.076 48.6403L95.3188 50.1848L95.5641 50.099L90.601 51.6521C89.7016 51.9668 88.79 51.4598 88.5571 50.5318C88.2709 49.7142 88.7779 48.8026 89.5956 48.5165L94.6118 46.853C94.6936 46.8243 94.7753 46.7957 94.7753 46.7957L106.692 44.9201C107.731 44.7403 108.618 45.4395 108.798 46.4778C108.977 47.5162 108.278 48.4033 107.24 48.5831L107.076 48.6403Z" fill="white" stroke="white"/>
<path d="M74.3273 57.0725L58.1952 62.9009C57.6228 63.1012 56.9606 62.7823 56.7603 62.21C56.56 61.6376 56.7972 61.004 57.3695 60.8037L73.3831 54.3742C74.119 54.1167 74.9734 54.4602 75.2309 55.1961C75.4884 55.932 75.1449 56.7864 74.409 57.0439C74.3273 57.0725 74.3273 57.0725 74.3273 57.0725Z" fill="white" stroke="white"/>
<path d="M42.263 69.3017L26.6419 76.328C26.3148 76.4425 26.0123 76.3648 25.8979 76.0377C25.812 75.7924 25.8897 75.4899 26.1882 75.2937L41.7194 67.7481C42.0996 67.5233 42.6229 67.7073 42.8763 68.1693C42.909 68.525 42.725 69.0483 42.263 69.3017Z" fill="white" stroke="white"/>
<path d="M11.225 84.2009L3.81293 88.7218L11.0288 83.9025C11.1105 83.8739 11.1923 83.8453 11.3313 83.9802C11.3599 84.0619 11.3885 84.1437 11.225 84.2009Z" fill="white" stroke="white"/>
<path d="M129.909 115.724C128.409 116.157 127.076 116.807 125.633 117.404C124.19 118.001 122.886 118.732 121.553 119.382C120.22 120.032 118.834 120.793 117.612 121.496C117.313 121.692 117.015 121.888 116.716 122.084L116.365 122.391L115.96 122.808L114.202 124.341C111.876 126.348 109.631 128.326 107.497 130.358C105.363 132.39 103.339 134.474 101.262 136.67C97.2189 141.113 93.2572 145.528 89.7942 150.319C86.2209 155.057 83.1749 160.253 80.2147 165.694C80.6975 159.468 82.6889 153.356 85.6736 147.723C88.6583 142.09 92.5833 137.045 96.872 132.516C99.0021 130.21 101.463 128.064 104.01 126.163C106.557 124.263 109.301 122.66 112.101 121.221C112.808 120.882 113.516 120.543 114.223 120.204L114.767 119.922L115.392 119.611C115.801 119.468 116.181 119.243 116.508 119.129C117.951 118.532 119.452 118.099 120.923 117.584C122.424 117.15 123.924 116.717 125.453 116.366C126.819 116.071 128.376 115.802 129.909 115.724Z" fill="white" stroke="white"/>
<path d="M118.006 105.572C116.959 105.204 115.941 104.918 114.923 104.632C113.905 104.346 112.834 104.17 111.816 103.884C110.827 103.679 109.727 103.421 108.767 103.299C108.493 103.303 108.272 103.196 107.998 103.201L107.671 103.315L107.234 103.376L105.619 103.482L99.4048 103.821C97.3526 103.989 95.3821 104.128 93.3585 104.377C89.2009 104.822 85.1536 105.321 81.1104 106.093C77.0386 106.784 73.0281 107.912 68.7723 109.126C71.7078 105.712 75.5876 103.161 79.7535 101.428C83.9194 99.6953 88.3714 98.7799 92.8029 98.3305C95.0187 98.1059 97.3203 98.1264 99.626 98.4209C101.903 98.6337 104.102 99.1489 106.167 99.8032C106.69 99.9872 107.213 100.171 107.737 100.355L108.15 100.486L108.644 100.588C108.947 100.666 109.249 100.744 109.47 100.85C110.516 101.218 111.51 101.696 112.532 102.257C114.408 103.16 116.395 104.117 118.006 105.572Z" fill="white" stroke="white"/>
</svg>
