<svg viewBox="0 0 329 314" fill="none" xmlns="http://www.w3.org/2000/svg">
<path d="M147.452 216.781C139.232 215.202 131.189 213.268 123.22 211.751C115.251 210.234 107.256 209.176 99.614 209.201C91.888 209.206 84.4149 210.336 77.1363 212.113C69.7896 213.806 62.6529 216.082 55.1759 217.942C61.3072 214.353 67.7943 211.118 75.0612 208.674C82.2446 206.21 90.2913 204.558 98.8846 204.637C107.41 204.631 115.912 206.148 124.06 208.373C132.124 210.578 139.918 213.513 147.452 216.781Z" fill="white" stroke="white"/>
<path d="M160.324 90.1505C159.263 89.4215 158.347 88.4632 157.598 87.5464C156.865 86.5671 156.314 85.5669 155.863 84.5249C154.961 82.4408 154.523 80.2731 154.253 78.147L153.965 75.0204C153.864 73.999 153.778 72.9151 153.761 71.9145C153.759 70.8513 153.741 69.8508 153.739 68.7876C153.78 68.2664 153.737 67.7245 153.778 67.2033L153.9 65.6398C154.522 57.4262 156.696 49.3993 159.91 41.8303C163.124 34.2614 167.311 27.067 172.036 20.2059C176.761 13.3448 182.041 6.75433 187.859 0.49707C184.257 7.83696 180.17 14.9895 176.266 22.1212C172.445 29.2736 168.708 36.4468 165.624 43.8489C162.555 51.1884 160.057 58.7361 158.562 66.5333C158.079 68.4723 158.031 70.4527 157.632 72.4124C157.483 73.3714 157.401 74.4137 157.335 75.3935L157.121 78.3954C156.974 80.4176 157.024 82.3562 157.409 84.378C157.894 86.3581 158.728 88.3587 160.324 90.1505Z" fill="white" stroke="white"/>
<path d="M137.072 114.387C132.903 108.303 129.099 102.176 125.18 96.1543C121.261 90.1323 117.144 84.1937 112.615 78.4848C108.086 72.7758 103.144 67.2964 97.5087 62.1093C91.9566 56.9429 85.6947 52.1314 78.8067 47.6954C86.8828 50.5672 94.3192 54.9403 100.816 59.8768C107.298 64.8758 112.908 70.5216 117.626 76.5431C122.36 82.5021 126.216 88.7743 129.425 95.1511C132.581 101.382 135.158 107.801 137.072 114.387Z" fill="white" stroke="white"/>
<path d="M216.738 99.6636C214.42 100.415 212.762 101.73 211.103 103.044C209.512 104.442 208.089 105.881 206.817 107.424C205.546 108.968 204.342 110.594 203.305 112.263C202.837 113.076 202.353 113.952 201.968 114.786C201.583 115.62 201.266 116.537 201.032 117.475C199.947 121.124 199.364 124.897 198.651 128.838C197.937 132.778 196.988 136.593 196.04 140.409C194.058 148.019 191.925 155.524 190.743 163.134C189.561 170.743 189.383 178.602 191.372 186.668C189.14 182.792 187.67 178.707 186.831 174.58C185.993 170.454 185.771 166.347 185.884 162.324C186.208 154.235 188.137 146.48 190.202 138.891C191.234 135.096 192.35 131.322 193.284 127.569C194.3 123.837 195.197 119.876 197.013 116.144C197.429 115.185 197.913 114.309 198.496 113.391C199.08 112.474 199.648 111.619 200.383 110.805C201.685 109.137 203.208 107.656 204.814 106.196C206.42 104.735 208.163 103.442 210.14 102.273C211.08 101.71 212.118 101.105 213.193 100.708C214.3 100.186 215.542 99.831 216.738 99.6636Z" fill="white" stroke="white"/>
<path d="M198.944 120.875C198.555 119.582 199.018 118.435 199.669 117.601C200.42 116.725 201.359 116.162 202.351 115.744C202.847 115.536 203.411 115.41 203.975 115.285C204.538 115.159 205.27 115.075 205.985 115.054C206.701 115.033 207.553 115.178 208.457 115.47C209.278 115.74 210.12 116.282 210.314 116.928C209.552 117.137 209.124 117.429 208.795 117.679L207.977 118.472C207.648 118.722 207.319 118.972 206.991 119.223C206.579 119.452 206.083 119.661 205.67 119.891C204.778 120.266 203.833 120.496 202.835 120.58C201.639 120.748 200.558 120.811 198.944 120.875Z" fill="white" stroke="white"/>
<path d="M196.091 131.987C195.636 131.675 195.463 131.3 195.389 130.883C195.315 130.466 195.424 130.028 195.601 129.674C195.955 128.965 196.612 128.464 197.238 128.088C197.552 127.9 197.933 127.796 198.314 127.691C198.695 127.587 198.977 127.524 199.343 127.482C199.99 127.378 200.622 127.336 201.254 127.294C202.518 127.209 203.903 127.355 205.256 127.625C206.61 127.895 208.084 128.394 209.381 129.248C208.212 130.02 207.189 130.563 206.03 130.939C204.955 131.335 203.827 131.586 202.715 131.775C202.166 131.837 201.602 131.963 201.07 131.963C200.803 131.963 200.521 132.026 200.255 132.026C199.988 132.026 199.821 131.985 199.555 131.985C199.121 131.944 198.619 131.819 198.102 131.757C197.653 131.778 196.984 131.611 196.091 131.987Z" fill="white" stroke="white"/>
<path d="M191.614 145.352C192.009 144.122 192.676 143.225 193.562 142.516C194.365 141.786 195.373 141.305 196.448 140.909C197.523 140.512 198.735 140.282 200.151 140.302C201.483 140.301 203.034 140.488 204.614 141.279C203.801 142.405 203.097 143.093 202.226 143.74C201.354 144.387 200.446 144.825 199.387 145.16C198.327 145.494 197.199 145.745 195.95 145.766C194.671 145.913 193.354 145.851 191.614 145.352Z" fill="white" stroke="white"/>
<path d="M197.517 120.187C195.263 118.896 193.338 117.355 192.07 115.313C190.802 113.271 190.296 111.02 190.444 108.997C190.591 106.975 191.424 105.057 192.528 103.472C193.732 101.845 195.14 100.469 197.201 99.3209C197.487 101.384 197.203 103.24 197.034 104.991C196.781 106.721 196.559 108.327 196.421 109.953C196.299 111.516 196.276 113.038 196.488 114.685C196.715 116.269 197.314 118.145 197.517 120.187Z" fill="white" stroke="white"/>
<path d="M172.792 201.042C171.011 198.208 169.412 195.353 167.73 192.478C166.116 189.685 164.319 186.914 162.506 184.205C158.782 178.829 154.463 173.704 149.517 168.954C148.957 168.35 148.215 167.766 147.639 167.225L145.677 165.475L143.6 163.829L142.569 162.975C142.198 162.684 141.894 162.475 141.523 162.184L139.43 160.601C138.672 160.08 137.982 159.643 137.223 159.122C135.79 158.102 134.158 157.164 132.61 156.248C131.837 155.79 131.063 155.332 130.189 154.916C129.4 154.52 128.542 154.041 127.768 153.583L125.232 152.354C124.83 152.188 124.359 151.938 123.957 151.772L122.665 151.251C119.241 149.669 115.54 148.483 111.855 147.235C112.822 147.276 113.773 147.379 114.807 147.504L116.275 147.67C116.793 147.732 117.211 147.836 117.728 147.898C118.663 148.064 119.682 148.251 120.701 148.438C121.705 148.688 122.625 148.917 123.628 149.166C125.551 149.644 127.428 150.31 129.388 150.997C130.376 151.309 131.249 151.725 132.138 152.079C133.026 152.433 133.999 152.808 134.856 153.287C141.993 156.722 148.615 161.158 153.901 166.325C159.285 171.449 163.564 177.096 166.714 182.993C169.849 188.953 171.621 195.039 172.792 201.042Z" fill="white" stroke="white"/>
<path d="M136.809 172.568C138.141 172.567 139.108 172.608 139.991 172.629C140.874 172.649 141.589 172.628 142.373 172.69C143.956 172.751 145.659 173.042 147.551 173.645C148.038 173.833 148.524 174.02 148.926 174.187C149.344 174.291 149.778 174.332 150.196 174.436C151.048 174.581 151.983 174.748 152.851 174.83C154.585 174.996 156.419 175.12 158.142 174.619C157.636 175.224 156.895 175.703 156.018 176.017C155.141 176.33 154.264 176.643 153.335 176.81C152.405 176.978 151.392 177.124 150.41 177.146C149.877 177.146 149.428 177.167 148.895 177.167C148.431 177.251 147.966 177.335 147.501 177.418C145.673 177.628 143.657 177.525 141.446 176.776C139.318 176.048 137.278 174.611 136.809 172.568Z" fill="white" stroke="white"/>
<path d="M143.262 161.62C140.811 161.476 139.203 161.873 137.344 162.207C136.498 162.395 135.553 162.625 134.624 162.793C133.679 163.023 132.665 163.169 131.736 163.336C129.793 163.65 127.798 163.818 125.719 163.965C123.656 164.05 121.441 164.031 118.954 163.678C120.294 162.218 122.042 161.258 123.843 160.444C125.727 159.65 127.716 159.149 129.842 158.814C130.855 158.668 131.952 158.542 133.116 158.499C134.198 158.436 135.431 158.477 136.632 158.643C137.834 158.809 139.104 159.059 140.312 159.558C141.451 159.974 142.597 160.724 143.262 161.62Z" fill="white" stroke="white"/>
<path d="M135.634 155.871C134.31 154.413 133.342 153.309 132.342 152.329C131.342 151.35 130.395 150.517 129.38 149.6L126.084 146.788L125.221 145.976L125.001 145.788L124.865 145.622C124.797 145.538 124.645 145.434 124.509 145.268C123.834 144.768 122.992 144.226 122.265 143.58C123.293 143.371 124.124 143.246 125.174 143.308C125.44 143.307 125.707 143.307 126.041 143.39L126.893 143.536C127.395 143.661 127.896 143.785 128.398 143.91C130.29 144.514 132.188 145.45 133.643 146.742C135.197 147.992 136.307 149.596 136.77 151.305C137.081 152.91 136.928 154.599 135.634 155.871Z" fill="white" stroke="white"/>
<path d="M150.533 167.015C149.01 165.64 148.219 164.181 147.48 162.868L145.603 159.347C145.016 158.138 144.428 156.929 143.872 155.595C143.316 154.262 142.942 152.907 142.464 151.26C144.638 151.801 146.322 152.884 147.709 154.092C149.095 155.3 150.184 156.634 150.96 158.155C151.306 158.905 151.653 159.656 151.884 160.51C152.032 161.344 152.112 162.094 152.009 162.866C152.016 164.262 151.507 165.597 150.533 167.015Z" fill="white" stroke="white"/>
<path d="M289.452 83.2632C288.303 83.243 287.055 83.2646 286.026 83.4737C285.478 83.5366 284.914 83.662 284.433 83.8082C283.953 83.9544 283.389 84.0799 282.909 84.2261C280.873 84.9152 279.057 85.7919 277.392 86.7726C275.712 87.8159 274.1 88.9426 272.571 90.09C271.043 91.2375 269.567 92.5308 268.107 93.7616C262.25 98.7473 256.931 104.066 252.152 109.718C247.372 115.37 243.063 121.272 239.209 127.487C235.371 133.639 232.071 140.124 228.839 146.692C229.661 139.458 231.769 132.411 234.849 125.738C237.929 119.066 242.081 112.726 247.09 106.865C252.099 101.005 257.95 95.6856 264.696 91.0537L267.247 89.3636C268.103 88.7794 268.943 88.2578 269.882 87.6944C271.745 86.6301 273.592 85.6284 275.659 84.8142C277.726 83.9999 279.945 83.2898 282.337 82.9548C284.546 82.6408 287.095 82.7435 289.452 83.2632Z" fill="white" stroke="white"/>
<path d="M97.7903 177.939C88.67 178.195 79.2969 177.325 70.0424 175.621C60.8035 173.855 51.5314 171.151 42.8427 167.529C34.154 163.907 25.8659 159.389 18.5792 154.057C11.2925 148.725 4.99167 142.641 0.345703 135.974C6.92263 141.66 13.8904 146.847 21.3638 151.428C28.8371 156.01 36.8005 160.049 45.0867 163.504C53.3728 166.96 61.9973 169.769 70.8143 172.161C79.5477 174.532 88.5202 176.298 97.7903 177.939Z" fill="white" stroke="white"/>
<path d="M264.183 62.7664C264.544 60.5983 265.423 58.4923 267.175 56.8027C268.093 55.9683 269.162 55.2381 270.535 54.7161C271.908 54.1941 273.569 53.943 275.288 54.1712C277.023 54.3369 278.816 54.9821 280.379 55.8358C281.927 56.7521 283.162 57.8561 284.084 59.148C285.943 61.6692 286.575 64.483 286.204 67.0473C285.832 69.6115 284.343 72.0305 281.891 73.6788C280.623 74.4926 279.135 75.1189 277.375 75.4118C275.699 75.7255 273.782 75.5807 272.125 75.1023C270.384 74.603 268.905 73.7701 267.821 72.7702C266.655 71.7494 265.853 70.6868 265.25 69.5406C264.128 67.2691 263.905 64.9554 264.183 62.7664ZM264.183 62.7664C263.905 64.9554 264.478 67.2898 266.028 69.2692C266.761 70.2485 267.792 71.1025 268.969 71.7272C270.145 72.3518 271.384 72.7263 272.518 72.809C274.884 72.9326 276.732 71.9309 278.025 70.6585C279.333 69.3236 280.103 67.6555 280.372 65.8626C280.64 64.0697 280.391 62.2146 279.578 60.4849C278.765 58.7552 277.305 57.1301 275.01 56.3602C273.855 56.0065 272.554 55.8822 271.358 56.0497C270.078 56.1964 268.904 56.6349 267.85 57.3026C265.826 58.6588 264.529 60.6608 264.183 62.7664Z" fill="white" stroke="white"/>
<path d="M142.986 25.2682C144.036 25.3301 145.008 25.7047 145.85 26.2462C146.692 26.7877 147.404 27.496 148.032 28.1835C149.273 29.6211 150.201 31.2465 150.831 32.9972C151.377 34.7271 151.71 36.603 151.092 38.3752C150.775 39.2926 150.291 40.1684 149.373 41.0028C148.914 41.42 148.288 41.7956 147.51 42.0671C146.732 42.3386 145.818 42.4434 144.836 42.4648C143.869 42.4237 142.866 42.1742 142.061 41.8411C141.256 41.5081 140.566 41.0707 139.959 40.6542C138.844 39.7793 138.111 38.8 137.629 37.8831C136.596 35.9659 136.515 34.1524 136.668 32.4638C136.905 30.796 137.477 29.2114 138.436 27.8558C138.957 27.1884 139.478 26.5211 140.219 26.0412C141.043 25.5821 141.92 25.2688 142.986 25.2682ZM142.986 25.2682C142.004 25.2896 141.043 25.5821 140.454 26.1661C139.865 26.7501 139.443 27.3758 139.256 28.1263C138.815 29.5441 139.126 31.149 139.651 32.6079C140.26 34.0876 141.083 35.4212 142.067 36.4629C142.559 36.9838 143.066 37.442 143.537 37.6919C144.007 37.9418 144.19 37.9208 144.274 37.9416C144.357 37.9624 144.357 37.9624 144.457 37.9207C144.54 37.9415 144.556 37.8789 144.655 37.8372C144.754 37.7954 144.853 37.7537 144.952 37.7119C145.365 37.4823 145.808 37.1277 146.199 36.6272C146.981 35.6261 147.558 34.375 147.832 32.9156C148.091 31.5188 148.03 29.9763 147.255 28.455C146.908 27.7048 146.379 26.9755 145.636 26.3922C144.993 25.7673 144.02 25.3926 142.986 25.2682Z" fill="white" stroke="white"/>
<path d="M67.313 125.332C68.3689 125.728 69.2324 126.54 69.7302 127.395C70.2281 128.249 70.5432 129.124 70.7591 130.041C71.1072 131.855 71.0898 133.71 70.7223 135.545C70.2713 137.358 69.5538 139.172 67.932 140.695C67.1289 141.425 66.143 142.176 64.7701 142.698C64.4726 142.824 64.0078 142.907 63.6267 143.012C63.1619 143.095 62.7963 143.137 62.2635 143.138C61.2815 143.159 60.1633 143.014 59.191 142.639C58.1351 142.244 57.2249 141.619 56.5812 140.994C56.2098 140.702 56.0212 140.39 55.7489 140.056C55.5603 139.744 55.288 139.41 55.183 139.119C54.5957 137.91 54.5256 136.763 54.5236 135.7C54.6869 133.616 55.5561 131.906 56.7442 130.342C57.9167 128.84 59.4082 127.484 61.1719 126.462C62.012 125.94 63.0037 125.523 64.048 125.251C65.0086 124.958 66.257 124.937 67.313 125.332ZM67.313 125.332C66.257 124.937 64.993 125.021 64.1005 125.397C63.1243 125.752 62.3679 126.294 61.7631 126.941C60.47 128.213 59.8983 129.798 59.5931 131.382C59.2878 132.967 59.3326 134.572 59.6749 136.052C59.8539 136.76 60.132 137.427 60.4568 137.906C60.5093 138.052 60.5929 138.073 60.6454 138.219C60.7135 138.302 60.7815 138.386 60.8651 138.406C61.0168 138.511 61.0169 138.511 61.1005 138.531C61.1005 138.531 61.1841 138.552 61.3513 138.594C61.4349 138.615 61.5341 138.573 61.6177 138.594C61.7169 138.552 61.8842 138.593 61.9989 138.489C62.5628 138.364 63.3407 138.092 63.9824 137.654C65.4175 136.882 66.7631 135.755 67.7898 134.483C68.8321 133.148 69.6546 131.626 69.8081 129.938C69.9267 129.104 69.7944 128.207 69.3802 127.374C69.1332 126.582 68.3689 125.728 67.313 125.332Z" fill="white" stroke="white"/>
<path d="M103.47 235.708C102.132 235.375 101.231 234.354 100.613 233.27C99.9943 232.187 99.5742 231.02 99.4361 229.79C99.3816 228.581 99.4419 227.267 100.354 226.1C100.76 225.536 101.433 224.973 102.341 224.535C103.249 224.097 104.811 223.887 106.316 224.261C107.821 224.636 109.019 225.531 109.7 226.365C110.38 227.198 110.627 227.99 110.723 228.678C110.981 230.137 110.503 231.347 109.805 232.368C109.107 233.39 108.189 234.225 107.135 234.892C106.165 235.581 104.891 236.061 103.47 235.708ZM103.47 235.708C104.138 235.874 104.786 235.769 105.297 235.498C105.809 235.227 106.169 234.851 106.445 234.455C107.013 233.6 106.995 232.599 106.795 231.62C106.579 230.703 106.18 229.807 105.704 229.223C105.431 228.89 105.212 228.702 105.06 228.598C104.908 228.494 104.961 228.64 105.128 228.682C105.295 228.723 105.41 228.619 105.227 228.64C105.044 228.661 104.679 228.703 104.366 228.89C103.671 229.183 102.816 229.767 102.264 230.559C101.643 231.269 101.227 232.228 101.328 233.249C101.387 233.728 101.529 234.229 101.854 234.708C102.277 235.145 102.801 235.541 103.47 235.708Z" fill="white" stroke="white"/>
<path d="M97.6489 248.081C91.567 247.661 85.9307 248.538 80.7641 250.073C78.1608 250.794 75.5608 251.662 73.154 252.694C71.9123 253.191 70.6705 253.689 69.4288 254.187C68.1871 254.685 67.022 255.219 65.8202 255.808C61.1633 258.09 56.6997 260.537 52.4693 263.239L49.3641 265.315C48.3556 266.069 47.3072 266.73 46.3355 267.428C44.3553 268.88 42.3752 270.331 40.5117 271.91C32.901 278.006 26.1803 284.886 19.6897 291.875C13.2757 298.901 7.09508 306.181 0.454245 313.244C4.9076 305.072 9.86106 297.21 15.7318 289.638C18.572 285.843 21.7191 282.193 25.0962 278.652C26.7664 276.909 28.5501 275.148 30.297 273.441C32.1206 271.771 34.0209 270.137 35.9978 268.54C43.869 262.205 52.9338 256.653 63.2847 252.651C68.4418 250.678 73.8721 249.051 79.6554 247.954C82.6054 247.47 85.5586 247.131 88.5948 247.122C90.1129 247.117 91.6709 247.204 93.1922 247.345C94.6767 247.542 96.1612 247.738 97.6489 248.081Z" fill="white" stroke="white"/>
<path d="M256.439 155.82C256.566 152.488 257.649 149.141 259.377 146.12C261.047 143.081 263.248 140.332 265.464 137.713C266.64 136.393 267.795 135.129 268.95 133.865C270.105 132.601 271.317 131.355 272.644 130.145C273.97 128.934 275.39 127.815 277.055 126.897C278.662 125.961 280.437 125.265 282.208 124.755C285.75 123.734 289.447 123.511 292.982 123.737C296.517 123.963 300.044 124.561 303.409 125.609C306.774 126.656 309.977 128.152 312.98 130.023C315.926 131.877 318.653 134.161 321.01 136.768C323.289 139.413 325.276 142.341 326.623 145.632C327.991 148.868 328.817 152.372 328.76 156.038C328.742 157.843 328.455 159.689 327.997 161.482C327.481 163.257 326.718 165.017 325.709 166.576C323.673 169.751 320.768 172.344 317.214 173.922C315.476 174.693 313.591 175.167 311.637 175.308C311.176 175.353 310.68 175.323 310.183 175.293C309.686 175.263 309.266 175.195 308.77 175.165C308.521 175.15 308.293 175.079 308.008 174.991C307.78 174.92 307.474 174.887 307.266 174.76L306.545 174.473C306.317 174.402 306.13 174.219 305.865 174.074C305.392 173.802 305.074 173.453 304.679 173.143C304.491 172.96 304.361 172.794 304.173 172.611C303.986 172.428 303.855 172.262 303.745 172.041L303.317 171.47L302.966 170.862C302.725 170.475 302.562 170.049 302.321 169.662C301.647 168.016 301.263 166.273 301.069 164.527C300.933 162.799 301.086 160.974 301.581 159.255C302.076 157.536 302.99 155.885 304.223 154.582C305.476 153.224 307.083 152.288 308.87 151.908C310.601 151.51 312.454 151.65 313.949 152.427C312.373 151.874 310.573 151.938 309.03 152.52C307.45 153.027 306.128 154.052 305.144 155.369C304.18 156.63 303.518 158.109 303.218 159.639C302.919 161.169 302.924 162.732 303.179 164.31C303.453 165.831 303.862 167.332 304.58 168.679C304.784 168.993 304.911 169.344 305.135 169.601L305.412 170.062L305.767 170.485C305.898 170.65 305.991 170.742 306.142 170.851L306.517 171.218C306.762 171.419 307.063 171.637 307.328 171.782C307.499 171.836 307.593 171.927 307.764 171.98L308.221 172.122C308.392 172.176 308.526 172.155 308.697 172.208C308.868 172.262 308.982 172.297 309.174 172.294C309.556 172.288 309.919 172.339 310.302 172.333C310.684 172.327 311.067 172.322 311.413 172.242C312.928 172.089 314.373 171.602 315.765 170.912C317.157 170.221 318.439 169.309 319.513 168.269C320.644 167.248 321.608 165.987 322.38 164.729C323.945 162.156 324.602 159.114 324.55 156.101C324.497 153.088 323.814 150.065 322.61 147.255C321.405 144.446 319.68 141.848 317.604 139.517C313.531 134.815 308.017 131.288 301.898 129.259C298.859 128.189 295.678 127.511 292.469 127.261C290.884 127.08 289.239 127.068 287.631 127.129C286.022 127.19 284.43 127.382 282.834 127.759C281.315 128.098 279.773 128.679 278.381 129.37C276.968 130.117 275.63 131.011 274.364 132.054C273.099 133.096 271.87 134.212 270.564 135.366C269.315 136.539 268.066 137.711 266.874 138.901C264.434 141.263 262.144 143.735 260.249 146.516C258.428 149.446 257.063 152.518 256.439 155.82Z" fill="white" stroke="white"/>
<path d="M221.921 75.25C214.491 76.9222 207.794 79.5737 202.18 83.2251C199.331 85.0404 196.786 87.064 194.559 89.2333C193.48 90.3596 192.401 91.4859 191.489 92.6539C190.561 93.8843 189.634 95.1148 188.79 96.366C185.482 101.454 182.88 106.918 180.849 112.589C179.799 115.383 178.999 118.239 178.185 121.158C177.37 124.077 176.555 126.996 175.924 129.894C175.192 132.834 174.644 135.752 174.263 138.713C173.799 141.652 173.501 144.633 173.287 147.635C172.943 153.66 173.216 159.705 174.356 165.833C174.926 168.897 175.678 171.94 176.713 174.92C177.732 177.963 178.949 180.922 180.418 183.944C183.187 189.946 186.771 195.885 190.188 201.782C185.612 196.261 181.365 190.489 177.697 184.529C175.947 181.57 174.311 178.507 172.958 175.381C172.281 173.818 171.688 172.276 171.194 170.692L170.453 168.316C170.206 167.524 170.043 166.753 169.796 165.961C169.302 164.377 169.074 162.793 168.763 161.188C168.599 160.416 168.535 159.603 168.387 158.77C168.24 157.936 168.16 157.186 168.096 156.373C167.724 153.225 167.718 150.036 167.697 146.909C167.92 140.655 168.744 134.484 170.154 128.459C170.817 125.436 171.647 122.454 172.545 119.556C173.444 116.658 174.373 113.635 175.538 110.737C176.702 107.839 178.034 104.982 179.602 102.25C180.393 100.853 181.169 99.5184 182.044 98.142C182.903 96.8282 183.862 95.4727 184.805 94.1797C186.775 91.6144 188.996 89.1116 191.671 86.9212C194.347 84.7307 197.227 82.7903 200.395 81.1208C206.668 78.0318 214.04 75.8802 221.921 75.25Z" fill="white" stroke="white"/>
<path d="M223.046 75.7287C224.014 76.8329 224.586 78.1041 225.058 79.4171C225.447 80.7093 225.654 82.0225 225.792 83.2523C226.052 85.7745 226.214 88.3384 226.224 90.7982C226.296 95.8637 226.117 100.867 225.505 105.828C224.447 115.793 222.052 125.426 218.904 134.871C218.146 137.206 217.205 139.562 216.363 141.876C215.437 144.17 214.496 146.526 213.487 148.799C212.478 151.072 211.469 153.344 210.376 155.596C209.283 157.848 208.107 160.08 206.847 162.29C201.822 171.069 195.391 179.432 186.664 185.962C193.42 178.079 198.397 169.487 202.487 160.542C204.489 156.059 206.409 151.555 208.176 146.947C209.943 142.339 211.612 137.773 213.212 133.123C216.313 123.866 219.012 114.442 221.026 104.914C221.958 100.098 222.79 95.3238 223.386 90.4247C223.727 87.9855 223.9 85.5048 224.156 83.0449C224.285 81.8149 224.314 80.6266 224.176 79.3968C224.022 78.2296 223.717 76.9582 223.046 75.7287Z" fill="white" stroke="white"/>
<path d="M165.156 171.05C163.363 167.549 161.356 164.194 158.983 160.881C157.789 159.256 156.58 157.693 155.271 156.172C153.962 154.651 152.554 153.172 150.948 151.776C147.918 148.964 144.429 146.569 140.519 144.799C138.689 143.946 136.478 143.196 134.335 142.531C132.207 141.802 129.981 141.116 127.754 140.429C125.527 139.743 123.4 139.014 121.158 138.39C120.086 138.058 118.999 137.787 117.897 137.579C117.311 137.434 116.878 137.392 116.292 137.247L114.573 137.019C110.001 136.479 105.42 136.336 101.033 136.839C96.6458 137.342 92.5369 138.512 88.6166 139.995C84.7799 141.498 81.0483 143.293 77.3322 145.025L76.4181 142.274C78.67 142.502 80.9899 142.813 83.3313 143.396C85.6045 143.895 87.8992 144.664 90.0636 145.601C94.408 147.412 98.3148 149.911 101.856 152.452C103.577 153.744 105.283 155.098 106.904 156.431C108.526 157.764 110.049 159.139 111.572 160.514C114.617 163.263 117.662 166.013 120.609 168.805C122.032 170.221 123.555 171.596 124.978 173.013L126.046 174.075L126.622 174.617L127.129 175.075C127.773 175.7 128.516 176.284 129.259 176.867C132.345 179.095 136.026 181.074 139.869 182.76C147.622 186.215 156.11 188.858 164.422 191.854L164.313 192.292C155.576 190.651 146.885 188.822 138.307 185.825C136.195 185.034 134.084 184.243 131.935 183.244C129.869 182.266 127.835 181.162 125.848 179.871C124.854 179.225 123.96 178.538 123.081 177.788L122.421 177.225L121.83 176.746L120.663 175.726L116.08 171.663L106.996 163.56L102.496 159.519C100.958 158.206 99.5188 156.852 97.965 155.602C94.8574 153.103 91.604 150.833 88.0433 149.084C87.5727 148.834 87.1701 148.667 86.684 148.48C86.1978 148.293 85.7272 148.043 85.3247 147.876C84.8385 147.689 84.3523 147.502 83.8662 147.314L82.3921 146.815C80.4164 146.191 78.4251 145.629 76.3035 145.234L70.6388 144.091L75.3738 142.546C79.4303 141.23 83.4186 139.831 87.5587 138.536C89.6627 137.93 91.7668 137.324 93.8553 136.781C96.0274 136.259 98.252 135.882 100.461 135.568C104.978 134.898 109.653 134.666 114.35 134.705L116.115 134.745C116.732 134.766 117.432 134.807 118.033 134.89C119.25 134.994 120.452 135.16 121.737 135.347C124.125 135.741 126.498 136.198 128.839 136.781C131.18 137.363 133.506 138.008 135.785 138.84C136.94 139.194 138.08 139.61 139.204 140.089C139.774 140.297 140.328 140.568 140.898 140.776C141.452 141.046 142.09 141.338 142.644 141.608C144.861 142.691 147.016 144.024 148.873 145.482C150.745 146.878 152.488 148.44 154.048 150.023C157.151 153.252 159.576 156.711 161.438 160.296C163.314 163.817 164.711 167.486 165.491 171.133L165.156 171.05Z" fill="white" stroke="white"/>
</svg>
