<svg viewBox="0 0 163 172" fill="none" xmlns="http://www.w3.org/2000/svg">
<g clip-path="url(#clip0)">
<path d="M37.8008 36.8004C39.3008 32.2004 42.1008 28.0004 45.7008 24.6004C49.2008 21.1004 53.8008 18.6004 58.7008 17.3004C59.9008 17.1004 61.1008 16.8004 62.4008 16.7004L64.3008 16.5004C64.9008 16.5004 65.5008 16.4004 66.2008 16.4004C68.7008 16.4004 71.2008 16.6004 73.6008 17.1004C78.4008 18.1004 83.0008 19.9004 87.0008 22.8004C82.5008 21.1004 77.9008 20.0004 73.3008 19.5004C72.1008 19.4004 71.0008 19.3004 69.8008 19.2004C69.2008 19.2004 68.6008 19.2004 68.1008 19.2004C67.5008 19.2004 66.9008 19.2004 66.4008 19.3004C64.1008 19.4004 61.8008 19.8004 59.6008 20.3004C57.4008 20.9004 55.2008 21.6004 53.2008 22.7004C52.2008 23.2004 51.2008 23.8004 50.2008 24.4004C49.3008 25.1004 48.3008 25.7004 47.4008 26.4004C43.6008 29.2004 40.5008 32.8004 37.8008 36.8004Z" fill="white" stroke="white"/>
<path d="M19.8008 36.8008C20.4008 32.5008 21.9008 28.4008 23.9008 24.6008C26.0008 20.8008 28.6008 17.2008 31.8008 14.1008C32.6008 13.4008 33.4008 12.5008 34.3008 11.9008L37.0008 9.90079C37.9008 9.30079 38.9008 8.7008 39.8008 8.10079C40.3008 7.80079 40.7008 7.50079 41.2008 7.20079L42.7008 6.50079C43.7008 6.00079 44.7008 5.50079 45.7008 5.10079L48.8008 4.00079C49.3008 3.80079 49.9008 3.60079 50.4008 3.50079L52.0008 3.10079L55.1008 2.30079C59.3008 1.30079 63.7008 0.600794 68.0008 0.300794C72.6008 -0.099206 77.0008 0.000793993 81.3008 0.800794C85.6008 1.60079 89.9008 3.00079 93.7008 5.10079C97.5008 7.20079 101.001 9.90079 103.801 13.2008C100.301 10.8008 96.6008 8.80079 92.7008 7.40079C88.8008 6.00079 84.8008 5.10079 80.7008 4.70079C76.6008 4.40079 72.5008 4.40079 68.5008 4.80079L65.4008 5.20079C64.4008 5.30079 63.4008 5.50079 62.4008 5.70079C60.4008 6.00079 58.4008 6.50079 56.3008 6.90079L53.3008 7.70079L51.8008 8.10079C51.3008 8.2008 50.8008 8.40079 50.4008 8.60079L47.5008 9.50079C46.6008 9.80079 45.7008 10.3008 44.7008 10.7008L43.3008 11.3008C42.8008 11.5008 42.4008 11.8008 42.0008 12.0008C41.1008 12.5008 40.2008 12.9008 39.4008 13.5008L36.9008 15.2008C36.1008 15.8008 35.3008 16.4008 34.5008 17.0008C31.4008 19.6008 28.5008 22.5008 26.1008 25.9008C23.5008 29.2008 21.4008 32.8008 19.8008 36.8008Z" fill="white" stroke="white"/>
<path d="M18.1 54.7996C18.4 57.1996 18.8 59.5996 19.3 61.9996C19.7 64.3996 20.2 66.7996 20.8 69.0996C21.4 71.3996 22 73.7996 22.8 75.9996C23.6 78.2996 24.5 80.4996 25.5 82.4996L24.9 81.7996C24.9 81.7996 25.1 81.8996 25.2 81.8996C25.3 81.9996 25.5 81.9996 25.6 82.0996C25.9 82.1996 26.2 82.2996 26.5 82.2996C27.1 82.3996 27.8 82.4996 28.5 82.3996C29.8 82.2996 31.2 81.9996 32.5 81.3996C33.8 80.7996 35 80.0996 35.9 79.1996C36.3 78.7996 36.7 78.2996 36.9 77.8996C37 77.6996 37.1 77.4996 37.2 77.2996C37.2 77.1996 37.3 77.0996 37.3 76.9996V76.8996C37.3 76.8996 37.3 76.7996 37.3 76.9996L37.6 78.2996C36.5 76.3996 35.8 74.3996 35.3 72.3996C34.8 70.3996 34.5 68.3996 34.4 66.3996C34.3 65.3996 34.3 64.3996 34.3 63.3996C34.3 62.3996 34.4 61.3996 34.5 60.3996C34.7 58.3996 35 56.4996 35.5 54.5996H36L37.1 60.2996C37.2 60.7996 37.3 61.1996 37.4 61.6996C37.5 62.1996 37.6 62.5996 37.7 63.0996L38.4 65.7996C38.9 67.5996 39.4 69.2996 40 70.9996C40.6 72.6996 41.3 74.1996 42.1 75.6996L42.5 76.3996V76.9996C42.5 77.3996 42.5 77.4996 42.4 77.6996C42.4 77.8996 42.3 77.9996 42.3 78.1996C42.2 78.4996 42.1 78.7996 42 79.0996C41.8 79.6996 41.5 80.1996 41.2 80.5996C40.6 81.4996 39.8 82.2996 39 82.8996C37.4 84.0996 35.7 84.7996 34 85.3996C32.3 85.8996 30.4 86.2996 28.6 86.1996C27.7 86.1996 26.7 86.0996 25.8 85.7996C25.3 85.6996 24.9 85.4996 24.4 85.3996C24.2 85.2996 23.9 85.1996 23.7 85.0996C23.5 84.9996 23.3 84.8996 22.9 84.6996L22.5 84.3996L22.3 83.9996C21.2 81.5996 20.5 79.1996 19.9 76.6996C19.3 74.2996 18.9 71.7996 18.6 69.3996C18.3 66.9996 18 64.4996 17.8 61.9996C17.6 59.4996 17.5 57.0996 17.5 54.5996L18.1 54.7996Z" fill="white" stroke="white"/>
<path d="M93.9992 39.6008C95.6992 41.8008 97.1992 44.2008 98.4992 46.7008C99.7992 49.2008 100.899 51.8008 101.599 54.7008L100.199 53.5008C100.799 53.4008 101.499 53.3008 102.199 53.2008C102.899 53.0008 103.599 52.9008 104.299 52.7008C105.699 52.3008 107.099 51.9008 108.499 51.4008C109.199 51.2008 109.899 50.9008 110.499 50.6008C111.099 50.3008 111.699 50.1008 112.199 49.7008C113.199 49.0008 114.099 48.2008 114.399 47.5008C114.599 47.1008 114.699 46.8008 114.799 46.4008C114.799 46.2008 114.799 46.0008 114.899 45.9008C114.899 45.8008 114.899 45.8008 114.899 45.8008L114.799 45.3008C114.599 43.9008 114.299 42.5008 113.999 41.1008C113.699 39.7008 113.399 38.3008 112.999 37.0008C112.599 35.7008 112.099 34.3008 111.199 33.3008L111.399 32.8008C112.299 32.9008 112.999 33.4008 113.699 33.9008C114.399 34.4008 114.999 35.0008 115.499 35.6008C116.599 36.9008 117.399 38.3008 118.099 39.7008C118.799 41.1008 119.299 42.6008 119.799 44.1008L119.999 44.7008C120.099 45.1008 120.099 45.4008 120.199 45.7008C120.299 46.3008 120.199 46.8008 120.099 47.4008C119.899 48.5008 119.499 49.6008 118.899 50.4008C117.699 52.2008 115.999 53.2008 114.299 53.9008C113.499 54.3008 112.699 54.5008 111.899 54.7008L109.699 55.3008C108.199 55.7008 106.699 56.0008 105.099 56.2008C104.299 56.3008 103.599 56.4008 102.799 56.5008C101.999 56.6008 101.299 56.6008 100.299 56.6008H98.9992L98.8992 55.4008C98.5992 52.8008 97.8992 50.2008 96.9992 47.6008C96.4992 46.3008 95.9992 45.0008 95.4992 43.8008C94.8992 42.5008 94.3992 41.3008 93.6992 40.1008L93.9992 39.6008Z" fill="white" stroke="white"/>
<path d="M15.1005 95.4992C15.3005 95.3992 15.6005 95.2992 15.8005 95.1992L16.3005 94.9992L17.3005 94.5992L19.3005 93.8992L23.4005 92.3992L31.6005 89.3992L47.9005 83.3992C58.7005 79.3992 69.5005 75.2992 80.1005 70.7992C90.7005 66.2992 101.3 61.6992 112 57.2992L144 44.0992L145 43.6992L145.5 44.4992C148.6 49.5992 151.1 54.8992 153.4 60.2992C155.7 65.6992 157.6 71.2992 159.2 76.9992C160.7 82.6992 161.8 88.4992 162.2 94.3992C162.7 100.299 162.5 106.299 161.4 112.199C160.3 118.099 158.4 123.799 155.7 129.199C153 134.599 149.3 139.499 145.1 143.799C144 144.899 143 145.999 141.9 146.999L138.5 149.899C137.9 150.399 137.4 150.899 136.8 151.299L135 152.599L131.3 155.199L127.5 157.499L125.6 158.699L124.6 159.299L123.6 159.799L119.6 161.799C118.3 162.499 116.9 163.199 115.6 163.699C110.1 166.099 104.5 168.199 98.6005 169.599C92.7005 170.899 86.6005 171.599 80.5005 171.299C74.4005 170.999 68.3005 169.699 62.6005 167.399C56.9005 165.099 51.7005 161.799 47.1005 157.899C42.5005 153.999 38.5005 149.399 35.0005 144.599C31.5005 139.799 28.5005 134.599 26.0005 129.199C23.5005 123.799 21.3005 118.299 19.5005 112.699C18.6005 109.899 17.8005 107.099 17.1005 104.199C16.7005 102.799 16.4005 101.299 16.1005 99.8992L15.7005 97.6992L15.5005 96.5992L15.4005 96.0992V95.7992C15.0005 95.7992 15.0005 95.5992 15.1005 95.4992ZM15.5005 95.7992C15.6005 95.7992 15.6005 95.8992 15.6005 95.8992L15.7005 96.1992L15.8005 96.6992L16.1005 97.7992L16.7005 99.8992C17.1005 101.299 17.6005 102.699 18.0005 104.099C18.9005 106.899 19.9005 109.599 21.0005 112.299C23.2005 117.699 25.6005 122.999 28.4005 127.999C34.0005 137.999 41.0005 147.399 49.8005 154.499C54.2005 157.999 59.1005 160.899 64.3005 162.899C69.5005 164.899 75.0005 165.999 80.6005 166.199C91.8005 166.699 103 163.799 113.5 159.299C114.8 158.799 116.1 158.099 117.4 157.499L121.3 155.599L122.3 155.099L123.2 154.599L125.1 153.499L128.8 151.399L132.3 148.999L134.1 147.799C134.7 147.399 135.2 146.899 135.8 146.499L139.1 143.799C140.2 142.899 141.2 141.899 142.2 140.899C150.4 133.099 156.3 122.899 158.9 111.699C160.2 106.099 160.6 100.299 160.4 94.5992C160.1 88.7992 159.2 83.0992 157.8 77.3992C156.4 71.7992 154.4 66.2992 152 60.9992C149.6 55.6992 146.8 50.4992 143.6 45.7992L145.1 46.1992C134.7 51.1992 124.2 56.2992 113.7 61.0992C103.2 65.8992 92.5005 70.3992 81.7005 74.7992C70.9005 79.0992 59.9005 82.8992 48.9005 86.3992C43.4005 88.0992 37.8005 89.7992 32.2005 91.3992C29.4005 92.1992 26.6005 92.9992 23.8005 93.6992L19.6005 94.7992L17.5005 95.2992L16.4005 95.5992L15.9005 95.6992C15.7005 95.7992 15.7005 95.7992 15.5005 95.7992Z" fill="white" stroke="white"/>
<path d="M46.3008 111.701L53.5008 125.101C54.7008 127.301 55.8008 129.401 56.9008 131.501C58.0008 133.601 59.1008 135.701 60.1008 137.901L57.6008 136.901C64.7008 133.801 71.8008 130.801 79.0008 128.001C86.2008 125.201 93.5008 122.601 100.801 120.201C108.101 117.701 115.401 115.101 122.601 112.201C129.801 109.301 136.901 106.201 143.901 103.001L143.101 104.801C141.101 100.401 139.001 95.9008 137.001 91.5008C135.001 87.1008 133.101 82.6008 131.101 78.1008L134.101 79.4008C127.001 82.4008 119.901 85.3008 112.801 88.1008C105.701 90.9008 98.5008 93.6008 91.2008 96.2008C83.9008 98.8008 76.6008 101.401 69.0008 104.001C61.8008 106.501 54.2008 109.101 46.3008 111.701ZM45.8008 111.501C52.5008 108.401 59.4008 105.201 66.5008 102.101C73.5008 98.9008 80.7008 95.8008 88.0008 92.7008C95.3008 89.6008 102.701 86.5008 110.101 83.6008C117.601 80.7008 125.101 77.9008 132.501 75.1008L134.701 74.3008L135.501 76.4008C137.301 80.9008 139.001 85.5008 140.701 90.1008C142.401 94.7008 144.001 99.3008 145.701 103.901L146.201 105.201L145.001 105.601C137.701 108.101 130.401 110.801 123.201 113.701C116.001 116.501 108.901 119.701 101.901 122.901C94.9008 126.201 87.8008 129.401 80.7008 132.301C73.5008 135.201 66.3008 137.901 59.0008 140.601L57.3008 141.201L56.6008 139.601C55.6008 137.201 54.6008 134.801 53.7008 132.401C52.7008 130.001 51.8008 127.601 50.9008 125.301L48.3008 118.301L45.8008 111.501Z" fill="white" stroke="white"/>
<path d="M67.0996 103.301C68.7996 105.201 69.9996 107.401 71.2996 109.601C72.4996 111.801 73.5996 114.001 74.5996 116.301C75.5996 118.601 76.4996 120.901 77.2996 123.201C78.0996 125.601 78.6996 128.001 79.0996 130.501C77.4996 128.501 76.2996 126.301 75.0996 124.201C73.8996 122.001 72.7996 119.801 71.8996 117.501C70.8996 115.201 69.9996 112.901 69.1996 110.601C68.3996 108.201 67.6996 105.801 67.0996 103.301Z" fill="white" stroke="white"/>
<path d="M88.5 95C90.2 96.9 91.4 99.1 92.6 101.2C93.8 103.3 94.8 105.5 95.8 107.8C96.8 110 97.6 112.3 98.3 114.6C99 116.9 99.7 119.3 100 121.8C98.5 119.8 97.3 117.7 96.1 115.5C95 113.3 93.9 111.2 93 108.9C92.1 106.7 91.2 104.4 90.4 102.1C89.6 99.8 89 97.4 88.5 95Z" fill="white" stroke="white"/>
<path d="M110.199 86.0996C111.899 88.0996 113.099 90.2996 114.299 92.3996C115.499 94.5996 116.499 96.7996 117.499 99.0996C118.499 101.4 119.299 103.7 119.999 106.1C120.699 108.5 121.399 110.9 121.699 113.4C120.199 111.3 118.899 109.2 117.799 107C116.699 104.8 115.599 102.5 114.699 100.3C113.799 97.9996 112.899 95.6996 112.099 93.2996C111.299 90.9996 110.699 88.5996 110.199 86.0996Z" fill="white" stroke="white"/>
<path d="M55.5 116.5C56.3 116.5 57.1 116.8 57.8 117.2C58.5 117.6 59.2 118 59.8 118.4C61 119.2 62.2 119.9 63.4 120.6C64.6 121.3 65.9 122.1 67.1 122.9C68.3 123.7 69.6 124.6 70.7 125.8C69.1 125.8 67.6 125.5 66.1 125.1C64.6 124.7 63.2 124 61.9 123.2C60.6 122.4 59.3 121.4 58.3 120.2C57.2 118.9 56.6 117.7 55.5 116.5Z" fill="white" stroke="white"/>
<path d="M63.3 114C64.1 115.3 64.6 116.6 64.9 117.9C65.3 119.2 65.4 120.6 65.5 122C65.5 123.4 65.4 124.8 65 126.2C64.6 127.6 64 128.9 62.9 130C62.8 128.5 62.7 127.2 62.6 125.9C62.5 124.6 62.5 123.3 62.5 122C62.5 120.7 62.5 119.4 62.6 118.1C62.7 116.8 62.8 115.5 63.3 114Z" fill="white" stroke="white"/>
<path d="M77.8008 106.699C79.3008 106.699 80.8008 106.999 82.2008 107.399C83.6008 107.899 84.9008 108.499 86.1008 109.299C87.3008 110.099 88.5008 110.999 89.5008 112.099C90.5008 113.199 91.4008 114.399 91.9008 115.799C90.5008 115.299 89.2008 114.599 88.0008 113.899C86.8008 113.199 85.6008 112.499 84.5008 111.799C83.4008 111.099 82.2008 110.299 81.1008 109.499C80.0008 108.699 78.9008 107.799 77.8008 106.699Z" fill="white" stroke="white"/>
<path d="M86.6 104.9C86.8 106.4 86.6 107.8 86.4 109.2C86.2 110.6 85.9 111.9 85.4 113.2C85 114.5 84.5 115.8 83.8 117C83.2 118.2 82.4 119.5 81.4 120.6C81.2 119.1 81.3 117.7 81.5 116.3C81.7 114.9 82 113.6 82.5 112.2C82.9 110.9 83.5 109.6 84.1 108.3C84.9 107.3 85.6 106.1 86.6 104.9Z" fill="white" stroke="white"/>
<path d="M98.4004 99.1998C99.2004 99.0998 100.1 99.2998 100.9 99.5998C101.7 99.8998 102.4 100.4 103.1 100.9C104.4 101.9 105.4 103 106.6 103.9C107.7 104.9 108.8 105.8 110 106.8C111.2 107.8 112.4 108.7 113.6 109.9C111.9 109.9 110.3 109.5 108.8 108.8C107.3 108.1 105.9 107.2 104.6 106.1C103.3 105 102.3 103.7 101.4 102.5C100.5 101.4 99.7004 100.2 98.4004 99.1998Z" fill="white" stroke="white"/>
<path d="M106.8 96.4004C107 97.9004 106.9 99.4004 106.7 100.7C106.5 102 106.2 103.4 105.8 104.8C105.4 106.1 104.9 107.5 104.3 108.7C103.7 110 103 111.2 102 112.4C101.8 110.9 101.9 109.5 102 108.1C102.2 106.7 102.5 105.3 102.8 104C103.2 102.7 103.6 101.4 104.3 100.1C105 98.7004 105.8 97.5004 106.8 96.4004Z" fill="white" stroke="white"/>
<path d="M120.301 91C121.001 90.5 121.901 90.3 122.801 90.4C123.701 90.5 124.501 90.7 125.301 91C126.901 91.7 128.101 92.4 129.401 93.2C130.701 94 132.001 94.8 133.201 95.7C134.401 96.6 135.701 97.5 136.901 98.7C135.201 98.7 133.701 98.3 132.201 97.8C130.701 97.3 129.301 96.6 127.901 95.8C126.501 95 125.301 94 124.101 93.1C122.901 92.1 121.901 91.3 120.301 91Z" fill="white" stroke="white"/>
<path d="M128.999 87.3008C129.199 88.8008 129.099 90.2008 128.899 91.6008C128.699 93.0008 128.399 94.3008 127.999 95.7008C127.599 97.0008 127.099 98.3008 126.499 99.6008C125.899 100.901 125.199 102.101 124.099 103.201C123.899 101.701 123.999 100.301 124.199 98.9008C124.399 97.5008 124.699 96.2008 125.099 94.8008C125.499 93.5008 125.999 92.2008 126.599 90.9008C127.299 89.7008 127.999 88.4008 128.999 87.3008Z" fill="white" stroke="white"/>
<path d="M15.3 95.6004C14.1 95.1004 13 94.5004 11.9 94.0004C10.8 93.4004 9.7 92.8004 8.6 92.2004C7.5 91.6004 6.4 90.9004 5.4 90.3004C4.3 89.6004 3.3 89.0004 2.2 88.3004L0 86.8004L2.4 85.7004C5.8 84.1004 9.3 82.6004 12.9 81.3004C16.5 80.0004 20.1 78.7004 23.8 77.9004C20.6 80.1004 17.3 81.9004 13.9 83.7004C10.5 85.4004 7.1 87.0004 3.6 88.5004L3.8 86.0004C4.8 86.7004 5.8 87.5004 6.8 88.3004C7.8 89.1004 8.7 89.9004 9.7 90.7004C10.7 91.5004 11.6 92.3004 12.5 93.2004C13.5 93.8004 14.4 94.7004 15.3 95.6004Z" fill="white" stroke="white"/>
<path d="M37.5004 72.7004C37.7004 72.7004 38.0004 72.7004 38.3004 72.6004C38.6004 72.5004 38.9004 72.4004 39.3004 72.3004C39.9004 72.1004 40.6004 71.9004 41.2004 71.6004C42.5004 71.1004 43.7004 70.6004 45.0004 70.1004C47.5004 69.1004 50.1004 68.0004 52.6004 66.8004L67.7004 60.2004C70.2004 59.1004 72.7004 57.9004 75.2004 56.7004C77.7004 55.5004 80.2004 54.5004 82.8004 53.6004C85.4004 52.7004 88.0004 51.9004 90.7004 51.2004C93.4004 50.5004 96.1004 49.8004 98.9004 49.4004L99.1004 49.9004C96.8004 51.6004 94.5004 53.1004 92.1004 54.4004C89.7004 55.8004 87.2004 57.0004 84.7004 58.2004C82.2004 59.4004 79.7004 60.4004 77.0004 61.3004C74.4004 62.2004 71.8004 63.0004 69.2004 63.9004L61.4004 66.6004L53.5004 69.2004C50.9004 70.0004 48.2004 70.8004 45.6004 71.6004C44.3004 72.0004 42.9004 72.3004 41.6004 72.7004C40.9004 72.9004 40.2004 73.0004 39.6004 73.1004C39.3004 73.2004 38.9004 73.2004 38.6004 73.3004C38.2004 73.3004 37.9004 73.4004 37.4004 73.2004L37.5004 72.7004Z" fill="white" stroke="white"/>
<path d="M115.9 39.7992C117.1 39.2992 118.3 38.7992 119.6 38.2992L123.3 36.7992L123.5 36.6992L123.9 36.7992C125.7 37.2992 127.5 37.6992 129.3 38.1992C131.1 38.6992 132.9 39.0992 134.7 39.5992C136.5 39.9992 138.2 40.7992 139.8 41.6992C141.4 42.5992 143 43.5992 144.5 44.9992L144.4 45.3992C142.4 45.5992 140.5 45.2992 138.7 44.9992C136.9 44.6992 135.1 44.1992 133.4 43.3992C131.7 42.5992 130 41.7992 128.3 41.0992C126.6 40.3992 124.9 39.5992 123.2 38.7992H123.8L119.9 39.4992C118.6 39.6992 117.3 39.9992 116 40.1992L115.9 39.7992Z" fill="white" stroke="white"/>
<path d="M0.799926 86.8008C2.19993 97.3008 4.49993 107.601 7.79993 117.501C11.2999 127.301 15.8999 136.601 22.8999 144.001C24.5999 145.801 26.4999 147.501 28.4999 149.101C30.5999 150.701 32.5999 152.201 34.7999 153.701C39.0999 156.601 43.5999 159.301 48.1999 161.601C52.8999 163.901 57.5999 166.001 62.5999 167.801C67.4999 169.501 72.5999 171.001 77.7999 172.001C72.4999 172.101 67.0999 171.201 61.8999 170.101C56.6999 168.901 51.4999 167.201 46.5999 165.101C41.5999 163.001 36.7999 160.501 32.1999 157.701C29.8999 156.301 27.6999 154.701 25.4999 153.101C23.2999 151.501 21.1999 149.601 19.2999 147.601C15.4999 143.601 12.3999 138.901 9.79993 134.101C7.29993 129.201 5.39993 124.101 3.99993 118.901C3.29993 116.301 2.69993 113.701 2.19993 111.001C1.69993 108.401 1.39993 105.701 1.09993 103.001C0.599926 97.4008 0.299926 92.1008 0.799926 86.8008Z" fill="white" stroke="white"/>
</g>
</svg>
