<svg viewBox="0 0 358 673" fill="none" xmlns="http://www.w3.org/2000/svg">
<path d="M142.233 107.051C141.247 101.311 139.901 95.9298 138.107 90.7279C136.314 85.5261 133.982 80.5933 131.202 75.9296C128.421 71.2659 125.193 66.8713 121.515 62.8354C117.838 58.7098 113.713 55.0326 109.139 51.3555C114.879 52.6111 120.26 55.4811 124.834 59.2479C129.498 63.0147 133.444 67.5888 136.493 72.7906C139.542 77.9027 141.695 83.6427 142.771 89.4723C143.847 95.302 143.847 101.401 142.233 107.051Z" fill="white" stroke="white"/>
<path d="M167.526 96.1081C168.333 92.6103 169.051 89.2022 169.589 85.7941C169.858 84.09 170.037 82.386 170.217 80.6819L170.665 75.4801C171.024 71.9823 171.383 68.4845 171.652 65.1661C171.741 63.4621 171.831 61.8477 171.831 60.1437C171.831 59.3365 171.831 58.5293 171.741 57.6324C171.741 56.7356 171.652 55.9284 171.652 55.1212C171.293 48.305 170.396 41.5785 168.782 34.9417C167.257 28.3049 164.925 21.7578 162.414 15.0312C167.167 20.4125 170.934 26.6905 173.535 33.417C176.136 40.2332 177.571 47.4979 177.93 54.6728C178.02 55.5697 178.02 56.4665 178.02 57.3634C178.02 58.2603 178.109 59.1571 178.02 60.1437C177.93 62.0271 177.84 63.9105 177.571 65.7043C177.033 69.2917 176.315 72.7895 175.508 76.1976L174.88 78.7985C174.701 79.6954 174.432 80.5922 174.253 81.3994C173.804 83.1932 173.176 84.8972 172.549 86.5116C171.921 88.2156 171.203 89.83 170.306 91.4444C169.499 93.1484 168.602 94.6731 167.526 96.1081Z" fill="white" stroke="white"/>
<path d="M205.463 103.284C205.732 93.867 206.808 84.6292 208.602 75.3915C210.396 66.1538 212.997 57.0954 216.584 48.3061C220.082 39.5168 224.566 31.0862 230.127 23.3732C235.687 15.6601 242.324 8.75425 250.037 3.37305C244.118 10.6377 238.826 18.1714 234.252 26.0638C229.678 33.9562 225.732 42.2074 222.324 50.638C218.916 59.0685 216.046 67.7681 213.355 76.5574C210.754 85.3467 208.333 94.3154 205.463 103.284Z" fill="white" stroke="white"/>
<path d="M233.445 115.75C236.405 110.01 240.62 104.898 245.463 100.503C250.306 96.1088 255.777 92.3419 261.607 89.472C267.526 86.5123 273.804 84.4495 280.172 83.2836C280.979 83.1042 281.787 83.0145 282.594 82.9248L285.015 82.6558C286.63 82.4764 288.244 82.4764 289.858 82.3867C291.473 82.3867 293.087 82.3867 294.701 82.5661C296.316 82.7455 297.93 82.9248 299.544 83.1042C298.02 83.5526 296.405 83.9114 294.881 84.2701C293.356 84.7186 291.831 85.0773 290.307 85.4361L285.822 86.6917C284.298 87.2298 282.863 87.5885 281.428 88.1267C275.598 90.0998 269.858 92.4316 264.387 95.1222C258.916 97.8128 253.625 100.952 248.513 104.36C243.311 107.768 238.378 111.625 233.445 115.75Z" fill="white" stroke="white"/>
<path d="M250.217 54.494C249.858 53.328 250.217 52.0724 250.755 50.9962C251.293 49.92 252.1 49.0231 252.997 48.1262C254.791 46.4222 256.853 44.9872 259.185 43.8213C261.517 42.745 264.118 41.8481 266.988 41.9378C268.423 41.9378 269.948 42.1172 271.472 42.8347C271.831 43.0141 272.28 43.2831 272.638 43.4625C272.997 43.7316 273.446 44.0006 273.804 44.3594C274.522 45.0769 275.15 46.0634 275.508 47.1397C275.777 48.2159 275.777 49.4715 275.598 50.4581C275.508 50.9962 275.329 51.4446 275.15 51.8931C274.97 52.2518 274.701 52.7002 274.522 53.059C273.535 54.494 272.369 55.4805 271.203 56.198C268.782 57.7227 266.181 58.4402 263.58 58.7093C260.979 58.9783 258.468 58.8886 256.046 58.3505C254.88 58.0814 253.625 57.7227 252.638 57.0949C251.472 56.5568 250.575 55.6599 250.217 54.494ZM250.217 54.494C250.575 55.6599 251.562 56.4671 252.638 56.9155C253.714 57.364 254.88 57.5433 256.046 57.5433C258.378 57.5433 260.62 56.7361 262.593 55.7496C264.567 54.6734 266.36 53.4177 267.706 51.9828C268.333 51.2653 268.872 50.5478 269.23 49.92C269.32 49.7406 269.32 49.6509 269.41 49.4715C269.41 49.3818 269.499 49.2025 269.499 49.2025C269.499 49.0231 269.499 49.0231 269.499 48.9334C269.499 48.9334 269.499 48.8437 269.41 48.754C269.41 48.6643 269.23 48.5746 269.23 48.485C269.141 48.3953 269.051 48.3056 268.871 48.2159C268.333 47.8572 267.437 47.4984 266.54 47.319C264.656 46.8706 262.414 46.6912 260.172 46.8706C257.93 47.05 255.598 47.5881 253.625 48.8437C252.638 49.4715 251.741 50.189 251.024 51.1756C250.306 52.0724 249.948 53.328 250.217 54.494Z" fill="white" stroke="white"/>
<path d="M199.993 26.6023C198.827 26.692 197.661 26.0642 196.764 25.257C195.867 24.4498 195.06 23.4632 194.432 22.387C193.176 20.3242 192.19 17.9027 191.562 15.3914C191.024 12.8802 190.755 10.1896 191.383 7.40931C191.741 5.97433 192.28 4.62902 193.266 3.19403C193.535 2.83529 193.804 2.47654 194.163 2.20748C194.522 1.84873 194.88 1.57967 195.329 1.31061C196.226 0.772493 197.302 0.413748 198.468 0.234375C199.634 0.234375 200.8 0.413746 201.697 0.862179C202.145 1.04155 202.594 1.31061 202.952 1.66936C203.311 1.93842 203.67 2.29717 203.939 2.56623C205.105 3.82184 205.822 5.16715 206.271 6.51245C207.257 9.20305 207.347 11.8937 207.078 14.4946C206.809 17.0955 206.091 19.517 205.105 21.7592C204.567 22.8354 203.939 23.9117 203.132 24.8085C202.235 25.7951 201.159 26.5126 199.993 26.6023ZM199.993 26.6023C201.159 26.5126 202.235 25.7951 202.952 24.8085C203.67 23.822 204.029 22.7457 204.298 21.5798C204.746 19.3376 204.477 16.9161 203.939 14.7636C203.401 12.6111 202.504 10.5483 201.428 8.93399C200.89 8.12681 200.262 7.40931 199.813 7.05057C199.724 6.87119 199.544 6.87119 199.455 6.7815C199.365 6.7815 199.275 6.69182 199.185 6.69182C199.006 6.60213 199.006 6.69182 198.916 6.60213C198.916 6.60213 198.827 6.60213 198.647 6.69182C198.558 6.69182 198.468 6.78151 198.378 6.8712C198.289 6.96088 198.109 7.05056 198.019 7.14025C197.571 7.58869 197.033 8.39587 196.585 9.20305C195.688 10.9071 195.06 13.0596 194.701 15.3017C194.432 17.5439 194.432 19.8758 195.15 22.1179C195.508 23.1942 196.046 24.2704 196.854 25.1673C197.571 26.0642 198.737 26.6023 199.993 26.6023Z" fill="white" stroke="white"/>
<path d="M20.5293 296.021C19.6325 298.084 19.184 300.326 18.915 302.658C18.8253 303.824 18.7356 304.9 18.7356 306.066C18.6459 307.232 18.6459 308.398 18.7356 309.474C18.7356 311.716 19.0046 313.959 19.7221 316.021C20.3499 318.084 21.5159 319.699 22.9509 320.775C24.3859 321.851 26.4487 322.479 28.6011 323.107C29.6774 323.465 30.7536 323.824 31.8298 324.093L33.4442 324.542L35.0586 324.99C39.3636 326.156 43.7582 327.053 48.1528 327.86C56.9421 329.295 66.1799 330.013 75.1485 328.398C79.6329 327.591 84.0275 326.246 87.346 323.286C88.1531 322.569 88.9603 321.761 89.6778 320.954C90.0365 320.506 90.3953 320.057 90.6644 319.609C91.0231 319.16 91.3819 318.712 91.6509 318.264L92.5478 316.829L93.2653 315.394C93.5343 314.945 93.7137 314.407 93.9827 313.869C94.1621 313.331 94.4312 312.882 94.6106 312.344C96.1352 308.219 96.6734 303.824 96.4043 299.609C96.4043 298.532 96.225 297.456 96.0456 296.47C95.8662 295.393 95.6868 294.407 95.328 293.42C95.059 292.434 94.7003 291.447 94.3415 290.461C93.8931 289.564 93.5343 288.488 93.0859 287.68C92.6374 286.873 92.0994 286.156 91.5612 285.707C91.0231 285.259 90.485 284.99 89.6778 284.721C88.1531 284.183 86.0903 284.183 83.7585 284.183C79.0051 284.093 74.431 283.824 69.9467 283.555C65.3727 283.286 60.8884 283.106 56.404 283.106C51.9197 283.106 47.4354 283.106 42.951 283.465C38.4667 283.914 34.072 284.721 30.0361 286.694C25.8208 288.488 22.3231 291.806 20.5293 296.021ZM19.9015 295.752C21.7849 291.447 25.0136 287.77 28.9599 285.169C30.933 283.824 33.0854 282.658 35.2379 281.761C37.3904 280.775 39.7223 280.057 41.9644 279.34C46.5385 278.084 51.2919 277.277 56.0453 277.008C60.7987 276.739 65.4624 276.739 70.1261 276.918C74.7898 277.097 79.3638 277.366 83.9379 277.635C86.18 277.725 88.8706 277.815 91.7406 278.801C93.1756 279.34 94.6105 280.147 95.7765 281.313C96.9424 282.479 97.6599 283.734 98.2878 284.9C98.9156 286.066 99.2743 287.232 99.7227 288.488C100.081 289.743 100.44 290.909 100.709 292.165C101.247 294.586 101.516 297.098 101.337 299.609C101.337 300.237 101.337 300.864 101.247 301.492C101.158 302.12 101.158 302.748 101.068 303.376L100.709 305.169C100.62 305.797 100.44 306.335 100.261 306.963C99.633 309.295 98.8259 311.627 97.6599 313.779C95.4178 318.084 92.3684 321.941 88.6015 324.9C86.7181 326.335 84.5656 327.591 82.3235 328.398C80.0813 329.205 77.8392 329.833 75.5073 330.282C66.4489 332.344 56.9422 333.69 47.4354 332.972C42.682 332.613 38.0182 331.717 33.4442 330.282C31.202 329.564 28.9599 328.757 26.8074 327.77C25.7312 327.322 24.6549 326.784 23.489 326.156C22.4127 325.528 21.2468 324.721 20.2603 323.734C18.2872 321.672 17.3006 319.071 17.0315 316.56C16.7625 314.048 16.9419 311.716 17.2109 309.385C17.48 307.053 17.8387 304.811 18.1974 302.479C18.4665 300.237 19.0047 297.905 19.9015 295.752Z" fill="white" stroke="white"/>
<path d="M77.2998 313.599C78.376 312.792 79.4522 311.985 80.2594 310.998C81.1563 310.012 81.6944 308.756 81.9635 307.501C82.2325 306.245 82.1428 304.9 82.0531 303.554C81.8738 302.209 81.6944 300.953 81.4253 299.608C81.1563 298.353 80.7078 297.097 80.08 296.11C79.4522 295.124 78.4657 294.406 77.3894 294.048C76.3132 293.689 75.0576 293.599 73.7123 293.599L69.766 293.509C67.1651 293.42 64.4745 293.42 61.8736 293.509C59.2727 293.599 56.7615 293.779 54.2503 294.137C51.8287 294.496 49.4968 295.124 47.3444 296.021C46.2681 296.469 45.2816 297.007 44.295 297.635C43.3085 298.263 42.4116 298.891 41.6044 299.698C39.9901 301.223 38.6447 302.927 37.9273 304.9C37.5685 305.886 37.2995 306.873 37.1201 308.039C37.0304 309.115 36.9407 310.281 37.0304 311.267C37.1201 312.254 37.3892 313.151 37.8376 313.868C38.3757 314.676 39.0035 315.393 39.9004 315.931C40.7972 316.559 41.8735 317.007 42.9497 317.366C44.026 317.725 45.2816 317.904 46.5372 317.994C49.0484 318.173 51.739 318.084 54.4296 318.173C55.7749 318.173 57.2099 318.442 58.4655 318.532C59.7212 318.622 60.9768 318.532 62.2324 318.173C63.488 317.815 64.8333 317.456 66.1786 317.276C67.5239 317.007 68.8692 316.918 70.1248 316.828C70.7526 316.738 71.4701 316.738 72.0979 316.649C72.7257 316.469 73.3535 316.2 73.8917 315.931C75.237 315.303 76.2235 314.317 77.2998 313.599ZM77.2998 313.599C68.6001 319.698 57.2099 319.608 46.7166 321.312C43.9363 321.581 40.7973 321.312 38.017 319.967C36.582 319.339 35.147 318.353 34.0707 317.007C32.9048 315.662 32.1873 313.958 31.8286 312.344C31.4698 310.729 31.3802 309.205 31.4699 307.68C31.5595 306.155 31.7389 304.541 32.277 303.016C33.2636 299.877 35.147 297.276 37.4788 295.124C39.8107 293.061 42.4116 291.536 45.2816 290.46C48.1516 289.474 51.0216 288.935 53.8915 288.846C56.7615 288.666 59.5418 288.846 62.2324 289.205C64.923 289.563 67.5239 289.922 70.2145 290.46L74.1607 291.178C75.506 291.447 76.8513 291.716 78.2863 292.433C79.6316 293.061 80.7975 294.227 81.4253 295.572C82.0531 296.918 82.3222 298.263 82.5016 299.608C82.6809 300.953 82.6809 302.299 82.7706 303.644C82.8603 304.989 82.7707 306.335 82.4119 307.68C82.1428 309.025 81.4253 310.191 80.5285 311.178C79.4522 311.985 78.376 312.792 77.2998 313.599Z" fill="white" stroke="white"/>
<path d="M228.782 267.769C229.23 270.011 230.127 272.074 231.293 274.047C231.831 275.034 232.459 276.02 233.087 277.007C233.715 277.993 234.342 278.89 235.06 279.877C236.405 281.671 237.93 283.375 239.634 284.72C241.338 286.065 243.221 286.783 245.015 286.783C246.809 286.783 248.782 286.155 250.934 285.437C252.011 285.079 253.087 284.81 254.073 284.361L255.688 283.823L257.212 283.195C261.428 281.671 265.464 279.877 269.5 277.993C277.571 274.137 285.464 269.384 291.832 262.836C295.06 259.608 297.841 256.02 298.827 251.715C299.096 250.639 299.276 249.563 299.365 248.487C299.455 247.948 299.455 247.41 299.455 246.872C299.455 246.334 299.545 245.796 299.455 245.258L299.365 243.643L299.186 242.029C299.096 241.491 299.006 240.953 298.917 240.415C298.827 239.877 298.737 239.338 298.558 238.8C297.392 234.585 295.329 230.729 292.639 227.41C292.011 226.603 291.204 225.796 290.576 224.989C289.769 224.271 289.051 223.464 288.244 222.836C287.437 222.119 286.54 221.58 285.733 220.953C284.836 220.415 283.939 219.787 283.042 219.428C282.145 218.98 281.338 218.711 280.71 218.711C280.083 218.621 279.365 218.71 278.648 218.98C277.123 219.428 275.419 220.594 273.535 221.939C269.679 224.63 265.733 226.962 261.876 229.383C258.02 231.805 254.163 234.226 250.486 236.827C246.809 239.428 243.132 241.939 239.724 244.899C236.315 247.769 233.176 250.998 230.934 254.944C228.782 258.621 227.885 263.285 228.782 267.769ZM228.244 267.949C227.257 263.375 227.795 258.531 229.499 254.047C230.306 251.805 231.383 249.652 232.638 247.59C233.894 245.527 235.329 243.643 236.764 241.76C239.813 238.083 243.221 234.764 246.898 231.715C250.576 228.755 254.432 226.065 258.289 223.554C262.145 221.042 266.181 218.621 269.948 216.289C271.831 215.123 274.074 213.598 277.033 212.791C278.468 212.432 280.172 212.253 281.787 212.522C283.401 212.791 284.746 213.419 285.912 214.047C287.078 214.675 288.065 215.392 289.141 216.11C290.127 216.917 291.114 217.634 292.011 218.531C293.805 220.235 295.509 222.119 296.854 224.271C297.213 224.809 297.572 225.347 297.841 225.885C298.11 226.424 298.468 226.962 298.737 227.5L299.545 229.204C299.814 229.742 299.993 230.37 300.262 230.908C301.069 233.24 301.787 235.572 302.056 237.993C302.773 242.836 302.415 247.679 301.069 252.343C300.352 254.675 299.276 256.827 297.93 258.8C296.585 260.774 295.06 262.567 293.446 264.271C287.168 271.177 280.262 277.724 272.1 282.657C267.975 285.079 263.67 287.052 259.096 288.487C256.854 289.204 254.522 289.832 252.19 290.281C251.024 290.55 249.858 290.729 248.603 290.819C247.347 290.908 245.912 290.908 244.567 290.729C241.786 290.191 239.454 288.576 237.75 286.693C236.046 284.81 234.88 282.747 233.715 280.684C232.638 278.621 231.562 276.558 230.576 274.496C229.589 272.433 228.692 270.191 228.244 267.949Z" fill="white" stroke="white"/>
<path d="M286.001 249.294C286.36 248.038 286.809 246.783 286.988 245.437C287.167 244.092 286.898 242.747 286.36 241.581C285.822 240.415 285.015 239.339 284.118 238.352C283.221 237.366 282.324 236.379 281.338 235.482C280.351 234.585 279.365 233.778 278.199 233.419C277.033 232.971 275.957 232.971 274.791 233.33C273.714 233.688 272.638 234.316 271.472 235.034L268.154 237.276C266.001 238.711 263.759 240.325 261.696 241.85C259.634 243.375 257.66 244.989 255.867 246.783C254.073 248.487 252.548 250.37 251.293 252.343C250.665 253.33 250.127 254.406 249.678 255.393C249.23 256.469 248.871 257.545 248.692 258.621C248.243 260.774 248.154 262.926 248.692 264.989C248.961 265.976 249.32 266.962 249.858 267.949C250.396 268.935 251.024 269.922 251.741 270.639C252.459 271.447 253.086 271.895 253.894 272.343C254.701 272.702 255.777 272.882 256.853 272.882C257.93 272.882 259.095 272.612 260.172 272.254C261.248 271.895 262.414 271.357 263.49 270.729C265.643 269.473 267.795 267.859 270.037 266.334C271.203 265.527 272.459 264.899 273.535 264.272C274.611 263.644 275.598 262.837 276.405 261.76C277.212 260.774 278.109 259.698 279.096 258.711C280.082 257.724 281.069 256.917 282.145 256.11C282.683 255.662 283.221 255.303 283.67 254.854C284.118 254.406 284.477 253.778 284.746 253.15C285.374 251.895 285.643 250.55 286.001 249.294ZM286.001 249.294C282.414 259.249 272.997 265.796 265.463 273.24C263.311 275.034 260.62 276.559 257.571 277.187C256.046 277.456 254.342 277.456 252.638 277.007C250.934 276.559 249.32 275.572 248.154 274.496C246.898 273.33 246.001 272.164 245.194 270.908C244.387 269.563 243.669 268.218 243.221 266.603C242.234 263.554 242.234 260.236 242.952 257.186C243.669 254.137 244.925 251.357 246.629 248.935C248.333 246.424 250.486 244.451 252.728 242.657C254.97 240.863 257.302 239.428 259.723 238.173C262.145 236.917 264.566 235.751 266.988 234.585L270.665 232.881C271.921 232.343 273.266 231.805 274.701 231.536C276.226 231.267 277.84 231.536 279.096 232.253C280.351 232.971 281.338 233.957 282.235 234.944C283.132 235.931 283.939 237.007 284.746 238.083C285.553 239.159 286.271 240.325 286.809 241.581C287.347 242.836 287.436 244.182 287.257 245.527C286.898 246.783 286.45 248.038 286.001 249.294Z" fill="white" stroke="white"/>
<path d="M82.6813 312.524C84.2957 313.51 86.2688 313.869 88.2419 313.78C90.215 313.78 92.0984 313.421 94.0715 313.062C97.9281 312.434 101.874 311.806 105.82 311.448C113.713 310.73 121.605 310.91 129.408 311.358C133.265 311.537 137.211 311.806 141.067 311.896C144.924 311.986 148.87 311.896 152.727 311.448C154.61 311.179 156.673 310.999 158.377 310.371C159.184 310.102 159.991 309.654 160.529 309.026C161.068 308.398 161.337 307.591 161.516 306.694C161.785 304.901 162.054 302.838 161.785 301.134C161.606 300.237 161.337 299.519 160.888 298.892C160.44 298.353 159.812 297.995 159.005 297.905C158.287 297.726 157.39 297.815 156.404 297.905L153.444 298.174C151.471 298.353 149.498 298.443 147.525 298.533C143.579 298.712 139.632 298.802 135.686 298.802L112.188 298.892H106.359H103.399C102.412 298.892 101.426 298.892 100.439 298.802C96.4931 298.712 92.7263 298.353 88.8697 298.622C86.9863 298.712 85.1028 298.892 83.3988 299.519C82.5916 299.788 81.6947 300.147 80.9772 300.596C80.2598 301.044 79.7216 301.761 79.3629 302.569C78.6454 304.183 78.7351 306.246 79.2732 307.95C79.632 308.847 79.9907 309.744 80.6185 310.461C81.1567 311.268 81.8741 311.986 82.6813 312.524ZM82.5019 312.883C80.7979 311.806 79.5423 310.102 78.7351 308.309C78.0176 306.425 77.6588 304.273 78.2866 302.21C78.5557 301.134 79.1835 300.237 79.9907 299.43C80.7979 298.622 81.6948 298.174 82.6813 297.636C84.5647 296.739 86.5378 296.111 88.6006 295.752C92.6365 294.945 96.5828 294.676 100.529 294.587L103.399 294.497L106.269 294.317C108.242 294.228 110.215 294.138 112.188 294.138C120.081 293.959 127.973 294.317 135.776 294.587L147.525 294.945L153.354 295.125L156.314 295.214C157.301 295.214 158.467 295.304 159.543 295.573C160.709 295.932 161.875 296.649 162.503 297.726C163.22 298.712 163.489 299.878 163.579 300.954C163.668 302.031 163.579 303.107 163.489 304.093C163.399 305.08 163.22 306.066 162.951 307.053C162.682 308.04 162.323 309.116 161.516 310.013C160.798 310.91 159.722 311.448 158.736 311.806C156.763 312.434 154.789 312.614 152.816 312.972C145.014 314.228 137.121 315.035 129.229 315.125C121.336 315.304 113.534 314.766 105.82 314.318C101.964 314.138 98.0177 313.959 94.1612 314.228C92.1881 314.318 90.215 314.497 88.2419 314.407C86.2688 314.318 84.206 313.869 82.5019 312.883Z" fill="white" stroke="white"/>
<path d="M2.95037 311.985C3.3988 312.434 3.93693 312.882 4.47505 313.151C5.10286 313.42 5.7307 313.51 6.35851 313.6C7.70381 313.689 8.95939 313.42 10.3047 313.151C12.9953 312.703 15.7756 312.434 18.5559 312.344C24.1165 312.165 29.4977 312.972 34.6995 313.779C37.3004 314.228 39.9013 314.586 42.5919 314.766C43.2197 314.766 43.9372 314.855 44.565 314.855H46.5382C47.166 314.855 47.8835 314.766 48.5113 314.676C49.1391 314.586 49.8566 314.497 50.3947 314.317C51.5606 313.959 52.2781 313.151 52.7265 311.985C53.1749 310.819 53.3543 309.474 53.5337 308.129C53.7131 306.784 53.8027 305.528 53.6234 304.272C53.5337 303.017 52.9956 301.94 52.3678 301.671C52.0987 301.582 51.6503 301.492 51.0225 301.492L48.9597 301.582C47.6144 301.671 46.1794 301.671 44.8341 301.582C42.1435 301.492 39.3632 301.313 36.6726 301.133C31.2914 300.685 25.9102 300.236 20.7084 299.878C20.0806 299.788 19.3631 299.788 18.7353 299.788C18.1075 299.788 17.3003 299.698 16.5828 299.609L12.5469 299.16C10.0356 298.891 7.5244 298.622 5.37192 299.25C4.8338 299.429 4.29567 299.609 3.84724 299.878C3.57818 300.057 3.48853 300.147 3.21947 300.326C3.0401 300.505 2.86069 300.685 2.68132 300.954C2.05351 301.94 1.60511 303.106 1.42574 304.452C1.24636 305.707 1.24636 307.053 1.42574 308.398C1.6948 309.654 2.14319 310.999 2.95037 311.985ZM2.68132 312.254C1.78445 311.178 1.24633 309.833 0.887584 308.488C0.528837 307.142 0.349452 305.797 0.259766 304.362C0.259766 302.927 0.349463 301.492 0.887584 300.057C0.97727 299.698 1.24636 299.34 1.42574 298.981C1.6948 298.622 1.96382 298.263 2.23288 297.994C2.77101 297.456 3.48853 296.918 4.11634 296.559C6.98631 295.035 10.0356 294.766 12.8159 294.855C14.2509 294.855 15.5962 294.945 16.8518 295.035L20.798 295.124C26.2689 295.304 31.6501 296.201 37.0313 296.918L45.0135 297.994L48.9597 298.532L50.9328 298.801C51.6503 298.891 52.6369 298.981 53.444 299.609C54.3409 300.147 54.7893 301.044 55.0584 301.851C55.3275 302.658 55.3274 303.375 55.4171 304.183C55.4171 305.618 55.148 307.053 54.9687 308.398C54.6996 309.743 54.4306 311.089 53.9821 312.434C53.7131 313.151 53.3543 313.779 52.8162 314.407C52.2781 315.035 51.5606 315.393 50.8431 315.663C50.1256 315.932 49.4081 316.111 48.7803 316.201C48.0628 316.38 47.435 316.47 46.7175 316.649L44.6547 317.008L42.5919 317.277C39.8116 317.546 37.0313 317.636 34.3407 317.546C28.8698 317.277 23.5783 316.201 18.3765 315.214C15.7756 314.766 13.085 314.317 10.3944 314.317C9.04911 314.317 7.70378 314.407 6.26879 314.228C4.92349 313.959 3.57819 313.331 2.68132 312.254Z" fill="white" stroke="white"/>
<path d="M187.884 302.209C189.768 302.478 191.741 301.94 193.445 301.133C195.239 300.326 196.853 299.25 198.467 298.173C201.786 296.021 205.104 293.868 208.602 291.985C215.508 288.128 222.862 285.169 230.127 282.388C233.804 281.043 237.391 279.698 241.069 278.173C244.656 276.738 248.154 275.034 251.562 273.061C253.176 271.985 254.97 271.088 256.315 269.832C256.943 269.205 257.481 268.487 257.75 267.68C258.019 266.873 257.93 265.976 257.75 265.079C257.302 263.285 256.674 261.402 255.777 259.877C255.329 259.16 254.701 258.532 254.073 258.263C253.445 257.904 252.728 257.904 252.01 258.083C251.293 258.263 250.486 258.621 249.679 259.07L247.078 260.505C245.374 261.402 243.58 262.388 241.786 263.196C238.288 264.989 234.701 266.604 231.113 268.218L209.409 277.904L204.118 280.326L201.427 281.581C200.53 282.03 199.544 282.388 198.647 282.747C194.97 284.182 191.382 285.527 187.974 287.232C186.27 288.128 184.656 289.025 183.31 290.281C182.683 290.909 181.965 291.537 181.517 292.254C181.068 292.971 180.799 293.779 180.799 294.676C180.799 296.469 181.696 298.263 182.952 299.698C183.579 300.415 184.297 301.043 185.194 301.492C186.001 301.761 186.898 302.12 187.884 302.209ZM187.795 302.658C185.732 302.389 183.938 301.312 182.503 299.967C181.068 298.532 179.902 296.738 179.633 294.586C179.454 293.51 179.633 292.344 180.082 291.357C180.53 290.281 181.158 289.474 181.786 288.667C183.131 287.052 184.745 285.707 186.36 284.541C189.678 282.209 193.266 280.326 196.763 278.622L199.364 277.366L201.965 276.021C203.759 275.124 205.553 274.317 207.257 273.42C214.432 270.101 221.786 267.231 228.961 264.361L239.813 259.967L245.194 257.725L247.885 256.559C248.782 256.2 249.858 255.752 251.024 255.572C252.19 255.393 253.535 255.662 254.611 256.29C255.688 256.917 256.405 257.904 256.943 258.801C257.481 259.787 257.84 260.774 258.109 261.671C258.378 262.657 258.647 263.554 258.827 264.63C259.006 265.617 259.096 266.783 258.737 267.859C258.378 268.935 257.661 269.832 256.943 270.55C255.329 271.985 253.714 272.882 252.01 274.048C245.374 278.353 238.468 282.299 231.293 285.527C224.118 288.846 216.853 291.537 209.499 294.227C205.822 295.662 202.234 297.097 198.737 298.801C196.943 299.698 195.239 300.685 193.355 301.402C191.831 302.478 189.858 302.927 187.795 302.658Z" fill="white" stroke="white"/>
<path d="M281.159 251.715C283.043 251.357 284.657 250.191 286.092 248.845C287.527 247.5 288.693 245.975 289.859 244.361C292.28 241.222 294.792 238.173 297.392 235.213C302.684 229.294 308.603 224.092 314.612 219.159C317.662 216.648 320.621 214.226 323.581 211.625C326.541 209.024 329.231 206.334 331.832 203.374C332.998 201.85 334.433 200.415 335.24 198.8C335.689 197.993 335.868 197.186 335.868 196.289C335.868 195.482 335.509 194.675 334.971 193.867C333.985 192.343 332.729 190.728 331.384 189.652C330.666 189.114 329.949 188.755 329.231 188.666C328.514 188.576 327.796 188.755 327.168 189.204C326.541 189.652 325.913 190.28 325.285 190.908L323.312 193.06C321.967 194.495 320.621 195.93 319.276 197.365C316.496 200.145 313.626 202.926 310.845 205.616L293.715 221.67L289.5 225.706L287.168 227.679C286.451 228.397 285.643 229.025 284.926 229.652C281.966 232.253 278.917 234.585 276.316 237.365C274.971 238.711 273.805 240.146 272.818 241.76C272.37 242.567 271.921 243.374 271.832 244.182C271.652 244.989 271.652 245.886 272.011 246.693C272.549 248.397 273.984 249.832 275.688 250.729C276.495 251.177 277.392 251.536 278.379 251.715C279.276 251.895 280.173 251.895 281.159 251.715ZM281.249 252.164C279.276 252.523 277.213 252.164 275.329 251.357C273.536 250.46 271.832 249.114 270.845 247.231C270.307 246.244 270.128 245.168 270.217 244.002C270.307 242.836 270.576 241.85 270.935 240.863C271.652 238.89 272.818 237.096 273.984 235.482C276.406 232.164 279.186 229.294 281.966 226.513L284.029 224.451L286.092 222.388C287.437 220.953 288.872 219.608 290.307 218.173C295.957 212.702 301.966 207.589 307.886 202.477L316.765 194.764L321.159 190.908L323.312 188.935C324.029 188.307 324.926 187.5 326.003 187.051C327.079 186.513 328.424 186.244 329.59 186.603C330.846 186.872 331.832 187.589 332.55 188.307C333.357 189.024 333.985 189.832 334.612 190.728C335.24 191.536 335.778 192.343 336.227 193.24C336.765 194.136 337.124 195.213 337.213 196.379C337.213 197.545 336.855 198.621 336.406 199.518C335.42 201.401 334.074 202.836 332.908 204.361C328.065 210.549 322.774 216.558 317.124 222.029C311.473 227.5 305.375 232.433 299.366 237.365C296.406 239.877 293.446 242.388 290.666 245.258C289.321 246.693 287.975 248.128 286.451 249.384C284.926 250.639 283.222 251.805 281.249 252.164Z" fill="white" stroke="white"/>
<path d="M293.781 447.713C299.251 447.085 304.812 447.444 310.104 448.879C315.395 450.314 320.418 452.735 324.902 455.874C333.871 462.152 341.045 470.762 346.068 480.448C348.579 485.292 350.642 490.314 352.077 495.606C353.422 500.897 354.05 506.458 353.602 511.929C353.153 517.399 351.539 522.781 348.848 527.624C346.158 532.467 342.48 536.772 337.727 539.642C332.974 542.601 327.144 543.767 321.583 542.781C318.803 542.332 316.113 541.256 313.781 539.552C311.449 537.848 309.655 535.426 308.669 532.826C307.682 530.135 307.413 527.086 308.31 524.305C309.296 521.435 311.359 519.193 313.691 517.668C316.023 516.054 318.713 514.978 321.404 514.26C324.095 513.633 326.965 513.274 329.745 513.543C335.306 513.991 340.776 516.144 345.171 519.552C347.413 521.256 349.386 523.319 351.001 525.561C352.615 527.893 353.96 530.314 354.947 532.915C357.01 538.117 357.817 543.678 357.907 549.238C357.907 554.799 357.189 560.27 355.933 565.561C355.306 568.252 354.499 570.853 353.602 573.454C352.615 576.055 351.629 578.566 350.373 581.077C347.951 586.01 344.812 590.673 341.225 594.799C337.548 598.925 333.243 602.602 328.22 605.203C323.288 607.893 317.548 609.239 311.897 609.149C306.247 609.059 300.507 607.355 295.754 604.037C293.422 602.333 291.359 600.18 289.834 597.669C289.117 596.413 288.399 595.068 287.951 593.723C287.503 592.378 287.054 590.943 286.964 589.328C286.785 587.804 287.054 586.01 287.772 584.485C288.489 583.05 289.476 581.795 290.552 580.808C292.704 578.745 295.485 577.221 298.355 576.503C301.225 575.786 304.274 575.785 307.144 576.413C310.014 577.041 312.794 578.297 315.126 580.27C315.664 580.808 316.292 581.256 316.74 581.794L317.458 582.602C317.727 582.871 317.906 583.23 318.086 583.499C318.983 584.664 319.7 585.92 320.328 587.265C321.584 589.866 322.301 592.736 322.66 595.517C323.467 601.167 322.929 606.817 321.763 612.198C321.225 614.889 320.418 617.579 319.521 620.18C318.624 622.781 317.548 625.382 316.382 627.804C314.05 632.826 311.09 637.49 307.682 641.885C304.364 646.279 300.507 650.225 296.382 653.813C292.256 657.4 287.772 660.629 283.018 663.32C278.265 666.01 273.153 668.163 267.951 669.777C262.659 671.392 257.278 672.199 251.807 672.288C251.359 672.288 251 671.93 251 671.571C251 671.123 251.269 670.853 251.718 670.764C262.39 670.136 272.704 666.548 281.763 661.078C286.337 658.387 290.642 655.158 294.588 651.66C298.534 648.073 302.121 644.216 305.26 639.911C308.4 635.696 311.27 631.122 313.422 626.369C314.588 624.037 315.485 621.526 316.382 619.014C317.189 616.503 317.906 613.992 318.444 611.391C319.521 606.279 319.969 600.987 319.162 595.875C318.803 593.364 318.086 590.853 317.099 588.611C316.023 586.369 314.588 584.306 312.794 582.781C311 581.256 308.669 580.18 306.337 579.642C304.005 579.104 301.494 579.104 299.162 579.642C296.83 580.27 294.677 581.436 292.973 583.05C292.077 583.857 291.359 584.844 290.911 585.741C290.462 586.727 290.283 587.714 290.372 588.79C290.462 589.866 290.821 591.122 291.18 592.288C291.538 593.454 292.166 594.53 292.794 595.606C294.05 597.669 295.754 599.552 297.816 600.987C301.852 603.947 306.965 605.382 312.077 605.561C317.189 605.741 322.301 604.575 326.875 602.153C331.539 599.822 335.575 596.413 339.072 592.557C342.57 588.611 345.53 584.216 347.951 579.552C349.207 577.22 350.194 574.799 351.18 572.288C352.077 569.776 352.884 567.265 353.512 564.664C354.768 559.552 355.575 554.261 355.575 548.969C355.575 543.678 354.857 538.386 352.884 533.543C351.987 531.121 350.732 528.79 349.297 526.637C347.772 524.574 345.978 522.691 343.915 521.077C339.88 517.848 334.857 515.875 329.655 515.337C327.054 515.068 324.453 515.337 321.942 515.964C319.431 516.592 317.009 517.489 314.857 518.924C312.794 520.359 311 522.243 310.193 524.574C309.386 526.906 309.565 529.507 310.462 531.839C311.359 534.171 312.884 536.323 314.947 537.848C317.009 539.373 319.431 540.359 321.942 540.808C327.054 541.794 332.525 540.718 336.92 537.938C341.404 535.157 344.992 531.121 347.503 526.458C350.104 521.794 351.629 516.682 352.077 511.39C352.525 506.099 351.987 500.718 350.642 495.606C349.297 490.493 347.324 485.471 344.812 480.718C339.88 471.3 332.974 462.691 324.184 456.681C319.79 453.632 314.947 451.3 309.835 449.955C304.722 448.61 299.341 448.161 294.05 448.879C293.601 448.968 293.242 448.61 293.242 448.251C293.063 448.161 293.332 447.803 293.781 447.713Z" fill="white" stroke="white"/>
<path d="M291.897 457.04C291 455.875 290.193 454.619 289.476 453.363C288.758 452.108 288.22 450.493 288.22 448.969C288.31 447.444 288.668 446.009 289.117 444.574L289.745 442.511C289.834 442.332 289.834 442.152 289.834 442.063C289.834 441.883 289.834 441.794 289.834 441.614C289.834 441.435 289.834 441.256 289.834 441.076V440.807C289.834 440.807 289.834 440.717 289.834 440.807C289.834 440.807 289.745 440.717 289.924 440.987C290.014 441.076 290.103 441.076 290.193 441.166C290.283 441.256 290.552 441.166 290.731 441.076C290.911 440.897 290.821 440.987 290.821 440.897L290.642 441.166C287.682 443.587 284.543 445.74 281.494 447.892C279.969 448.969 278.444 450.045 276.92 451.121C275.395 452.197 273.96 453.363 272.525 454.529L272.076 452.735L277.368 453.543C279.162 453.812 280.866 454.17 282.57 454.44C284.274 454.798 286.068 455.157 287.772 455.516C289.476 455.875 291.269 456.323 292.973 456.771C293.243 456.861 293.332 457.13 293.332 457.31C293.243 457.489 293.063 457.668 292.884 457.668C291.09 457.579 289.296 457.399 287.592 457.22C285.799 457.04 284.094 456.771 282.301 456.502C280.507 456.233 278.803 455.964 277.099 455.605L271.897 454.709C271.359 454.619 271 454.081 271.09 453.543C271.18 453.274 271.269 453.094 271.449 452.915C272.973 451.659 274.498 450.583 276.112 449.596C277.727 448.52 279.341 447.534 280.955 446.547C284.184 444.574 287.323 442.601 290.283 440.269L290.104 440.538V440.448V440.359C290.104 440.359 290.103 440.359 290.193 440.179C290.373 440 290.642 440 290.731 440C290.821 440 290.911 440.09 291 440.179C291.18 440.448 291.09 440.359 291.09 440.448C291.09 440.538 291.09 440.628 291.09 440.717V440.987C291.09 441.166 291.09 441.345 291.09 441.614C291.09 441.794 291.09 441.973 291 442.242C290.911 442.511 290.911 442.691 290.821 442.87L290.104 444.933C289.655 446.278 289.207 447.713 289.207 449.058C289.117 450.404 289.565 451.749 290.283 453.005C291 454.26 291.897 455.426 292.704 456.592C292.884 456.771 292.794 457.13 292.615 457.22C292.346 457.31 292.077 457.22 291.897 457.04Z" fill="white" stroke="white"/>
</svg>
