<svg viewBox="0 0 71 59" fill="none" xmlns="http://www.w3.org/2000/svg">
<path d="M11.9239 52.9082C11.9239 51.7776 11.1914 50.9804 10.1579 50.9804C9.12433 50.9804 8.33794 51.7776 8.33794 52.9082C8.33794 54.0505 9.12433 54.836 10.1579 54.836C11.1806 54.836 11.9239 54.0505 11.9239 52.9082ZM13.1516 52.9082C13.1516 54.7183 11.9994 55.9981 10.4158 55.9981C9.49011 55.9981 8.77922 55.5469 8.34872 54.8791V58.5613H7.13184V49.9478H8.34872V50.9598C8.77922 50.2812 9.49011 49.8184 10.4266 49.8184C11.9778 49.8184 13.1516 51.0991 13.1516 52.9082Z" fill="white"/>
<path d="M18.7287 52.9082C18.7287 51.7776 17.9423 50.9804 16.9097 50.9804C15.8753 50.9804 15.1437 51.7776 15.1437 52.9082C15.1437 54.0505 15.886 54.836 16.9097 54.836C17.9423 54.836 18.7287 54.0505 18.7287 52.9082ZM19.9348 49.9478V55.8695H18.718V54.8791C18.2875 55.5568 17.5766 55.9981 16.6509 55.9981C15.0682 55.9981 13.916 54.7183 13.916 52.9082C13.916 51.0991 15.0898 49.8184 16.6401 49.8184C17.5766 49.8184 18.2875 50.2812 18.718 50.9598V49.9478H19.9348Z" fill="white"/>
<path d="M26.632 49.9395L22.7126 58.5529H21.4095L22.9706 55.1072L20.6348 49.9395H21.937L23.6168 53.7941L25.3289 49.9395H26.632Z" fill="white"/>
<path d="M36.2259 52.0688V55.8695H35.009V52.3276C35.009 51.4451 34.654 50.9813 33.8353 50.9813C32.8772 50.9813 32.382 51.7246 32.382 52.8013L32.3928 55.8695H31.1651V52.3276C31.1651 51.4451 30.8101 50.9813 29.9914 50.9813C29.0333 50.9813 28.5489 51.7246 28.5489 52.8013V55.8695H27.332V49.9487H28.5489V50.895C28.9578 50.2165 29.5393 49.8184 30.3895 49.8184C31.2946 49.8184 31.93 50.2596 32.2202 51.0568C32.6184 50.292 33.2861 49.8184 34.2226 49.8184C35.4719 49.8184 36.2259 50.6587 36.2259 52.0688Z" fill="white"/>
<path d="M38.433 52.2521H41.8788C41.6954 51.4451 41.0816 50.8744 40.1883 50.8744C39.2626 50.8744 38.638 51.455 38.433 52.2521ZM43.182 53.2434H38.3683C38.4654 54.3309 39.2302 54.9331 40.2206 54.9331C40.9315 54.9331 41.5229 54.6311 41.8033 54.0505H43.0633C42.6005 55.3752 41.469 55.999 40.2098 55.999C38.4115 55.999 37.1299 54.7066 37.1299 52.9199C37.1299 51.1323 38.4007 49.8184 40.1883 49.8184C42.0945 49.8184 43.3006 51.2941 43.182 53.2434Z" fill="white"/>
<path d="M49.4262 52.1335V55.8695H48.2093V52.3806C48.2093 51.4657 47.8111 50.9813 46.9169 50.9813C45.8726 50.9813 45.3127 51.6599 45.3127 52.8013V55.8695H44.0967V49.9478H45.3127V50.9274C45.7333 50.239 46.3687 49.8184 47.2944 49.8184C48.6299 49.8184 49.4262 50.691 49.4262 52.1335Z" fill="white"/>
<path d="M54.9393 55.5647C54.6166 55.758 53.9273 55.9952 53.2487 55.9952C52.0318 55.9952 51.0846 55.2304 51.0846 53.5947V51.0854H49.9863V49.944H51.0846V48.5977L52.3006 48.3281V49.944H54.7343V51.0854H52.3006V53.5291C52.3006 54.3901 52.6996 54.8646 53.4644 54.8646C53.841 54.8646 54.2607 54.7352 54.7236 54.5734L54.9393 55.5647Z" fill="white"/>
<path d="M55.3594 53.9642H56.5978C56.7812 54.6203 57.2656 54.9223 58.2883 54.9223C59.0738 54.9223 59.5583 54.6859 59.5583 54.2446C59.5583 53.7485 58.9984 53.673 58.0079 53.4367C56.3498 53.0268 55.6497 52.6934 55.6497 51.7021C55.6497 50.5068 56.6625 49.8184 58.1481 49.8184C59.6661 49.8184 60.5172 50.5391 60.7329 51.6167H59.5043C59.3327 51.1323 58.8797 50.895 58.1266 50.895C57.3411 50.895 56.8773 51.1647 56.8773 51.5736C56.8773 51.9502 57.244 52.0472 58.2776 52.2953C59.8818 52.6718 60.8075 52.9513 60.8075 54.1035C60.8075 55.3743 59.6661 55.999 58.2668 55.999C56.7057 55.999 55.585 55.2458 55.3594 53.9642Z" fill="white"/>
<path d="M3.37115 29.4866C4.48648 23.7652 9.50681 19.5097 15.5157 19.5097C18.0448 19.5097 20.4795 20.2871 22.5151 21.682L24.8949 19.3021C23.0292 17.9136 20.8704 16.9492 18.5759 16.4918C19.2707 9.06104 25.5214 3.32262 33.0554 3.32262C36.0312 3.32262 38.8909 4.21506 41.3274 5.90289C43.4421 7.36782 45.112 9.33875 46.2021 11.6422C43.3046 12.4034 40.6156 13.8252 38.3526 15.7944L40.7091 18.1508C43.5958 15.7099 47.2842 14.3222 51.1434 14.3222C59.7182 14.3222 66.7499 20.9639 67.2586 29.4866H70.5866C70.3394 24.5103 68.2211 19.8701 64.6145 16.4127C60.9728 12.922 56.1889 11.0005 51.1434 11.0005C50.6185 11.0005 50.0963 11.023 49.5778 11.0652C48.2638 7.87291 46.0709 5.14705 43.2192 3.17163C40.2246 1.09646 36.7106 0 33.0554 0C23.7967 0 16.1161 7.05596 15.2677 16.1907C7.53409 16.3102 1.14229 21.9857 0 29.4866H3.37115Z" fill="white"/>
<path d="M6.62207 38.6565C6.62207 35.3087 9.10707 32.7617 12.5169 32.7617C15.2688 32.7617 17.7134 34.4253 18.1447 37.3003H15.125C14.7763 36.0682 13.7077 35.4732 12.5169 35.4732C10.7302 35.4732 9.5798 36.7872 9.59958 38.6565C9.5798 40.5466 10.7715 41.8398 12.4962 41.8398C13.7077 41.8398 14.7763 41.2233 15.125 39.9911H18.1447C17.6927 42.9695 15.2077 44.5513 12.4962 44.5513C9.10707 44.5513 6.62207 42.0043 6.62207 38.6565Z" fill="white"/>
<path d="M19.5195 44.3059H22.4566V29.502H19.5195V44.3059Z" fill="white"/>
<path d="M26.9753 38.6565C26.9753 40.525 28.2488 41.7581 29.8917 41.7581C31.5346 41.7581 32.8081 40.525 32.8081 38.6565C32.8081 36.8078 31.5346 35.555 29.8917 35.555C28.2488 35.555 26.9753 36.8078 26.9753 38.6565ZM35.7865 38.6565C35.7865 42.0663 33.1981 44.5513 29.8917 44.5513C26.605 44.5513 24.0176 42.0456 24.0176 38.6565C24.0176 35.2467 26.6464 32.7617 29.8917 32.7617C33.1568 32.7617 35.7865 35.2467 35.7865 38.6565Z" fill="white"/>
<path d="M47.6777 33.0039V44.2992H44.7406V42.739C43.9192 43.8885 42.8102 44.5464 41.2491 44.5464C38.7641 44.5464 37.2236 42.8415 37.2236 40.0895V33.0039H40.1607V39.4532C40.1607 40.9316 40.7152 41.7531 42.235 41.7531C43.8581 41.7531 44.7406 40.7878 44.7406 38.9391V33.0039H47.6777Z" fill="white"/>
<path d="M58.0906 38.6583C58.0906 36.8096 56.8377 35.5567 55.1948 35.5567C53.552 35.5567 52.3396 36.8096 52.3396 38.6583C52.3396 40.5267 53.5726 41.7598 55.1948 41.7598C56.8377 41.7598 58.0906 40.5267 58.0906 38.6583ZM61.0276 29.502V44.3059H58.0906V42.787C57.3105 43.8538 56.1187 44.5531 54.537 44.5531C51.5999 44.5531 49.3818 42.1292 49.3818 38.6583C49.3818 35.1667 51.6206 32.7635 54.5163 32.7635C56.1187 32.7635 57.3105 33.5031 58.0906 34.5915V29.502H61.0276Z" fill="white"/>
</svg>
