<svg viewBox="0 0 77 80" fill="none" xmlns="http://www.w3.org/2000/svg">
<path d="M76.9807 3.50945L75.9811 8.7448L74.7316 13.9802L73.2322 19.0909L71.4829 24.0769L69.4838 29.063L67.2347 33.9244C66.36 35.5448 65.6103 37.0406 64.7357 38.6611C63.861 40.1569 62.8614 41.6527 61.9868 43.2732C60.9872 44.769 59.9876 46.2648 58.988 47.636C57.8635 49.0071 56.7389 50.503 55.7393 51.8741C54.6148 53.2453 53.3653 54.4918 52.1158 55.863C50.8663 57.1095 49.6168 58.356 48.2424 59.6025L44.119 63.0927L39.7458 66.3337L35.2476 69.2006L30.4995 71.6937L30.9993 69.2006C33.6233 71.8183 36.1223 74.6853 38.9961 76.1811C39.8707 76.6797 40.1206 77.6769 39.6208 78.4248C39.3709 78.9234 38.8711 79.2974 38.2464 79.2974H38.1214C32.1239 79.796 26.1263 80.1699 20.0038 79.9206C13.8813 79.796 7.88368 79.0481 2.01105 78.1755C0.761566 78.0509 -0.113083 76.8044 0.0118713 75.5579C0.0118713 75.4332 0.0118637 75.3086 0.136818 75.1839V75.0592C1.76116 70.5718 3.01066 66.0844 4.1352 61.4723C5.25974 56.8602 6.13439 52.2481 6.75914 47.5113C7.00903 46.0155 8.25853 45.0183 9.75793 45.2676C10.2577 45.3923 10.7575 45.5169 11.1324 45.7662C13.1316 47.3867 15.1308 48.8825 17.2549 50.7523C18.2545 51.6248 19.2541 52.622 20.1287 53.4946L22.8776 56.3616L18.8792 56.4862L21.1283 53.7439L23.2525 50.7523L25.1267 47.636C25.6265 46.5141 26.2513 45.5169 26.876 44.3951C27.3758 43.2732 27.8756 42.1513 28.3754 41.0295C28.8752 39.9076 29.25 38.7857 29.7498 37.6639C30.1247 36.542 30.6245 35.2955 30.8744 34.1737L31.9989 30.6834C32.2488 29.4369 32.6237 28.315 32.8736 27.0685L33.7482 23.4536L34.4979 19.7141L35.1227 15.9746L35.7474 12.235L36.3722 8.49551L37.4967 1.01643C37.6217 0.393173 38.2464 -0.105423 38.8711 0.0192261C39.4959 0.143875 39.8707 0.642479 39.8707 1.26573C39.8707 3.75876 39.7458 6.37643 39.6208 8.99411C39.4959 11.6118 39.3709 14.1048 39.121 16.7225C38.8711 19.3402 38.6212 21.8332 38.2464 24.4509L37.6217 28.315C37.3717 29.5616 37.1219 30.8081 36.872 32.1792C36.6221 33.4257 36.2472 34.6723 35.8724 36.0434C35.4975 37.2899 35.1227 38.5364 34.7478 39.783C34.373 41.0295 33.8732 42.276 33.3734 43.5225C32.8736 44.769 32.3738 46.0155 31.749 47.1374C31.1243 48.3839 30.4995 49.5058 29.8748 50.7523C29.25 51.8741 28.5003 52.996 27.7506 54.2425C27.0009 55.3644 26.2513 56.4862 25.3766 57.4834L22.7527 60.5997C21.7531 61.7216 20.1287 61.8462 19.0042 60.9737C18.8792 60.9737 18.8792 60.849 18.7543 60.849L18.6293 60.7244L16.0054 57.982C15.1308 57.1095 14.2561 56.2369 13.3815 55.489C11.5072 53.8685 9.50803 52.2481 7.50883 50.6276L11.8821 48.8825C11.1324 53.7439 10.1328 58.4806 8.88328 63.2174C7.63378 67.9541 6.00944 72.5662 4.26015 77.1783L2.3859 74.062C8.25853 75.0592 14.0062 76.0565 19.8788 76.4304C25.7515 76.8044 31.6241 76.6797 37.6217 76.4304L36.872 79.5467C35.1227 78.5495 33.4983 77.1783 32.2488 75.8072C31.1243 74.062 29.8748 72.5662 28.6253 71.3197C28.0005 70.6965 28.0005 69.6992 28.6253 69.076C28.7502 68.9513 28.8752 68.8267 29.0001 68.8267L33.6233 66.583L38.2464 63.8406L42.4947 60.849C43.8691 59.7272 45.2436 58.7299 46.4931 57.6081C47.7426 56.3616 48.9921 55.2397 50.2415 53.9932C51.3661 52.7467 52.6156 51.5002 53.7401 50.129C54.8647 48.7578 55.9892 47.3867 56.9888 46.0155C57.9884 44.6444 58.988 43.1485 59.9876 41.7774C60.8622 40.2816 61.8618 38.7857 62.7365 37.2899C63.6111 35.7941 64.3608 34.2983 65.2355 32.6778L67.4846 27.9411L69.4838 23.0797L71.2331 18.0936L72.6075 13.1076L73.732 7.9969L74.6067 2.76155C74.7316 2.13829 75.3564 1.63969 75.9811 1.76434C76.6059 2.26295 77.1057 2.8862 76.9807 3.50945Z" fill="#05D9AE"/>
<path d="M25.6029 65.3032C25.6029 65.3032 26.332 64.8679 27.6442 63.9974C28.3733 63.5622 29.1023 63.1269 29.9771 62.4015C30.852 61.8212 31.8726 61.0957 32.8933 60.2252C33.9139 59.3547 35.0804 58.4842 36.1011 57.4686C37.2675 56.4531 38.434 55.4375 39.6004 54.2768C40.7669 53.1161 41.9334 51.8104 43.0998 50.5046C44.2663 49.1989 45.2869 47.748 46.4534 46.4423C47.474 44.9914 48.4947 43.6857 49.5153 42.2348C50.536 40.784 51.4108 39.3331 52.2857 38.0274C53.1605 36.5765 54.0354 35.2708 54.7644 33.965C55.4934 32.6593 56.2225 31.4986 56.8057 30.3379C58.118 28.0166 59.1386 26.1305 59.8677 24.8247C60.5967 23.519 61.1799 22.7936 61.1799 22.7936C61.3257 22.5034 61.7632 22.3583 62.2006 22.6485C62.4922 22.7936 62.4922 23.0837 62.4922 23.3739C62.4922 23.3739 62.3464 24.2444 61.909 25.8403C61.7632 26.5658 61.3257 27.4363 61.0341 28.5969C60.5967 29.6125 60.1593 30.7732 59.576 31.9339C58.9928 33.2396 58.2638 34.4003 57.5347 35.8511C56.8057 37.1569 55.9309 38.6077 54.9102 39.9135C53.8896 41.2192 53.0147 42.6701 51.8483 44.1209C50.8276 45.5718 49.5153 46.8775 48.3489 48.1833C47.0366 49.489 45.8701 50.7948 44.5579 51.9554C43.3914 53.2612 42.0792 54.4219 40.7669 55.4375C39.4546 56.4531 38.2882 57.6137 37.1217 58.6293C35.9552 59.6449 34.7888 60.5154 33.7681 61.2408C32.7475 62.1113 31.7268 62.8367 30.852 63.4171C29.9771 63.9974 29.2481 64.5778 28.5191 65.013C27.2068 65.8835 26.4778 66.3188 26.4778 66.3188C26.1862 66.4638 25.7487 66.4638 25.4571 66.1737C25.1655 65.8835 25.3113 65.5933 25.6029 65.3032Z" fill="#05D9AE"/>
<path d="M62.6374 16.4099C62.6374 16.4099 62.7832 16.2649 63.0749 16.1198C63.3665 15.9747 63.6581 15.8296 64.0955 15.9747C64.3871 15.9747 64.6787 16.1198 64.9704 16.2649C65.262 16.4099 65.4078 16.7001 65.4078 16.7001C65.8452 17.4255 65.6994 18.151 65.1162 18.7313C65.1162 18.7313 64.9704 18.8764 64.6787 19.0215C64.3871 19.0215 64.0955 19.1665 63.6581 19.0215C63.3665 19.0215 63.0749 18.8764 62.7832 18.5862C62.4916 18.4411 62.3458 18.151 62.3458 18.151C62.0542 17.5706 62.2 16.8452 62.6374 16.4099Z" fill="#05D9AE"/>
<path d="M64.3867 11.4774C64.9699 11.0421 65.5531 10.897 66.1364 10.897C67.0112 10.897 67.7402 11.6225 67.7402 12.493C67.7402 13.3635 67.0112 14.0889 66.1364 14.0889H65.9905H65.8447C65.2615 14.0889 64.6783 13.9438 64.2409 13.3634C63.6576 12.7831 63.8034 11.9126 64.3867 11.4774C64.3867 11.3323 64.3867 11.3323 64.3867 11.4774C64.9699 10.897 65.5531 10.897 66.1364 10.897L65.8447 14.0889C65.2615 13.9438 64.8241 13.7987 64.2409 13.2184C63.8034 12.7831 63.8034 11.9126 64.3867 11.4774Z" fill="#05D9AE"/>
<path d="M65.262 6.3991C65.262 6.3991 65.4078 6.25401 65.8452 6.10893C66.2826 5.96385 66.7201 5.96385 67.3033 6.10893C67.7407 6.25401 68.1781 6.54418 68.4698 6.83435C68.7614 7.12452 68.9072 7.41469 68.9072 7.41469C69.1988 8.14011 68.7614 8.86553 68.1781 9.1557H68.0323C68.0323 9.1557 67.7407 9.30078 67.4491 9.30078C67.1575 9.30078 66.7201 9.30078 66.4285 9.1557C66.1368 9.01062 65.8452 8.86553 65.5536 8.72045C65.262 8.57536 65.1162 8.28519 65.1162 8.28519C64.6788 7.70486 64.6788 6.97944 65.262 6.3991Z" fill="#05D9AE"/>
</svg>
