<svg viewBox="0 0 277 13" fill="none" xmlns="http://www.w3.org/2000/svg">
<path d="M0 10.4989C4.95705 8.04033 10.3107 6.04686 16.0608 4.38564C18.9359 3.58825 21.811 2.79086 24.7853 2.19282C27.7595 1.59477 30.8329 0.996735 34.0054 0.730939C37.1779 0.465142 40.6478 0.398691 44.0186 0.863835C45.704 1.12963 47.3894 1.52832 48.8765 1.92702C50.3636 2.39216 51.7516 2.85731 53.1396 3.32245C54.4284 3.7876 55.7173 4.18629 57.0061 4.51853C58.2949 4.85078 59.5838 5.11658 60.8726 5.38237C63.5494 5.84752 66.3253 6.04686 69.1013 6.04686C74.7523 6.11331 80.7008 5.51527 86.6493 4.78433C92.5977 4.05339 98.5462 3.1231 104.693 2.52506C110.741 1.92702 117.086 1.66123 123.232 2.72441C126.306 3.18955 129.28 4.05339 132.056 4.98368C134.832 5.91397 137.509 6.84425 140.185 7.44229C142.862 8.04033 145.638 8.37258 148.513 8.37258C151.289 8.37258 154.164 8.17323 156.94 7.77454C162.591 6.97715 168.242 5.64817 173.992 4.31919C179.743 2.99021 185.691 1.59477 192.135 0.930283C195.308 0.598038 198.679 0.465139 202.049 0.598038C205.42 0.797385 208.791 1.32898 211.864 2.12637C218.011 3.72115 223.067 5.98041 228.322 7.24294L230.305 7.70809L232.287 8.10678L233.279 8.30613L234.27 8.43903L236.352 8.70483C239.128 8.97062 242.003 9.16997 244.878 9.03707C246.266 9.03707 247.753 8.90417 249.141 8.83772C249.835 8.77127 250.529 8.70483 251.322 8.63838C252.016 8.57193 252.71 8.50548 253.404 8.37258C254.792 8.10678 256.28 7.90743 257.568 7.57519C258.262 7.44229 258.956 7.30939 259.65 7.11005L261.732 6.57845C267.185 5.05012 272.142 2.79086 276.504 0L277 0.265792C273.53 3.65469 268.771 6.57846 263.319 8.70483C257.866 10.8312 251.719 12.2266 245.275 12.7582C242.102 13.0905 238.831 13.024 235.559 12.8911L233.18 12.6918L231.99 12.5589L230.8 12.3595L228.421 12.0273L226.042 11.5621C222.869 10.9641 219.994 10.0338 217.218 9.16997C214.442 8.30613 211.765 7.44229 209.188 6.84425C206.61 6.17976 204.032 5.78107 201.355 5.64817C198.679 5.51527 195.903 5.58172 193.127 5.78107C187.476 6.24621 181.825 7.37584 175.975 8.50548C170.126 9.63511 164.178 10.8976 157.833 11.4292C154.66 11.695 151.388 11.7615 148.117 11.4957C144.845 11.2299 141.673 10.6318 138.698 9.76801C132.849 7.90744 128.288 5.18302 122.637 4.18629C116.986 3.05665 110.939 3.256 105.089 3.98694C99.141 4.71788 93.49 6.04686 87.6407 7.24294C81.7913 8.43903 75.7437 9.63511 69.2996 9.90091C66.0279 10.0338 62.7563 9.90091 59.4846 9.36932C57.7992 9.10352 56.213 8.77128 54.7258 8.37258C53.1396 7.97389 51.6525 7.44229 50.3636 6.9107C47.6868 5.91396 45.3074 4.98368 42.8289 4.58498C40.3504 4.11984 37.5744 4.05339 34.6994 4.18629C29.0483 4.51853 23.0999 5.51527 17.4488 6.57845C11.6986 7.70809 6.0476 9.16997 0.495705 10.7647L0 10.4989Z" fill="#05D9AE"/>
</svg>
