<?xml version="1.0" encoding="UTF-8" ?>
<!DOCTYPE svg PUBLIC "-//W3C//DTD SVG 1.1//EN" "http://www.w3.org/Graphics/SVG/1.1/DTD/svg11.dtd">
<svg viewBox="0 0 220 436" version="1.1" xmlns="http://www.w3.org/2000/svg">
<g id="#05d9aeff">
<path fill="#05d9ae" opacity="1.00" d=" M 102.73 43.71 C 115.97 30.73 129.56 17.29 137.67 0.37 C 140.30 0.72 139.14 3.39 139.10 5.01 C 136.81 19.81 129.27 33.07 122.14 46.01 C 109.11 68.54 91.59 88.04 73.05 106.14 C 60.42 117.87 43.87 124.43 27.11 127.53 C 18.77 128.88 10.24 129.00 1.87 127.87 C 1.52 126.80 1.16 125.73 0.81 124.66 C 11.77 111.33 25.04 100.15 38.41 89.34 C 44.28 84.59 50.94 80.98 57.68 77.61 C 74.55 69.04 88.86 56.40 102.73 43.71 Z" />
<path fill="#05d9ae" opacity="1.00" d=" M 130.08 209.03 C 159.71 211.05 190.10 213.76 219.18 205.99 C 219.38 206.68 219.79 208.08 220.00 208.78 L 220.00 209.37 C 201.18 221.81 179.11 228.15 157.17 232.43 C 144.49 235.04 131.52 235.76 118.85 238.35 C 111.34 239.83 103.76 241.49 96.06 241.07 C 82.24 240.29 68.42 238.62 55.01 235.12 C 51.50 234.10 46.19 234.05 45.80 229.33 C 60.29 214.19 81.42 207.28 101.97 206.48 C 111.41 206.39 120.68 208.50 130.08 209.03 Z" />
<path fill="#05d9ae" opacity="1.00" d=" M 0.43 325.13 C 1.48 324.57 2.53 324.03 3.58 323.49 C 21.81 333.87 37.54 347.99 52.96 362.07 C 58.09 366.62 62.23 372.15 67.45 376.60 C 77.54 386.19 89.63 393.26 101.45 400.46 C 121.37 412.39 142.35 422.53 164.11 430.62 C 163.80 431.89 163.48 433.16 163.17 434.44 C 134.24 432.20 105.69 425.25 78.88 414.18 C 68.70 409.92 58.75 405.15 48.96 400.07 C 42.65 396.51 36.05 393.31 30.53 388.54 C 21.98 381.77 16.07 372.37 10.97 362.89 C 4.91 351.22 0.72 338.36 0.43 325.13 Z" />
</g>
</svg>
