<svg viewBox="0 0 48 46" fill="none" xmlns="http://www.w3.org/2000/svg">
<path d="M17.6093 14.3272L24 2.21447L30.3907 14.3272C30.7525 15.0128 31.4118 15.4918 32.1756 15.624L45.6703 17.9589L36.1253 27.7799C35.585 28.3358 35.3332 29.1108 35.4436 29.8781L37.393 43.4339L25.1031 37.3909C24.4075 37.0488 23.5925 37.0488 22.8969 37.3909L10.607 43.4339L12.5564 29.8781C12.6668 29.1108 12.415 28.3358 11.8747 27.7799L2.32967 17.9589L15.8244 15.624C16.5882 15.4918 17.2475 15.0128 17.6093 14.3272L16.2826 13.6272L17.6093 14.3272ZM10.4721 44.3719L10.4722 44.3712L10.4721 44.3719ZM1.66918 17.2793C1.6694 17.2795 1.66962 17.2797 1.66983 17.28L1.66918 17.2793L1.31063 17.6278L1.66918 17.2793Z" stroke="#05D9AE" stroke-width="3"/>
</svg>
