<svg viewBox="0 0 48 48" fill="none" xmlns="http://www.w3.org/2000/svg">
<path d="M41.3924 12.6201L47.5874 6.43261C47.99 6.03052 48.1106 5.42555 47.893 4.89989C47.6754 4.37414 47.1625 4.0313 46.5937 4.0313H43.7812V1.40631C43.7812 0.833401 43.4336 0.317777 42.9026 0.102809C42.3714 -0.112159 41.7632 0.0164656 41.3647 0.428027L35.3647 6.62395C35.1107 6.88626 34.9687 7.23708 34.9687 7.60223V10.8596C31.1399 7.54561 26.2829 5.73698 21.1314 5.73698C9.40095 5.73708 0 15.1344 0 26.8686C0 38.599 9.3972 48 21.1314 48C32.8618 48 42.2629 38.6028 42.2629 26.8686C42.2629 21.717 40.4543 16.8601 37.1403 13.0313H40.3986C40.7713 13.0313 41.1288 12.8834 41.3924 12.6201ZM34.1052 39.8422C30.6582 43.2891 26.0506 45.1875 21.1314 45.1875C10.9554 45.1875 2.81249 37.0482 2.81249 26.8686C2.81249 16.5553 11.1215 8.5296 21.1314 8.5296C25.3905 8.5296 29.6498 9.99932 33.0734 12.9387L31.0769 14.9352C28.3024 12.6207 24.8213 11.3597 21.1314 11.3597C12.5124 11.3597 5.62265 18.2468 5.62265 26.8685C5.62265 35.4872 12.5094 42.3772 21.1314 42.3772C29.7504 42.3772 36.6401 35.4902 36.6401 26.8685C36.6401 23.179 35.3796 19.6983 33.0656 16.924L35.0622 14.9274C41.2431 22.1279 40.924 33.0231 34.1052 39.8422ZM21.1783 22.6044C18.8447 22.6044 16.9611 24.4877 16.9611 26.8216C16.9611 29.1552 18.8445 31.0387 21.1783 31.0387C23.5119 31.0387 25.3955 29.1555 25.3955 26.8216C25.3955 26.1815 25.254 25.5635 24.9863 25.0031L27.0438 22.9456C27.7995 24.0914 28.2058 25.4441 28.2058 26.8686C28.2058 33.3456 20.4085 36.1828 16.1127 31.8873C11.8271 27.6017 14.6365 19.7942 21.1314 19.7942C22.5563 19.7942 23.9095 20.2006 25.0554 20.9567L22.998 23.0141C22.4372 22.7461 21.8189 22.6044 21.1783 22.6044ZM22.5831 26.8217C22.5831 27.6008 21.9576 28.2263 21.1784 28.2263C20.8018 28.2263 20.4486 28.0807 20.1841 27.816C19.9194 27.5514 19.7737 27.1983 19.7737 26.8217C19.7737 26.0426 20.3991 25.4169 21.1784 25.4169C21.9574 25.4169 22.5831 26.0423 22.5831 26.8217ZM27.0737 18.9385C25.3775 17.6688 23.3129 16.9817 21.1314 16.9817C15.6255 16.9817 11.2446 21.3597 11.2446 26.8685C11.2446 32.3744 15.6228 36.7552 21.1314 36.7552C26.6373 36.7552 31.0182 32.3772 31.0182 26.8685C31.0182 24.6875 30.3313 22.6232 29.0623 20.9272L31.0667 18.9227C32.8556 21.1592 33.8277 23.932 33.8277 26.8684C33.8277 33.9326 28.1988 39.5646 21.1314 39.5646C14.0668 39.5646 8.43514 33.9355 8.43514 26.8684C8.43514 19.8025 14.0658 14.1721 21.1314 14.1721C24.0682 14.1721 26.8414 15.1445 29.0781 16.9338L27.0737 18.9385ZM37.7812 10.2188V8.17157L40.9687 4.88002V5.43755C40.9687 6.21417 41.5983 6.84379 42.3749 6.84379H43.1958L39.8167 10.2188H37.7812Z" fill="#05D9AE"/>
</svg>
