<svg width="23" height="16" viewBox="0 0 23 16" fill="none" xmlns="http://www.w3.org/2000/svg">
<path d="M22.3715 7.06804L16.2243 0.444807C16.1049 0.311381 15.9604 0.203424 15.7993 0.127234C15.6383 0.0510452 15.4639 0.0081505 15.2863 0.00105287C15.1087 -0.00604476 14.9315 0.0227981 14.7651 0.0858964C14.5986 0.148995 14.4462 0.245085 14.3167 0.368561C14.1873 0.492037 14.0834 0.640424 14.0111 0.805065C13.9388 0.969705 13.8995 1.1473 13.8956 1.32749C13.8917 1.50767 13.9233 1.68684 13.9884 1.85453C14.0535 2.02223 14.1509 2.17509 14.2749 2.3042L18.2897 6.64278H1.33827C0.983341 6.64278 0.642945 6.78577 0.39197 7.0403C0.140995 7.29483 0 7.64004 0 8C0 8.35996 0.140995 8.70517 0.39197 8.9597C0.642945 9.21423 0.983341 9.35722 1.33827 9.35722H18.2897L14.2749 13.6958C14.1509 13.8249 14.0535 13.9778 13.9884 14.1455C13.9233 14.3132 13.8917 14.4923 13.8956 14.6725C13.8995 14.8527 13.9388 15.0303 14.0111 15.1949C14.0834 15.3596 14.1873 15.508 14.3167 15.6314C14.4462 15.7549 14.5986 15.851 14.7651 15.9141C14.9315 15.9772 15.1087 16.006 15.2863 15.9989C15.4639 15.9918 15.6383 15.949 15.7993 15.8728C15.9604 15.7966 16.1049 15.6886 16.2243 15.5552L22.3715 8.93196C22.6061 8.68001 22.7368 8.34657 22.7368 8C22.7368 7.65343 22.6061 7.31999 22.3715 7.06804Z" fill="white"/>
</svg>
