<svg viewBox="0 0 165 38" fill="none" xmlns="http://www.w3.org/2000/svg">
<rect width="165" height="38" rx="10" fill="#012B23"/>
<path d="M53.4239 19.1397C53.4239 17.679 54.1792 16.3041 55.4381 15.5308C54.6828 14.4138 53.4239 13.7263 52.0811 13.6404C50.6544 13.4686 49.3116 14.4997 48.5563 14.4997C47.801 14.4997 46.71 13.6404 45.535 13.6404C43.9405 13.7263 42.5138 14.5856 41.7585 15.9604C40.1639 18.796 41.3388 23.0923 42.9334 25.4124C43.6887 26.5294 44.6119 27.8183 45.7868 27.8183C46.9617 27.7324 47.3814 27.045 48.8081 27.045C50.2348 27.045 50.5705 27.8183 51.8293 27.8183C53.0882 27.8183 53.8435 26.7013 54.5988 25.4983C55.1863 24.725 55.6059 23.7798 55.8577 22.8346C54.3471 22.319 53.4239 20.7723 53.4239 19.1397Z" fill="white"/>
<path d="M51.0732 12.1793C51.7446 11.32 52.0803 10.2889 51.9964 9.17188C50.9893 9.2578 49.9822 9.77336 49.3108 10.6326C48.6394 11.406 48.3037 12.4371 48.3877 13.5541C49.4787 13.5541 50.4019 13.0386 51.0732 12.1793Z" fill="white"/>
<path d="M68.1105 24.9834H64.1661L63.2429 27.9049H61.5645L65.341 17.25H67.0195L70.7961 27.9049H69.1176L68.1105 24.9834ZM64.5857 23.6945H67.7748L66.1803 18.9685H66.0964L64.5857 23.6945Z" fill="white"/>
<path d="M78.9363 24.0379C78.9363 26.4438 77.6774 27.9905 75.7472 27.9905C74.7401 28.0764 73.8169 27.475 73.3973 26.6157V30.4824H71.8027V20.1712H73.3134V21.4601C73.8169 20.6008 74.7401 20.0853 75.7472 20.0853C77.5935 19.9993 78.9363 21.6319 78.9363 24.0379ZM77.2578 24.0379C77.2578 22.4912 76.5025 21.4601 75.2436 21.4601C74.0687 21.4601 73.2294 22.4912 73.2294 24.0379C73.2294 25.5846 74.0687 26.6157 75.2436 26.6157C76.5025 26.6157 77.2578 25.5846 77.2578 24.0379Z" fill="white"/>
<path d="M87.2449 24.0379C87.2449 26.4438 85.986 27.9905 84.0558 27.9905C83.0487 28.0764 82.1255 27.475 81.7059 26.6157V30.4824H80.1113V20.1712H81.622V21.4601C82.1255 20.6008 83.0487 20.0853 84.0558 20.0853C85.986 19.9993 87.2449 21.6319 87.2449 24.0379ZM85.6503 24.0379C85.6503 22.4912 84.895 21.4601 83.6361 21.4601C82.4612 21.4601 81.622 22.4912 81.622 24.0379C81.622 25.5846 82.4612 26.6157 83.6361 26.6157C84.895 26.6157 85.6503 25.5846 85.6503 24.0379Z" fill="white"/>
<path d="M92.7841 24.8974C92.8681 25.9286 93.8751 26.616 95.3018 26.616C96.6446 26.616 97.5678 25.9286 97.5678 24.9834C97.5678 24.1241 96.9803 23.6945 95.6375 23.3508L94.2948 23.0071C92.3645 22.4915 91.5253 21.6322 91.5253 20.1715C91.5253 18.367 93.1198 17.0781 95.3018 17.0781C97.4839 17.0781 98.9945 18.367 99.0784 20.1715H97.4839C97.4 19.1404 96.5607 18.453 95.3018 18.453C94.043 18.453 93.2037 19.1404 93.2037 20.0856C93.2037 20.8589 93.7912 21.2885 95.134 21.6322L96.3089 21.89C98.407 22.4056 99.3302 23.2648 99.3302 24.8115C99.3302 26.7878 97.7356 28.0767 95.3018 28.0767C92.952 28.0767 91.4413 26.8738 91.3574 24.8974H92.7841Z" fill="white"/>
<path d="M102.52 18.2812V20.0857H103.946V21.3746H102.52V25.6709C102.52 26.3584 102.771 26.6161 103.443 26.6161C103.611 26.6161 103.778 26.6161 103.946 26.6161V27.905C103.695 27.991 103.359 27.991 103.107 27.991C101.596 27.991 101.009 27.3895 101.009 25.9287V21.4605H99.918V20.1716H101.009V18.3672H102.52V18.2812Z" fill="white"/>
<path d="M104.869 24.0386C104.869 21.6326 106.296 20.0859 108.478 20.0859C110.66 20.0859 112.087 21.6326 112.087 24.0386C112.087 26.5304 110.66 27.9912 108.478 27.9912C106.212 27.9912 104.869 26.4445 104.869 24.0386ZM110.492 24.0386C110.492 22.32 109.737 21.3748 108.478 21.3748C107.219 21.3748 106.464 22.32 106.464 24.0386C106.464 25.7571 107.219 26.7023 108.478 26.7023C109.737 26.7023 110.492 25.6712 110.492 24.0386Z" fill="white"/>
<path d="M113.346 20.0853H114.856V21.4601C115.024 20.6009 115.863 19.9994 116.703 20.0853C116.871 20.0853 117.038 20.0853 117.206 20.1712V21.632C116.954 21.5461 116.703 21.5461 116.535 21.5461C115.696 21.5461 114.94 22.2335 114.94 23.0927C114.94 23.1787 114.94 23.2646 114.94 23.3505V27.9906H113.346V20.0853Z" fill="white"/>
<path d="M124.423 25.5852C124.171 26.9601 122.828 27.9912 121.15 27.9912C118.968 27.9912 117.541 26.4445 117.541 24.0386C117.541 21.6326 118.884 20 121.066 20C123.164 20 124.507 21.4608 124.507 23.8667V24.3823H119.136V24.4682C119.052 25.5852 119.807 26.5304 120.898 26.7023C120.982 26.7023 121.066 26.7023 121.15 26.7023C121.905 26.7882 122.66 26.3586 122.912 25.5852H124.423ZM119.136 23.2652H122.912C122.996 22.2341 122.157 21.3748 121.15 21.2889C121.066 21.2889 121.066 21.2889 120.982 21.2889C119.975 21.2889 119.136 22.1482 119.136 23.2652Z" fill="white"/>
<path d="M63.4113 11.4059H64.0827C64.5023 11.4919 64.9219 11.1482 65.0058 10.6326V10.5467C65.0058 10.0311 64.6701 9.77334 64.0827 9.77334C63.5791 9.68741 63.1595 10.0311 63.0756 10.5467H62.3203C62.4042 9.68741 63.0756 9 63.9987 9H64.0827C65.0897 9 65.7611 9.60149 65.7611 10.3748C65.7611 10.9763 65.4254 11.4059 64.838 11.5778V11.6637C65.5094 11.6637 66.0129 12.2652 65.929 12.8667C65.8451 13.8119 65.0058 14.4993 64.0827 14.4134C63.1595 14.4993 62.3203 13.8978 62.2363 12.9526C62.2363 12.9526 62.2363 12.9526 62.2363 12.8667H62.9916C63.0756 13.3823 63.4952 13.64 64.1666 13.64C64.838 13.64 65.2576 13.2963 65.2576 12.7808C65.2576 12.2652 64.838 11.9215 64.1666 11.9215H63.4952V11.4059H63.4113Z" fill="white"/>
<path d="M66.8515 13.2106C66.8515 12.5232 67.355 12.0935 68.2782 12.0935L69.2853 12.0076V11.6639C69.2853 11.2343 69.0335 11.0624 68.53 11.0624C68.1104 11.0624 67.8586 11.2343 67.7747 11.492H67.0193C67.1033 10.8046 67.6907 10.375 68.53 10.375C69.4531 10.375 70.0406 10.8906 70.0406 11.6639V14.3276H69.2853V13.8121H69.2014C68.9496 14.2417 68.53 14.4136 68.0264 14.4136C67.439 14.4995 66.8515 13.9839 66.7676 13.3824C66.8515 13.2965 66.8515 13.2965 66.8515 13.2106ZM69.2853 12.8669V12.5232L68.3621 12.6091C67.8586 12.6091 67.6068 12.8669 67.6068 13.1247C67.6068 13.4684 67.9425 13.6402 68.2782 13.6402C68.7818 13.8121 69.2853 13.4684 69.2853 12.8669C69.2853 12.9528 69.2853 12.9528 69.2853 12.8669Z" fill="white"/>
<path d="M72.0561 11.0624V14.3276H71.3008V10.4609H73.8185V11.0624H72.0561Z" fill="white"/>
<path d="M78.265 12.3513C78.265 13.5543 77.6775 14.3276 76.6704 14.3276C76.1669 14.3276 75.7473 14.0698 75.4955 13.6402H75.4116V15.5306H74.6562V10.375H75.4116V10.9765H75.4955C75.7473 10.5468 76.1669 10.2891 76.6704 10.2891C77.6775 10.375 78.265 11.1483 78.265 12.3513ZM77.5097 12.3513C77.5097 11.492 77.09 11.0624 76.5026 11.0624C75.9151 11.0624 75.4955 11.578 75.4955 12.3513C75.4955 13.1246 75.9151 13.6402 76.5026 13.6402C77.174 13.7261 77.5097 13.2106 77.5097 12.3513Z" fill="white"/>
<path d="M79.2732 15.7025V15.015C79.3571 15.015 79.441 15.015 79.525 15.015C79.8607 15.015 80.1124 14.8432 80.1964 14.4995L80.2803 14.3276L78.9375 10.4609H79.7767L80.6999 13.5543H80.7838L81.707 10.4609H82.4623L81.0356 14.4995C80.6999 15.4447 80.3642 15.7025 79.6089 15.7025C79.525 15.7025 79.3571 15.7025 79.2732 15.7025Z" fill="white"/>
<path d="M83.0488 13.2102H83.8041C83.8881 13.5539 84.2238 13.7257 84.6434 13.7257C85.1469 13.7257 85.4826 13.468 85.4826 13.1243C85.4826 12.7805 85.2309 12.6087 84.6434 12.6087H84.0559V12.0072H84.6434C85.063 12.0072 85.3148 11.8354 85.3148 11.4916C85.3148 11.2339 85.063 10.9761 84.6434 10.9761C84.2238 10.9761 83.8881 11.1479 83.8881 11.4916H83.1328C83.2167 10.8042 83.8881 10.2887 84.6434 10.3746C85.5666 10.3746 86.0701 10.8042 86.0701 11.4057C86.0701 11.7494 85.8183 12.0931 85.4826 12.1791V12.265C85.9022 12.3509 86.2379 12.6946 86.2379 13.1243C86.2379 13.8976 85.6505 14.3272 84.7273 14.3272C83.8041 14.4132 83.1328 13.9835 83.0488 13.2102Z" fill="white"/>
<path d="M87.2461 14.3276V10.4609H88.0014V13.1247L89.7638 10.4609H90.5191V14.3276H89.7638V11.6639H89.6799L87.9175 14.3276H87.2461Z" fill="white"/>
<path d="M94.5466 11.0624H93.3717V14.3276H92.6163V11.0624H91.4414V10.4609H94.5466V11.0624Z" fill="white"/>
<path d="M98.576 13.2965C98.4081 13.9839 97.6528 14.4995 96.8975 14.4136C95.9743 14.4136 95.1351 13.6402 95.1351 12.695C95.1351 12.6091 95.1351 12.5232 95.1351 12.4373C94.9672 11.4921 95.6386 10.5469 96.6457 10.4609C96.7296 10.4609 96.8136 10.4609 96.8975 10.4609C97.9885 10.4609 98.576 11.2343 98.576 12.4373V12.695H95.8904C95.8065 13.2965 96.2261 13.7261 96.8136 13.8121H96.8975C97.2332 13.898 97.6528 13.6402 97.8206 13.3824L98.576 13.2965ZM95.9743 12.0076H97.9046C97.9046 11.4921 97.5689 11.0624 97.0653 10.9765H96.9814C96.3939 11.0624 95.9743 11.4921 95.9743 12.0076Z" fill="white"/>
<path d="M101.764 10.4609H103.442C104.197 10.4609 104.617 10.8046 104.617 11.4061C104.617 11.8358 104.365 12.1795 103.946 12.2654V12.3513C104.365 12.3513 104.785 12.781 104.785 13.2106C104.785 13.898 104.281 14.3276 103.442 14.3276H101.68V10.4609H101.764ZM102.519 11.0624V12.0076H103.274C103.694 12.0076 103.946 11.8358 103.946 11.4921C103.946 11.1484 103.778 10.9765 103.358 10.9765L102.519 11.0624ZM102.519 12.6091V13.7261H103.442C103.862 13.7261 104.113 13.5543 104.113 13.1247C104.113 12.695 103.862 12.5232 103.358 12.5232L102.519 12.6091Z" fill="white"/>
</svg>
