<svg viewBox="0 0 167 51" fill="none" xmlns="http://www.w3.org/2000/svg">
<rect width="167" height="51" rx="12" fill="#012B23"/>
<path d="M79.8 29.071C77.3423 29.071 75.3966 30.8627 75.3966 33.3513C75.3966 35.7403 77.3423 37.6315 79.8 37.6315C82.2578 37.6315 84.2035 35.8398 84.2035 33.3513C84.2035 30.7632 82.2578 29.071 79.8 29.071ZM79.8 35.8398C78.4687 35.8398 77.3423 34.7448 77.3423 33.2517C77.3423 31.7586 78.4687 30.6637 79.8 30.6637C81.1313 30.6637 82.2578 31.6591 82.2578 33.2517C82.2578 34.7448 81.1313 35.8398 79.8 35.8398ZM70.2763 29.071C67.8185 29.071 65.8728 30.8627 65.8728 33.3513C65.8728 35.7403 67.8185 37.6315 70.2763 37.6315C72.734 37.6315 74.6797 35.8398 74.6797 33.3513C74.6797 30.7632 72.734 29.071 70.2763 29.071ZM70.2763 35.8398C68.945 35.8398 67.8185 34.7448 67.8185 33.2517C67.8185 31.7586 68.945 30.6637 70.2763 30.6637C71.6075 30.6637 72.734 31.6591 72.734 33.2517C72.734 34.7448 71.6075 35.8398 70.2763 35.8398ZM58.9092 30.365V32.1568H63.3127C63.2102 33.1522 62.8006 33.9485 62.2886 34.4462C61.6742 35.0435 60.6501 35.7403 58.9092 35.7403C56.1442 35.7403 54.0961 33.6499 54.0961 30.9623C54.0961 28.2747 56.2466 26.1843 58.9092 26.1843C60.3429 26.1843 61.4693 26.7816 62.2886 27.4783L63.6199 26.1843C62.4934 25.1889 61.0597 24.3926 59.0116 24.3926C55.325 24.3926 52.1504 27.3788 52.1504 30.9623C52.1504 34.5458 55.325 37.532 59.0116 37.532C61.0597 37.532 62.4934 36.9347 63.7223 35.6407C64.9511 34.4462 65.3608 32.754 65.3608 31.46C65.3608 31.0618 65.3608 30.6637 65.2584 30.365H58.9092ZM105.402 31.7586C104.992 30.7632 103.968 29.071 101.715 29.071C99.462 29.071 97.6187 30.7632 97.6187 33.3513C97.6187 35.7403 99.462 37.6315 101.92 37.6315C103.865 37.6315 105.094 36.437 105.504 35.7403L104.07 34.7448C103.558 35.4416 102.944 35.9393 101.92 35.9393C100.896 35.9393 100.281 35.5412 99.7692 34.6453L105.606 32.2563L105.402 31.7586ZM99.462 33.1522C99.462 31.5595 100.793 30.6637 101.715 30.6637C102.432 30.6637 103.149 31.0618 103.353 31.5595L99.462 33.1522ZM94.6489 37.2334H96.5946V24.7907H94.6489V37.2334ZM91.5767 29.9669C91.0647 29.4692 90.2454 28.9715 89.2214 28.9715C87.0709 28.9715 85.0227 30.8627 85.0227 33.2517C85.0227 35.6407 86.9685 37.4325 89.2214 37.4325C90.2454 37.4325 91.0647 36.9347 91.4743 36.437H91.5767V37.0343C91.5767 38.6269 90.6551 39.5228 89.2214 39.5228C88.0949 39.5228 87.2757 38.7265 87.0709 38.0297L85.4324 38.7265C85.9444 39.8214 87.1733 41.215 89.3238 41.215C91.5767 41.215 93.42 39.921 93.42 36.8352V29.2701H91.5767V29.9669ZM89.3238 35.8398C87.9925 35.8398 86.866 34.7448 86.866 33.2517C86.866 31.7586 87.9925 30.6637 89.3238 30.6637C90.6551 30.6637 91.6791 31.7586 91.6791 33.2517C91.6791 34.7448 90.6551 35.8398 89.3238 35.8398ZM114.311 24.7907H109.703V37.2334H111.648V32.5549H114.311C116.461 32.5549 118.51 31.0618 118.51 28.6728C118.51 26.2839 116.461 24.7907 114.311 24.7907ZM114.413 30.7632H111.648V26.4829H114.413C115.847 26.4829 116.666 27.6774 116.666 28.5733C116.564 29.6683 115.745 30.7632 114.413 30.7632ZM126.19 28.9715C124.756 28.9715 123.323 29.5687 122.811 30.8627L124.551 31.5595C124.961 30.8627 125.576 30.6637 126.292 30.6637C127.316 30.6637 128.238 31.2609 128.34 32.2563V32.3559C128.033 32.1568 127.214 31.8582 126.395 31.8582C124.551 31.8582 122.708 32.8536 122.708 34.6453C122.708 36.3375 124.244 37.4325 125.883 37.4325C127.214 37.4325 127.828 36.8352 128.34 36.238H128.443V37.2334H130.286V32.4554C130.081 30.2655 128.34 28.9715 126.19 28.9715ZM125.985 35.8398C125.371 35.8398 124.449 35.5412 124.449 34.7448C124.449 33.7494 125.576 33.4508 126.497 33.4508C127.316 33.4508 127.726 33.6499 128.238 33.849C128.033 35.0435 127.009 35.8398 125.985 35.8398ZM136.738 29.2701L134.587 34.6453H134.485L132.232 29.2701H130.184L133.563 36.8352L131.617 41.0159H133.563L138.786 29.2701H136.738ZM119.534 37.2334H121.479V24.7907H119.534V37.2334Z" fill="white"/>
<path d="M19.8615 14.0771C19.552 14.3866 19.3457 14.9024 19.3457 15.5214V38.3194C19.3457 38.9384 19.552 39.4541 19.8615 39.7636L19.9647 39.8668L32.7563 27.0751V26.972V26.8688L19.8615 14.0771Z" fill="url(#paint0_linear)"/>
<path d="M36.9854 31.4081L32.7559 27.1786V26.9723V26.8691L36.9854 22.6396L37.0885 22.7428L42.1433 25.6312C43.5875 26.4565 43.5875 27.7976 42.1433 28.6228L36.9854 31.4081Z" fill="url(#paint1_linear)"/>
<path d="M37.0888 31.3053L32.7561 26.9727L19.8613 39.8675C20.3771 40.3833 21.0992 40.3833 22.0277 39.9706L37.0888 31.3053Z" fill="url(#paint2_linear)"/>
<path d="M37.0888 22.6395L22.0277 14.0774C21.0992 13.5616 20.3771 13.6648 19.8613 14.1805L32.7561 26.9722L37.0888 22.6395Z" fill="url(#paint3_linear)"/>
<path opacity="0.2" d="M36.9856 31.2012L22.0277 39.6602C21.2024 40.176 20.4803 40.0728 19.9645 39.6602L19.8613 39.7633L19.9645 39.8665C20.4803 40.2791 21.2024 40.3823 22.0277 39.8665L36.9856 31.2012Z" fill="black"/>
<path opacity="0.12" d="M19.8619 39.66C19.5524 39.3506 19.4492 38.8348 19.4492 38.2158V38.319C19.4492 38.9379 19.6555 39.4537 19.965 39.7632V39.66H19.8619Z" fill="black"/>
<path opacity="0.12" d="M42.1443 28.3137L36.9863 31.2022L37.0895 31.3053L42.1443 28.4169C42.8664 28.0042 43.1758 27.4884 43.1758 26.9727C43.1758 27.4884 42.7632 27.9011 42.1443 28.3137Z" fill="black"/>
<path opacity="0.25" d="M22.0282 14.1804L42.1441 25.631C42.763 26.0437 43.1757 26.4563 43.1757 26.9721C43.1757 26.4563 42.8662 25.9405 42.1441 25.5279L22.0282 14.0773C20.584 13.252 19.4492 13.9741 19.4492 15.6247V15.7278C19.4492 14.0773 20.584 13.3552 22.0282 14.1804Z" fill="white"/>
<path d="M52.5639 21.0911H51.8418V19.0279H52.4607C52.9765 18.6153 53.286 17.79 53.286 16.6553V13.5605H57.4124V19.0279H58.1345V21.0911H57.4124V19.7501H52.6671V21.0911H52.5639ZM54.0081 16.6553C54.0081 17.5837 53.8018 18.409 53.3892 19.0279H56.4839V14.3858H53.905V16.6553H54.0081Z" fill="white" stroke="white" stroke-width="0.2" stroke-miterlimit="10"/>
<path d="M64.2213 18.9254C63.6024 19.5444 62.8802 19.8538 61.9518 19.8538C61.0234 19.8538 60.3013 19.5444 59.6823 18.9254C59.0634 18.3065 58.7539 17.5843 58.7539 16.6559C58.7539 15.7275 59.0634 15.0054 59.6823 14.3864C60.3013 13.7675 61.0234 13.458 61.9518 13.458C62.8802 13.458 63.6024 13.7675 64.2213 14.3864C64.8403 15.0054 65.1497 15.7275 65.1497 16.6559C65.1497 17.5843 64.8403 18.3065 64.2213 18.9254ZM60.3013 18.4096C60.7139 18.8223 61.3329 19.1317 61.9518 19.1317C62.5708 19.1317 63.1897 18.9254 63.6024 18.4096C64.015 17.997 64.3245 17.378 64.3245 16.6559C64.3245 15.9338 64.1182 15.3149 63.6024 14.9022C63.1897 14.4896 62.5708 14.1801 61.9518 14.1801C61.3329 14.1801 60.7139 14.3864 60.3013 14.9022C59.8886 15.3149 59.5792 15.9338 59.5792 16.6559C59.5792 17.378 59.7855 17.997 60.3013 18.4096Z" fill="white" stroke="white" stroke-width="0.2" stroke-miterlimit="10"/>
<path d="M69.1725 19.8538C68.2441 19.8538 67.522 19.5444 66.903 18.9254C66.2841 18.3065 65.9746 17.5843 65.9746 16.6559C65.9746 15.7275 66.2841 15.0054 66.903 14.3864C67.522 13.7675 68.2441 13.458 69.1725 13.458C70.1009 13.458 70.8231 13.7675 71.442 14.4896L70.9262 15.0054C70.5136 14.4896 69.8946 14.1801 69.1725 14.1801C68.4504 14.1801 67.9346 14.3864 67.4188 14.9022C66.903 15.3149 66.6967 15.9338 66.6967 16.6559C66.6967 17.378 66.903 17.997 67.4188 18.4096C67.8315 18.8223 68.4504 19.1317 69.1725 19.1317C69.8946 19.1317 70.5136 18.8223 71.0294 18.2033L71.5452 18.7191C71.2357 19.0286 70.9262 19.338 70.5136 19.5444C70.101 19.7507 69.6883 19.8538 69.1725 19.8538Z" fill="white" stroke="white" stroke-width="0.2" stroke-miterlimit="10"/>
<path d="M74.8465 19.751H74.0213V14.2836H72.2676V13.5615H76.4971V14.2836H74.7434V19.751H74.8465Z" fill="white" stroke="white" stroke-width="0.2" stroke-miterlimit="10"/>
<path d="M81.9633 13.5615L79.5907 18.8226C79.2812 19.5447 78.7654 19.9574 78.1465 19.9574C77.9401 19.9574 77.7338 19.9574 77.5275 19.8542L77.7338 19.1321C77.837 19.2352 78.0433 19.2352 78.1465 19.2352C78.3528 19.2352 78.4559 19.2352 78.5591 19.1321C78.6623 19.0289 78.7654 18.9258 78.8686 18.7194L79.0749 18.2037L77.0117 13.6647H77.9401L79.4875 17.1721L80.9317 13.6647H81.9633V13.5615Z" fill="white" stroke="white" stroke-width="0.2" stroke-miterlimit="10"/>
<path d="M82.8926 19.751V13.5615H87.3284V19.751H86.5031V14.2836H83.6147V19.751H82.8926Z" fill="white" stroke="white" stroke-width="0.2" stroke-miterlimit="10"/>
<path d="M88.7715 19.751V13.5615H89.5968V16.2436H92.6915V13.5615H93.5168V19.751H92.6915V16.9658H89.5968V19.751H88.7715Z" fill="white" stroke="white" stroke-width="0.2" stroke-miterlimit="10"/>
<path d="M100.016 18.9254C99.3973 19.5444 98.6752 19.8538 97.7467 19.8538C96.8183 19.8538 96.0962 19.5444 95.4772 18.9254C94.8583 18.3065 94.5488 17.5843 94.5488 16.6559C94.5488 15.7275 94.8583 15.0054 95.4772 14.3864C96.0962 13.7675 96.8183 13.458 97.7467 13.458C98.6752 13.458 99.3973 13.7675 100.016 14.3864C100.635 15.0054 100.945 15.7275 100.945 16.6559C100.841 17.5843 100.532 18.3065 100.016 18.9254ZM95.993 18.4096C96.4057 18.8223 97.0246 19.1317 97.6436 19.1317C98.2625 19.1317 98.8815 18.9254 99.2941 18.4096C99.7068 17.997 100.016 17.378 100.016 16.6559C100.016 15.9338 99.8099 15.3149 99.2941 14.9022C98.8815 14.4896 98.2625 14.1801 97.6436 14.1801C97.0246 14.1801 96.4057 14.3864 95.993 14.9022C95.5804 15.3149 95.2709 15.9338 95.2709 16.6559C95.2709 17.378 95.5804 17.997 95.993 18.4096Z" fill="white" stroke="white" stroke-width="0.2" stroke-miterlimit="10"/>
<path d="M104.143 19.751V13.5615H106.412C106.928 13.5615 107.34 13.7678 107.65 14.0773C107.959 14.3868 108.166 14.7994 108.166 15.3152C108.166 15.6247 108.063 15.831 107.959 16.1405C107.856 16.3468 107.65 16.5531 107.34 16.6563C107.65 16.7594 107.856 16.9658 108.063 17.1721C108.269 17.3784 108.372 17.6879 108.372 18.1005C108.372 18.6163 108.166 19.0289 107.856 19.3384C107.444 19.6479 107.031 19.8542 106.515 19.8542H104.143V19.751ZM104.968 16.2436H106.412C106.722 16.2436 106.928 16.1405 107.134 15.9342C107.34 15.7279 107.444 15.5215 107.444 15.3152C107.444 15.1089 107.34 14.9026 107.134 14.6963C106.928 14.49 106.722 14.3868 106.412 14.3868H104.968V16.2436ZM104.968 19.0289H106.618C106.928 19.0289 107.134 18.9258 107.34 18.7194C107.547 18.5131 107.65 18.3068 107.65 17.9973C107.65 17.791 107.547 17.4815 107.34 17.2752C107.134 17.0689 106.928 16.9658 106.618 16.9658H105.071V19.0289H104.968Z" fill="white" stroke="white" stroke-width="0.2" stroke-miterlimit="10"/>
<defs>
<linearGradient id="paint0_linear" x1="31.6213" y1="15.3251" x2="14.3088" y2="32.6375" gradientUnits="userSpaceOnUse">
<stop stop-color="#00A0FF"/>
<stop offset="0.00657445" stop-color="#00A1FF"/>
<stop offset="0.2601" stop-color="#00BEFF"/>
<stop offset="0.5122" stop-color="#00D2FF"/>
<stop offset="0.7604" stop-color="#00DFFF"/>
<stop offset="1" stop-color="#00E3FF"/>
</linearGradient>
<linearGradient id="paint1_linear" x1="44.0356" y1="26.9738" x2="19.0745" y2="26.9738" gradientUnits="userSpaceOnUse">
<stop stop-color="#FFE000"/>
<stop offset="0.4087" stop-color="#FFBD00"/>
<stop offset="0.7754" stop-color="#FFA500"/>
<stop offset="1" stop-color="#FF9C00"/>
</linearGradient>
<linearGradient id="paint2_linear" x1="34.744" y1="29.3413" x2="11.2669" y2="52.8184" gradientUnits="userSpaceOnUse">
<stop stop-color="#FF3A44"/>
<stop offset="1" stop-color="#C31162"/>
</linearGradient>
<linearGradient id="paint3_linear" x1="16.6606" y1="6.52227" x2="27.1442" y2="17.0057" gradientUnits="userSpaceOnUse">
<stop stop-color="#32A071"/>
<stop offset="0.0685" stop-color="#2DA771"/>
<stop offset="0.4762" stop-color="#15CF74"/>
<stop offset="0.8009" stop-color="#06E775"/>
<stop offset="1" stop-color="#00F076"/>
</linearGradient>
</defs>
</svg>
