<svg xmlns="http://www.w3.org/2000/svg" width="125" height="17" fill="none" viewBox="0 0 125 17">
  <rect width="100%" height="100%" x="0" y="0" fill="none"/>
  <g class="currentLayer">
    <path fill="#C0C9D4" d="M5.768-20.116c.523.187.924.495 1.204.924.29.43.434.929.434 1.498 0 .877-.35 1.577-1.05 2.1-.69.523-1.568.784-2.632.784-1.073 0-1.96-.261-2.66-.784-.69-.523-1.036-1.223-1.036-2.1 0-.57.14-1.069.42-1.498.29-.43.695-.737 1.218-.924a2.077 2.077 0 01-.98-.826 2.328 2.328 0 01-.35-1.26c0-.812.322-1.47.966-1.974.644-.513 1.451-.77 2.422-.77.961 0 1.764.257 2.408.77.644.504.966 1.162.966 1.974 0 .467-.117.887-.35 1.26-.233.373-.56.649-.98.826zm-2.044-3.332c-.57 0-1.013.13-1.33.392-.317.252-.476.602-.476 1.05 0 .859.602 1.288 1.806 1.288 1.195 0 1.792-.43 1.792-1.288 0-.448-.159-.798-.476-1.05-.317-.261-.756-.392-1.316-.392zm0 7.14c.644 0 1.153-.13 1.526-.392.383-.27.574-.649.574-1.134 0-1.008-.7-1.512-2.1-1.512-1.41 0-2.114.504-2.114 1.512 0 .485.187.863.56 1.134.383.261.9.392 1.554.392zm13.093-8.904c-.691 1.335-1.181 2.492-1.47 3.472a10.88 10.88 0 00-.434 3.122c0 1.11.144 2.156.433 3.136.29.97.78 2.123 1.47 3.458l-1.203.714c-1.522-2.333-2.282-4.77-2.282-7.308 0-2.539.76-4.975 2.282-7.308l1.204.714zm7.463 5.096c.522.187.924.495 1.204.924.29.43.434.929.434 1.498 0 .877-.35 1.577-1.05 2.1-.69.523-1.568.784-2.632.784-1.074 0-1.96-.261-2.66-.784-.69-.523-1.036-1.223-1.036-2.1 0-.57.14-1.069.42-1.498.29-.43.695-.737 1.218-.924a2.078 2.078 0 01-.98-.826 2.329 2.329 0 01-.35-1.26c0-.812.322-1.47.966-1.974.644-.513 1.451-.77 2.422-.77.961 0 1.764.257 2.408.77.644.504.966 1.162.966 1.974 0 .467-.117.887-.35 1.26-.234.373-.56.649-.98.826zm-2.044-3.332c-.57 0-1.013.13-1.33.392-.318.252-.476.602-.476 1.05 0 .859.602 1.288 1.806 1.288 1.194 0 1.792-.43 1.792-1.288 0-.448-.159-.798-.476-1.05-.318-.261-.756-.392-1.316-.392zm0 7.14c.644 0 1.152-.13 1.526-.392.382-.27.574-.649.574-1.134 0-1.008-.7-1.512-2.1-1.512-1.41 0-2.114.504-2.114 1.512 0 .485.186.863.56 1.134.382.261.9.392 1.554.392zm9.063-8.638c1.288 0 2.291.453 3.01 1.358.719.896 1.078 2.133 1.078 3.71s-.36 2.819-1.078 3.724c-.719.896-1.722 1.344-3.01 1.344-1.279 0-2.277-.448-2.996-1.344-.719-.896-1.078-2.137-1.078-3.724 0-1.587.36-2.828 1.078-3.724.719-.896 1.717-1.344 2.996-1.344zm0 8.624c1.661 0 2.492-1.185 2.492-3.556 0-2.37-.83-3.556-2.492-3.556-1.652 0-2.478 1.185-2.478 3.556 0 2.37.826 3.556 2.478 3.556zm9.557-8.624c1.288 0 2.29.453 3.01 1.358.718.896 1.078 2.133 1.078 3.71s-.36 2.819-1.078 3.724c-.72.896-1.722 1.344-3.01 1.344-1.28 0-2.278-.448-2.996-1.344-.72-.896-1.078-2.137-1.078-3.724 0-1.587.359-2.828 1.078-3.724.718-.896 1.717-1.344 2.996-1.344zm0 8.624c1.66 0 2.492-1.185 2.492-3.556 0-2.37-.831-3.556-2.492-3.556-1.652 0-2.478 1.185-2.478 3.556 0 2.37.826 3.556 2.478 3.556zm5.957-8.89l1.204-.714c1.521 2.333 2.282 4.77 2.282 7.308 0 2.539-.76 4.975-2.282 7.308l-1.204-.714c.69-1.335 1.18-2.487 1.47-3.458.29-.98.434-2.025.434-3.136 0-1.11-.145-2.151-.434-3.122-.29-.98-.78-2.137-1.47-3.472zm13.578 3.71c.934 0 1.718.294 2.352.882.635.588.952 1.372.952 2.352 0 1.027-.345 1.862-1.036 2.506-.69.635-1.563.952-2.618.952-.998 0-1.862-.275-2.59-.826-.718-.55-1.129-1.335-1.232-2.352h1.596c.112.541.37.957.77 1.246.402.29.882.434 1.442.434.607 0 1.102-.187 1.484-.56.383-.373.574-.845.574-1.414 0-.579-.19-1.04-.574-1.386-.373-.345-.858-.518-1.456-.518-.896 0-1.558.345-1.988 1.036h-1.512l1.204-5.628h5.474v1.512H58.95l-.504 2.38c.532-.41 1.181-.616 1.946-.616zm8.614 0c.933 0 1.717.294 2.352.882.634.588.952 1.372.952 2.352 0 1.027-.346 1.862-1.036 2.506-.691.635-1.564.952-2.618.952-.999 0-1.862-.275-2.59-.826-.719-.55-1.13-1.335-1.232-2.352h1.596c.112.541.368.957.77 1.246.401.29.882.434 1.442.434.606 0 1.101-.187 1.484-.56.382-.373.574-.845.574-1.414 0-.579-.192-1.04-.574-1.386-.374-.345-.859-.518-1.456-.518-.896 0-1.559.345-1.988 1.036h-1.512l1.204-5.628h5.474v1.512h-4.284l-.504 2.38c.532-.41 1.18-.616 1.946-.616zm8.669-3.444c1.288 0 2.291.453 3.01 1.358.719.896 1.078 2.133 1.078 3.71s-.36 2.819-1.078 3.724c-.719.896-1.722 1.344-3.01 1.344-1.279 0-2.277-.448-2.996-1.344-.719-.896-1.078-2.137-1.078-3.724 0-1.587.36-2.828 1.078-3.724.719-.896 1.717-1.344 2.996-1.344zm0 8.624c1.661 0 2.492-1.185 2.492-3.556 0-2.37-.83-3.556-2.492-3.556-1.652 0-2.478 1.185-2.478 3.556 0 2.37.826 3.556 2.478 3.556zm10.577-3.598v1.512h-4.62v-1.512h4.62zm4.3 3.43h4.845v1.512h-7.434v-1.134l2.842-2.492c1.194-1.036 1.95-1.736 2.268-2.1.326-.373.49-.765.49-1.176 0-.448-.168-.817-.504-1.106-.327-.299-.78-.448-1.358-.448-1.148 0-1.834.602-2.058 1.806h-1.596c.112-1.017.504-1.825 1.176-2.422.68-.597 1.53-.896 2.548-.896 1.017 0 1.834.29 2.45.868a2.76 2.76 0 01.938 2.128c0 .29-.052.574-.154.854-.094.27-.201.509-.322.714-.112.196-.332.462-.658.798-.318.327-.584.588-.798.784a61.94 61.94 0 01-1.106.966l-1.54 1.33-.028.014zm13.907-2.226v1.484h-1.414v2.254h-1.582v-2.254l-5.055.014v-1.498l4.285-6.062h2.352v6.062h1.414zm-6.328 0h3.332v-4.592h-.126l-3.206 4.592zm12.512-1.204v1.512h-4.62v-1.512h4.62zm4.3 3.43h4.844v1.512h-7.434v-1.134l2.842-2.492c1.195-1.036 1.951-1.736 2.268-2.1.327-.373.49-.765.49-1.176 0-.448-.168-.817-.504-1.106-.326-.299-.779-.448-1.358-.448-1.148 0-1.834.602-2.058 1.806h-1.596c.112-1.017.504-1.825 1.176-2.422.682-.597 1.531-.896 2.548-.896 1.018 0 1.834.29 2.45.868.626.57.938 1.279.938 2.128 0 .29-.051.574-.154.854-.093.27-.2.509-.322.714-.112.196-.331.462-.658.798a18.97 18.97 0 01-.798.784c-.205.187-.574.509-1.106.966l-1.54 1.33-.028.014zm8.586 0h4.844v1.512h-7.434v-1.134l2.842-2.492c1.195-1.036 1.951-1.736 2.268-2.1.327-.373.49-.765.49-1.176 0-.448-.168-.817-.504-1.106-.327-.299-.779-.448-1.358-.448-1.148 0-1.834.602-2.058 1.806h-1.596c.112-1.017.504-1.825 1.176-2.422.681-.597 1.531-.896 2.548-.896 1.017 0 1.834.29 2.45.868a2.76 2.76 0 01.938 2.128c0 .29-.051.574-.154.854-.093.27-.201.509-.322.714-.112.196-.331.462-.658.798a18.97 18.97 0 01-.798.784c-.205.187-.574.509-1.106.966l-1.54 1.33-.028.014zM3.78 12.19c-1.017 0-1.867-.233-2.548-.7C.56 11.023.149 10.375 0 9.544h1.61c.121.43.355.747.7.952.345.196.845.294 1.498.294.513 0 .915-.075 1.204-.224.299-.159.448-.378.448-.658a.57.57 0 00-.224-.462 1.305 1.305 0 00-.504-.266 19.088 19.088 0 00-.924-.238l-.364-.084c-1.148-.28-1.946-.57-2.394-.868-.448-.308-.672-.77-.672-1.386 0-.765.294-1.363.882-1.792.597-.439 1.386-.658 2.366-.658.961 0 1.722.21 2.282.63.57.41.929.98 1.078 1.708H5.39c-.224-.625-.821-.938-1.792-.938-.504 0-.9.08-1.19.238-.29.159-.434.373-.434.644 0 .233.117.406.35.518.233.103.723.243 1.47.42.485.112.868.21 1.148.294.29.075.588.177.896.308.308.13.541.27.7.42.159.15.29.336.392.56.103.215.154.471.154.77 0 .793-.313 1.405-.938 1.834-.616.42-1.405.63-2.366.63zm10.766-7.868h1.582v7.7h-1.582v-1.288c-.616.97-1.512 1.456-2.688 1.456-1.036 0-1.89-.373-2.562-1.12-.663-.756-.994-1.722-.994-2.898 0-1.167.336-2.128 1.008-2.884.672-.756 1.516-1.134 2.534-1.134 1.176 0 2.076.495 2.702 1.484V4.322zm-2.352 6.356c.681 0 1.246-.233 1.694-.7.448-.467.672-1.069.672-1.806 0-.728-.224-1.325-.672-1.792-.448-.476-1.013-.714-1.694-.714-.672 0-1.223.233-1.652.7-.43.467-.644 1.069-.644 1.806 0 .737.214 1.34.644 1.806.43.467.98.7 1.652.7zm5.794 1.344V1.242h1.596v10.78h-1.596zm7.128-7.868c1.222 0 2.193.425 2.912 1.274.728.84 1.054 1.9.98 3.178H22.75c.065.69.317 1.232.756 1.624.438.383.989.574 1.652.574.466 0 .882-.098 1.246-.294.364-.196.634-.48.812-.854h1.638c-.29.83-.766 1.46-1.428 1.89-.663.43-1.424.644-2.282.644-1.167 0-2.128-.373-2.884-1.12-.747-.756-1.12-1.717-1.12-2.884 0-1.167.373-2.128 1.12-2.884.746-.765 1.698-1.148 2.856-1.148zm0 1.372c-.588 0-1.083.168-1.484.504a2.433 2.433 0 00-.798 1.288h4.48c-.122-.541-.378-.975-.77-1.302-.383-.327-.859-.49-1.428-.49zm8.838 6.664c-1.017 0-1.867-.233-2.548-.7-.672-.467-1.083-1.115-1.232-1.946h1.61c.121.43.355.747.7.952.345.196.844.294 1.498.294.513 0 .915-.075 1.204-.224.299-.159.448-.378.448-.658a.57.57 0 00-.224-.462 1.305 1.305 0 00-.504-.266 19.043 19.043 0 00-.924-.238l-.364-.084c-1.148-.28-1.946-.57-2.394-.868-.448-.308-.672-.77-.672-1.386 0-.765.294-1.363.882-1.792.597-.439 1.386-.658 2.366-.658.961 0 1.722.21 2.282.63.57.41.928.98 1.078 1.708h-1.596c-.224-.625-.822-.938-1.792-.938-.504 0-.9.08-1.19.238-.29.159-.434.373-.434.644 0 .233.116.406.35.518.233.103.723.243 1.47.42.485.112.868.21 1.148.294.29.075.588.177.896.308.308.13.541.27.7.42.158.15.29.336.392.56.102.215.154.471.154.77 0 .793-.313 1.405-.938 1.834-.616.42-1.405.63-2.366.63zm11.97-11.116c.989 0 1.913.159 2.772.476.868.308 1.619.751 2.254 1.33.644.579 1.148 1.311 1.512 2.198.373.877.56 1.857.56 2.94 0 1.307-.262 2.31-.784 3.01-.523.7-1.242 1.05-2.156 1.05-.504 0-.966-.117-1.386-.35-.411-.233-.7-.62-.868-1.162-.56 1.008-1.405 1.512-2.534 1.512-.924 0-1.685-.336-2.282-1.008-.598-.672-.896-1.526-.896-2.562 0-1.045.298-1.904.896-2.576.597-.672 1.353-1.008 2.268-1.008 1.045 0 1.852.448 2.422 1.344v-1.19h1.4V9.53c0 .401.098.705.294.91.205.196.466.294.784.294.942 0 1.414-.845 1.414-2.534 0-.97-.15-1.834-.448-2.59-.29-.756-.696-1.363-1.218-1.82a5.18 5.18 0 00-1.792-1.022 6.493 6.493 0 00-2.17-.35c-1.774 0-3.22.546-4.34 1.638-1.111 1.092-1.666 2.553-1.666 4.382 0 1.83.54 3.271 1.624 4.326 1.092 1.055 2.5 1.582 4.228 1.582 1.036 0 1.946-.187 2.73-.56l.28 1.302c-.934.401-1.951.602-3.052.602-2.12 0-3.855-.663-5.208-1.988-1.354-1.325-2.03-3.08-2.03-5.264s.69-3.957 2.072-5.32c1.39-1.363 3.164-2.044 5.32-2.044zm-.336 9.646c.606 0 1.106-.205 1.498-.616.4-.41.602-.943.602-1.596 0-.644-.201-1.176-.602-1.596-.402-.42-.901-.63-1.498-.63-.598 0-1.088.21-1.47.63-.374.41-.56.943-.56 1.596 0 .644.19 1.176.574 1.596.382.41.868.616 1.456.616zm10.719-.196h4.48v1.498h-6.496v-1.498l4.396-4.704h-4.144V4.322h6.174V5.82l-4.41 4.704zm10.178-6.37c.859 0 1.535.27 2.03.812.495.532.742 1.265.742 2.198v4.858h-1.582V7.486c0-1.213-.565-1.82-1.694-1.82-.663 0-1.176.21-1.54.63-.355.41-.532.99-.532 1.736v3.99h-1.582V1.242h1.582v4.34c.579-.952 1.437-1.428 2.576-1.428zm11.858 7.868h-2.044l-3.626-3.556v3.556H71.09V1.242h1.582v6.412l3.332-3.332h2.03l-3.766 3.654 4.074 4.046zm1.767-1.526c.197-.187.444-.28.742-.28.3 0 .546.093.742.28.197.177.294.41.294.7s-.098.527-.294.714c-.195.187-.443.28-.742.28-.298 0-.546-.093-.742-.28a.967.967 0 01-.28-.714c0-.29.094-.523.28-.7zm7.309-6.342c1.12 0 2.062.383 2.828 1.148.774.765 1.162 1.722 1.162 2.87 0 1.148-.383 2.105-1.148 2.87-.766.765-1.713 1.148-2.842 1.148-1.12 0-2.068-.383-2.842-1.148-.766-.775-1.148-1.731-1.148-2.87 0-1.148.387-2.105 1.162-2.87.774-.765 1.717-1.148 2.828-1.148zm1.694 2.226a2.256 2.256 0 00-1.694-.714c-.672 0-1.242.238-1.708.714-.458.467-.686 1.064-.686 1.792 0 .737.228 1.34.686 1.806.457.467 1.026.7 1.708.7.681 0 1.25-.233 1.708-.7.457-.467.686-1.069.686-1.806 0-.728-.234-1.325-.7-1.792zm8.036-2.226c.868 0 1.545.266 2.03.798.495.532.742 1.27.742 2.212v4.858h-1.582V7.486c0-1.213-.56-1.82-1.68-1.82-.672 0-1.19.21-1.554.63-.354.41-.532.99-.532 1.736v3.99h-1.582v-7.7h1.582v1.274c.588-.961 1.447-1.442 2.576-1.442zm4.565 7.868V1.242h1.596v10.78h-1.596zM105.902.85c.299 0 .546.093.742.28a.883.883 0 01.294.686c0 .29-.098.527-.294.714-.196.187-.443.28-.742.28-.289 0-.532-.093-.728-.28a.943.943 0 01-.294-.714c0-.28.098-.509.294-.686.196-.187.439-.28.728-.28zm-.784 11.172v-7.7h1.582v7.7h-1.582zm7.576-7.868c.868 0 1.545.266 2.03.798.495.532.742 1.27.742 2.212v4.858h-1.582V7.486c0-1.213-.56-1.82-1.68-1.82-.672 0-1.19.21-1.554.63-.354.41-.532.99-.532 1.736v3.99h-1.582v-7.7h1.582v1.274c.588-.961 1.447-1.442 2.576-1.442zm8.275 0c1.223 0 2.194.425 2.912 1.274.728.84 1.055 1.9.98 3.178h-6.258c.066.69.318 1.232.756 1.624.439.383.99.574 1.652.574.467 0 .882-.098 1.246-.294.364-.196.635-.48.812-.854h1.638c-.289.83-.765 1.46-1.428 1.89-.662.43-1.423.644-2.282.644-1.166 0-2.128-.373-2.884-1.12-.746-.756-1.12-1.717-1.12-2.884 0-1.167.374-2.128 1.12-2.884.747-.765 1.699-1.148 2.856-1.148zm0 1.372c-.588 0-1.082.168-1.484.504a2.433 2.433 0 00-.798 1.288h4.48c-.121-.541-.378-.975-.77-1.302-.382-.327-.858-.49-1.428-.49z"/>
  </g>
</svg>
