<svg viewBox="0 0 603 495" fill="none" xmlns="http://www.w3.org/2000/svg">
<path d="M111.911 400.164C125.717 412.713 138.048 420.112 147.497 425.676C239.714 480.014 345.066 464.387 377.637 459.001C430.179 450.359 474.545 444.262 512.678 413.838C599.333 344.702 595.111 200.511 528.897 111.191C521.056 100.596 454.976 14.058 349.356 1.86451C346.742 1.56856 344.865 1.39098 343.19 1.21341C326.838 -0.325576 225.64 -8.37563 143.074 52.71C131.279 61.4704 112.246 77.2153 94.6202 101.306C30.0818 189.324 29.8808 325.524 111.911 400.164Z" fill="url(#paint0_linear)"/>
<g opacity="0.7">
<g opacity="0.64">
<path opacity="0.64" d="M333.085 83.7418C333.331 83.5431 333.467 83.2107 333.402 82.8571C333.263 82.0471 333.083 81.2328 332.903 80.4185C332.792 79.9174 332.293 79.6204 331.792 79.7312C331.291 79.8419 330.994 80.3411 331.104 80.8422C331.289 81.6162 331.451 82.4081 331.59 83.2182C331.679 83.7374 332.155 84.0524 332.675 83.964C332.822 83.9182 332.952 83.8502 333.085 83.7418Z" fill="#90AEEE"/>
<path opacity="0.64" d="M330.321 73.907C330.633 73.6541 330.738 73.2368 330.615 72.8567C330.058 71.3504 329.399 69.8537 328.695 68.3931C328.477 67.942 327.907 67.7396 327.456 67.9575C327.005 68.1754 326.802 68.7458 327.02 69.1969C327.688 70.6129 328.334 72.047 328.894 73.5129C329.067 74.0002 329.615 74.2207 330.103 74.0473C330.188 74.0154 330.254 73.9612 330.321 73.907ZM324.614 62.765C324.97 62.476 325.065 61.9556 324.803 61.5407C323.903 60.2023 322.94 58.8778 321.951 57.6117C321.625 57.2105 321.061 57.1514 320.659 57.4766C320.258 57.8018 320.199 58.3666 320.524 58.7678C321.478 59.9893 322.404 61.2693 323.286 62.5853C323.567 63.0226 324.128 63.1221 324.565 62.8415C324.569 62.8011 324.591 62.7831 324.614 62.765ZM316.541 53.1704C316.564 53.1524 316.608 53.1162 316.63 53.0982C316.995 52.7284 316.974 52.1551 316.604 51.7901C315.437 50.6685 314.202 49.6011 312.941 48.5921C312.545 48.2855 311.967 48.3474 311.643 48.7214C311.336 49.1176 311.398 49.6952 311.772 50.0199C312.997 50.9843 314.191 52.0474 315.322 53.1245C315.678 53.4268 316.185 53.4594 316.541 53.1704ZM306.564 45.5997C306.653 45.5275 306.702 45.451 306.773 45.3564C307.044 44.9156 306.879 44.3477 306.456 44.0995C305.075 43.2615 303.646 42.5 302.189 41.797C301.722 41.5849 301.172 41.7721 300.96 42.2395C300.748 42.7068 300.935 43.2567 301.403 43.4687C302.8 44.1453 304.19 44.9025 305.534 45.6959C305.863 45.873 306.275 45.8345 306.564 45.5997ZM295.151 40.4486C295.285 40.3403 295.382 40.1873 295.44 40.0301C295.593 39.5363 295.321 39.0183 294.845 38.8869C293.306 38.3995 291.721 37.9481 290.169 37.5817C289.67 37.4684 289.171 37.7629 289.057 38.2609C288.944 38.7589 289.238 39.2589 289.736 39.3722C291.249 39.7344 292.775 40.1592 294.274 40.6424C294.575 40.6943 294.928 40.6293 295.151 40.4486ZM282.872 37.9197C283.05 37.7751 283.197 37.5457 283.204 37.2813C283.237 36.7748 282.875 36.3291 282.369 36.2965C280.773 36.1499 279.128 36.0798 277.52 36.0542C277.009 36.062 276.599 36.4678 276.589 36.9563C276.597 37.467 277.003 37.8766 277.491 37.8869C279.059 37.9082 280.623 37.9699 282.179 38.1123C282.461 38.1418 282.694 38.0642 282.872 37.9197ZM270.36 38.2014C270.605 38.0027 270.738 37.7106 270.691 37.3793C270.621 36.8825 270.148 36.5271 269.651 36.5975C268.057 36.8182 266.437 37.0974 264.871 37.4435C264.37 37.5542 264.073 38.0534 264.166 38.5322C264.277 39.0333 264.776 39.3303 265.255 39.2377C266.78 38.8874 268.338 38.622 269.869 38.4151C270.057 38.3736 270.227 38.3098 270.36 38.2014ZM258.211 41.2541C258.501 41.0193 258.628 40.5839 258.482 40.2219C258.309 39.7346 257.783 39.4961 257.296 39.6694C255.79 40.2257 254.275 40.8626 252.814 41.5664C252.363 41.7844 252.143 42.3324 252.379 42.8058C252.597 43.2569 253.145 43.4774 253.618 43.2414C255.034 42.5738 256.486 41.9507 257.952 41.3902C258.037 41.3583 258.122 41.3264 258.211 41.2541ZM234.195 58.505C234.239 58.4689 234.284 58.4327 234.333 58.3563C235.315 57.1537 236.378 55.9596 237.455 54.8281C237.82 54.4584 237.799 53.885 237.429 53.52C237.059 53.155 236.486 53.1766 236.121 53.5463C234.999 54.7139 233.914 55.9261 232.905 57.1871C232.598 57.5833 232.66 58.1609 233.034 58.4855C233.39 58.7879 233.883 58.7579 234.195 58.505ZM247.033 46.9172C247.389 46.6282 247.485 46.1078 247.222 45.6928C246.942 45.2556 246.381 45.1561 245.944 45.4367C244.587 46.3146 243.263 47.2773 241.997 48.2666C241.595 48.5918 241.536 49.1567 241.839 49.5759C242.164 49.9771 242.729 50.0362 243.149 49.7333C244.37 48.7802 245.65 47.8535 246.984 46.9937C246.988 46.9533 247.011 46.9352 247.033 46.9172Z" fill="#90AEEE"/>
<path opacity="0.64" d="M228.51 67.0273C228.599 66.955 228.67 66.8605 228.741 66.7659C229.122 66.0511 229.521 65.3586 229.942 64.648C230.212 64.2072 230.047 63.6392 229.624 63.391C229.184 63.1205 228.638 63.2674 228.367 63.7082C227.946 64.4188 227.525 65.1294 227.14 65.8846C226.91 66.3296 227.075 66.8976 227.52 67.1277C227.848 67.3048 228.242 67.244 228.51 67.0273Z" fill="#90AEEE"/>
</g>
<g opacity="0.64">
<path opacity="0.64" d="M224.364 110.935C224.654 110.7 224.776 110.305 224.671 109.947C224.424 109.187 224.2 108.409 223.975 107.631C223.842 107.148 223.343 106.851 222.86 106.984C222.377 107.117 222.08 107.616 222.213 108.099C222.415 108.895 222.658 109.696 222.923 110.478C223.096 110.965 223.6 111.222 224.083 111.089C224.167 111.057 224.275 111.007 224.364 110.935Z" fill="#90AEEE"/>
<path opacity="0.64" d="M313.254 137.41C313.789 136.976 314.324 136.542 314.84 136.087C315.224 135.739 315.265 135.152 314.935 134.791C314.588 134.408 314.019 134.389 313.64 134.696C312.495 135.698 311.269 136.692 310.034 137.583C309.614 137.885 309.533 138.468 309.836 138.888C310.139 139.307 310.722 139.388 311.141 139.085C311.81 138.543 312.541 137.988 313.254 137.41ZM320.218 130.694C320.263 130.658 320.307 130.621 320.352 130.585C321.375 129.387 322.384 128.126 323.334 126.839C323.623 126.42 323.539 125.861 323.142 125.554C322.724 125.265 322.164 125.35 321.858 125.746C320.952 126.997 319.969 128.2 318.969 129.38C318.644 129.754 318.684 130.35 319.058 130.674C319.373 130.972 319.862 130.983 320.218 130.694ZM304.679 143.141C305.014 142.87 305.127 142.372 304.923 141.984C304.683 141.551 304.13 141.37 303.675 141.629C302.313 142.363 300.915 143.053 299.526 143.662C299.057 143.858 298.836 144.406 299.072 144.88C299.268 145.349 299.816 145.569 300.289 145.333C301.723 144.688 303.184 143.984 304.568 143.231C304.59 143.213 304.635 143.177 304.679 143.141ZM293.275 147.842C293.543 147.626 293.684 147.253 293.583 146.855C293.45 146.372 292.928 146.093 292.445 146.226C290.974 146.643 289.466 147.015 287.945 147.325C287.444 147.436 287.129 147.913 287.221 148.392C287.332 148.893 287.809 149.208 288.288 149.115C289.85 148.81 291.42 148.423 292.954 147.992C293.079 147.965 293.186 147.915 293.275 147.842ZM281.129 149.896C281.352 149.715 281.484 149.423 281.473 149.137C281.443 148.644 281.015 148.252 280.505 148.26C278.964 148.364 277.414 148.365 275.868 148.326C275.361 148.293 274.929 148.717 274.937 149.228C274.905 149.734 275.328 150.166 275.839 150.158C277.426 150.202 279.038 150.187 280.619 150.087C280.803 150.086 280.995 150.004 281.129 149.896ZM268.835 149.262C269.013 149.118 269.115 148.924 269.159 148.705C269.232 148.202 268.893 147.739 268.413 147.648C266.888 147.406 265.371 147.085 263.881 146.704C263.383 146.591 262.883 146.885 262.77 147.383C262.657 147.882 262.951 148.381 263.449 148.495C264.98 148.879 266.577 149.21 268.142 149.455C268.362 149.498 268.635 149.425 268.835 149.262ZM256.945 145.938C257.057 145.847 257.172 145.717 257.23 145.56C257.424 145.07 257.192 144.556 256.702 144.362C255.274 143.784 253.85 143.166 252.474 142.472C252.029 142.242 251.479 142.429 251.227 142.892C250.997 143.337 251.184 143.887 251.647 144.139C253.063 144.838 254.523 145.501 256.01 146.105C256.347 146.201 256.7 146.136 256.945 145.938ZM246.07 140.129C246.137 140.075 246.204 140.021 246.253 139.944C246.541 139.526 246.439 138.944 246.02 138.655C244.765 137.79 243.495 136.861 242.333 135.883C241.937 135.577 241.341 135.616 241.035 136.013C240.728 136.409 240.768 137.004 241.164 137.311C242.384 138.316 243.69 139.289 245.004 140.181C245.306 140.416 245.758 140.382 246.07 140.129ZM236.735 132.075C236.757 132.057 236.757 132.057 236.78 132.039C237.163 131.691 237.163 131.1 236.834 130.739C235.99 129.835 235.191 128.895 234.415 127.936C234.216 127.691 234.017 127.446 233.819 127.201C233.493 126.8 232.928 126.741 232.509 127.044C232.112 127.328 232.049 127.934 232.352 128.353C232.551 128.598 232.767 128.865 232.966 129.111C233.761 130.091 234.596 131.076 235.458 132.002C235.809 132.345 236.356 132.382 236.735 132.075ZM229.387 122.189C229.743 121.9 229.834 121.42 229.612 121.009C228.833 119.683 228.121 118.304 227.449 116.928C227.231 116.477 226.661 116.274 226.21 116.492C225.758 116.71 225.556 117.281 225.774 117.732C226.46 119.17 227.208 120.594 228.023 121.965C228.282 122.42 228.838 122.56 229.293 122.302C229.32 122.243 229.364 122.207 229.387 122.189Z" fill="#90AEEE"/>
<path opacity="0.64" d="M327.237 120.536C327.326 120.464 327.397 120.37 327.468 120.275C327.871 119.542 328.234 118.805 328.619 118.05C328.831 117.583 328.644 117.033 328.176 116.821C327.709 116.609 327.159 116.796 326.947 117.263C326.607 117.982 326.226 118.697 325.845 119.412C325.615 119.857 325.78 120.425 326.225 120.655C326.576 120.814 326.969 120.753 327.237 120.536Z" fill="#90AEEE"/>
</g>
<path d="M318.14 106.898C318.07 107.176 317.843 107.397 317.556 107.408L309.403 108.329C307.736 111.785 305.525 114.981 302.761 117.812L304.68 125.784C304.754 126.057 304.621 126.349 304.38 126.507L296.076 131.798C295.835 131.956 295.531 131.945 295.305 131.758L288.884 126.66C285.178 127.965 281.316 128.622 277.476 128.669L273.175 135.663C273.029 135.893 272.729 136.024 272.451 135.955L262.863 133.829C262.585 133.76 262.364 133.532 262.353 133.246L261.431 125.093C257.975 123.426 254.78 121.215 251.949 118.451L243.977 120.37C243.704 120.444 243.412 120.311 243.254 120.07L237.963 111.766C237.805 111.525 237.816 111.22 238.003 110.995L243.101 104.574C241.796 100.868 241.139 97.0054 241.092 93.166L234.098 88.8648C233.868 88.7184 233.736 88.4191 233.806 88.1408L235.931 78.5527C236.001 78.2744 236.228 78.0534 236.515 78.0426L244.646 77.1393C246.313 73.6832 248.523 70.488 251.288 67.6566L249.368 59.6849C249.295 59.4121 249.427 59.12 249.668 58.9616L257.972 53.6709C258.213 53.5125 258.518 53.524 258.743 53.7108L265.165 58.8086C268.871 57.5035 272.733 56.8471 276.573 56.8001L280.874 49.8056C281.02 49.5761 281.319 49.4443 281.598 49.5142L291.186 51.6392C291.464 51.7091 291.685 51.9362 291.696 52.2229L292.617 60.3758C296.073 62.0428 299.269 64.2535 302.1 67.0177L310.072 65.0984C310.345 65.025 310.637 65.1575 310.795 65.3984L316.086 73.7026C316.244 73.9435 316.233 74.2482 316.046 74.4734L310.948 80.8951C312.253 84.601 312.909 88.4633 312.956 92.3027L319.951 96.6039C320.18 96.7503 320.312 97.0497 320.242 97.3279L318.14 106.898Z" fill="url(#paint1_linear)"/>
<path opacity="0.56" d="M283.679 100.967C287 98.2754 288.498 93.7003 287.069 89.4307C286.187 86.7481 284.314 84.5737 281.774 83.3086C279.235 82.0434 276.379 81.8466 273.697 82.7285C271.014 83.6104 268.84 85.4837 267.575 88.0232C266.309 90.5627 266.113 93.418 266.995 96.1006C268.822 101.636 274.809 104.648 280.367 102.803C281.614 102.383 282.721 101.744 283.679 100.967ZM272.678 87.3946C273.324 86.8708 274.039 86.4764 274.862 86.2158C276.614 85.6445 278.479 85.758 280.124 86.6032C281.751 87.4262 282.988 88.8609 283.582 90.5955C284.774 94.208 282.814 98.123 279.202 99.3155C277.449 99.8868 275.585 99.7733 273.939 98.928C272.312 98.1051 271.075 96.6703 270.482 94.9357C269.91 93.1831 270.024 91.3185 270.869 89.6733C271.311 88.7609 271.943 87.9908 272.678 87.3946Z" fill="white"/>
<path opacity="0.56" d="M292.174 111.585C292.665 111.188 293.115 110.786 293.587 110.366C293.721 110.258 293.836 110.127 293.952 109.997C294.179 109.776 294.195 109.431 293.996 109.185C293.978 109.163 293.978 109.163 293.96 109.141C293.721 108.891 293.331 108.912 293.104 109.133C291.942 110.296 290.654 111.304 289.253 112.218C279.637 118.35 267.129 116.45 259.706 108.249C259.413 107.933 259.16 107.621 258.889 107.286C258.329 106.596 257.832 105.891 257.339 105.146C254.008 99.943 252.942 93.7534 254.266 87.7323C255.611 81.6931 259.208 76.5624 264.41 73.2316C274.397 66.8727 287.476 69.1591 294.774 78.1627C295.334 78.8536 295.831 79.5583 296.325 80.3034C298.565 83.842 299.832 87.911 299.926 92.0817C299.931 92.225 299.981 92.3322 300.072 92.4436C300.18 92.5774 300.373 92.6792 300.557 92.678C300.884 92.6714 301.16 92.3739 301.153 92.0469C301.04 87.6703 299.736 83.373 297.351 79.6561C296.844 78.8484 296.311 78.0991 295.732 77.386C288.055 67.9143 274.276 65.4935 263.745 72.1829C258.261 75.6679 254.47 81.1045 253.05 87.4623C251.63 93.8201 252.805 100.327 256.29 105.811C256.797 106.619 257.33 107.368 257.908 108.081C265.586 117.553 279.365 119.974 289.896 113.284C290.708 112.737 291.461 112.163 292.174 111.585Z" fill="white"/>
</g>
<g opacity="0.7">
<g opacity="0.64">
<path opacity="0.64" d="M387.754 83.2593C387.94 83.3941 388.17 83.4192 388.381 83.3241C388.859 83.1043 389.315 82.8676 389.787 82.6077C390.088 82.4366 390.198 82.0906 390.043 81.7659C389.872 81.4645 389.526 81.3551 389.202 81.5094C388.746 81.7461 388.308 81.9595 387.852 82.1962C387.545 82.3272 387.418 82.6964 387.549 83.0043C387.592 83.1413 387.661 83.1919 387.754 83.2593Z" fill="#7A9DEA"/>
<path opacity="0.64" d="M391.673 81.0344C391.882 81.186 392.152 81.2048 392.373 81.0464C393.208 80.4824 394.036 79.8784 394.818 79.2407C395.073 79.0359 395.113 78.6393 394.908 78.3843C394.703 78.1293 394.307 78.0896 394.052 78.2944C393.286 78.9089 392.515 79.4833 391.697 80.024C391.419 80.212 391.356 80.5917 391.527 80.8932C391.557 80.9501 391.626 81.0007 391.673 81.0344ZM396.297 77.301C396.529 77.4695 396.856 77.4587 397.088 77.237C397.246 77.0681 397.427 76.9161 397.585 76.7472C398.133 76.1877 398.658 75.6114 399.159 75.0183C399.384 74.7565 399.344 74.3727 399.082 74.1473C398.82 73.9218 398.437 73.9623 398.211 74.224C397.727 74.7939 397.219 75.347 396.688 75.8833C396.53 76.0521 396.372 76.221 396.207 76.3498C395.959 76.5947 395.959 76.9849 396.204 77.2336C396.227 77.2504 396.274 77.2841 396.297 77.301ZM400.133 72.7479C400.412 72.9501 400.813 72.8865 400.992 72.591C401.558 71.7616 402.118 70.8921 402.615 70.0121C402.794 69.7166 402.674 69.3455 402.378 69.1665C402.083 68.9875 401.712 69.1081 401.533 69.4035C401.053 70.2603 400.526 71.0834 399.977 71.8896C399.814 72.1618 399.878 72.5625 400.133 72.7479ZM403.064 67.5376C403.088 67.5544 403.134 67.5881 403.157 67.605C403.47 67.7608 403.834 67.6001 403.95 67.2942C404.361 66.3869 404.741 65.4226 405.042 64.4711C405.135 64.1483 404.974 63.7836 404.651 63.6911C404.328 63.5986 403.964 63.7592 403.871 64.082C403.564 64.9934 403.217 65.9113 402.806 66.8186C402.748 67.0949 402.832 67.3691 403.064 67.5376ZM404.945 61.9191C405.014 61.9696 405.101 61.997 405.164 62.0075C405.504 62.0767 405.822 61.8824 405.891 61.5428C406.106 60.5639 406.297 59.5682 406.424 58.562C406.454 58.2287 406.219 57.9168 405.903 57.8643C405.569 57.8351 405.258 58.0695 405.205 58.386C405.071 59.3521 404.897 60.3246 404.676 61.2634C404.658 61.5334 404.759 61.7843 404.945 61.9191ZM405.73 56.0021C405.823 56.0695 405.933 56.1137 406.076 56.1115C406.426 56.1175 406.692 55.8493 406.721 55.5161C406.745 54.5057 406.746 53.4786 406.691 52.481C406.68 52.1541 406.389 51.8717 406.045 51.9058C405.718 51.9166 405.436 52.208 405.47 52.5517C405.519 53.5093 405.535 54.5132 405.504 55.4835C405.496 55.6902 405.568 55.8841 405.73 56.0021ZM405.402 50.0566C405.518 50.1409 405.691 50.1956 405.851 50.1701C406.172 50.1192 406.431 49.811 406.357 49.4736C406.198 48.4719 405.998 47.4766 405.759 46.4876C405.685 46.1502 405.326 45.9607 405.012 46.0517C404.675 46.1258 404.485 46.4846 404.576 46.7987C404.809 47.7477 405.002 48.7029 405.155 49.6646C405.18 49.8248 405.286 49.9724 405.402 50.0566ZM403.968 44.2662C404.131 44.3842 404.321 44.4156 404.538 44.3606C404.869 44.2464 405.018 43.894 404.928 43.5798C404.591 42.6268 404.215 41.6801 403.782 40.763C403.651 40.4552 403.281 40.329 402.974 40.4601C402.666 40.5911 402.54 40.9604 402.671 41.2682C403.098 42.1452 403.451 43.075 403.757 43.9711C403.8 44.1082 403.876 44.1988 403.968 44.2662ZM401.468 38.8712C401.654 39.006 401.924 39.0247 402.152 38.9064C402.453 38.7353 402.539 38.3724 402.368 38.071C401.861 37.2067 401.314 36.3487 400.71 35.5204C400.522 35.2422 400.142 35.1793 399.847 35.3905C399.569 35.5784 399.506 35.9581 399.717 36.2532C400.275 37.0479 400.816 37.8657 401.316 38.6899C401.346 38.7469 401.399 38.8206 401.468 38.8712ZM385.949 25.4799C385.995 25.5136 386.042 25.5473 386.082 25.5409C386.983 25.9113 387.867 26.3049 388.741 26.7617C389.053 26.9175 389.424 26.797 389.563 26.5079C389.719 26.1956 389.598 25.8245 389.309 25.6855C388.412 25.2118 387.482 24.7845 386.541 24.4205C386.235 24.3048 385.87 24.4654 385.731 24.7545C385.632 25.0372 385.74 25.3282 385.949 25.4799ZM397.99 34.0423C398.222 34.2109 398.549 34.2 398.764 34.0015C399.036 33.7735 399.035 33.3833 398.831 33.1283C398.275 32.4771 397.686 31.8723 397.057 31.2739C396.935 31.1495 396.835 31.0421 396.696 30.941C396.451 30.6923 396.044 30.7159 395.836 30.9544C395.587 31.1993 395.611 31.6064 395.849 31.815C395.948 31.9224 396.088 32.0235 396.187 32.131C396.77 32.6957 397.359 33.3005 397.867 33.918C397.92 33.9918 397.967 34.0255 397.99 34.0423ZM391.254 28.2316L391.277 28.2484C392.1 28.7749 392.89 29.3479 393.662 29.9441C393.941 30.1463 394.325 30.1059 394.527 29.8273C394.729 29.5486 394.689 29.1648 394.41 28.9626C393.614 28.3496 392.779 27.7429 391.932 27.1995C391.637 27.0205 391.259 27.1011 391.08 27.3965C390.918 27.6687 390.975 28.0294 391.254 28.2316Z" fill="#7A9DEA"/>
<path opacity="0.64" d="M381.623 24.1127C381.693 24.1633 381.779 24.1906 381.843 24.2011C382.332 24.3082 382.805 24.4385 383.3 24.5857C383.623 24.6782 383.965 24.5007 384.057 24.1779C384.15 23.8551 383.972 23.5136 383.649 23.4211C383.154 23.2739 382.641 23.15 382.128 23.026C381.789 22.9567 381.47 23.1511 381.378 23.4739C381.313 23.7102 381.414 23.9611 381.623 24.1127Z" fill="#7A9DEA"/>
</g>
<g opacity="0.64">
<path opacity="0.64" d="M357.073 28.3419C357.282 28.4936 357.552 28.5123 357.774 28.3539C358.182 28.0836 358.631 27.8068 359.064 27.5533C359.365 27.3822 359.451 27.0194 359.28 26.7179C359.109 26.4165 358.746 26.3303 358.445 26.5014C357.996 26.7782 357.563 27.0317 357.114 27.3084C356.836 27.4964 356.75 27.8592 356.921 28.1607C356.951 28.2176 357.004 28.2914 357.073 28.3419Z" fill="#7A9DEA"/>
<path opacity="0.64" d="M355.758 80.311C356.477 80.8334 357.237 81.3495 358.007 81.8022C358.303 81.9812 358.68 81.9007 358.859 81.6053C359.038 81.3098 358.958 80.9323 358.662 80.7533C357.776 80.2163 356.9 79.616 356.064 79.0094C355.786 78.8072 355.402 78.8476 355.2 79.1262C354.997 79.4048 355.038 79.7886 355.316 79.9909C355.456 80.092 355.595 80.1931 355.758 80.311ZM352.874 77.9346C353.13 78.12 353.473 78.0859 353.682 77.8474C353.907 77.5856 353.89 77.2186 353.645 76.97C353.43 76.7783 353.231 76.5633 353.016 76.3716C352.48 75.8406 351.961 75.2863 351.464 74.749C351.236 74.4771 350.846 74.4775 350.591 74.6823C350.319 74.9103 350.32 75.3005 350.524 75.5556C351.027 76.133 351.57 76.7041 352.129 77.2519C352.351 77.4837 352.566 77.6755 352.805 77.8841C352.828 77.9009 352.851 77.9178 352.874 77.9346ZM360.768 83.2739C360.791 83.2908 360.837 83.3245 360.86 83.3413C361.837 83.8023 362.848 84.2169 363.869 84.5681C364.175 84.6839 364.54 84.5232 364.649 84.1772C364.765 83.8713 364.604 83.5065 364.258 83.3972C363.277 83.0396 362.313 82.6587 361.359 82.2146C361.047 82.0588 360.699 82.1962 360.543 82.5085C360.444 82.7912 360.535 83.1054 360.768 83.2739ZM348.645 73.1634C348.854 73.3151 349.141 73.3106 349.362 73.1522C349.64 72.9642 349.703 72.5845 349.492 72.2894C348.888 71.4611 348.311 70.5462 347.781 69.6651C347.61 69.3637 347.247 69.2775 346.946 69.4486C346.644 69.6198 346.558 69.9826 346.729 70.2841C347.266 71.2053 347.866 72.137 348.499 73.0222C348.552 73.096 348.599 73.1297 348.645 73.1634ZM345.449 67.653C345.611 67.771 345.864 67.813 346.075 67.7178C346.383 67.5868 346.509 67.2175 346.378 66.9097C345.962 65.9694 345.579 64.9827 345.26 64.0065C345.145 63.6754 344.81 63.5028 344.479 63.617C344.148 63.7312 343.975 64.0667 344.089 64.3978C344.438 65.4309 344.827 66.4577 345.267 67.4149C345.303 67.5119 345.379 67.6025 345.449 67.653ZM343.46 61.6016C343.6 61.7027 343.773 61.7574 343.95 61.7087C344.287 61.6345 344.483 61.3159 344.409 60.9785C344.186 59.9663 344.021 58.9245 343.879 57.8996C343.845 57.5558 343.52 57.3199 343.199 57.3708C342.855 57.4049 342.619 57.7299 342.67 58.0505C342.802 59.1387 342.991 60.1973 343.22 61.2496C343.262 61.3866 343.344 61.5173 343.46 61.6016ZM342.725 55.2895C342.817 55.3569 342.95 55.418 343.094 55.4157C343.421 55.4049 343.703 55.1135 343.692 54.7866C343.67 53.7426 343.711 52.7091 343.793 51.6692C343.822 51.3359 343.571 51.0472 343.237 51.018C342.904 50.9887 342.615 51.24 342.586 51.5733C342.488 52.6364 342.46 53.7501 342.465 54.8173C342.473 55.0008 342.562 55.1715 342.725 55.2895ZM343.256 48.9404C343.326 48.9909 343.413 49.0183 343.499 49.0456C343.839 49.1149 344.151 48.8805 344.22 48.5409C344.405 47.5051 344.653 46.4798 344.947 45.4882C345.039 45.1654 344.862 44.8239 344.539 44.7314C344.216 44.6389 343.875 44.8164 343.782 45.1392C343.494 46.1708 343.213 47.2426 343.011 48.3015C342.952 48.5779 343.071 48.8056 343.256 48.9404ZM345.06 42.8411C345.107 42.8748 345.13 42.8916 345.193 42.9021C345.499 43.0178 345.87 42.8973 346.003 42.5681C346.384 41.6038 346.828 40.6501 347.318 39.73C347.474 39.4177 347.377 39.0635 347.065 38.9077C346.752 38.7519 346.398 38.8493 346.242 39.1616C345.735 40.1048 345.257 41.105 344.859 42.0925C344.72 42.3816 344.828 42.6726 345.06 42.8411ZM348.048 37.211C348.048 37.211 348.071 37.2278 348.048 37.211C348.35 37.43 348.727 37.3495 348.906 37.0541C349.125 36.7523 349.321 36.4336 349.54 36.1318C349.928 35.5978 350.356 35.0574 350.766 34.5403C350.992 34.2786 350.951 33.8947 350.69 33.6693C350.428 33.4439 350.044 33.4843 349.819 33.7461C349.368 34.2696 348.946 34.85 348.542 35.4072C348.306 35.7322 348.087 36.034 347.874 36.3759C347.712 36.6481 347.793 37.0256 348.048 37.211ZM352.097 32.316C352.329 32.4845 352.656 32.4737 352.888 32.252C353.634 31.5173 354.426 30.8163 355.208 30.1786C355.463 29.9737 355.503 29.5772 355.298 29.3222C355.093 29.0671 354.697 29.0275 354.442 29.2323C353.603 29.8996 352.794 30.6238 352.014 31.4049C351.765 31.6498 351.766 32.04 352.011 32.2887C352.051 32.2823 352.074 32.2991 352.097 32.316Z" fill="#7A9DEA"/>
<path opacity="0.64" d="M366.798 85.4177C366.867 85.4682 366.93 85.4787 367.017 85.5061C367.53 85.63 368.019 85.7371 368.549 85.8379C368.888 85.9071 369.2 85.6727 369.253 85.3563C369.322 85.0167 369.087 84.7047 368.771 84.6523C368.282 84.5452 367.792 84.4381 367.303 84.331C366.98 84.2385 366.645 84.456 366.552 84.7788C366.487 85.0151 366.589 85.266 366.798 85.4177Z" fill="#7A9DEA"/>
</g>
<path d="M373.063 78.4449C372.903 78.4704 372.741 78.3524 372.698 78.2153L371.013 73.9437C368.895 73.5408 366.847 72.7982 364.907 71.7095L360.862 73.9132C360.731 73.9956 360.541 73.9641 360.442 73.8567L356.378 70.1273C356.256 70.0029 356.23 69.8426 356.291 69.7097L358.125 65.4749C356.868 63.6411 355.976 61.6466 355.381 59.5844L350.982 58.2703C350.833 58.2325 350.727 58.085 350.702 57.9247L350.46 52.3968C350.458 52.2534 350.553 52.074 350.69 52.0317L354.961 50.3466C355.364 48.2286 356.107 46.1799 357.195 44.2406L354.992 40.1951C354.909 40.0645 354.941 39.8746 355.048 39.7754L358.778 35.7117C358.902 35.5892 359.062 35.5638 359.195 35.6248L363.43 37.4579C365.264 36.2012 367.235 35.2924 369.321 34.7147L370.635 30.3158C370.672 30.166 370.82 30.0604 370.98 30.035L376.508 29.7935C376.668 29.7681 376.831 29.886 376.873 30.0231L378.558 34.2947C380.676 34.6976 382.725 35.4403 384.664 36.5289L388.71 34.3252C388.841 34.2428 389.03 34.2743 389.13 34.3818L393.193 38.1112C393.316 38.2355 393.341 38.3958 393.28 38.5287L391.447 42.7635C392.704 44.5973 393.596 46.5918 394.19 48.654L398.589 49.9681C398.739 50.0059 398.845 50.1535 398.87 50.3137L399.111 55.8417C399.114 55.9851 399.019 56.1644 398.882 56.2068L394.61 57.8918C394.207 60.0098 393.465 62.0585 392.376 63.9978L394.58 68.0433C394.662 68.174 394.631 68.3638 394.523 68.4631L390.794 72.5267C390.67 72.6492 390.509 72.6746 390.376 72.6136L386.141 70.7805C384.308 72.0372 382.313 72.9291 380.251 73.5238L378.937 77.9226C378.899 78.0724 378.752 78.178 378.591 78.2035L373.063 78.4449Z" fill="url(#paint2_linear)"/>
<path opacity="0.56" d="M371.524 58.5401C373.335 59.8545 375.822 59.9935 377.793 58.6945C379.019 57.8834 379.872 56.6593 380.154 55.1973C380.458 53.7523 380.183 52.2761 379.372 51.0493C378.56 49.8226 377.336 48.9695 375.874 48.6882C374.429 48.3838 372.953 48.6594 371.726 49.4704C369.176 51.1285 368.489 54.565 370.148 57.1156C370.547 57.6889 371.013 58.1693 371.524 58.5401ZM377.287 50.5999C377.705 50.9033 378.073 51.2762 378.349 51.7252C379.648 53.6961 379.088 56.3732 377.117 57.6721C375.146 58.9711 372.469 58.4105 371.17 56.4397C369.871 54.4688 370.431 51.7917 372.402 50.4927C373.351 49.8696 374.506 49.645 375.612 49.8802C376.251 50.0251 376.823 50.2629 377.287 50.5999Z" fill="white"/>
<path opacity="0.56" d="M366.597 65.2793C366.736 65.3804 366.875 65.4815 367.015 65.5826C367.224 65.7343 367.449 65.8628 367.675 65.9912C367.698 66.0081 367.698 66.0081 367.722 66.0249C367.745 66.0418 367.745 66.0418 367.768 66.0586C368.04 66.2208 368.378 66.1466 368.563 65.8912C368.58 65.868 368.58 65.868 368.597 65.8448C368.776 65.5494 368.655 65.1783 368.383 65.0161C367.613 64.5634 366.87 64.0241 366.217 63.4088C361.193 58.805 360.728 51.0943 365.02 45.9144C365.138 45.7519 365.279 45.6062 365.42 45.4605C370.165 40.2907 378.222 39.9351 383.392 44.6801C388.201 49.0922 388.842 56.364 385.101 61.5181C384.815 61.9128 384.505 62.2906 384.172 62.6516C382.615 64.3573 380.615 65.5994 378.439 66.2532C378.302 66.2955 378.211 66.3715 378.127 66.4876C378.026 66.6269 377.977 66.8399 378.026 67.0171C378.117 67.3313 378.476 67.5207 378.79 67.4297C381.2 66.6977 383.388 65.3437 385.086 63.4923C385.453 63.0849 385.779 62.6839 386.1 62.2427C390.194 56.6011 389.502 48.6185 384.216 43.7892C378.562 38.587 369.708 38.9666 364.512 44.6599C364.146 45.0673 363.819 45.4684 363.499 45.9095C359.404 51.5512 360.097 59.5337 365.383 64.363C365.406 64.3798 365.406 64.3798 365.43 64.3967C365.778 64.6495 366.179 64.976 366.597 65.2793Z" fill="white"/>
</g>
<path d="M147.792 48.3825C147.792 48.3825 157.073 23.8791 119.894 29.7079C82.6575 35.5366 92.108 49.4011 89.4483 60.4927C86.7886 71.5843 71.3961 84.4868 28.2747 102.539C-14.9033 120.648 -0.812416 166.655 19.1638 181.538C39.14 196.421 49.5525 185.952 54.7588 212.38C59.965 238.807 78.6962 259.915 100.766 236.827C122.893 213.738 147.962 186.518 139.87 151.772C131.777 117.082 140.096 123.477 153.791 107.123C167.429 90.7682 137.267 76.0549 147.792 48.3825Z" fill="url(#paint3_linear)"/>
<path d="M135.343 112.046C139.248 104.576 154.187 118.384 156.734 121.383C163.128 128.966 169.41 135.644 179.143 139.209C185.142 141.416 192.442 141.756 198.044 138.077C206.137 132.758 211.852 125.062 212.588 115.215C212.871 111.254 212.362 107.236 211.626 103.331C211.06 100.502 207.608 94.5597 208.683 92.1829C209.419 90.5418 211.117 89.5232 212.871 89.1271C214.625 88.7309 216.436 88.9573 218.247 89.1271C218.813 89.1837 219.435 89.2402 219.831 89.6364C220.454 90.2023 220.454 91.1077 220.397 91.9C219.775 101.52 224.585 110.178 224.642 120.082C224.755 132.248 219.888 143.51 210.89 151.715C198.441 163.09 186.726 164.901 178.068 163.826C173.824 163.656 169.749 162.298 165.958 160.091C164.487 159.298 163.638 158.733 163.638 158.733L163.581 158.619C147.17 147.301 131.608 119.233 135.343 112.046Z" fill="url(#paint4_linear)"/>
<path d="M10.761 84.0017C11.2712 82.6957 13.1561 82.7057 13.6329 84.0126C15.4105 88.8022 19.5732 97.1566 26.7882 99.5658C27.0633 99.631 27.4192 99.5989 27.5811 99.4043C27.832 99.2017 27.8968 98.9259 27.8727 98.6581C27.8163 98.0331 27.582 97.4243 27.0726 96.7502C26.0539 95.4022 26.0869 93.7792 26.4111 92.4C26.5328 91.759 27.1235 91.3458 27.7384 91.2004C28.3613 91.1442 29.0165 91.4451 29.3318 91.9566C29.8733 92.9878 30.7789 94.0761 32.0244 94.9537C34.7983 96.8635 36.479 101.572 35.0534 105.66C32.6361 120.638 28.6876 140.523 51.9487 152.735C75.1207 164.955 102.313 121.284 102.313 121.284L107.07 158.114C107.07 158.114 69.3089 191.039 39.5885 168.88C9.86799 146.721 24.8829 109.277 24.8829 109.277C24.8829 109.277 3.12406 102.78 10.761 84.0017Z" fill="url(#paint5_linear)"/>
<path d="M140.395 109.845C134.283 108.204 117.008 106.67 100.597 122.572C97.8237 125.288 96.7485 129.306 97.8803 132.984C102.804 149.452 115.932 198.176 106.029 219.68C106.029 219.68 124.93 239.486 144.567 222.622C144.567 222.622 152.603 183.179 163.921 165.693C171.73 153.583 149.83 121.383 144.284 113.631C143.435 112.499 141.753 110.241 140.395 109.845Z" fill="url(#paint6_linear)"/>
<path d="M123.232 78.7146C123.232 78.7146 114.914 104.293 114.518 115.498C114.518 115.498 124.534 119.742 133.702 111.933C133.702 111.933 134.041 86.5806 135.343 82.0534L123.232 78.7146Z" fill="url(#paint7_linear)"/>
<path d="M134.833 43.8553C134.833 43.8553 159.11 76.0549 145.303 85.9581C131.551 95.8613 114.291 72.9424 114.291 72.9424C114.291 72.9424 108.406 55.1167 113.895 48.8918C119.441 42.6669 134.833 43.8553 134.833 43.8553Z" fill="url(#paint8_linear)"/>
<path d="M105.747 44.2514C109.934 33.4428 123.799 36.2723 123.799 36.2723C123.799 36.2723 134.608 38.5359 136.249 43.4026C136.984 45.553 134.042 47.76 130.08 49.5709C121.366 53.5322 115.141 61.6245 113.556 71.075L113.217 73.2254C113.217 73.282 101.559 55.0601 105.747 44.2514Z" fill="url(#paint9_linear)"/>
<path d="M118.762 70.3959C118.762 70.3959 109.368 60.04 105.916 67.0571C102.464 74.0176 114.405 78.8844 118.423 75.4324L118.762 70.3959Z" fill="url(#paint10_linear)"/>
<path d="M169.976 304.338C169.976 306.092 173.428 320.127 175.296 327.653C176.031 330.652 175.635 333.821 174.164 336.594L117.8 437.154C117.121 438.343 116.612 439.701 116.329 441.059C115.367 445.756 113.443 457.187 114.858 467.543L118.083 473.768L104.841 471.108L101.106 435.796L104.785 433.419C107.954 431.382 110.387 428.383 111.745 424.874C116.725 411.802 129.118 378.527 132.118 362.399C135.513 344.064 155.433 328.728 155.433 328.728L151.641 320.41L169.976 304.338Z" fill="url(#paint11_linear)"/>
<path d="M89.9014 459.338C89.9014 459.338 96.7487 447.906 97.4844 443.492C98.2201 439.078 100.37 431.269 104.784 433.476C104.784 433.476 107.388 454.754 106.878 463.129C106.369 471.504 116.499 470.938 116.499 470.938C116.499 470.938 119.328 471.278 121.422 473.259C122.893 474.617 121.931 477.107 119.951 477.277C116.668 477.56 111.349 477.786 105.803 476.824C103.879 476.484 102.408 474.9 102.238 472.919L100.144 448.416L91.4293 459.96L89.9014 459.338Z" fill="url(#paint12_linear)"/>
<path d="M135.23 321.032C135.23 321.032 135.4 409.708 135.4 422.328C135.456 434.947 138.399 462.79 151.245 470.769L145.869 474.956C145.869 474.956 138.852 469.297 131.891 458.262C124.025 445.813 121.705 443.606 121.705 443.606L124.082 438.399C125.1 436.136 125.383 433.589 124.817 431.156C121.761 418.027 111.575 374.34 108.859 364.946C105.633 353.854 105.067 338.971 114.971 326.238C124.761 313.506 135.23 321.032 135.23 321.032Z" fill="url(#paint13_linear)"/>
<path d="M127.534 479.427C127.138 479.427 126.798 479.144 126.741 478.804C126.232 475.862 124.195 464.034 122.667 461.035C120.913 457.583 115.197 442.926 122.158 441.455C122.158 441.455 140.21 466.411 143.605 469.75C147.057 473.089 151.188 470.769 151.188 470.769C151.188 470.769 154.47 471.674 157.017 474.73C158.205 476.201 157.187 478.408 155.319 478.465L143.605 478.861C140.21 478.974 137.097 476.993 135.739 473.881C133.532 468.788 129.797 461.318 125.61 458.092L128.269 478.578C128.326 479.031 127.986 479.427 127.534 479.427Z" fill="url(#paint14_linear)"/>
<path d="M147.057 213.002C147.057 213.002 144.623 221.491 149.037 235.242L176.427 322.447C176.879 323.805 176.144 325.276 174.786 325.786C167.316 328.672 142.756 336.934 108.972 335.462C107.274 335.406 105.803 334.217 105.406 332.576C102.916 322.617 94.4846 288.663 92.7303 281.646C86.1093 255.048 78.7527 226.357 107.557 208.192C121.138 213.625 133.815 216.737 147.057 213.002Z" fill="url(#paint15_linear)"/>
<path d="M109.142 41.5917C105.577 42.4406 102.182 44.2515 99.5784 46.9678C98.3334 48.3259 97.3714 50.0236 96.7489 51.7779L96.3528 53.1361L96.1264 54.5508C95.9567 55.5128 95.9001 56.3617 95.7869 57.2671C94.6551 64.3974 91.7124 71.2448 87.1853 76.9038C84.9783 79.7333 82.3751 82.2798 79.489 84.4302C76.603 86.6372 73.3773 88.2217 70.0951 89.9194C66.8129 91.5605 63.5307 93.0884 60.1353 94.5598C56.7965 96.0311 53.3446 97.3327 49.8926 98.4079C57.0229 96.7102 63.8703 93.8807 70.5479 90.7683C73.8867 89.2403 77.1689 87.5426 80.1681 85.3356C83.1674 83.1286 85.8837 80.5821 88.2039 77.6394C92.7311 71.7541 95.7869 64.737 96.7489 57.3237C96.8621 56.4183 96.9187 55.4562 97.0319 54.5508L97.2016 53.2492L97.5412 51.9477C98.0505 50.25 98.9559 48.6655 100.088 47.3073C102.408 44.591 105.69 42.6669 109.142 41.5917Z" fill="#91B3FA"/>
<path d="M16.2776 120.817C13.3915 125.288 11.4109 130.268 10.2225 135.474C9.03408 140.68 8.75113 146.113 9.54339 151.433C10.4488 156.752 12.4861 161.845 15.4853 166.259C16.2776 167.334 17.0132 168.466 17.9187 169.428C18.3714 169.937 18.7675 170.447 19.2202 170.956L20.635 172.371C21.5404 173.333 22.6156 174.125 23.5777 175.03C24.5963 175.879 25.6715 176.672 26.7467 177.464C22.7288 174.012 19.1071 170.164 16.2776 165.75C14.9194 163.486 13.6744 161.223 12.769 158.789C11.8636 156.356 11.1845 153.809 10.7318 151.263C9.88293 146.113 10.1093 140.85 11.1279 135.701C11.6372 133.154 12.3163 130.607 13.1651 128.118C14.0706 125.571 15.0892 123.138 16.2776 120.817Z" fill="#91B3FA"/>
<path d="M495.479 231.47L531.886 225.521C531.886 225.521 555.982 224.964 557.839 246.479C559.645 267.99 550.365 394.084 547.617 420.065C546.691 428.622 546.218 436.542 546.527 443.488C547.105 457.992 535.035 469.812 520.564 469.109L453.782 465.863L495.479 231.47Z" fill="url(#paint16_linear)"/>
<path d="M460.103 476.542C460.103 476.542 473.905 376.654 528.882 318.841C529.6 318.068 530.761 318.35 531 319.392C535.545 335.185 560.144 436.952 460.103 476.542Z" fill="#5D88E6"/>
<path d="M524.756 347.808C523.958 353.654 522.707 359.368 521.354 365.076C519.95 370.779 518.396 376.422 516.591 381.996C513.03 393.149 508.761 404.152 503.75 414.746C501.191 420.066 498.538 425.276 495.635 430.368C494.233 432.943 492.631 435.453 491.13 437.969C489.531 440.428 487.979 442.942 486.281 445.343C479.635 455.06 472.059 464.099 463.523 472.152C463.251 472.39 462.893 472.367 462.651 472.145C462.409 471.924 462.436 471.516 462.658 471.274C470.366 462.551 477.391 453.321 483.58 443.522C485.176 441.114 486.626 438.594 488.123 436.129C489.572 433.608 491.07 431.143 492.42 428.565C493.121 427.277 493.819 426.041 494.469 424.75L496.469 420.882C497.119 419.591 497.769 418.3 498.419 417.009C499.069 415.719 499.667 414.425 500.269 413.079C501.521 410.443 502.722 407.804 503.872 405.162C505.022 402.519 506.175 399.825 507.226 397.125C509.427 391.782 511.482 386.326 513.434 380.864C515.386 375.402 517.189 369.878 518.841 364.293C520.541 358.763 522.095 353.121 523.493 347.519C523.567 347.165 523.938 346.984 524.241 347.056C524.592 347.181 524.831 347.454 524.756 347.808Z" fill="url(#paint17_linear)"/>
<path d="M467.168 465.93C467.168 465.93 525.526 381.101 582.719 383.506C583.741 383.574 584.446 384.544 584.177 385.501C580.957 396.932 559.945 456.227 467.168 465.93Z" fill="#5D88E6"/>
<path d="M569.684 396.75C565.97 400.146 562.162 403.433 558.36 406.618C556.409 408.182 554.506 409.8 552.505 411.36C550.555 412.924 548.604 414.487 546.606 415.996C538.658 422.139 530.526 427.961 522.207 433.514C518.071 436.318 513.792 438.958 509.56 441.653L503.147 445.537C502.078 446.185 501.009 446.832 499.94 447.479L496.689 449.316C488.046 454.335 479.032 458.765 469.973 463.089C469.657 463.222 469.306 463.096 469.122 462.776C468.989 462.459 469.115 462.109 469.435 461.925L476.121 458.572L479.464 456.895C480.58 456.302 481.646 455.706 482.762 455.113L489.36 451.549C491.545 450.309 493.679 449.065 495.865 447.825L499.119 445.937L502.326 443.995L508.739 440.111C512.919 437.413 517.198 434.772 521.283 431.965C525.467 429.216 529.504 426.354 533.595 423.445L539.634 419.023L545.625 414.546C547.623 413.037 549.57 411.525 551.571 409.964C553.522 408.401 555.469 406.888 557.419 405.325C561.32 402.197 565.173 399.016 568.88 395.722C569.152 395.483 569.561 395.51 569.748 395.779C569.932 396.099 569.905 396.508 569.684 396.75Z" fill="#5D88E6"/>
<path d="M422.531 228.38C422.531 228.38 487.568 236.281 531.886 225.521C531.886 225.521 503.16 221.617 498.74 288.321C495.361 339.294 496.472 437.092 488.661 455.094C480.847 473.146 454.533 496.334 420.553 472.639C386.522 448.94 422.531 228.38 422.531 228.38Z" fill="#4369BA"/>
<path d="M411.791 127.275C411.791 127.275 483.285 139.914 493.338 128.319C493.338 128.319 487.439 105.87 465.43 105.899C443.424 105.877 411.791 127.275 411.791 127.275Z" fill="url(#paint18_linear)"/>
<path d="M176.025 136.479C176.025 213.492 180.919 357.544 181.819 430.654C182.023 446.93 194.146 460.609 210.32 462.707C267.839 470.264 397.45 486.087 447.797 482.652C436.728 476.276 430.302 464.102 431.25 451.34L455.526 125.301C456.393 113.765 468.433 106.252 478.943 111.001C485.566 114.005 490.366 119.761 493.342 128.269C489.554 114.218 482.815 103.665 465.433 105.848C465.433 105.848 297.438 96.4071 215.638 96.0645C193.432 95.9779 175.498 114.232 176.025 136.479Z" fill="#5D88E6"/>
<mask id="mask0" mask-type="alpha" maskUnits="userSpaceOnUse" x="160" y="94" width="297" height="386">
<path d="M219.769 105.726L445.891 111.991C432.029 180.275 426.667 320.787 421.032 459.23C420.694 467.415 425.004 475.139 432.18 479.103C432.18 479.103 281.598 470.868 217.293 461.989C202.144 459.908 190.498 447.542 189.249 432.326C184.288 372.49 173.23 218.116 182.991 137.402C185.241 118.93 201.13 105.209 219.769 105.726Z" fill="url(#paint19_linear)"/>
</mask>
<g mask="url(#mask0)">
<path opacity="0.53" d="M219.769 105.726L445.892 111.991C432.03 180.275 426.667 320.787 421.032 459.23C420.694 467.415 425.005 475.139 432.18 479.103C432.18 479.103 281.598 470.868 217.293 461.989C202.144 459.908 190.498 447.542 189.249 432.326C186.094 368.962 178.556 217.732 182.991 137.402C185.242 118.93 201.13 105.209 219.769 105.726Z" fill="url(#paint20_linear)"/>
<path d="M211.53 212.661L212.573 238.117C212.736 242.795 216.34 246.615 220.978 247.065L235.655 248.565C240.954 249.108 245.618 245.149 245.957 239.836L247.697 212.558C248.045 207.092 243.67 202.504 238.178 202.564L220.719 202.887C215.479 203.014 211.351 207.418 211.53 212.661Z" fill="url(#paint21_linear)"/>
<path d="M263.772 208.198C288.289 208.992 382.529 211.926 406.281 212.672C409.301 212.762 411.6 215.319 411.408 218.333C411.225 221.194 408.828 223.4 405.96 223.32L263.511 219.516C260.746 219.443 258.524 217.3 258.339 214.57L258.279 213.9C258.123 210.71 260.649 208.101 263.772 208.198Z" fill="url(#paint22_linear)"/>
<path d="M260.115 241.406C260.478 242.147 261.218 242.605 262.036 242.657L359.793 246.738C361.022 246.765 362.054 245.857 362.132 244.631L362.543 238.194C362.624 236.917 361.617 235.827 360.337 235.797L265.25 233.271C261.001 233.153 258.201 237.642 260.115 241.406Z" fill="url(#paint23_linear)"/>
<path d="M207.057 282.799L208.1 308.254C208.263 312.932 211.866 316.752 216.505 317.202L231.181 318.702C236.481 319.246 241.145 315.286 241.484 309.973L243.224 282.695C243.572 277.229 239.197 272.642 233.705 272.702L216.246 273.024C211.006 273.151 206.878 277.556 207.057 282.799Z" fill="url(#paint24_linear)"/>
<path d="M259.299 278.335C283.816 279.129 378.056 282.063 401.807 282.809C404.828 282.899 407.127 285.456 406.934 288.47C406.752 291.331 404.354 293.537 401.487 293.457L259.038 289.653C256.273 289.58 254.05 287.438 253.866 284.707L253.806 284.037C253.65 280.847 256.176 278.238 259.299 278.335Z" fill="url(#paint25_linear)"/>
<path opacity="0.78" d="M255.642 311.543C256.005 312.284 256.745 312.742 257.563 312.794L355.319 316.875C356.549 316.903 357.581 315.994 357.659 314.768L358.07 308.331C358.151 307.054 357.144 305.964 355.863 305.934L260.777 303.408C256.527 303.291 253.728 307.779 255.642 311.543Z" fill="white"/>
<path d="M202.584 352.936L203.627 378.392C203.79 383.069 207.393 386.89 212.032 387.339L226.708 388.84C232.008 389.383 236.672 385.423 237.01 380.111L238.75 352.832C239.099 347.366 234.724 342.779 229.232 342.839L211.773 343.161C206.533 343.289 202.405 347.693 202.584 352.936Z" fill="url(#paint26_linear)"/>
<path d="M254.825 348.472C279.343 349.267 373.583 352.2 397.334 352.946C400.355 353.036 402.654 355.593 402.461 358.607C402.279 361.468 399.881 363.674 397.014 363.594L254.565 359.791C251.8 359.717 249.577 357.575 249.392 354.845L249.333 354.174C249.177 350.984 251.703 348.375 254.825 348.472Z" fill="url(#paint27_linear)"/>
<path d="M251.169 381.681C251.532 382.422 252.272 382.879 253.089 382.931L350.846 387.013C352.075 387.04 353.108 386.131 353.186 384.905L353.597 378.469C353.678 377.192 352.671 376.102 351.39 376.071L256.304 373.545C252.054 373.428 249.255 377.917 251.169 381.681Z" fill="url(#paint28_linear)"/>
<path d="M320.796 457.673C319.672 457.601 318.581 457.019 317.475 455.871C313.387 451.609 312.651 445.459 312.767 439.619C310.631 441.74 308.451 443.755 306.271 445.77L305.215 444.626C307.725 442.272 310.292 439.82 312.808 437.365C313.112 429.383 313.981 421.386 315.406 413.526C316.277 408.709 317.42 403.653 319.814 399.087C320.573 397.648 321.834 395.574 323.808 394.367C325.889 393.114 328.504 393.127 330.217 394.416C332.124 395.872 332.475 398.407 332.566 400.208C333.229 410.714 328.588 419.958 324.515 425.904C321.515 430.329 317.978 434.31 314.25 438.072C314.077 444.011 314.477 450.602 318.514 454.86C319.381 455.736 320.121 456.194 320.887 456.242C322.117 456.27 323.162 455.157 324.051 454.085C328.01 449.106 331.233 443.618 333.61 437.717C333.979 435.946 334.553 434.187 335.423 432.601L336.821 433.203C336.302 434.914 335.683 436.567 335.068 438.169C334.756 439.842 334.697 441.582 334.947 443.291C335.092 444.223 335.622 447.181 337.792 447.729C339.407 448.14 341.171 447.022 343.244 444.282L351.649 433.123L350.412 437.25C349.959 438.709 349.173 442.198 351.164 443.145C352.309 443.68 353.578 443.094 355.06 442.368C356.543 441.642 358.076 440.919 359.698 441.228L360.458 441.379L360.256 442.135C360.124 442.589 359.26 446.483 361.274 447.073C362.181 447.336 363.04 446.724 364.284 445.726C365.259 444.916 366.285 444.11 367.581 443.885L367.844 445.389C366.963 445.538 366.151 446.204 365.285 446.918C364.041 447.916 362.635 449.058 360.873 448.535C358.556 447.874 358.163 445.182 358.582 442.644C357.653 442.739 356.7 443.191 355.643 443.688C354.055 444.458 352.202 445.366 350.412 444.482C348.918 443.772 348.199 442.187 348.288 439.987L344.367 445.174C342.796 447.279 340.369 449.945 337.34 449.188C335.272 448.646 333.768 446.498 333.347 443.445C333.271 443.03 333.249 442.567 333.224 442.155C331.037 446.683 328.353 450.974 325.174 454.977C324.115 456.295 322.686 457.793 320.793 457.724C320.898 457.679 320.847 457.676 320.796 457.673ZM327.464 394.959C326.442 394.894 325.398 395.186 324.647 395.702C322.991 396.725 321.9 398.553 321.202 399.842C318.923 404.211 317.787 409.165 316.925 413.829C315.594 421.027 314.764 428.411 314.4 435.723C317.639 432.39 320.686 428.84 323.29 425.006C327.196 419.254 331.716 410.31 331.074 400.267C330.918 397.898 330.345 396.425 329.321 395.59C328.782 395.197 328.128 395.001 327.464 394.959Z" fill="url(#paint29_linear)"/>
<path opacity="0.78" d="M403.966 184.672L223.918 178.492C217.468 178.284 212.323 172.929 212.431 166.422L212.626 152.945C212.744 146.284 218.263 140.995 224.965 141.27L405.897 148.07C412.649 148.348 417.868 154.17 417.283 160.903L416.205 173.76C415.646 180.084 410.263 184.869 403.966 184.672Z" fill="white"/>
</g>
<path d="M219.809 88.5873C220.968 88.8529 222.042 89.2755 223.001 90.0224C228.097 93.9837 226.799 101.858 225.208 107.206C224.469 109.719 219.466 123.827 215.141 118.451C214.537 117.653 214.317 116.636 214.153 115.629C213.137 109.755 214.64 92.7196 204.408 97.8406C203.65 98.222 198.991 99.5135 198.764 99.8177C201.744 95.063 201.131 92.7108 206.819 90.1666C210.647 88.3811 215.615 87.6051 219.809 88.5873Z" fill="url(#paint30_linear)"/>
<defs>
<linearGradient id="paint0_linear" x1="70.5" y1="465.02" x2="313.491" y2="191.326" gradientUnits="userSpaceOnUse">
<stop stop-color="#9BB7F3"/>
<stop offset="1" stop-color="#E6EDFF"/>
</linearGradient>
<linearGradient id="paint1_linear" x1="319.131" y1="-31.8953" x2="241.806" y2="197.051" gradientUnits="userSpaceOnUse">
<stop stop-color="#4369BA"/>
<stop offset="1" stop-color="#5D88E6"/>
</linearGradient>
<linearGradient id="paint2_linear" x1="452.521" y1="59.0663" x2="211.363" y2="43.6314" gradientUnits="userSpaceOnUse">
<stop stop-color="#5D88E6"/>
<stop offset="1" stop-color="#5D88E6"/>
</linearGradient>
<linearGradient id="paint3_linear" x1="268.564" y1="55.5813" x2="90.2746" y2="142.424" gradientUnits="userSpaceOnUse">
<stop stop-color="#113685"/>
<stop offset="1" stop-color="#053294"/>
</linearGradient>
<linearGradient id="paint4_linear" x1="126.56" y1="80.7101" x2="221.121" y2="143.87" gradientUnits="userSpaceOnUse">
<stop stop-color="#FF928E"/>
<stop offset="1" stop-color="#FEB3B1"/>
</linearGradient>
<linearGradient id="paint5_linear" x1="-13.2097" y1="59.0641" x2="98.0714" y2="172.83" gradientUnits="userSpaceOnUse">
<stop stop-color="#FF928E"/>
<stop offset="1" stop-color="#FEB3B1"/>
</linearGradient>
<linearGradient id="paint6_linear" x1="1.41339" y1="443.4" x2="225.197" y2="93.3553" gradientUnits="userSpaceOnUse">
<stop offset="0.136283" stop-color="#149469"/>
<stop offset="1" stop-color="#62E7BF"/>
</linearGradient>
<linearGradient id="paint7_linear" x1="130.484" y1="55.3233" x2="122.561" y2="127.381" gradientUnits="userSpaceOnUse">
<stop stop-color="#FF928E"/>
<stop offset="1" stop-color="#FEB3B1"/>
</linearGradient>
<linearGradient id="paint8_linear" x1="-246.097" y1="2512.25" x2="-236.158" y2="2447.71" gradientUnits="userSpaceOnUse">
<stop stop-color="#FF928E"/>
<stop offset="1" stop-color="#FEB3B1"/>
</linearGradient>
<linearGradient id="paint9_linear" x1="231.336" y1="-4.67224" x2="54.3704" y2="84.8353" gradientUnits="userSpaceOnUse">
<stop stop-color="#113685"/>
<stop offset="1" stop-color="#053294"/>
</linearGradient>
<linearGradient id="paint10_linear" x1="-263.507" y1="2509.53" x2="-253.568" y2="2445" gradientUnits="userSpaceOnUse">
<stop stop-color="#FF928E"/>
<stop offset="1" stop-color="#FEB3B1"/>
</linearGradient>
<linearGradient id="paint11_linear" x1="68.5521" y1="524.261" x2="170.089" y2="329.617" gradientUnits="userSpaceOnUse">
<stop stop-color="#FF928E"/>
<stop offset="1" stop-color="#FEB3B1"/>
</linearGradient>
<linearGradient id="paint12_linear" x1="89.7918" y1="455.951" x2="121.403" y2="454.857" gradientUnits="userSpaceOnUse">
<stop stop-color="#09005D"/>
<stop offset="1" stop-color="#1A0F91"/>
</linearGradient>
<linearGradient id="paint13_linear" x1="186.215" y1="378.796" x2="26.2782" y2="436.11" gradientUnits="userSpaceOnUse">
<stop stop-color="#FF928E"/>
<stop offset="1" stop-color="#FEB3B1"/>
</linearGradient>
<linearGradient id="paint14_linear" x1="119.297" y1="460.645" x2="156.981" y2="459.341" gradientUnits="userSpaceOnUse">
<stop stop-color="#09005D"/>
<stop offset="1" stop-color="#1A0F91"/>
</linearGradient>
<linearGradient id="paint15_linear" x1="130.144" y1="290.18" x2="85.6714" y2="533.2" gradientUnits="userSpaceOnUse">
<stop stop-color="#09005D"/>
<stop offset="1" stop-color="#1A0F91"/>
</linearGradient>
<linearGradient id="paint16_linear" x1="461.814" y1="343.562" x2="553.229" y2="349.621" gradientUnits="userSpaceOnUse">
<stop stop-color="#113685"/>
<stop offset="0.692708" stop-color="#053A94"/>
</linearGradient>
<linearGradient id="paint17_linear" x1="466.653" y1="407.895" x2="520.543" y2="411.466" gradientUnits="userSpaceOnUse">
<stop stop-color="#DAE3FE"/>
<stop offset="1" stop-color="#E9EFFD"/>
</linearGradient>
<linearGradient id="paint18_linear" x1="483.687" y1="204.968" x2="371.313" y2="-74.5754" gradientUnits="userSpaceOnUse">
<stop stop-color="#113685"/>
<stop offset="1" stop-color="#053294"/>
</linearGradient>
<linearGradient id="paint19_linear" x1="418.268" y1="179.621" x2="41.4664" y2="601.093" gradientUnits="userSpaceOnUse">
<stop stop-color="white"/>
<stop offset="1"/>
</linearGradient>
<linearGradient id="paint20_linear" x1="418.268" y1="179.621" x2="41.4666" y2="601.093" gradientUnits="userSpaceOnUse">
<stop stop-color="white"/>
<stop offset="1" stop-color="white"/>
</linearGradient>
<linearGradient id="paint21_linear" x1="210.78" y1="223.913" x2="246.847" y2="226.214" gradientUnits="userSpaceOnUse">
<stop stop-color="#DAE3FE"/>
<stop offset="1" stop-color="#E9EFFD"/>
</linearGradient>
<linearGradient id="paint22_linear" x1="258.435" y1="211.214" x2="411.266" y2="220.962" gradientUnits="userSpaceOnUse">
<stop stop-color="#DAE3FE"/>
<stop offset="1" stop-color="#E9EFFD"/>
</linearGradient>
<linearGradient id="paint23_linear" x1="259.672" y1="235.927" x2="362.256" y2="242.47" gradientUnits="userSpaceOnUse">
<stop stop-color="#DAE3FE"/>
<stop offset="1" stop-color="#E9EFFD"/>
</linearGradient>
<linearGradient id="paint24_linear" x1="206.307" y1="294.049" x2="242.374" y2="296.349" gradientUnits="userSpaceOnUse">
<stop stop-color="#DAE3FE"/>
<stop offset="1" stop-color="#E9EFFD"/>
</linearGradient>
<linearGradient id="paint25_linear" x1="253.962" y1="281.349" x2="406.793" y2="291.097" gradientUnits="userSpaceOnUse">
<stop stop-color="#DAE3FE"/>
<stop offset="1" stop-color="#E9EFFD"/>
</linearGradient>
<linearGradient id="paint26_linear" x1="201.834" y1="364.184" x2="237.901" y2="366.485" gradientUnits="userSpaceOnUse">
<stop stop-color="#DAE3FE"/>
<stop offset="1" stop-color="#E9EFFD"/>
</linearGradient>
<linearGradient id="paint27_linear" x1="249.489" y1="351.484" x2="402.32" y2="361.233" gradientUnits="userSpaceOnUse">
<stop stop-color="#DAE3FE"/>
<stop offset="1" stop-color="#E9EFFD"/>
</linearGradient>
<linearGradient id="paint28_linear" x1="250.726" y1="376.197" x2="353.31" y2="382.741" gradientUnits="userSpaceOnUse">
<stop stop-color="#DAE3FE"/>
<stop offset="1" stop-color="#E9EFFD"/>
</linearGradient>
<linearGradient id="paint29_linear" x1="372.946" y1="359.917" x2="317.085" y2="479.794" gradientUnits="userSpaceOnUse">
<stop stop-color="#113685"/>
<stop offset="1" stop-color="#053294"/>
</linearGradient>
<linearGradient id="paint30_linear" x1="198.581" y1="100.524" x2="225.776" y2="105.403" gradientUnits="userSpaceOnUse">
<stop stop-color="#FF928E"/>
<stop offset="1" stop-color="#FEB3B1"/>
</linearGradient>
</defs>
</svg>
