<svg width="142" height="78" viewBox="0 0 142 78" fill="none" xmlns="http://www.w3.org/2000/svg">
<path d="M113.562 70.4677C113.41 70.4697 113.259 70.4383 113.12 70.3759C112.982 70.3134 112.858 70.2213 112.759 70.1061C112.66 69.9908 112.587 69.8552 112.545 69.7088C112.504 69.5624 112.495 69.4087 112.52 69.2586L114.412 57.4429L111.024 56.755C110.756 56.7007 110.521 56.5437 110.368 56.3175C110.215 56.0914 110.156 55.8143 110.205 55.5458L112.29 44.0324C112.318 43.8833 112.377 43.742 112.465 43.6182C112.552 43.4944 112.666 43.3912 112.797 43.3158C112.929 43.2404 113.075 43.1945 113.226 43.1815C113.377 43.1684 113.529 43.1885 113.671 43.2402L121.688 46.1225C121.818 46.1695 121.937 46.2419 122.039 46.3354C122.14 46.429 122.223 46.5419 122.28 46.6675C122.338 46.7932 122.37 46.929 122.375 47.0672C122.38 47.2054 122.357 47.3431 122.308 47.4724L120.708 51.6889L123.741 52.4811C123.9 52.5223 124.046 52.6004 124.169 52.7089C124.292 52.8174 124.387 52.9533 124.448 53.1056C124.508 53.2579 124.532 53.4223 124.517 53.5855C124.502 53.7487 124.449 53.906 124.361 54.0447L114.458 69.983C114.363 70.1338 114.23 70.2575 114.074 70.3424C113.917 70.4273 113.74 70.4704 113.562 70.4677ZM112.452 54.9307L115.819 55.6135C116.083 55.6667 116.317 55.8201 116.47 56.0417C116.624 56.2633 116.685 56.5357 116.642 56.8019L115.407 64.4844L121.844 54.1385L119.055 53.4141C118.914 53.3774 118.782 53.3113 118.667 53.2202C118.553 53.1291 118.459 53.0149 118.392 52.8852C118.325 52.7554 118.285 52.6129 118.277 52.467C118.268 52.3211 118.29 52.1749 118.341 52.0381L119.978 47.7278L114.146 45.6429L112.452 54.9307Z" fill="#05D9AE"/>
<path d="M94.338 55.0008H98.3998V76.6471C98.3998 77.4047 98.9955 78 99.7538 78H134.956C135.714 78 136.31 77.4047 136.31 76.6471V55.0008H140.372C141.563 55.0008 142.159 53.5397 141.347 52.6738L118.33 29.6747C117.788 29.1335 116.922 29.1335 116.434 29.6747L93.3632 52.6738C92.5508 53.5397 93.1466 55.0008 94.338 55.0008ZM117.355 32.5428L137.122 52.295H134.956C134.198 52.295 133.602 52.8903 133.602 53.6479V75.2942H101.108V53.6479C101.108 52.8903 100.512 52.295 99.7538 52.295H97.5875L117.355 32.5428Z" fill="#05D9AE"/>
<path d="M70.5467 41.9675C68.0768 41.9646 65.7088 40.9822 63.9623 39.2357C62.2158 37.4892 61.2333 35.1212 61.2305 32.6512C61.2235 29.2574 62.008 25.9086 63.5217 22.871C65.0354 19.8334 67.2366 17.1906 69.9505 15.1527C70.1236 15.0358 70.3272 14.9723 70.536 14.9703C70.7449 14.9682 70.9497 15.0276 71.1251 15.1411C71.3004 15.2546 71.4385 15.4171 71.5221 15.6085C71.6058 15.7999 71.6313 16.0116 71.5955 16.2174C71.1856 18.5331 71.0631 22.6962 72.3674 24.1495C72.8059 23.4238 73.1157 22.6277 73.2831 21.7965C73.3258 21.5996 73.4236 21.4188 73.565 21.2753C73.7064 21.1317 73.8857 21.0313 74.0819 20.9856C74.2782 20.9398 74.4834 20.9507 74.6737 21.017C74.864 21.0833 75.0316 21.2022 75.1569 21.3599C75.3486 21.5995 79.863 27.317 79.863 32.6352C79.8644 35.108 78.8838 37.4801 77.1368 39.23C75.3899 40.98 73.0195 41.9646 70.5467 41.9675ZM69.1999 18.6236C65.4734 22.3371 63.3682 27.3745 63.344 32.6352C63.344 34.5413 64.1011 36.3693 65.4489 37.7171C66.7967 39.0649 68.6247 39.8221 70.5308 39.8221C72.4368 39.8221 74.2648 39.0649 75.6126 37.7171C76.9604 36.3693 77.7176 34.5413 77.7176 32.6352C77.7176 29.6434 75.9182 26.3268 74.6619 24.3784C74.2573 25.2568 73.677 26.0766 72.8625 26.3162C72.5138 26.4118 72.1451 26.4065 71.7993 26.301C71.4535 26.1954 71.1447 25.994 70.9088 25.7199C69.2851 24.0803 69.0828 20.9394 69.1999 18.6236Z" fill="#05D9AE"/>
<path d="M70.5488 41.9206C69.1839 41.9192 67.8753 41.3764 66.9102 40.4113C65.9451 39.4462 65.4023 38.1376 65.4009 36.7728C65.4397 33.6009 66.3515 30.501 68.036 27.8132C68.1609 27.6296 68.34 27.4896 68.5483 27.4129C68.7566 27.3361 68.9837 27.3263 69.1978 27.385C69.4119 27.4437 69.6024 27.5678 69.7425 27.74C69.8826 27.9123 69.9653 28.124 69.9791 28.3456C70.0909 30.2407 70.5967 33.2166 71.3899 34.276C71.8667 33.6645 72.2407 32.9795 72.4972 32.2477C72.5689 32.0499 72.6976 31.8778 72.867 31.7531C73.0364 31.6284 73.239 31.5566 73.4492 31.5469C73.6593 31.5373 73.8677 31.5901 74.0479 31.6987C74.228 31.8073 74.372 31.9669 74.4616 32.1572C74.5893 32.4287 75.702 34.819 75.702 36.7515C75.7041 37.4295 75.5723 38.1014 75.3143 38.7284C75.0563 39.3555 74.677 39.9255 74.1983 40.4057C73.7196 40.8859 73.1508 41.2669 72.5245 41.5269C71.8982 41.7868 71.2268 41.9206 70.5488 41.9206ZM68.3448 32.104C67.8215 33.6 67.5481 35.172 67.5356 36.7568C67.5683 37.5347 67.9003 38.2699 68.4623 38.8088C69.0243 39.3476 69.7728 39.6485 70.5514 39.6485C71.33 39.6485 72.0785 39.3476 72.6405 38.8088C73.2025 38.2699 73.5345 37.5347 73.5672 36.7568C73.5502 36.2501 73.4697 35.7475 73.3277 35.2609C72.9576 35.8469 72.3917 36.2826 71.7306 36.4906C71.4265 36.5563 71.1105 36.5417 70.8137 36.4484C70.5169 36.3551 70.2495 36.1862 70.0377 35.9583C69.1859 35.1118 68.6642 33.5786 68.3448 32.104Z" fill="#05D9AE"/>
<path d="M48.2467 25.732H52.3085V47.3783C52.3085 48.1359 52.9042 48.7312 53.6624 48.7312H88.8646C89.6228 48.7312 90.2186 48.1359 90.2186 47.3783V25.732H94.2804C95.4718 25.732 96.0676 24.2709 95.2552 23.405L72.2384 0.405868C71.6968 -0.135289 70.8303 -0.135289 70.3429 0.405868L47.2719 23.405C46.4595 24.2709 47.0553 25.732 48.2467 25.732ZM71.2635 3.274L91.0309 23.0262H88.8646C88.1064 23.0262 87.5107 23.6215 87.5107 24.3791V46.0254H55.0164V24.3791C55.0164 23.6215 54.4206 23.0262 53.6624 23.0262H51.4962L71.2635 3.274Z" fill="#05D9AE"/>
<path d="M24.8511 70.9091C22.3366 70.9063 19.9258 69.9061 18.1478 68.128C16.3697 66.35 15.3696 63.9393 15.3667 61.4247C15.3667 56.5904 23.0735 45.1928 23.9514 43.9084C24.051 43.7631 24.1844 43.6442 24.3402 43.5621C24.4961 43.4799 24.6695 43.437 24.8457 43.437C25.0218 43.437 25.1953 43.4799 25.3511 43.5621C25.5069 43.6442 25.6404 43.7631 25.7399 43.9084C26.6179 45.1928 34.3247 56.5904 34.3247 61.4247C34.3218 63.9374 33.3231 66.3465 31.5474 68.1242C29.7717 69.902 27.3638 70.9034 24.8511 70.9091ZM24.8511 46.4773C22.2063 50.5204 17.5346 58.2976 17.5346 61.4301C17.5346 63.3706 18.3054 65.2316 19.6775 66.6037C21.0496 67.9758 22.9106 68.7467 24.8511 68.7467C26.7916 68.7467 28.6526 67.9758 30.0247 66.6037C31.3968 65.2316 32.1676 63.3706 32.1676 61.4301C32.1622 58.2759 27.4959 50.4987 24.8511 46.4556V46.4773Z" fill="#05D9AE"/>
<path d="M1.82924 55.0008H5.89103V76.6471C5.89103 77.4047 6.48676 78 7.24496 78H42.4472C43.2054 78 43.8011 77.4047 43.8011 76.6471V55.0008H47.8629C49.0543 55.0008 49.6501 53.5397 48.8377 52.6738L25.8209 29.6747C25.2793 29.1335 24.4128 29.1335 23.9254 29.6747L0.854408 52.6738C0.0420498 53.5397 0.637779 55.0008 1.82924 55.0008ZM24.8461 32.5428L44.6135 52.295H42.4472C41.689 52.295 41.0932 52.8903 41.0932 53.6479V75.2942H8.59889V53.6479C8.59889 52.8903 8.00316 52.295 7.24496 52.295H5.07867L24.8461 32.5428Z" fill="#05D9AE"/>
</svg>
