<svg xmlns="http://www.w3.org/2000/svg" fill="none" viewBox="0 0 886 502">
  <path fill="url(#paint0_linear)" fill-opacity=".2" d="M230.473 380.886c-27.444-34.495-32.821-54.744 9.169-88.212 41.99-33.468 18.089-68.119 5.47-92.536-12.619-24.416-22.316-68.74 28.314-81.369 50.631-12.628 108.658 24.449 134.113-1.181 25.455-25.63 22.844-38.508 78.447-29.954 55.604 8.554 70.553 49.736 119.039 46.066 48.486-3.64 71.921-78.477 154.191-26.688 38.82 24.448 55.013-3.795 78.479 22.084 73.194 80.747-19.55 111.323 23.528 123.702 46.776 13.437 17.684 72.784-8.641 89.954-26.325 17.138-45.906 27.465-8.516 45.008 37.421 17.543 43.948 36.921 28.252 68.461-15.695 31.539-45.408 41.493-168.892 43.359-123.483 1.866-362.648-2.084-427.886-20.031-65.207-17.979-17.654-64.168-45.067-98.663z"/>
  <path fill="#5D88E6" d="M268.067 338.409c-1.141 37.961 6.262 150.466 134.524 147.574 0 0-53.571-105.501-123.274-153.251-4.697-3.21-11.065 0-11.25 5.677z"/>
  <path fill="#DCE5FE" d="M389.696 481.474c.345.212.079.716-.292.557-13.346-5.677-67.023-36.396-103.055-114.813-.107-.238.238-.451.398-.212 10.082 17.747 49.537 82.687 102.949 114.468z"/>
  <path fill="#A6BAE7" d="M462.344 487.999S411.373 297.37 314.155 195.37c-6.527-6.844-18.069-3.82-20.298 5.386-14.991 61.544-41.79 247.69 168.487 287.243z"/>
  <path fill="#DCE5FE" d="M442.87 476.194c.478.451-.106 1.194-.663.823-19.794-13.874-96.794-82.555-128.501-222.914-.106-.451.557-.636.69-.212 10.348 32.444 52.297 151.978 128.474 222.303z"/>
  <path fill="#A6BAE7" d="M667.287 492.536s31.999-160.759 110.803-252.705c5.307-6.181 15.681-4.642 18.282 2.706 17.379 49.236 53.624 199.781-129.085 249.999z"/>
  <path fill="#DCE5FE" d="M683.657 481.182c-.398.398.186.955.637.61 16.53-13.052 79.732-75.923 98.173-193.812.053-.372-.531-.478-.637-.107-6.925 27.51-35.793 129.165-98.173 193.309z"/>
  <path fill="#A6BAE7" d="M627.7 455.184s9.313-181.875 81.908-294.353c4.882-7.561 16.663-7.322 20.749.451 27.383 51.941 92.31 212.992-102.657 293.902z"/>
  <path fill="#DCE5FE" d="M644.044 440.381c-.372.504.371 1.035.796.584 16.238-16.713 76.257-94.917 77.477-227.583 0-.424-.663-.451-.716-.026-3.184 31.303-18.653 147.548-77.557 227.025z"/>
  <path fill="#D5DFF7" d="M337.513 219.057l-1.735.678h-.032a.557.557 0 01-.74-.321.557.557 0 01.32-.74l1.768-.677a.557.557 0 01.74.32c.129.29.001.611-.321.74zM330.701 222.153l-1.639.935h-.032a.584.584 0 01-.804-.224.584.584 0 01.224-.804l1.671-.935a.584.584 0 01.804.224c.161.289.097.643-.224.804zM324.404 226.181l-1.477 1.127c-.257.193-.643.162-.836-.128a.58.58 0 01.127-.836l1.51-1.159a.61.61 0 01.836.127c.161.289.129.643-.16.869zM318.655 230.979l-1.349 1.32a.602.602 0 01-.836.001.602.602 0 01-.001-.836l1.381-1.32a.602.602 0 01.836-.001c.225.193.226.578-.031.836zM313.517 236.42l-1.188 1.448a.649.649 0 01-.868.098.649.649 0 01-.097-.868l1.219-1.481a.649.649 0 01.868-.097c.258.256.291.61.066.9zM309.024 242.406l-1.027 1.577a.62.62 0 01-.868.162.62.62 0 01-.162-.868l1.059-1.577a.59.59 0 01.836-.162c.257.193.354.579.162.868zM305.141 248.81l-.866 1.673c-.16.29-.546.419-.836.258a.605.605 0 01-.258-.835l.866-1.674c.16-.289.546-.418.836-.258.321.161.45.514.258.836zM301.935 255.598l-.705 1.738c-.128.321-.482.483-.836.354-.321-.128-.483-.481-.355-.835l.705-1.769a.618.618 0 01.804-.355c.386.16.547.514.387.867zM299.405 262.643l-.512 1.802a.603.603 0 01-.803.419.603.603 0 01-.419-.803l.544-1.834c.096-.322.45-.515.803-.419.29.128.483.482.387.835zM297.581 269.913l-.351 1.833c-.064.354-.417.579-.771.515-.354-.063-.58-.417-.516-.771l.352-1.865c.063-.354.417-.579.771-.515a.71.71 0 01.515.803zM296.433 277.309l-.158 1.865v.033a.648.648 0 01-.706.579.648.648 0 01-.58-.706l.158-1.898a.649.649 0 01.707-.579.648.648 0 01.579.706zM296.058 284.801l.035 1.865v.032c0 .354-.289.676-.643.677-.353 0-.675-.289-.676-.643l-.034-1.897c-.001-.353.288-.675.642-.676.386-.032.675.257.676.642zM296.454 292.261l.228 1.864c.032.354-.224.708-.578.74-.354.033-.708-.224-.74-.577l-.228-1.897c-.033-.354.224-.708.578-.74a.683.683 0 01.74.61zM297.59 299.687l.388 1.832c.065.353-.16.74-.513.804-.354.065-.74-.159-.805-.513l-.388-1.864c-.065-.354.16-.74.513-.805.354-.065.708.16.805.546zM299.368 306.951l.549 1.8a.73.73 0 01-.449.869.73.73 0 01-.869-.449l-.549-1.832a.727.727 0 01.449-.869c.386-.097.772.127.869.481zM301.852 314.021l.71 1.736a.675.675 0 01-.385.901.676.676 0 01-.901-.385l-.709-1.768c-.129-.353.031-.771.384-.9a.762.762 0 01.901.416zM304.916 320.866l.87 1.671a.681.681 0 01-.288.933.683.683 0 01-.933-.288l-.87-1.703a.682.682 0 01.288-.933c.354-.162.772-.033.933.32zM308.59 327.42l.999 1.575c.225.321.097.771-.224.964-.321.226-.772.098-.965-.223l-1.031-1.607c-.193-.321-.098-.771.224-.965a.735.735 0 01.997.256zM312.81 333.588l1.128 1.478c.225.321.194.771-.128.997-.321.225-.771.194-.997-.128l-1.159-1.509c-.226-.322-.194-.772.127-.997.354-.226.804-.162 1.029.159zM317.577 339.401l1.256 1.381a.75.75 0 01-.031 1.029.749.749 0 01-1.029-.03l-1.288-1.413a.721.721 0 01.063-1.029.721.721 0 011.029.062zM322.792 344.764l1.385 1.253a.718.718 0 01.033 1.028.718.718 0 01-1.029.034l-1.416-1.284a.718.718 0 01-.034-1.029c.321-.29.772-.291 1.061-.002zM328.522 349.612l1.48 1.123a.725.725 0 01.13 1.029c-.257.322-.707.387-1.028.13l-1.513-1.155a.725.725 0 01-.13-1.029.787.787 0 011.061-.098zM334.637 353.88l1.609.963a.771.771 0 01.258 1.028.773.773 0 01-1.028.259l-1.641-.995a.773.773 0 01-.259-1.028c.257-.322.707-.452 1.061-.227zM341.169 357.537l1.673.802.032-.001c.386.193.548.643.355.997-.192.386-.642.547-.996.355l-1.705-.834c-.386-.192-.548-.642-.355-.996.16-.354.61-.515.996-.323zM348.021 360.518l1.77.641h.032c.386.16.612.578.451.996-.16.386-.578.612-.996.452l-1.801-.673c-.386-.161-.612-.578-.452-.964a.816.816 0 01.996-.452zM355.164 362.856l1.801.48h.032c.418.096.644.545.548.931-.096.419-.546.644-.932.548l-1.833-.48c-.418-.095-.644-.545-.548-.931.064-.418.481-.644.932-.548zM362.464 364.518l1.833.319h.032c.418.064.708.481.645.9-.064.418-.482.708-.9.644l-1.865-.319c-.418-.064-.708-.482-.645-.9.032-.418.45-.708.9-.644zM369.86 365.537l1.865.159h.032c.418.031.773.417.709.835-.032.418-.417.772-.835.708l-1.897-.158a.787.787 0 01-.709-.835c.032-.45.385-.772.835-.709zM377.352 365.849l1.865-.003h.032c.45 0 .804.353.805.803 0 .45-.353.804-.803.805l-1.897.002a.796.796 0 01-.805-.802c-.001-.418.353-.772.803-.805zM384.844 365.582l1.864-.164h.032a.8.8 0 01.87.739.8.8 0 01-.739.869l-1.897.163a.799.799 0 01-.869-.738c-.065-.45.256-.837.739-.869zM392.27 364.639l1.832-.324a.829.829 0 01.934.642.828.828 0 01-.642.934l-1.865.324a.828.828 0 01-.933-.642c-.065-.418.224-.837.674-.934zM399.6 363.151l1.799-.485c.418-.097.869.16.966.577.097.418-.16.869-.578.966l-1.832.485c-.418.097-.868-.16-.965-.578a.803.803 0 01.61-.965zM406.8 361.019l1.767-.613c.418-.162.868.063 1.03.481.161.417-.063.868-.481 1.029l-1.8.614c-.418.161-.868-.064-1.03-.481-.161-.418.064-.869.514-1.03zM413.805 358.341l1.703-.742c.418-.193.868-.001 1.062.417.193.417.001.868-.417 1.061l-1.735.774c-.418.194-.868.001-1.062-.416a.867.867 0 01.449-1.094zM420.553 355.149l1.67-.871c.386-.225.869-.065 1.094.32.226.386.066.868-.32 1.094l-1.671.903a.833.833 0 01-1.093-.321c-.226-.449-.066-.932.32-1.125zM427.107 351.442l1.606-.998a.829.829 0 011.126.255.83.83 0 01-.256 1.126l-1.606.999a.83.83 0 01-1.126-.256c-.258-.385-.162-.9.256-1.126zM433.371 347.319l1.542-1.096c.353-.257.868-.162 1.125.192.258.353.162.868-.191 1.125l-1.542 1.096c-.353.257-.868.162-1.126-.192-.257-.353-.194-.835.192-1.125zM439.41 342.841l1.477-1.159a.82.82 0 011.158.127.82.82 0 01-.127 1.157l-1.478 1.192a.82.82 0 01-1.157-.127.857.857 0 01.127-1.19zM445.191 338.043l1.413-1.256c.354-.29.868-.258 1.158.063.29.353.258.868-.063 1.157l-1.413 1.256c-.353.29-.868.259-1.157-.063-.322-.321-.291-.835.062-1.157zM450.78 332.987l1.349-1.288c.321-.322.835-.29 1.157.031.322.321.291.836-.031 1.158l-1.38 1.32c-.321.322-.836.29-1.158-.031-.29-.353-.29-.868.063-1.19zM456.142 327.707l1.316-1.352a.816.816 0 011.158-.002.816.816 0 01.001 1.158l-1.316 1.352a.816.816 0 01-1.158.002c-.322-.289-.322-.836-.001-1.158zM461.311 322.266l1.285-1.384c.321-.322.835-.355 1.157-.034.322.321.355.836.066 1.158l-1.284 1.384c-.321.322-.836.355-1.158.034a.819.819 0 01-.066-1.158zM466.385 316.665l1.252-1.417c.289-.354.803-.387 1.157-.066.354.289.387.804.066 1.158l-1.252 1.416c-.289.354-.803.387-1.157.066a.79.79 0 01-.066-1.157zM471.295 310.935l1.22-1.449c.289-.354.804-.386 1.158-.098.354.289.387.804.098 1.158l-1.22 1.448c-.289.354-.804.387-1.158.098-.354-.289-.387-.803-.098-1.157zM476.144 305.141l1.187-1.449a.822.822 0 011.158-.13.821.821 0 01.13 1.158l-1.188 1.448c-.289.354-.803.419-1.157.098-.387-.257-.419-.771-.13-1.125zM480.895 299.283l1.188-1.481a.82.82 0 011.157-.13.82.82 0 01.13 1.157l-1.187 1.481a.822.822 0 01-1.158.13c-.354-.257-.419-.803-.13-1.157zM485.646 293.392l1.187-1.48a.823.823 0 011.158-.131.822.822 0 01.13 1.158l-1.188 1.48a.821.821 0 01-1.157.131c-.354-.257-.419-.772-.13-1.158zM490.364 287.502l1.187-1.481a.822.822 0 011.158-.13.82.82 0 01.13 1.157l-1.188 1.481a.82.82 0 01-1.157.13c-.354-.257-.387-.803-.13-1.157zM495.147 281.644l1.188-1.481a.82.82 0 011.157-.13.82.82 0 01.13 1.157l-1.188 1.449a.82.82 0 01-1.157.13c-.386-.257-.419-.771-.13-1.125zM499.931 275.785l1.22-1.448c.289-.354.835-.387 1.189-.098.354.289.387.835.098 1.189l-1.22 1.449a.827.827 0 01-1.189.098c-.322-.321-.387-.836-.098-1.19zM504.811 269.991l1.252-1.448c.288-.354.835-.387 1.189-.098.354.289.387.835.098 1.189l-1.22 1.417c-.289.354-.835.387-1.189.098-.387-.289-.419-.804-.13-1.158zM509.818 264.294l1.252-1.417a.827.827 0 011.19-.066.827.827 0 01.066 1.19l-1.252 1.416a.827.827 0 01-1.19.066.826.826 0 01-.066-1.189zM514.923 258.692l1.316-1.384a.855.855 0 011.19-.034.855.855 0 01.034 1.19l-1.285 1.352a.853.853 0 01-1.189.034c-.354-.289-.387-.804-.066-1.158zM520.221 253.251l1.349-1.32a.854.854 0 011.19-.001.853.853 0 01.001 1.189l-1.349 1.32a.853.853 0 01-1.189.002c-.354-.321-.323-.836-.002-1.19zM525.681 248.003l1.413-1.288a.825.825 0 011.189.063.826.826 0 01-.062 1.189l-1.381 1.256a.827.827 0 01-1.19-.062.789.789 0 01.031-1.158zM531.365 242.947l1.445-1.223c.354-.29.9-.259 1.19.094.29.354.258.9-.095 1.19l-1.445 1.224c-.353.29-.9.258-1.19-.095a.859.859 0 01.095-1.19zM537.275 238.181l1.51-1.16c.385-.29.9-.194 1.19.16.289.385.194.9-.16 1.189l-1.509 1.128c-.386.29-.9.194-1.19-.159-.29-.354-.227-.9.159-1.158zM543.442 233.703l1.575-1.063c.385-.258.932-.162 1.19.224.257.385.162.932-.224 1.19l-1.574 1.031c-.386.257-.9.162-1.19-.224-.29-.353-.162-.9.223-1.158zM549.836 229.611l1.639-.967c.417-.225.932-.097 1.158.288.225.418.097.933-.288 1.158l-1.607.967c-.417.226-.932.098-1.158-.288-.29-.418-.162-.932.256-1.158zM556.454 225.873l1.703-.871a.854.854 0 011.158.353.855.855 0 01-.352 1.158l-1.671.87a.853.853 0 01-1.158-.352c-.226-.418-.098-.933.32-1.158zM563.266 222.488l1.735-.774a.859.859 0 011.126.416.859.859 0 01-.416 1.126l-1.703.774a.86.86 0 01-1.126-.416.82.82 0 01.384-1.126zM570.272 219.52l1.767-.677a.857.857 0 011.094.48.858.858 0 01-.481 1.094l-1.767.678a.858.858 0 01-1.094-.481c-.161-.418.031-.933.481-1.094zM577.438 216.938l1.8-.581c.45-.161.933.095 1.094.545.161.45-.095.933-.545 1.094l-1.8.581c-.45.162-.932-.095-1.094-.545-.161-.482.095-.964.545-1.094zM584.702 214.742l1.832-.484c.45-.13.933.159 1.062.609.129.45-.16.933-.61 1.062l-1.8.485c-.45.129-.932-.16-1.061-.61a.81.81 0 01.577-1.062zM592.096 212.932l1.864-.388a.871.871 0 01.356 1.703l-1.832.389a.872.872 0 01-1.03-.674.815.815 0 01.642-1.03zM599.553 211.539l1.865-.291c.482-.065.9.256.997.738.065.482-.256.9-.738.998l-1.864.291c-.483.065-.901-.256-.998-.738-.033-.514.288-.933.738-.998zM607.108 210.533l1.897-.196c.482-.032.9.289.933.771.033.482-.288.9-.77.933l-1.865.196c-.482.032-.901-.289-.934-.771-.097-.482.257-.9.739-.933zM614.695 209.944l1.897-.099c.482-.033.868.352.901.835.033.482-.352.868-.835.901l-1.864.099c-.483.033-.869-.352-.902-.835a.803.803 0 01.803-.901zM622.282 209.741l1.897.029c.483 0 .869.385.87.867a.866.866 0 01-.867.87l-1.865-.03a.865.865 0 01-.87-.867.82.82 0 01.835-.869zM629.904 209.956l1.897.126a.867.867 0 01.805.931.866.866 0 01-.931.805l-1.865-.126a.866.866 0 01-.805-.931c-.001-.482.416-.837.899-.805zM637.46 210.589l1.897.222c.483.064.837.482.773.964-.063.482-.481.837-.963.773l-1.865-.223c-.483-.063-.805-.481-.773-.963a.803.803 0 01.931-.773zM645.018 211.608l1.866.319c.482.096.804.545.708.996-.096.482-.545.804-.996.708l-1.865-.319c-.482-.095-.804-.545-.709-.995a.832.832 0 01.996-.709zM652.48 213.045l1.865.415a.846.846 0 01.645 1.06.846.846 0 01-1.06.645l-1.834-.416a.845.845 0 01-.644-1.06c.096-.45.545-.74 1.028-.644zM659.844 214.9l1.834.512c.45.128.74.61.612 1.092a.898.898 0 01-1.092.613l-1.802-.512a.899.899 0 01-.612-1.093c.128-.482.61-.772 1.06-.612zM667.115 217.141l1.801.609c.45.16.708.674.548 1.124-.16.451-.674.708-1.125.548l-1.769-.608c-.45-.16-.708-.675-.548-1.125.128-.482.642-.708 1.093-.548zM674.256 219.768l1.77.737c.45.193.676.707.484 1.157-.193.451-.707.676-1.157.484l-1.738-.705c-.45-.192-.676-.707-.483-1.157.16-.482.674-.676 1.124-.516zM681.238 222.813l1.705.834c.451.225.612.739.42 1.189-.225.451-.739.612-1.189.42l-1.706-.802c-.45-.224-.612-.738-.419-1.189.224-.482.738-.644 1.189-.452zM688.026 226.245l1.673.93a.89.89 0 01.355 1.189.89.89 0 01-1.189.356l-1.641-.899a.89.89 0 01-.355-1.189c.192-.45.706-.612 1.157-.387zM694.59 230.062l1.609 1.027a.887.887 0 11-.93 1.513l-1.577-.995a.887.887 0 01-.291-1.221c.225-.451.771-.58 1.189-.324zM700.962 234.234l1.545 1.091a.914.914 0 01.227 1.221c-.289.387-.836.484-1.222.227l-1.545-1.091a.914.914 0 01-.226-1.222c.256-.386.803-.483 1.221-.226zM707.078 238.695l1.512 1.155c.387.289.484.868.163 1.254-.289.386-.868.484-1.254.163l-1.513-1.124c-.386-.289-.483-.867-.162-1.254.321-.386.867-.483 1.254-.194zM713.096 243.317l1.481 1.156c.386.289.451.867.162 1.253-.289.387-.867.452-1.254.163l-1.48-1.156c-.386-.289-.451-.867-.163-1.253a.912.912 0 011.254-.163zM719.05 247.972l1.481 1.155c.386.289.451.868.162 1.254-.289.386-.867.451-1.253.162l-1.481-1.155c-.386-.289-.451-.868-.162-1.254a.912.912 0 011.253-.162zM725.037 252.594l1.513 1.123c.386.289.483.868.162 1.254-.289.386-.867.483-1.254.162l-1.512-1.155c-.386-.289-.484-.868-.163-1.254.289-.354.836-.419 1.254-.13zM731.087 257.055l1.545 1.091a.889.889 0 01.227 1.254.889.889 0 01-1.254.227l-1.545-1.091a.889.889 0 01-.227-1.254.887.887 0 011.254-.227zM737.331 261.259l1.577.995a.887.887 0 11-.93 1.512l-1.609-.995a.886.886 0 01-.291-1.221c.256-.418.803-.548 1.253-.291zM743.768 265.044l1.641.866h.032c.45.225.612.771.387 1.222-.224.45-.771.612-1.221.387l-1.705-.898c-.451-.224-.612-.771-.388-1.221a.97.97 0 011.254-.356zM750.524 268.283l1.737.705h.032a.886.886 0 01.484 1.157.912.912 0 01-1.189.484l-1.769-.705c-.451-.193-.677-.707-.484-1.157.16-.451.706-.676 1.189-.484zM757.537 270.749l1.801.48h.032c.483.128.773.61.645 1.093a.892.892 0 01-1.093.644l-1.865-.48a.891.891 0 01-.645-1.092c.128-.482.61-.772 1.125-.645zM764.805 272.283l1.833.223h.033c.482.063.868.513.805.995-.064.483-.514.869-.996.806l-1.897-.223a.948.948 0 01-.805-.996.949.949 0 01.995-.805h.032zM772.201 272.659l1.864-.099h.033a.907.907 0 01.965.867.907.907 0 01-.867.966l-1.929.099a.906.906 0 01-.965-.867.907.907 0 01.867-.966h.032zM779.563 271.813l1.8-.388h.032a.934.934 0 011.094.706.934.934 0 01-.706 1.094l-1.896.421a.935.935 0 01-1.095-.706.934.934 0 01.706-1.094l.065-.033zM786.698 269.843l1.735-.678h.033c.482-.193.996.063 1.19.513.194.482-.063.997-.513 1.19l-1.8.678c-.482.194-.996-.063-1.19-.513-.194-.482.031-.997.545-1.19zM793.478 266.811l1.639-.902h.032a.908.908 0 011.254.352.908.908 0 01-.352 1.254l-1.67.935a.866.866 0 01-1.223-.352.91.91 0 01.32-1.287zM799.807 262.912l1.51-1.095.032-.032c.418-.29.965-.195 1.287.191.29.417.194.964-.192 1.286l-1.541 1.128c-.418.29-.965.194-1.287-.192-.322-.385-.226-.964.191-1.286zM805.621 258.274l1.381-1.256.032-.032c.385-.354.964-.323 1.286.063.354.385.323.964-.063 1.286l-1.413 1.288c-.385.354-.964.323-1.286-.063a.914.914 0 01.063-1.286zM810.888 252.994l1.22-1.416.032-.032c.321-.386.9-.419 1.286-.098.386.321.419.899.098 1.286l-1.252 1.448c-.321.387-.9.419-1.286.098a.886.886 0 01-.098-1.286zM815.541 247.168l1.059-1.544v-.033a.923.923 0 011.513 1.059l-1.091 1.577a.925.925 0 01-1.286.227c-.386-.289-.483-.867-.195-1.286zM819.585 240.893l.898-1.641v-.032a.909.909 0 011.253-.356.91.91 0 01.356 1.254l-.931 1.673a.908.908 0 01-1.253.355c-.451-.256-.58-.803-.323-1.253zM822.921 234.233l.737-1.705v-.032c.192-.483.738-.677 1.221-.484.483.192.676.738.484 1.221l-.737 1.769c-.193.483-.739.676-1.221.484a.997.997 0 01-.484-1.253zM825.547 227.252l.545-1.769v-.032c.16-.483.674-.773 1.156-.613.483.16.773.674.613 1.157l-.544 1.833c-.161.483-.675.773-1.157.613-.483-.16-.741-.674-.613-1.189zM827.435 220.015l.351-1.833v-.032a.923.923 0 011.093-.741.923.923 0 01.741 1.092l-.384 1.865a.922.922 0 01-1.092.741c-.482-.063-.805-.577-.709-1.092zM828.647 212.65l.19-1.865v-.032a.96.96 0 011.028-.837.958.958 0 01.837 1.027l-.19 1.898a.96.96 0 01-1.028.837c-.514-.063-.901-.513-.837-1.028zM829.183 205.19l.03-1.865v-.032a.913.913 0 01.963-.901.913.913 0 01.902.963l-.03 1.897a.915.915 0 01-.963.902c-.482 0-.901-.449-.902-.964zM829.11 197.699l-.099-1.865v-.032a.935.935 0 011.864-.131l.099 1.896a.934.934 0 01-.867.998c-.514.065-.965-.32-.997-.866zM828.457 190.24l-.26-1.865v-.032c-.065-.514.288-.997.802-1.062.515-.065.998.288 1.063.802l.259 1.897c.065.514-.288.965-.802 1.062-.515.097-.997-.256-1.062-.802zM827.226 182.878l-.388-1.832v-.032c-.097-.514.224-.997.706-1.094.514-.097.997.223 1.094.706l.388 1.864c.097.514-.223.997-.706 1.094-.482.129-.964-.191-1.094-.706zM825.479 175.582l-.517-1.8c-.129-.482.16-1.029.642-1.159.482-.129 1.029.16 1.158.642l.517 1.832c.129.482-.159 1.029-.641 1.158-.515.13-1.03-.159-1.159-.673zM823.22 168.447l-.646-1.768c-.161-.482.063-1.029.545-1.19.482-.161 1.029.063 1.191.545l.645 1.8c.161.482-.063 1.029-.577 1.19-.45.161-.997-.095-1.158-.577zM820.477 161.473l-.774-1.703c-.226-.482-.002-1.029.48-1.255.482-.225 1.029-.001 1.255.481l.774 1.735c.226.482.001 1.029-.481 1.255-.482.193-1.061-.031-1.254-.513zM817.252 154.693l-.87-1.671a.987.987 0 01.384-1.287c.45-.257 1.029-.065 1.286.385l.871 1.703a.986.986 0 01-.384 1.286c-.45.226-1.029.034-1.287-.416zM813.611 148.139l-.967-1.607c-.258-.45-.13-1.028.32-1.286s1.029-.13 1.287.32l.999 1.638c.257.45.129 1.029-.32 1.287-.45.257-1.029.097-1.319-.352zM809.551 141.874l-1.096-1.51v-.032a.968.968 0 01.224-1.318.939.939 0 011.318.223l1.128 1.542c.322.417.226.996-.224 1.318a1.003 1.003 0 01-1.35-.223zM804.977 135.932l-1.192-1.446a.93.93 0 01.127-1.318c.385-.322.964-.291 1.286.127l1.224 1.445a.956.956 0 01-.095 1.319.997.997 0 01-1.35-.127zM800.05 130.279l-1.288-1.381c-.354-.353-.323-.932.063-1.286.353-.354.932-.323 1.286.031l1.288 1.38c.354.354.323.932-.031 1.287a.951.951 0 01-1.318-.031zM794.834 124.82l-1.32-1.316c-.354-.354-.355-.932-.002-1.254a.873.873 0 011.254-.002l1.352 1.349a.911.911 0 01.002 1.286c-.353.29-.932.322-1.286-.063zM789.425 119.586l-1.384-1.284a.874.874 0 01-.034-1.254.874.874 0 011.254-.034l1.384 1.284c.354.321.387.9.034 1.254-.321.354-.868.387-1.254.034zM783.887 114.481l-1.416-1.252a.865.865 0 011.156-1.288l1.416 1.252a.865.865 0 01-1.156 1.288zM778.19 109.537l-1.449-1.22c-.354-.289-.387-.835-.098-1.189.289-.354.835-.387 1.19-.098l1.448 1.22a.827.827 0 01.098 1.189c-.289.386-.803.419-1.189.098zM772.396 104.722l-1.448-1.188a.814.814 0 01-.13-1.125c.289-.354.771-.387 1.125-.13l1.48 1.188a.821.821 0 01.131 1.157c-.257.322-.772.387-1.158.098.032 0 .032 0 0 0zM766.506 100.003l-1.481-1.156a.765.765 0 01-.13-1.06.763.763 0 011.061-.13l1.513 1.155a.774.774 0 01.162 1.093.875.875 0 01-1.125.098c.032 0 0 0 0 0zM760.519 95.413l-1.513-1.123a.716.716 0 01-.162-.997.717.717 0 01.997-.162l1.544 1.123c.322.225.387.707.163 1.029-.225.322-.707.387-1.029.13 0 .032 0 .032 0 0zM754.437 90.984l-1.545-1.091a.678.678 0 01-.162-.965c.225-.29.642-.386.932-.162l1.545 1.092a.678.678 0 01.162.964.663.663 0 01-.932.162zM748.225 86.684l-1.577-1.06a.62.62 0 01-.162-.867.62.62 0 01.868-.162l1.577 1.027c.29.192.387.578.194.868a.66.66 0 01-.9.194c.032 0 .032 0 0 0zM741.95 82.512l-1.609-.994c-.257-.16-.322-.514-.162-.772a.526.526 0 01.74-.162l1.609.995c.257.16.354.514.194.771-.161.258-.514.355-.772.162zM735.515 78.566l-1.641-.93a.472.472 0 01-.162-.675c.128-.226.418-.323.643-.194l1.641.93c.257.128.322.45.194.675-.129.257-.418.354-.675.194 0 .032 0 0 0 0zM728.918 74.91l-1.384-.706c-.193-.097-.29-.354-.161-.547.096-.193.321-.257.546-.194l1.416.674c.193.096.29.353.193.546a.454.454 0 01-.61.226c.032 0 .032 0 0 0z"/>
  <path fill="#5D88E6" d="M723.462 58.904l-2.526 10.55-6.053-6.23 8.579-4.32z"/>
  <path fill="#A6BAE7" d="M677.588 41.505l22.453 31.77a2.657 2.657 0 001.835 1.123c.739.128 1.479-.066 2.089-.517l31.029-23.738c.353-.258.513-.74.384-1.158a1.146 1.146 0 00-.934-.803l-56.856-6.677z"/>
  <path fill="#5D88E6" d="M723.462 58.904l-45.874-17.399 40.863 21.264-.574 2.959 5.585-6.824z"/>
  <path fill="#5D88E6" d="M715.495 65.023l5.44 4.43-2.485-6.684-2.955 2.254z"/>
  <path fill="url(#paint1_linear)" d="M601.223 476.375l-.229.002-96.094-.579c-2.367-.037-4.273-3.051-4.252-5.943.022-2.892 1.978-5.24 4.345-5.15l96.095 1.245c2.367.037 4.272 2.385 4.251 5.277-.002 2.759-1.834 5.026-4.116 5.148z"/>
  <path fill="#5D88E6" d="M623.654 102.48a.6.6 0 00.53-.212c.451-.583.955-1.167 1.46-1.698a.585.585 0 00-.027-.822.586.586 0 00-.823.027 25 25 0 00-1.539 1.777c-.185.239-.159.61.107.796a.425.425 0 00.292.132zM636.576 141.848a.6.6 0 00.636-.425c.08-.318-.106-.61-.398-.716a22.71 22.71 0 01-3.184-1.114 19.54 19.54 0 01-1.087-.504c-.292-.133-.637-.027-.77.265-.133.292-.026.637.265.769.372.186.743.345 1.141.531 1.088.478 2.203.849 3.344 1.167 0 .027.026.027.053.027zm-10.561-5.942a.493.493 0 00.478-.186.586.586 0 00-.027-.823 26.344 26.344 0 01-2.998-3.422.56.56 0 00-.796-.132.564.564 0 00-.133.796c.929 1.299 1.99 2.493 3.131 3.607.107.08.239.133.345.16zm-6.474-10.267c.08 0 .159 0 .239-.026.292-.106.478-.425.371-.717a23.321 23.321 0 01-1.008-4.43.587.587 0 00-.637-.504.588.588 0 00-.504.637c.213 1.565.557 3.13 1.062 4.642a.563.563 0 00.477.398zm-.849-12.096a.583.583 0 00.637-.478 22.788 22.788 0 011.22-4.377.569.569 0 00-.344-.743.57.57 0 00-.743.345c-.558 1.486-1.009 3.024-1.274 4.589a.574.574 0 00.478.664h.026zM644.111 142.723h.107a22.994 22.994 0 002.334-.212.587.587 0 00.505-.637.589.589 0 00-.637-.504c-.743.106-1.486.159-2.229.186-.318 0-.557.292-.557.61 0 .292.212.531.477.557zM662.552 133.465a.602.602 0 00.531-.212c.478-.61.955-1.247 1.38-1.91.186-.265.106-.61-.159-.796-.266-.186-.611-.106-.796.159-.425.637-.849 1.247-1.327 1.804-.186.239-.159.61.08.796.079.106.185.133.291.159zM667.036 124.844a.577.577 0 00.61-.398c.372-1.3.664-2.653.823-4.006.026-.186.053-.398.053-.583a.608.608 0 00-.504-.637c-.319-.027-.61.212-.637.504-.027.186-.027.371-.053.557a23.285 23.285 0 01-.796 3.82c-.08.292.08.637.398.716.026.027.053.027.106.027zm.478-11.911h.185c.319-.053.505-.372.451-.69a25.649 25.649 0 00-1.353-4.483.589.589 0 00-.743-.319c-.292.107-.424.451-.318.743a23.69 23.69 0 011.3 4.298c.027.239.239.424.478.451zm-5.121-10.771a.487.487 0 00.424-.132c.239-.212.292-.557.08-.796a24.52 24.52 0 00-3.29-3.343.566.566 0 00-.823.08.565.565 0 00.08.822 23.656 23.656 0 013.131 3.184c.132.079.265.159.398.185zM652.841 95a.608.608 0 00.61-.345.538.538 0 00-.318-.743 26.452 26.452 0 00-4.458-1.432c-.318-.08-.61.132-.69.424-.079.319.133.61.425.69 1.459.318 2.892.77 4.272 1.353.079.053.106.053.159.053zM638.778 93.434h.186a21.366 21.366 0 012.228-.291.582.582 0 00.531-.61.567.567 0 00-.61-.531c-.77.08-1.566.16-2.335.318-.319.053-.531.345-.451.664 0 .238.212.424.451.45zM637.505 99.111a.29.29 0 01.345.08l2.468 2.679a16.538 16.538 0 015.121-.106l2.361-2.759c.08-.106.212-.132.345-.08l4.06 1.592c.106.053.185.16.185.292l-.159 3.634a15.666 15.666 0 013.688 3.555l3.609-.292c.132 0 .239.053.292.186l1.751 3.979a.29.29 0 01-.08.345l-2.68 2.467c.292 1.672.345 3.396.106 5.12l2.76 2.361c.106.08.133.212.079.345l-1.591 4.059a.328.328 0 01-.292.185l-3.635-.159a15.67 15.67 0 01-3.556 3.688l.292 3.607c0 .133-.053.239-.186.292l-3.98 1.751a.289.289 0 01-.345-.08l-2.467-2.679a16.539 16.539 0 01-5.121.106l-2.362 2.759c-.079.106-.212.133-.345.08l-4.059-1.592a.326.326 0 01-.186-.292l.159-3.634a15.666 15.666 0 01-3.688-3.555l-3.608.292c-.133 0-.239-.053-.292-.186l-1.751-3.979a.288.288 0 01.079-.345l2.68-2.467a16.531 16.531 0 01-.106-5.12l-2.76-2.361c-.106-.079-.132-.212-.079-.345l1.592-4.058a.326.326 0 01.292-.186l3.635.159a15.66 15.66 0 013.555-3.687l-.292-3.608c0-.133.053-.239.186-.292l3.98-1.75z"/>
  <path fill="#fff" d="M642.573 122.191a4.7 4.7 0 004.431-1.937 4.748 4.748 0 00-1.088-6.605 4.75 4.75 0 00-6.607 1.088 4.748 4.748 0 001.088 6.605 4.525 4.525 0 002.176.849zm2.335-7.136c1.353.955 1.645 2.838.69 4.191-.956 1.353-2.839 1.645-4.193.69-1.353-.955-1.645-2.838-.689-4.191.955-1.327 2.839-1.645 4.192-.69z"/>
  <path fill="#fff" d="M641.804 128.876c1.99.239 4.033-.053 5.917-.875a11.38 11.38 0 006.049-6.261c.345-.902.584-1.83.717-2.785a11.393 11.393 0 00-.876-5.916 11.38 11.38 0 00-6.262-6.048 11.7 11.7 0 00-2.335-.637l-.265 1.698a9.323 9.323 0 011.99.557 9.6 9.6 0 015.174 4.828c.026.026.026.053.053.106.026.08.053.133.08.212.689 1.592.955 3.316.742 5.014a9.346 9.346 0 01-.61 2.361 9.652 9.652 0 01-5.121 5.306 9.493 9.493 0 01-7.376.132 9.655 9.655 0 01-5.307-5.12c-.689-1.591-.955-3.316-.743-5.013a9.39 9.39 0 01.611-2.361 9.639 9.639 0 013.078-4.112l-1.062-1.38a11.216 11.216 0 00-3.635 4.855c-.345.902-.584 1.83-.716 2.785a11.39 11.39 0 00.875 5.916 11.38 11.38 0 006.262 6.048 11.07 11.07 0 002.76.69z"/>
  <path fill="#5D88E6" d="M323.825 147.594h-25.323a3.507 3.507 0 01-3.502-3.501v-25.39a3.506 3.506 0 013.216-3.501l26.991-2.191a3.52 3.52 0 013.787 3.716l-1.667 27.58c-.095 1.858-1.644 3.287-3.502 3.287z"/>
  <path fill="#fff" fill-rule="evenodd" d="M305.224 123.687c-.504 0-.707.321-.707.485v12.688c0 .164.203.485.707.485h.008c.505 0 .707-.321.707-.485v-12.688c0-.164-.202-.485-.707-.485h-.008zm-2.008.485c0-1.09 1.013-1.786 2.008-1.786h.008c.996 0 2.008.696 2.008 1.786v12.688c0 1.09-1.012 1.786-2.008 1.786h-.008c-.995 0-2.008-.696-2.008-1.786v-12.688zM309.458 123.687c-.505 0-.708.321-.708.485v12.688c0 .164.203.485.708.485h.008c.504 0 .707-.321.707-.485v-12.688c0-.164-.203-.485-.707-.485h-.008zm-2.008.485c0-1.09 1.012-1.786 2.008-1.786h.008c.995 0 2.008.696 2.008 1.786v12.688c0 1.091-1.013 1.786-2.008 1.786h-.008c-.996 0-2.008-.695-2.008-1.786v-12.688zM313.683 123.687c-.504 0-.707.321-.707.485v12.688c0 .164.203.485.707.485h.009c.504 0 .707-.321.707-.485v-12.688c0-.164-.203-.485-.707-.485h-.009zm-2.008.485c0-1.09 1.013-1.786 2.008-1.786h.009c.995 0 2.008.696 2.008 1.786v12.688c0 1.091-1.013 1.786-2.008 1.786h-.009c-.995 0-2.008-.695-2.008-1.786v-12.688zM317.917 123.687c-.504 0-.707.321-.707.485v12.688c0 .164.203.485.707.485h.009c.504 0 .707-.321.707-.485v-12.688c0-.164-.203-.485-.707-.485h-.009zm-2.008.485c0-1.09 1.013-1.786 2.008-1.786h.009c.995 0 2.008.696 2.008 1.786v12.688c0 1.091-1.013 1.786-2.008 1.786h-.009c-.995 0-2.008-.695-2.008-1.786v-12.688z" clip-rule="evenodd"/>
  <path fill="#fff" fill-rule="evenodd" d="M318.633 124.352h1.397c.653 0 1.397.471 1.397 1.275v1.689c0 .812-.755 1.268-1.397 1.268h-1.397v-4.232zm1.301 1.301v1.63h.096a.211.211 0 00.096-.022v-1.584a.189.189 0 00-.096-.024h-.096zM308.1 125.653h-1.51v-1.301h1.51v1.301zM312.326 125.653h-1.511v-1.301h1.511v1.301zM316.56 125.653h-1.511v-1.301h1.511v1.301zM308.1 136.68h-1.51v-1.3h1.51v1.3zM312.326 136.68h-1.511v-1.3h1.511v1.3zM316.56 136.68h-1.511v-1.3h1.511v1.3z" clip-rule="evenodd"/>
  <path fill="url(#paint2_linear)" d="M804.146 482.032c.239-1.512-.079-3.078-.875-4.271-.796-1.194-1.99-1.884-3.237-1.884H375.421c-1.645 0-3.184 1.035-4.06 2.759-.875 1.724-1.008 3.873-.318 5.704l4.59 12.282c1.062 2.812 3.343 4.616 5.838 4.616h415.618c2.334 0 4.351-2.043 4.802-4.881l2.255-14.325z"/>
  <path fill="#5AA3C7" d="M381.47 501.476h415.618c2.468 0 4.59-2.149 5.041-5.094l2.256-14.298c.238-1.592-.08-3.21-.929-4.457-.849-1.273-2.123-1.99-3.449-1.99H375.421c-1.752 0-3.37 1.088-4.299 2.892-.929 1.777-1.061 4.006-.318 5.916l4.59 12.282c1.061 2.865 3.476 4.749 6.076 4.749zm422.411-19.472l-2.256 14.299c-.424 2.679-2.335 4.642-4.537 4.642H381.47c-2.388 0-4.59-1.751-5.598-4.43l-4.591-12.283c-.663-1.777-.557-3.846.292-5.491.849-1.618 2.282-2.6 3.848-2.6h424.612c1.168 0 2.256.637 3.025 1.751.743 1.141 1.061 2.653.823 4.112z"/>
  <path fill="#5D88E6" d="M403.525 206.438v24.486a5.435 5.435 0 01-5.201 5.438l-30.619 1.432c-3.105.133-5.705-2.334-5.705-5.438v-25.918a5.446 5.446 0 015.439-5.438h30.62a5.419 5.419 0 015.466 5.438z"/>
  <path fill="#fff" d="M372.797 228.634h19.286a2.621 2.621 0 002.617-2.616V211.92a2.605 2.605 0 00-2.617-2.616h-19.286a2.62 2.62 0 00-2.616 2.616v14.098a2.62 2.62 0 002.616 2.616zm19.262-17.61a.91.91 0 01.897.896v14.098a.91.91 0 01-.897.896h-19.286a.91.91 0 01-.896-.896V211.92a.91.91 0 01.896-.896h19.286z"/>
  <path fill="#fff" d="M382.415 219.284c.17 0 .339-.048.509-.17l10.781-7.654a.856.856 0 00.194-1.211.856.856 0 00-1.211-.194l-10.297 7.291-10.176-7.219a.885.885 0 00-1.212.194.882.882 0 00.194 1.211l10.661 7.582c.218.122.387.17.557.17z"/>
  <path fill="#fff" d="M393.076 228.028l.242-1.695-.121.847.727-.46c-.194-.315-4.095-7.122-6.663-11.627a.865.865 0 00-1.187-.315.87.87 0 00-.315 1.187s1.671 2.907 3.343 5.838a594.192 594.192 0 002.302 4.021c1.26 2.132 1.26 2.132 1.672 2.204zM371.804 228.029c.412-.073.412-.073 1.672-2.253.63-1.09 1.454-2.544 2.302-4.021 1.671-2.907 3.343-5.838 3.343-5.838a.87.87 0 00-.315-1.187.87.87 0 00-1.187.315c-2.568 4.505-6.469 11.312-6.663 11.627l.727.46.121.897z"/>
  <path fill="#5D88E6" d="M419.51 125.267v25.08c0 2.965-2.348 5.436-5.314 5.56l-31.357 1.483a5.565 5.565 0 01-5.839-5.56v-26.563a5.59 5.59 0 015.592-5.591h31.326a5.59 5.59 0 015.592 5.591z"/>
  <path fill="#fff" d="M393.55 140.614l-6.01 6.01a.618.618 0 00.423 1.056c.151 0 .302-.06.423-.181l6.009-6.009a.62.62 0 000-.876c-.211-.242-.604-.242-.845 0zM389.292 149.22c.12.121.271.181.422.181.151 0 .302-.06.423-.181l6.01-6.009a.62.62 0 10-.876-.876l-5.979 6.039a.584.584 0 000 .846z"/>
  <path fill="#fff" d="M411.245 143.151c-1.329-1.329-3.322-1.843-5.164-1.329l-4.288-4.319 6.613-6.613 1.541-.332a.906.906 0 00.604-.423l1.932-3.141c.242-.362.181-.845-.151-1.177l-1.389-1.39c-.302-.302-.785-.362-1.178-.151l-3.11 1.933a1.071 1.071 0 00-.423.604l-.332 1.57-6.613 6.614-4.319-4.318a5.56 5.56 0 00.212-1.42 5.23 5.23 0 00-1.541-3.714c-1.54-1.54-3.925-1.963-5.888-1.057a.692.692 0 00-.363.453.61.61 0 00.182.543l1.962 1.963c.272.272.423.604.423.997 0 .392-.151.725-.423.996a1.42 1.42 0 01-1.993 0l-1.963-1.993a.636.636 0 00-.543-.181c-.212.03-.363.181-.453.363-.302.694-.483 1.419-.483 2.204 0 1.389.573 2.748 1.54 3.714 1.329 1.359 3.322 1.843 5.134 1.329l2.355 2.356-8.184 8.153a2.263 2.263 0 000 3.201l3.231 3.231a2.264 2.264 0 003.202 0l8.183-8.153 2.356 2.355a5.719 5.719 0 00-.181 1.42c0 1.419.543 2.748 1.54 3.714a5.282 5.282 0 003.714 1.54 5.5 5.5 0 002.174-.453.69.69 0 00.363-.453.608.608 0 00-.181-.543l-1.963-1.993a1.37 1.37 0 01-.423-.997c0-.362.151-.725.423-.996.513-.514 1.449-.514 1.993 0l1.963 1.962a.61.61 0 00.543.182.58.58 0 00.453-.333c.332-.664.483-1.419.483-2.204a5.388 5.388 0 00-1.57-3.714zm-4.348-14.043a.626.626 0 00.181-.302l.362-1.6 2.839-1.752 1.087 1.087-1.752 2.839-1.63.362a.628.628 0 00-.302.182l-6.765 6.734-.785-.785 6.765-6.765zm-16.398 21.834c-.393.392-1.087.392-1.48 0l-3.171-3.201a.984.984 0 01-.302-.725c0-.272.121-.544.302-.725l8.184-8.153 4.681 4.68-8.214 8.124zm20.988-3.292l-1.269-1.268c-1.026-.967-2.778-.936-3.714 0-.513.483-.785 1.147-.785 1.872 0 .725.272 1.359.785 1.872l1.268 1.269c-1.298.241-2.687-.151-3.624-1.087a4.042 4.042 0 01-1.177-2.869c0-.483.09-.936.241-1.389a.56.56 0 00-.151-.635l-11.686-11.686a.597.597 0 00-.423-.182c-.061 0-.151 0-.212.031-1.479.543-3.14.181-4.227-.937-.755-.724-1.178-1.751-1.178-2.838 0-.272.03-.544.06-.785l1.269 1.268c1.026 1.027 2.717 1.027 3.714 0 .513-.483.785-1.148.785-1.872 0-.725-.272-1.359-.785-1.842l-1.268-1.269c1.298-.241 2.657.121 3.623 1.087.755.786 1.178 1.782 1.178 2.869 0 .483-.09.967-.241 1.359a.607.607 0 00.151.665l11.656 11.656a.63.63 0 00.634.151c1.48-.543 3.141-.181 4.228.906.755.785 1.178 1.782 1.178 2.869.03.272 0 .544-.03.785z"/>
  <path fill="#5D88E6" d="M455.059 92.281h-31.681A4.382 4.382 0 01419 87.904v-31.78a4.392 4.392 0 014.033-4.377l33.751-2.733a4.38 4.38 0 014.723 4.643l-2.07 34.486a4.371 4.371 0 01-4.378 4.138z"/>
  <path fill="#fff" fill-rule="evenodd" d="M440.081 56.79c.317 0 .617.135.826.373.536.61 1.125 1.26 1.744 1.942 1.741 1.92 3.714 4.097 5.383 6.35 2.252 3.04 4.143 6.462 4.143 9.906 0 6.736-5.404 12.218-12.096 12.218s-12.096-5.482-12.096-12.218c0-3.444 1.891-6.865 4.144-9.906 1.668-2.253 3.642-4.43 5.383-6.35.618-.683 1.208-1.333 1.743-1.942a1.1 1.1 0 01.826-.374zm-6.185 9.974c-2.199 2.968-3.711 5.9-3.711 8.597 0 5.545 4.442 10.019 9.896 10.019 5.455 0 9.897-4.474 9.897-10.02 0-2.696-1.513-5.628-3.711-8.596-1.599-2.158-3.457-4.208-5.178-6.107l-1.008-1.114c-.328.365-.665.737-1.007 1.114-1.722 1.9-3.58 3.949-5.178 6.107z" clip-rule="evenodd"/>
  <path fill="#fff" fill-rule="evenodd" d="M433.483 73.712a1.1 1.1 0 011.1 1.1c0 3.51 2.56 6.17 5.498 6.17a1.1 1.1 0 110 2.199c-4.349 0-7.697-3.85-7.697-8.37a1.1 1.1 0 011.099-1.1z" clip-rule="evenodd"/>
  <path fill="#5D88E6" d="M517 110.703v25.6a5.672 5.672 0 005.439 5.677l32.026 1.512c3.237.159 5.97-2.441 5.97-5.677v-27.112A5.695 5.695 0 00554.73 105h-32.025a5.695 5.695 0 00-5.705 5.703z"/>
  <path fill="#fff" stroke="#fff" stroke-width=".5" d="M538.963 139.453c5.592 0 10.141-4.55 10.141-10.142 0-3.818-1.722-5.948-2.861-7.357-.505-.625-.942-1.165-.942-1.517v-1.267c0-.935-.513-1.744-1.267-2.183v-4.002c0-.668-.271-1.321-.743-1.793l-1.236-1.236a3.149 3.149 0 00-2.241-.928h-1.702c-.847 0-1.643.33-2.242.928l-1.235 1.236a2.548 2.548 0 00-.743 1.793v4.002a2.527 2.527 0 00-1.268 2.183v1.267c0 .353-.436.892-.941 1.517-1.14 1.409-2.862 3.539-2.862 7.357 0 5.592 4.55 10.142 10.142 10.142zm-2.196-28.6a1.89 1.89 0 011.345-.557h1.702c.508 0 .985.198 1.345.557l.711.71h-5.814l.711-.71zm-1.607 2.132c0-.053.024-.102.031-.154h7.544c.007.052.031.101.031.154v1.114h-7.606v-1.114zm0 2.382h7.606v1.267h-7.606v-1.267zm-2.491 7.383c.683-.844 1.223-1.512 1.223-2.313v-1.267a1.27 1.27 0 011.268-1.268h7.606a1.27 1.27 0 011.268 1.268v1.267c0 .801.539 1.469 1.223 2.313 1.089 1.347 2.58 3.192 2.58 6.561 0 4.893-3.981 8.874-8.874 8.874-4.893 0-8.874-3.981-8.874-8.874 0-3.369 1.491-5.214 2.58-6.561z"/>
  <path fill="#5D88E6" d="M743.525 146.438v24.486a5.435 5.435 0 01-5.201 5.438l-30.619 1.432c-3.105.133-5.705-2.334-5.705-5.438v-25.918a5.446 5.446 0 015.439-5.438h30.62a5.419 5.419 0 015.466 5.438z"/>
  <path fill="#fff" d="M709.862 156.975c.653 0 1.206.21 1.66.63.453.414.68.977.68 1.69 0 .754-.254 1.36-.76 1.82-.507.454-1.147.68-1.92.68-.72 0-1.344-.2-1.87-.6-.52-.406-.807-.99-.86-1.75h1.45c.046.334.186.584.42.75.24.167.523.25.85.25.373 0 .673-.11.9-.33.226-.22.34-.5.34-.84 0-.34-.114-.61-.34-.81-.227-.206-.52-.31-.88-.31-.54 0-.927.194-1.16.58h-1.37l.87-4.06h4v1.36h-2.93l-.26 1.26c.34-.213.733-.32 1.18-.32zm8.872 1.83v1.33l-.98.01v1.53h-1.43v-1.53h-3.47v-1.34l2.79-4.13h2.11v4.12l.98.01zm-4.35-.01h1.94v-2.79h-.09l-1.85 2.79zm8.755-.77v1.37h-3.37v-1.37h3.37zm6.713-2.6c.813 0 1.493.247 2.04.74.547.494.82 1.144.82 1.95 0 .807-.273 1.457-.82 1.95-.54.487-1.22.73-2.04.73h-.49v.88h-1.43v-.88h-.48c-.82 0-1.503-.243-2.05-.73-.54-.493-.81-1.143-.81-1.95 0-.806.273-1.456.82-1.95.547-.493 1.227-.74 2.04-.74h.48v-.75h1.43v.75h.49zm-2.4 4.01h.48v-2.64h-.48c-.42 0-.76.114-1.02.34-.26.22-.39.547-.39.98 0 .434.13.764.39.99.26.22.6.33 1.02.33zm2.4 0c.42 0 .76-.11 1.02-.33.26-.226.39-.556.39-.99 0-.433-.13-.76-.39-.98-.26-.226-.6-.34-1.02-.34h-.49v2.64h.49zm8.178-1.43c.333.14.593.354.78.64.193.287.29.624.29 1.01 0 .667-.24 1.19-.72 1.57-.48.38-1.134.57-1.96.57-.807 0-1.474-.196-2-.59-.527-.393-.82-.963-.88-1.71h1.45c.106.627.573.94 1.4.94.84 0 1.26-.306 1.26-.92 0-.253-.087-.446-.26-.58-.174-.133-.47-.2-.89-.2h-1.01v-1.25h.83c.74 0 1.11-.233 1.11-.7 0-.58-.387-.87-1.16-.87-.354 0-.63.067-.83.2-.194.127-.324.347-.39.66h-1.44c.073-.72.353-1.27.84-1.65.486-.38 1.11-.57 1.87-.57s1.376.19 1.85.57c.473.38.71.87.71 1.47 0 .3-.077.577-.23.83-.154.254-.36.447-.62.58zM533.119 257.446s-80.029-39.531-53.862-68.645c26.167-29.114 74.972-17.475 77.449 13.165 2.478 30.641-56.916 23.448-23.587 55.48z"/>
  <path fill="#5D88E6" d="M487.739 195.402h35.331a.536.536 0 00.543-.543.535.535 0 00-.543-.543h-35.331a.536.536 0 00-.543.543c0 .305.238.543.543.543zM533.558 195.402h10.487a.537.537 0 00.543-.543.536.536 0 00-.543-.543h-10.487a.535.535 0 00-.543.543c0 .305.237.543.543.543zM486.552 202.527h13.27a.535.535 0 00.543-.542.535.535 0 00-.543-.543h-13.27a.535.535 0 00-.543.543c0 .305.237.542.543.542zM519.269 202.527h23.553a.536.536 0 00.544-.542.536.536 0 00-.544-.543h-23.553a.535.535 0 00-.543.543c0 .305.237.542.543.542zM485.363 209.687h35.263a.536.536 0 00.543-.543.536.536 0 00-.543-.543h-35.263a.537.537 0 00-.543.543c0 .305.238.543.543.543zM529.45 209.687h12.218a.537.537 0 00.543-.543.537.537 0 00-.543-.543H529.45a.536.536 0 00-.543.543c0 .305.237.543.543.543z"/>
  <path fill="url(#paint3_linear)" d="M542.208 433.669c7.815-8.029 19.055-3.608 19.055-3.608 13.367 5.714 40.687 10.294 47.286 9.478 2.55 5.278 14.268 13.6 13.04 21.925-13.903-.396-53.068-12.73-58.132-17.016-1.82-1.53-4.54-1.356-6.089.454-1.601 1.854-3.04 4.231-2.317 6.333 1.404 4.127-3.2 6.393-3.842 4.928-.641-1.465-.244-11.006-.244-11.006s-7.937 11.766-11.03 16.307c-3.116 4.538-8.549 1.62-8.549 1.62s3.008-21.386 10.822-29.415z"/>
  <path fill="url(#paint4_linear)" d="M599.249 248.956s18.314-21.651 37.825 4.95c3.475 4.813 17.108.804 22.053 10.963 2.539 5.213 8.152 8.154 13.766 7.086 14.168-2.672 37.425-2.803 48.917 19.386 8.686 16.976 2.002 27-6.82 32.613-6.416 4.143-8.69 12.563-4.814 19.246 3.741 6.283 4.409 14.837-5.216 25.262-21.522 23.12-64.289-14.711-64.289-14.711l-33.94-80.067-7.482-24.728z"/>
  <path fill="url(#paint5_linear)" d="M628.83 476.847s-26.395-43.038-41.497-62.42c-8.152-10.427-10.69-24.194-6.946-36.891 6.819-23.123 19.119-47.18 20.189-50.923 3.624-9.135 36.089-5.475 36.089-5.475s67.493 43.848 94.083 118.167l-29.807 9.219s-17.64-29.541-35.014-48.389c0 0 52.386 60.405 53.454 76.712H628.83z"/>
  <path fill="url(#paint6_linear)" d="M703.002 459.247c.495.003.959-.316 1.096-.82 5.13-19.155-39.368-61.046-41.278-62.809a1.093 1.093 0 00-1.556.038 1.093 1.093 0 00.038 1.557c.446.428 45.443 42.735 40.654 60.614-.168.596.185 1.187.78 1.355.091.03.182.06.266.065z"/>
  <path fill="url(#paint7_linear)" d="M613.146 279.833l23.118 42.908c-1.471 9.356-25.129 9.621-28.738 4.007-.4-.535-1.019-1.72-1.152-2.388l-13.279-28.222c-.535-2.807 7.085-12.163 9.625-13.499l9.223-4.944c3.208-1.738-11.494-1.873 1.203 2.138z"/>
  <path fill="url(#paint8_linear)" d="M590.428 246.415s-11.629 8.954-15.642 30.34c-4.012 21.251 4.942 28.336 13.63 27.268 8.688-.935 21.119-4.408 31.146-20.179 10.16-15.637-13.762-48.387-29.134-37.429z"/>
  <path fill="url(#paint9_linear)" d="M608.2 276.09s2.677-30.341-22.051-24.195l-4.678 5.613s-15.621-8.356-3.348-21.526c5.432-2.898 5.795-.724 12.315-1.449 2.858-.574 7.243-4.708 11.59-5.795 11.952-2.535 16.777 3.897 22.617 13.271 11.492 18.313 16.036 31.412 8.148 43.708-8.021 12.295-15.104 2.537-15.104 2.537s3.343-10.425-.132-14.569c-3.608-4.144-7.485 2.94-7.485 2.94l-1.872-.535z"/>
  <path fill="url(#paint10_linear)" d="M611.809 278.497s1.205-15.638 9.492-11.628c8.152 4.011-2.007 14.569-6.017 18.311l-3.475-6.683z"/>
  <path fill="url(#paint11_linear)" d="M641.614 431.856c5.358 1.49 10.336 4.14 15.694 5.512 5.975 1.514 11.878 3.288 17.876 4.66 9.365 2.106 19.206 6.977 27.899 5.842-.406.048 26.078-8.542 27.527-8.693 9.78 20.889 8.331 27.641-1.086 32.777-27.194 14.833-69.963-14.052-81.486-22.498a9.05 9.05 0 00-6.567-1.679c-4.718.639-12.826 1.514-17.117.544-6.259-1.396-16.88 20.25-26.672 12.68.024 0 11.475-38.135 43.932-29.145z"/>
  <path fill="url(#paint12_linear)" d="M588.401 295.314c20.206 1.524 36.552-14.441 36.672-14.663l-.033-3.573c-.121.222-17.331 17.957-36.532 16.497l-.107 1.739z"/>
  <path fill="url(#paint13_linear)" d="M580.146 294.51c.012 1.346 1.001 2.414 2.176 2.403l5.775-.054c1.199-.011 2.144-1.097 2.131-2.443-.012-1.346-1.001-2.414-2.176-2.403l-5.775.054c-1.175.011-2.144 1.122-2.131 2.443z"/>
  <path fill="url(#paint14_linear)" d="M614.544 259.259s4.37-24.64-24.043-24.521c-.392.004-.47-.559-.08-.66 7.765-1.86 30.353-4.739 30.972 24.774-4.317 1.607-6.849.407-6.849.407z"/>
  <path fill="url(#paint15_linear)" d="M619.73 256.2c11.107 2.148 9.892 16.185 9.892 16.185.903 10.174-2.035 15.243-5.806 17.702a8.79 8.79 0 01-8.61.497c-2.754-1.37-4.615-4.069-4.864-7.127-.221-2.763-.491-5.404-.695-6.333-.535-2.271-1.024-23.072 10.083-20.924z"/>
  <path fill="url(#paint16_linear)" d="M618.759 259.758a5.079 5.079 0 015.534 2.91c6.776 15.308-1.28 25.37-5.267 25.603-4.207.26-4.323-20.006-3.467-25.203.347-2.158 1.71-3.027 3.2-3.31z"/>
  <path fill="url(#paint17_linear)" d="M457.509 390.638l19.664 80.088-45.704 1.379-3.807-80.99c-.185-3.793 2.014-6.95 4.657-6.711l21.346 2.042c1.737.186 3.252 1.831 3.844 4.192z"/>
  <path fill="#5AA3C7" d="M431.283 472.396l46.148-1.406-19.757-80.433-.166.08.166-.08c-.61-2.467-2.18-4.191-4.01-4.377l-21.346-2.043c-1.312-.132-2.606.584-3.53 1.91-.924 1.327-1.423 3.184-1.33 5.067l3.825 81.282zm45.612-1.91l-45.279 1.379-3.789-80.751c-.074-1.724.37-3.448 1.22-4.669.85-1.22 2.033-1.883 3.253-1.75l21.345 2.042c1.682.159 3.124 1.725 3.678 4.006l19.572 79.743z"/>
  <path fill="url(#paint18_linear)" d="M529.53 306.637c2.299 20.453 11.97 84.651 14.929 108.393.416 3.343-2.03 6.261-5.136 6.181l-175.31 16.268c-2.299-.08-4.256-1.831-4.77-4.271l-20.048-137.376c-.734-3.528 1.883-6.844 5.209-6.632l180.405 12.662c2.47.133 4.427 2.149 4.721 4.775z"/>
  <path fill="#5AA3C7" d="M539.485 421.577c1.439 0 2.831-.664 3.798-1.813a5.764 5.764 0 001.25-4.415c-2.972-23.763-12.662-89.452-14.88-109.08-.306-2.629-2.288-4.671-4.741-4.825l-180.668-12.285c-1.604-.102-3.137.613-4.175 1.914-1.038 1.328-1.439 3.063-1.085 4.773L359.249 433.2c.496 2.476 2.477 4.237 4.813 4.313l175.258-15.936h.165zM343.914 289.67h.283l180.668 12.285c2.217.153 4.034 1.991 4.317 4.365 2.217 19.628 11.907 85.317 14.88 109.08a5.278 5.278 0 01-1.133 4.007 4.485 4.485 0 01-3.562 1.659l-175.305 15.937c-2.123-.077-3.916-1.685-4.364-3.905l-20.266-137.354c-.307-1.531.047-3.114.991-4.313.873-1.149 2.146-1.761 3.491-1.761z"/>
  <path fill="url(#paint19_linear)" d="M509.326 470.997c.661 2.201-.856 4.483-2.984 4.483h-94.731c-1.736 0-3.131-1.539-3.131-3.396v-4.403c0-1.937 1.492-3.476 3.278-3.396l94.731 4.404c1.297.026 2.422.981 2.837 2.308z"/>
  <path fill="#5AA3C7" d="M411.61 475.743h94.732c1.1 0 2.103-.557 2.739-1.512a3.898 3.898 0 00.465-3.289c-.441-1.433-1.664-2.467-3.082-2.521l-94.707-4.43c-.929-.053-1.81.319-2.495 1.008-.685.69-1.052 1.645-1.052 2.653v4.404c0 2.042 1.517 3.687 3.4 3.687zm97.471-4.642c.293.981.147 1.989-.416 2.812-.562.822-1.419 1.3-2.348 1.3H411.61c-1.59 0-2.886-1.406-2.886-3.131v-4.403c0-.876.318-1.672.905-2.282a2.782 2.782 0 012.128-.875l94.731 4.403c1.174.054 2.226.929 2.593 2.176z"/>
  <path fill="#5D88E6" d="M516.555 309.313l-160.617-9.651a4 4 0 00-4.197 4.576l17.567 119.254a4 4 0 004.308 3.402l156.833-13.788a4 4 0 003.609-4.554l-13.784-95.816a4 4 0 00-3.719-3.423z"/>
  <path fill="#1F50BD" d="M382.935 423.052l-3.504.307a4.001 4.001 0 01-4.308-3.415l-13.621-94.699a4 4 0 014.21-4.562l3.393.213a3.999 3.999 0 013.707 3.415l13.733 94.179a4 4 0 01-3.61 4.562z"/>
  <path fill="#A6BAE7" d="M379.069 336.73l-1.038-8.694a4 4 0 014.221-4.466l24.366 1.516a4 4 0 013.702 3.364l1.381 8.683a4 4 0 01-4.194 4.621l-24.71-1.506a3.999 3.999 0 01-3.728-3.518zM410.554 347.261l-25.355-1.275a4 4 0 00-4.173 4.469l1.023 8.575a4 4 0 003.932 3.526l25.475.254a4.001 4.001 0 003.995-4.598l-1.143-7.554a4.002 4.002 0 00-3.754-3.397zM412.762 366.882h-24.993a4 4 0 00-3.957 4.586l1.124 7.588a4 4 0 004.16 3.409l24.916-1.266a4 4 0 003.743-4.649l-1.047-6.322a4 4 0 00-3.946-3.346zM415.912 386.145l-25.944 1.023a4 4 0 00-3.793 4.625l1.38 8.673a4 4 0 004.268 3.359l25.721-2.049a4 4 0 003.637-4.586l-1.157-7.647a3.999 3.999 0 00-4.112-3.398zM418.132 406.058l-24.962 1.775a4 4 0 00-3.665 4.632l1.028 6.328a4 4 0 004.357 3.337l24.767-2.542a3.999 3.999 0 003.547-4.571l-.832-5.561a4.001 4.001 0 00-4.24-3.398zM419.464 338.707l-.892-7.8a4 4 0 014.218-4.447l21.335 1.303a4 4 0 013.711 3.392l1.189 7.83a4 4 0 01-4.2 4.593l-21.633-1.333a3.999 3.999 0 01-3.728-3.538zM447.71 348.632l-22.044-1.121a4.001 4.001 0 00-4.155 4.613l1.133 7.244a4 4 0 003.925 3.382l21.85.148a4.001 4.001 0 003.983-4.593l-.939-6.271a4 4 0 00-3.753-3.402zM449.669 366.616h-21.871a3.999 3.999 0 00-3.957 4.58l.928 6.337a4 4 0 004.074 3.418l21.832-.634a4 4 0 003.836-4.615l-.889-5.703a4 4 0 00-3.953-3.383zM451.528 384.274l-21.776.897a4 4 0 00-3.789 4.603l1.112 7.253a4.001 4.001 0 004.285 3.38l21.615-1.796a4 4 0 003.625-4.578l-.951-6.354a4.001 4.001 0 00-4.121-3.405zM454.48 402.521l-21.879 1.573a4 4 0 00-3.671 4.567l.939 6.436a4 4 0 004.371 3.401l21.708-2.252a3.999 3.999 0 003.552-4.508l-.769-5.757a4 4 0 00-4.251-3.46zM455.57 339.61l-.801-7.281a4 4 0 014.212-4.431l19.315 1.142a4 4 0 013.722 3.416l1.071 7.345a4 4 0 01-4.204 4.57l-19.585-1.207a4 4 0 01-3.73-3.554zM481.657 349.082l-19.964-1.014a4 4 0 00-4.156 4.609l.973 6.267a4 4 0 003.941 3.386l19.787.058a4 4 0 003.967-4.592l-.795-5.311a4.001 4.001 0 00-3.753-3.403zM483.468 365.833h-19.805a4 4 0 00-3.957 4.58l.783 5.345a4 4 0 004.066 3.419l19.769-.537a4 4 0 003.844-4.612l-.747-4.809a4.001 4.001 0 00-3.953-3.386zM485.091 382.286l-18.967.802a4 4 0 00-3.787 4.589l.94 6.276a3.999 3.999 0 004.195 3.401l18.875-1.134a4 4 0 003.72-4.557l-.847-5.945a4 4 0 00-4.129-3.432zM487.924 399.947l-19.782 1.421a4.001 4.001 0 00-3.668 4.595l.752 4.908a4 4 0 004.27 3.382l19.666-1.559a3.999 3.999 0 003.649-4.515l-.635-4.77a4 4 0 00-4.252-3.462zM488.834 340.635l-.749-6.868a4 4 0 014.207-4.428l19.014 1.096a4 4 0 013.729 3.422l1.002 6.941a4 4 0 01-4.201 4.564l-19.267-1.169a4 4 0 01-3.735-3.558zM514.549 349.951l-19.637-.983a4 4 0 00-4.154 4.601l.908 5.919a4 4 0 003.947 3.393l19.466.035a4 4 0 003.964-4.587l-.737-4.97a4 4 0 00-3.757-3.408zM516.292 366.265h-18.81a4 4 0 00-3.959 4.575l.725 4.993a3.999 3.999 0 004.066 3.424l18.775-.503a4 4 0 003.846-4.606l-.69-4.49a4 4 0 00-3.953-3.393zM518.848 382.282l-19.648.79a4 4 0 00-3.797 4.577l.852 5.815a4 4 0 004.28 3.408l19.541-1.581a4 4 0 003.634-4.574l-.745-5.025a4 4 0 00-4.117-3.41zM520.634 398.835l-18.812 1.365a4 4 0 00-3.66 4.622l.611 3.812a3.998 3.998 0 004.366 3.345l18.676-1.955a4 4 0 003.541-4.563l-.476-3.221a4 4 0 00-4.246-3.405z"/>
  <path fill="#E9EFFD" d="M359.364 308.848l.66 4.744a4.001 4.001 0 003.752 3.443l145.561 7.651a4.001 4.001 0 004.161-4.624l-.533-3.343a3.999 3.999 0 00-3.702-3.363l-145.689-9.052a4 4 0 00-4.21 4.544z"/>
  <g opacity=".6">
    <path fill="#5D88E6" d="M14.996 72H1.821A1.822 1.822 0 010 70.18V56.963c0-.95.727-1.744 1.676-1.82l14.037-1.137a1.822 1.822 0 011.964 1.93l-.86 14.343A1.818 1.818 0 0114.995 72z"/>
    <path fill="#fff" d="M4.435 62.03c0 1.083.422 2.102 1.19 2.868l-.662.662A4.958 4.958 0 013.5 62.03c0-1.333.519-2.587 1.462-3.529l.661.662a4.025 4.025 0 00-1.188 2.867zm2.621-1.434l-.662-.662a2.948 2.948 0 00-.867 2.096c0 .792.308 1.536.869 2.095l.661-.661a2.01 2.01 0 01-.594-1.434c0-.541.21-1.05.593-1.434zm4.961-2.096l-.661.662a4.028 4.028 0 011.189 2.868 4.031 4.031 0 01-1.187 2.868l.661.662a4.961 4.961 0 001.462-3.53c0-1.334-.52-2.588-1.464-3.53zM8.49 61.094a.936.936 0 00-.936.936c0 .346.19.644.468.806v5.645h.936v-5.645a.932.932 0 00-.468-1.742zm2.095-1.16l-.662.662c.383.384.595.893.595 1.434 0 .542-.211 1.051-.594 1.434l.662.661c.559-.559.867-1.303.867-2.095 0-.792-.308-1.535-.868-2.096z"/>
  </g>
  <g opacity=".7">
    <path fill="#5D88E6" d="M63.717 22.593v11.633a2.584 2.584 0 01-2.465 2.579l-14.544.687A2.581 2.581 0 0144 34.914V22.593A2.593 2.593 0 0146.594 20h14.53a2.593 2.593 0 012.593 2.593z"/>
    <g clip-path="url(#clip0)">
      <path fill="#fff" d="M60.278 33.483c0 .26-.21.47-.47.47-1.207 0-1.278.705-2.774.705-1.503 0-1.559-.705-2.773-.705-1.208 0-1.279.705-2.774.705-1.504 0-1.56-.705-2.774-.705a.47.47 0 110-.94c1.504 0 1.56.705 2.774.705 1.22 0 1.265-.705 2.774-.705 1.503 0 1.559.705 2.773.705 1.22 0 1.266-.705 2.774-.705.26 0 .47.21.47.47zm-4.607-2.277v-2.518c0-.613-.393-1.136-.94-1.33v1.283a.47.47 0 01-.94 0v-.423h-5.078a.47.47 0 01-.47-.47v-3.762c0-.26.21-.47.47-.47h5.078v-.423a.47.47 0 11.94 0v1.39a4.237 4.237 0 013.76 4.205v2.475c.316-.143.706-.266 1.317-.266a.47.47 0 110 .94c-1.207 0-1.278.706-2.774.706-1.503 0-1.559-.706-2.773-.706-1.208 0-1.279.706-2.774.706-1.504 0-1.56-.706-2.774-.706a.47.47 0 110-.94c1.504 0 1.56.706 2.774.706 1.22 0 1.265-.706 2.774-.706.673 0 1.078.15 1.41.31zm-1.88-6.75h-4.608v2.821h4.607v-2.82zm2.82 4.232v2.885c.122.019.26.03.423.03.208 0 .374-.018.518-.047v-2.868a3.296 3.296 0 00-2.821-3.258v.954a2.355 2.355 0 011.88 2.304z"/>
    </g>
  </g>
  <g opacity=".7">
    <path fill="#5D88E6" d="M107.622 62.712V74.88a2.702 2.702 0 01-2.577 2.697l-15.212.72A2.7 2.7 0 0187 75.598V62.713A2.712 2.712 0 0189.713 60h15.197a2.712 2.712 0 012.712 2.712z"/>
    <g fill="#fff" clip-path="url(#clip1)">
      <path d="M104.53 69.145l-.799-2.397a.4.4 0 00-.379-.273h-2.797v-1.598h.4a.399.399 0 100-.8h-2.024v-.399a.4.4 0 10-.8 0v.4h-1.597v-.4a.4.4 0 10-.8 0v.4h-1.598v-.4a.4.4 0 00-.799 0v.633l-2.305 2.28a.399.399 0 00-.118.284v5.593c0 .22.178.4.4.4h2.092a1.2 1.2 0 001.929.492 1.2 1.2 0 001.929-.493h3.76a1.2 1.2 0 001.129.8 1.2 1.2 0 001.13-.8h.868a.4.4 0 00.4-.4v-3.195a.428.428 0 00-.021-.127zm-9.994 3.722a.4.4 0 110-.8.4.4 0 010 .8zm1.598 0a.4.4 0 110-.8.4.4 0 010 .8zm3.622-.799h-2.492a1.2 1.2 0 00-1.93-.493 1.2 1.2 0 00-1.929.493h-1.692v-5.027l2.188-2.164h5.855v7.191zm2.397-4.794h.911l.533 1.598h-1.444v-1.598zm0 5.593a.4.4 0 11.001-.8.4.4 0 01-.001.8zm1.599-.799h-.469a1.2 1.2 0 00-1.13-.799 1.2 1.2 0 00-1.129.8h-.469v-4.795h.799v1.998c0 .22.179.4.4.4h1.998v2.396z"/>
      <path d="M93.338 66.475a.4.4 0 00-.4.4v3.195a.4.4 0 10.799 0v-3.196a.4.4 0 00-.4-.4zM95.734 70.47a.4.4 0 00.4-.4v-3.196a.4.4 0 10-.799 0v3.197c0 .22.179.4.4.4zM98.132 70.47a.4.4 0 00.399-.4v-3.196a.4.4 0 10-.8 0v3.197c0 .22.18.4.4.4z"/>
    </g>
  </g>
  <g opacity=".8">
    <path fill="#5D88E6" d="M182.998 69h-17.569A2.433 2.433 0 01163 66.571V48.957c0-1.273.975-2.33 2.231-2.43l18.725-1.52a2.442 2.442 0 012.628 2.578l-1.157 19.135c-.066 1.289-1.14 2.28-2.429 2.28z"/>
    <path fill="#fff" fill-rule="evenodd" d="M174.835 50.606c-3.788 0-6.851 3.049-6.851 6.801 0 3.752 3.063 6.801 6.851 6.801s6.852-3.049 6.852-6.801c0-3.752-3.064-6.801-6.852-6.801zm-8.097 6.801c0-4.448 3.629-8.047 8.097-8.047s8.098 3.599 8.098 8.047-3.63 8.047-8.098 8.047c-4.468 0-8.097-3.599-8.097-8.047z" clip-rule="evenodd"/>
    <path fill="#fff" fill-rule="evenodd" d="M170.42 53.9l-3.371-3.349.878-.884 3.371 3.349-.878.883zm7.95 7.018a.623.623 0 01.881-.003l3.371 3.348a.623.623 0 01-.878.884l-3.371-3.349a.622.622 0 01-.003-.88zM178.373 53.016l3.371-3.349.878.884-3.371 3.348-.878-.883zm-7.072 7.902a.623.623 0 01-.003.88l-3.371 3.349a.623.623 0 01-.878-.884l3.371-3.348a.623.623 0 01.881.003zM175.904 54.044c.456-.831.486-.824.284.104a3.145 3.145 0 00-.284-.104zm1.092.572c.717-.639.74-.617.239.193a3.1 3.1 0 00-.239-.193zm.837.898c.882-.349.904-.32.149.267-.045-.089-.097-.178-.149-.267zm.471 1.136c.956-.03.956 0 .052.297-.015-.104-.03-.2-.052-.297zm.052 1.225c.904.297.904.326-.052.297.022-.097.037-.2.052-.297zm-.374 1.165c.755.587.733.617-.149.26.052-.081.104-.17.149-.26zm-.747.973c.501.802.478.824-.239.193a3.1 3.1 0 00.239-.193zm-1.047.653c.195.928.172.943-.284.104.097-.03.195-.067.284-.104zm-1.203.268c-.135.935-.165.935-.299 0h.299zm-1.218-.164c-.456.84-.486.824-.292-.104.097.037.194.075.292.104zm-1.099-.564c-.71.631-.733.616-.232-.193.075.067.157.134.232.193zm-.83-.906c-.889.357-.904.327-.149-.26.044.09.097.178.149.26zm-.471-1.128c-.957.03-.964 0-.052-.297.015.096.03.2.052.297zm-.052-1.225c-.912-.297-.905-.327.052-.297a3.701 3.701 0 00-.052.297zm.374-1.166c-.755-.586-.74-.616.149-.267-.052.089-.105.178-.149.267zm.747-.972c-.501-.81-.478-.832.232-.193-.075.059-.157.126-.232.193zm1.039-.661c-.194-.928-.164-.936.292-.104-.098.03-.195.067-.292.104zm1.211-.26c.134-.943.164-.943.299 0h-.299z" clip-rule="evenodd"/>
    <path fill="#fff" fill-rule="evenodd" d="M174.369 54.51h.931l.422.13c.071.021.148.05.227.083l.307.127.374.27a2.4 2.4 0 01.189.153l.314.28.162.276c.054.093.096.164.13.232l.189.375.082.355c.016.068.028.142.043.244l.056.39-.055.354a2.637 2.637 0 01-.044.251l-.082.355-.189.375a2.513 2.513 0 01-.117.204l-.222.345-.267.24a2.38 2.38 0 01-.189.152l-.35.253-.331.136a2.49 2.49 0 01-.227.084l-.446.136h-.883l-.445-.136a4.132 4.132 0 01-.251-.09l-.35-.133-.292-.233a4.73 4.73 0 01-.204-.17l-.268-.239-.221-.345a2.265 2.265 0 01-.118-.204l-.188-.375-.083-.354c-.014-.061-.024-.127-.038-.218l-.005-.034-.055-.355.056-.389c.014-.102.026-.176.042-.244l.083-.355.188-.375c.035-.068.076-.14.131-.232l.161-.275.315-.281c.061-.055.132-.113.204-.17l.31-.247.332-.126c.101-.039.178-.068.251-.09l.421-.13zm-2.671.284a3.859 3.859 0 01-.085-.15 1.613 1.613 0 01-.098-.21.807.807 0 01-.044-.197.641.641 0 01.801-.673c.089.023.157.06.188.079.07.04.137.091.189.132.041.033.088.072.139.116a2.946 2.946 0 01-.03-.177 1.453 1.453 0 01-.02-.232.76.76 0 01.029-.206.644.644 0 01.405-.429c.291-.1.517.04.571.077.075.05.127.108.15.136.053.06.1.131.135.188.03.047.063.102.099.165a6.62 6.62 0 01.032-.179 1.61 1.61 0 01.059-.221.77.77 0 01.092-.18.643.643 0 01.525-.275.64.64 0 01.524.275c.053.074.08.146.093.18.027.075.045.156.058.221.011.052.021.112.032.179a4.78 4.78 0 01.099-.165c.035-.056.081-.126.133-.187a.783.783 0 01.15-.135.642.642 0 01.577-.077.643.643 0 01.403.437c.024.09.026.167.026.203-.001.081-.012.165-.022.23l-.03.172c.052-.045.099-.084.142-.118.052-.041.12-.092.19-.132a.778.778 0 01.188-.077.64.64 0 01.8.667.797.797 0 01-.043.201 1.595 1.595 0 01-.098.21 3.801 3.801 0 01-.085.15l.169-.059c.064-.02.146-.045.226-.058a.767.767 0 01.206-.006.644.644 0 01.487.316c.156.269.057.52.029.583a.788.788 0 01-.11.176 1.599 1.599 0 01-.166.165c-.037.033-.08.07-.128.109l.174.001c.066.002.15.006.229.02a.771.771 0 01.195.061.642.642 0 01.359.477.644.644 0 01-.183.557.77.77 0 01-.16.12c-.069.04-.147.072-.208.096a4.723 4.723 0 01-.163.06l.163.06c.061.025.139.057.208.097a.772.772 0 01.16.12.645.645 0 01.183.557.642.642 0 01-.359.477.771.771 0 01-.195.061 1.582 1.582 0 01-.229.02 5.037 5.037 0 01-.174.001l.128.108c.05.044.112.102.165.165.023.028.072.09.11.174a.643.643 0 01-.032.592.643.643 0 01-.493.31.764.764 0 01-.203-.01 1.625 1.625 0 01-.224-.059 5.849 5.849 0 01-.165-.059c.033.055.061.104.085.148.032.058.071.134.098.21a.788.788 0 01.044.203.642.642 0 01-.231.542.643.643 0 01-.565.126.775.775 0 01-.188-.076 1.501 1.501 0 01-.191-.131 5.386 5.386 0 01-.148-.12l.03.172c.01.065.021.148.021.227a.8.8 0 01-.023.198.643.643 0 01-.388.438.644.644 0 01-.595-.07.759.759 0 01-.15-.138 1.604 1.604 0 01-.132-.187 3.726 3.726 0 01-.095-.162c-.012.067-.022.128-.033.18a1.626 1.626 0 01-.059.22.744.744 0 01-.093.18.641.641 0 01-.523.274.644.644 0 01-.524-.273.828.828 0 01-.093-.18 1.787 1.787 0 01-.059-.221 6.719 6.719 0 01-.032-.18 7.422 7.422 0 01-.098.165 1.71 1.71 0 01-.136.19.769.769 0 01-.154.136.645.645 0 01-.579.07.64.64 0 01-.393-.428.74.74 0 01-.029-.204c-.001-.081.01-.166.02-.231.007-.051.017-.11.029-.173a5.241 5.241 0 01-.139.114c-.051.041-.118.092-.186.132a.774.774 0 01-.185.077.641.641 0 01-.574-.12.644.644 0 01-.232-.551.791.791 0 01.045-.198c.027-.075.066-.15.097-.207.025-.046.054-.097.088-.154a4.912 4.912 0 01-.172.061 1.573 1.573 0 01-.223.06.761.761 0 01-.203.009.644.644 0 01-.499-.32.645.645 0 01-.021-.59.756.756 0 01.11-.17c.052-.061.114-.118.164-.162a4.52 4.52 0 01.127-.107h-.174a1.585 1.585 0 01-.229-.02.76.76 0 01-.193-.06.643.643 0 01-.361-.465.642.642 0 01.178-.568.753.753 0 01.162-.123c.069-.04.147-.072.209-.096a4.55 4.55 0 01.163-.06 4.55 4.55 0 01-.163-.06 1.538 1.538 0 01-.209-.097.753.753 0 01-.162-.123.643.643 0 01-.178-.568.643.643 0 01.361-.464.756.756 0 01.193-.06c.078-.014.162-.018.229-.02.051-.001.109-.002.174-.001a4.313 4.313 0 01-.127-.107 1.57 1.57 0 01-.165-.164.74.74 0 01-.11-.171.644.644 0 01.019-.581.643.643 0 01.492-.326c.092-.01.17 0 .206.006.081.013.162.038.225.058l.174.06z" clip-rule="evenodd"/>
  </g>
  <g opacity=".9">
    <path fill="#5D88E6" d="M258.047 95.557v15.958c0 1.887-1.493 3.459-3.38 3.537l-19.952.944a3.54 3.54 0 01-3.715-3.538v-16.9A3.557 3.557 0 01234.558 92h19.932a3.556 3.556 0 013.557 3.557z"/>
    <path fill="#fff" fill-rule="evenodd" d="M241.818 98.862c.345 0 .625.28.625.626v11.889a.625.625 0 01-1.251 0v-11.89c0-.345.28-.625.626-.625zm3.128 0c.346 0 .626.28.626.626v11.889a.625.625 0 01-1.251 0v-11.89c0-.345.28-.625.625-.625z" clip-rule="evenodd"/>
    <path fill="#fff" fill-rule="evenodd" d="M243.144 95.026a.624.624 0 01.523-.034l9.327 3.6a.625.625 0 11-.451 1.167l-9.056-3.496-6.376 3.462a.626.626 0 01-.597-1.1l6.63-3.6z" clip-rule="evenodd"/>
    <path fill="#fff" fill-rule="evenodd" d="M241.358 99.542a.625.625 0 01.882-.068l3.113 2.667a.627.627 0 01.013.939l-2.6 2.352 2.6 2.352a.627.627 0 01.024.905l-3.114 3.129a.626.626 0 11-.887-.883l2.651-2.663-2.627-2.376a.625.625 0 010-.928l2.586-2.339-2.573-2.205a.625.625 0 01-.068-.882zM243.382 95.108c.346 0 .626.28.626.625v3.442a.626.626 0 11-1.251 0l-.001-3.442c0-.345.28-.625.626-.625zM250.371 99.324c.345 0 .626.28.626.626v4.544a.626.626 0 01-1.252 0V99.95c0-.346.28-.626.626-.626z" clip-rule="evenodd"/>
    <path fill="#fff" fill-rule="evenodd" d="M250.983 104.582a.625.625 0 01-.445.764.893.893 0 00-.662.928l.002.026a.644.644 0 00.623.628.585.585 0 00.591-.596.626.626 0 011.252-.027 1.84 1.84 0 01-1.149 1.742c-.23.093-.476.138-.723.132h-.005a1.9 1.9 0 01-1.84-1.828 2.149 2.149 0 011.592-2.215.625.625 0 01.764.446zM238.689 111.377c0-.346.28-.626.626-.626h8.76a.626.626 0 010 1.251h-8.76a.625.625 0 01-.626-.625zM236.186 99.175c0-.346.28-.626.626-.626h15.956a.626.626 0 010 1.251h-15.956a.626.626 0 01-.626-.625z" clip-rule="evenodd"/>
  </g>
  <g opacity=".7">
    <path fill="#5D88E6" d="M115 6.325v14.922a3.306 3.306 0 003.171 3.31l18.669.881a3.324 3.324 0 003.48-3.31V6.326A3.32 3.32 0 00136.994 3h-18.668A3.32 3.32 0 00115 6.325z"/>
    <path fill="#fff" fill-rule="evenodd" d="M123.348 10.407a1.933 1.933 0 00-1.936 1.918c0 1.051.868 1.918 1.936 1.918h8.062c1.702 0 3.101 1.373 3.101 3.077 0 1.703-1.397 3.084-3.101 3.084h-6.697a.583.583 0 110-1.165h6.697a1.932 1.932 0 001.935-1.919c0-1.049-.865-1.91-1.935-1.91h-8.062c-1.705 0-3.101-1.383-3.101-3.085s1.396-3.084 3.101-3.084h4.144a.583.583 0 110 1.166h-4.144z" clip-rule="evenodd"/>
    <path fill="#fff" fill-rule="evenodd" d="M131.355 8.246c-.898 0-1.633.733-1.633 1.619s.735 1.618 1.633 1.618h1.434V8.246h-1.434zm-2.799 1.619c0-1.54 1.267-2.784 2.799-2.784h2.017c.322 0 .583.26.583.582v4.403a.583.583 0 01-.583.583h-2.017c-1.532 0-2.799-1.244-2.799-2.784z" clip-rule="evenodd"/>
    <path fill="#fff" fill-rule="evenodd" d="M128.068 9.562h1.262a.583.583 0 100-1.166h-1.516a.91.91 0 00-.912.91v1.043c0 .503.416.91.912.91h1.482a.583.583 0 100-1.166h-1.228v-.531zM131.341 8.396c.322 0 .583.261.583.583v1.738a.583.583 0 01-1.166 0V8.979c0-.322.261-.583.583-.583zM132.789 8.672c0-.322.261-.583.583-.583h1.448a.583.583 0 110 1.166h-1.448a.583.583 0 01-.583-.583zM132.789 11.057c0-.322.261-.583.583-.583h1.448a.583.583 0 110 1.166h-1.448a.583.583 0 01-.583-.583z" clip-rule="evenodd"/>
  </g>
  <g opacity=".8">
    <path fill="#5D88E6" d="M231 11.704v16.623c0 1.981 1.551 3.6 3.532 3.687l20.797.981a3.703 3.703 0 003.877-3.686V11.704A3.7 3.7 0 00255.501 8h-20.796A3.698 3.698 0 00231 11.704z"/>
    <path fill="#fff" fill-rule="evenodd" d="M238.792 12.546a.65.65 0 01.65-.65h12.338c.359 0 .649.291.649.65v15.417c0 .358-.29.65-.649.65h-12.338a.65.65 0 01-.65-.65V12.546zm1.299.649v14.119h11.04V13.195h-11.04z" clip-rule="evenodd"/>
    <path fill="#fff" fill-rule="evenodd" d="M243.338 14.39c.359 0 .65.29.65.649v1.347a.65.65 0 01-1.299 0V15.04a.65.65 0 01.649-.65zM243.338 18.93a.65.65 0 01.649.65v1.348a.65.65 0 01-1.299 0V19.58a.65.65 0 01.65-.65zM243.338 23.473a.65.65 0 01.649.649v1.356a.65.65 0 01-1.299 0v-1.356a.65.65 0 01.65-.65zM247.884 14.39a.65.65 0 01.649.649v1.347a.65.65 0 01-1.299 0V15.04a.65.65 0 01.65-.65zM247.884 18.93a.65.65 0 01.649.65v1.348a.65.65 0 01-1.299 0V19.58a.65.65 0 01.65-.65zM247.884 23.473a.65.65 0 01.649.649v1.356a.65.65 0 01-1.299 0v-1.356a.65.65 0 01.65-.65z" clip-rule="evenodd"/>
  </g>
  <g opacity=".9">
    <path fill="#5D88E6" d="M286 41.294V60.57a4.27 4.27 0 004.096 4.274l24.113 1.139c2.438.12 4.496-1.838 4.496-4.275V41.295A4.288 4.288 0 00314.409 37h-24.114A4.288 4.288 0 00286 41.294z"/>
    <path fill="#fff" stroke="#fff" d="M309.739 41.416h-15.102c-1 0-1.887.815-1.887 1.896v15.161c0 1.004.811 1.895 1.887 1.895h15.102a1.897 1.897 0 001.888-1.895V43.312c0-1.08-.887-1.895-1.888-1.895zm-11.458 17.057c0 .625-.51 1.137-1.133 1.137h-2.511a1.138 1.138 0 01-1.132-1.137V43.312c0-.626.509-1.137 1.132-1.137h2.511c.623 0 1.133.511 1.133 1.137v15.161zm12.591 0c0 .625-.51 1.137-1.133 1.137h-11.081c.246-.322.378-.701.378-1.137V43.312c0-.436-.132-.815-.378-1.137h11.081c.623 0 1.133.511 1.133 1.137v15.161z"/>
    <path fill="#fff" stroke="#fff" d="M300.736 51.655h8.246v-7.26h-8.246v7.26zm.622-6.638h7.002v6.016h-7.002v-6.016zM305.092 53.107a2.184 2.184 0 00-2.178 2.17c0 1.191.966 2.187 2.178 2.187a2.173 2.173 0 002.178-2.17c0-1.191-.982-2.187-2.178-2.187zm0 3.704c-.819 0-1.523-.701-1.523-1.517s.704-1.518 1.523-1.518 1.523.702 1.523 1.518c0 .864-.704 1.517-1.523 1.517z"/>
  </g>
  <defs>
    <linearGradient id="paint0_linear" x1="885.999" x2="208.996" y1="292.493" y2="292.493" gradientUnits="userSpaceOnUse">
      <stop stop-color="#5D88E6"/>
      <stop offset="1" stop-color="#A6BAE7"/>
    </linearGradient>
    <linearGradient id="paint1_linear" x1="535.167" x2="589.917" y1="428.259" y2="508.037" gradientUnits="userSpaceOnUse">
      <stop stop-color="#053294"/>
      <stop offset="1" stop-color="#113685"/>
    </linearGradient>
    <linearGradient id="paint2_linear" x1="587.398" x2="587.398" y1="419.996" y2="521.863" gradientUnits="userSpaceOnUse">
      <stop stop-color="#053294"/>
      <stop offset="1" stop-color="#113685"/>
    </linearGradient>
    <linearGradient id="paint3_linear" x1="558.92" x2="554.037" y1="389.651" y2="312.328" gradientUnits="userSpaceOnUse">
      <stop stop-color="#FF928E"/>
      <stop offset="1" stop-color="#FEB3B1"/>
    </linearGradient>
    <linearGradient id="paint4_linear" x1="571.276" x2="642.405" y1="194.602" y2="276.737" gradientUnits="userSpaceOnUse">
      <stop stop-color="#113685"/>
      <stop offset="1" stop-color="#053294"/>
    </linearGradient>
    <linearGradient id="paint5_linear" x1="590.799" x2="818.262" y1="327.257" y2="680.042" gradientUnits="userSpaceOnUse">
      <stop stop-color="#62E7BF"/>
      <stop offset="1" stop-color="#149469"/>
    </linearGradient>
    <linearGradient id="paint6_linear" x1="788.543" x2="674.637" y1="327.844" y2="434.721" gradientUnits="userSpaceOnUse">
      <stop stop-color="#001E62"/>
      <stop offset="1" stop-color="#1C3672"/>
    </linearGradient>
    <linearGradient id="paint7_linear" x1="609.944" x2="613.719" y1="380.202" y2="321.494" gradientUnits="userSpaceOnUse">
      <stop stop-color="#FEBBBA"/>
      <stop offset="1" stop-color="#FF928E"/>
    </linearGradient>
    <linearGradient id="paint8_linear" x1="585.995" x2="624.811" y1="324.399" y2="176.259" gradientUnits="userSpaceOnUse">
      <stop stop-color="#FEBBBA"/>
      <stop offset="1" stop-color="#FF928E"/>
    </linearGradient>
    <linearGradient id="paint9_linear" x1="572.198" x2="632.283" y1="207.835" y2="289.38" gradientUnits="userSpaceOnUse">
      <stop stop-color="#113685"/>
      <stop offset="1" stop-color="#053294"/>
    </linearGradient>
    <linearGradient id="paint10_linear" x1="603.712" x2="642.528" y1="329.04" y2="180.901" gradientUnits="userSpaceOnUse">
      <stop stop-color="#FEBBBA"/>
      <stop offset="1" stop-color="#FF928E"/>
    </linearGradient>
    <linearGradient id="paint11_linear" x1="745.076" x2="630.914" y1="495.948" y2="434.233" gradientUnits="userSpaceOnUse">
      <stop stop-color="#FF928E"/>
      <stop offset="1" stop-color="#FEB3B1"/>
    </linearGradient>
    <linearGradient id="paint12_linear" x1="632.729" x2="592.349" y1="310.751" y2="272.658" gradientUnits="userSpaceOnUse">
      <stop stop-color="#1D10A5"/>
      <stop offset="1" stop-color="#0E056D"/>
    </linearGradient>
    <linearGradient id="paint13_linear" x1="570.517" x2="590.438" y1="294.296" y2="294.296" gradientUnits="userSpaceOnUse">
      <stop stop-color="#1A0F91"/>
      <stop offset="1" stop-color="#1A0F91"/>
    </linearGradient>
    <linearGradient id="paint14_linear" x1="544.715" x2="726.109" y1="224.493" y2="285.463" gradientUnits="userSpaceOnUse">
      <stop stop-color="#09005D"/>
      <stop offset="1" stop-color="#1A0F91"/>
    </linearGradient>
    <linearGradient id="paint15_linear" x1="580.948" x2="694.604" y1="261.1" y2="299.301" gradientUnits="userSpaceOnUse">
      <stop stop-color="#09005D"/>
      <stop offset="1" stop-color="#1A0F91"/>
    </linearGradient>
    <linearGradient id="paint16_linear" x1="596.596" x2="636.445" y1="206.643" y2="323.632" gradientUnits="userSpaceOnUse">
      <stop stop-color="#09005D"/>
      <stop offset="1" stop-color="#1A0F91"/>
    </linearGradient>
    <linearGradient id="paint17_linear" x1="460.069" x2="421.923" y1="362.736" y2="526.171" gradientUnits="userSpaceOnUse">
      <stop stop-color="#113685"/>
      <stop offset="1" stop-color="#053294"/>
    </linearGradient>
    <linearGradient id="paint18_linear" x1="523.513" x2="357.213" y1="296.432" y2="409.22" gradientUnits="userSpaceOnUse">
      <stop stop-color="#113685"/>
      <stop offset="1" stop-color="#053294"/>
    </linearGradient>
    <linearGradient id="paint19_linear" x1="455.382" x2="458.833" y1="398.729" y2="458.652" gradientUnits="userSpaceOnUse">
      <stop stop-color="#113685"/>
      <stop offset="1" stop-color="#053294"/>
    </linearGradient>
    <clipPath id="clip0">
      <path fill="#fff" d="M0 0h12.035v12.035H0z" transform="translate(48.243 22.623)"/>
    </clipPath>
    <clipPath id="clip1">
      <path fill="#fff" d="M0 0h13.637v13.637H0z" transform="translate(90.914 61.654)"/>
    </clipPath>
  </defs>
</svg>
