<svg viewBox="0 0 71 59" fill="none" xmlns="http://www.w3.org/2000/svg">
<path d="M11.9327 52.9676C11.9327 51.8542 11.2002 51.0692 10.1667 51.0692C9.13312 51.0692 8.34673 51.8542 8.34673 52.9676C8.34673 54.0926 9.13312 54.8661 10.1667 54.8661C11.1894 54.8661 11.9327 54.0926 11.9327 52.9676ZM13.1603 52.9676C13.1603 54.7502 12.0082 56.0105 10.4246 56.0105C9.4989 56.0105 8.788 55.5662 8.35751 54.9086V58.5347H7.14062V50.0523H8.35751V51.0488C8.788 50.3806 9.4989 49.9248 10.4354 49.9248C11.9866 49.9248 13.1603 51.186 13.1603 52.9676Z" fill="#6496DC"/>
<path d="M18.7502 52.9677C18.7502 51.8542 17.9638 51.0692 16.9312 51.0692C15.8967 51.0692 15.1652 51.8542 15.1652 52.9677C15.1652 54.0926 15.9075 54.8661 16.9312 54.8661C17.9638 54.8661 18.7502 54.0926 18.7502 52.9677ZM19.9563 50.0523V55.8839H18.7394V54.9086C18.3089 55.5759 17.598 56.0105 16.6723 56.0105C15.0897 56.0105 13.9375 54.7502 13.9375 52.9677C13.9375 51.186 15.1112 49.9248 16.6616 49.9248C17.598 49.9248 18.3089 50.3806 18.7394 51.0488V50.0523H19.9563Z" fill="#6496DC"/>
<path d="M26.6594 50.0615L22.74 58.5437H21.4368L22.9979 55.1505L20.6621 50.0615H21.9644L23.6441 53.8574L25.3562 50.0615H26.6594Z" fill="#6496DC"/>
<path d="M36.2122 52.141V55.884H34.9953V52.3959C34.9953 51.5268 34.6403 51.0701 33.8216 51.0701C32.8636 51.0701 32.3683 51.8021 32.3683 52.8624L32.3791 55.884H31.1515V52.3959C31.1515 51.5268 30.7965 51.0701 29.9777 51.0701C29.0197 51.0701 28.5352 51.8021 28.5352 52.8624V55.884H27.3184V50.0531H28.5352V50.9851C28.9442 50.3169 29.5257 49.9248 30.3759 49.9248C31.2809 49.9248 31.9163 50.3594 32.2066 51.1444C32.6047 50.3912 33.2725 49.9248 34.209 49.9248C35.4582 49.9248 36.2122 50.7524 36.2122 52.141Z" fill="#6496DC"/>
<path d="M38.4672 52.3216H41.913C41.7296 51.5268 41.1158 50.9648 40.2225 50.9648C39.2968 50.9648 38.6721 51.5365 38.4672 52.3216ZM43.2161 53.2978H38.4025C38.4996 54.3688 39.2644 54.9618 40.2548 54.9618C40.9657 54.9618 41.5571 54.6644 41.8375 54.0926H43.0975C42.6346 55.3972 41.5031 56.0115 40.244 56.0115C38.4457 56.0115 37.1641 54.7387 37.1641 52.9792C37.1641 51.2188 38.4349 49.9248 40.2225 49.9248C42.1287 49.9248 43.3348 51.3781 43.2161 53.2978Z" fill="#6496DC"/>
<path d="M49.4272 52.2048V55.884H48.2103V52.4482C48.2103 51.5472 47.8121 51.0701 46.9179 51.0701C45.8736 51.0701 45.3136 51.7383 45.3136 52.8624V55.884H44.0977V50.0523H45.3136V51.017C45.7343 50.339 46.3697 49.9248 47.2954 49.9248C48.6309 49.9248 49.4272 50.7842 49.4272 52.2048Z" fill="#6496DC"/>
<path d="M54.9451 55.5482C54.6225 55.7385 53.9331 55.9722 53.2546 55.9722C52.0377 55.9722 51.0904 55.219 51.0904 53.6082V51.1372H49.9922V50.0132H51.0904V48.6874L52.3064 48.4219V50.0132H54.7402V51.1372H52.3064V53.5436C52.3064 54.3915 52.7055 54.8588 53.4703 54.8588C53.8468 54.8588 54.2666 54.7313 54.7294 54.572L54.9451 55.5482Z" fill="#6496DC"/>
<path d="M55.3301 54.0077H56.5685C56.7519 54.6538 57.2363 54.9512 58.259 54.9512C59.0445 54.9512 59.529 54.7184 59.529 54.2838C59.529 53.7952 58.969 53.7209 57.9786 53.4881C56.3205 53.0845 55.6204 52.7562 55.6204 51.7799C55.6204 50.6028 56.6332 49.9248 58.1188 49.9248C59.6368 49.9248 60.4879 50.6346 60.7036 51.6958H59.475C59.3034 51.2188 58.8504 50.9851 58.0973 50.9851C57.3118 50.9851 56.848 51.2506 56.848 51.6534C56.848 52.0242 57.2147 52.1198 58.2483 52.3641C59.8525 52.7349 60.7782 53.0102 60.7782 54.1448C60.7782 55.3963 59.6368 56.0115 58.2375 56.0115C56.6764 56.0115 55.5557 55.2698 55.3301 54.0077Z" fill="#6496DC"/>
<path d="M3.37115 29.8687C4.48648 24.2344 9.50681 20.0437 15.5157 20.0437C18.0448 20.0437 20.4795 20.8093 22.5151 22.1829L24.8949 19.8393C23.0292 18.4719 20.8704 17.5222 18.5759 17.0717C19.2707 9.75413 25.5214 4.10308 33.0554 4.10308C36.0312 4.10308 38.8909 4.98194 41.3274 6.64406C43.4421 8.08669 45.112 10.0276 46.2021 12.296C43.3046 13.0456 40.6156 14.4458 38.3526 16.3849L40.7091 18.7055C43.5958 16.3017 47.2842 14.9352 51.1434 14.9352C59.7182 14.9352 66.7499 21.4757 67.2586 29.8687H70.5866C70.3394 24.9681 68.2211 20.3986 64.6145 16.9938C60.9728 13.5563 56.1889 11.6641 51.1434 11.6641C50.6185 11.6641 50.0963 11.6862 49.5778 11.7278C48.2638 8.58409 46.0709 5.89973 43.2192 3.9544C40.2246 1.91082 36.7106 0.831055 33.0554 0.831055C23.7967 0.831055 16.1161 7.77958 15.2677 16.7752C7.53409 16.8929 1.14229 22.482 0 29.8687H3.37115Z" fill="#6496DC"/>
<path d="M6.65625 38.9329C6.65625 35.6361 9.14125 33.1279 12.551 33.1279C15.303 33.1279 17.7475 34.7661 18.1789 37.5973H15.1592C14.8105 36.384 13.7419 35.7981 12.551 35.7981C10.7644 35.7981 9.61399 37.092 9.63376 38.9329C9.61399 40.7941 10.8057 42.0676 12.5304 42.0676C13.7419 42.0676 14.8105 41.4605 15.1592 40.2471H18.1789C17.7269 43.1801 15.2419 44.7378 12.5304 44.7378C9.14125 44.7378 6.65625 42.2296 6.65625 38.9329Z" fill="#393962"/>
<path d="M19.5527 44.4966H22.4898V29.918H19.5527V44.4966Z" fill="#393962"/>
<path d="M26.948 38.9329C26.948 40.7728 28.2215 41.9871 29.8644 41.9871C31.5072 41.9871 32.7807 40.7728 32.7807 38.9329C32.7807 37.1123 31.5072 35.8786 29.8644 35.8786C28.2215 35.8786 26.948 37.1123 26.948 38.9329ZM35.7592 38.9329C35.7592 42.2907 33.1708 44.7378 29.8644 44.7378C26.5777 44.7378 23.9902 42.2703 23.9902 38.9329C23.9902 35.575 26.619 33.1279 29.8644 33.1279C33.1295 33.1279 35.7592 35.575 35.7592 38.9329Z" fill="#393962"/>
<path d="M47.6884 33.332V44.4553H44.7514V42.9189C43.9299 44.0509 42.8209 44.6987 41.2598 44.6987C38.7748 44.6987 37.2344 43.0198 37.2344 40.3098V33.332H40.1714V39.6832C40.1714 41.1391 40.726 41.948 42.2457 41.948C43.8688 41.948 44.7514 40.9975 44.7514 39.1769V33.332H47.6884Z" fill="#393962"/>
<path d="M58.0759 38.9349C58.0759 37.1144 56.8231 35.8806 55.1802 35.8806C53.5373 35.8806 52.3249 37.1144 52.3249 38.9349C52.3249 40.7749 53.558 41.9892 55.1802 41.9892C56.8231 41.9892 58.0759 40.7749 58.0759 38.9349ZM61.013 29.918V44.4966H58.0759V43.0009C57.2958 44.0514 56.1041 44.74 54.5223 44.74C51.5853 44.74 49.3672 42.353 49.3672 38.9349C49.3672 35.4965 51.6059 33.1298 54.5017 33.1298C56.1041 33.1298 57.2958 33.8582 58.0759 34.93V29.918H61.013Z" fill="#393962"/>
</svg>
