<svg xmlns="http://www.w3.org/2000/svg" width="289" height="35" fill="none" viewBox="0 0 289 35">
  <path fill="#05D9AE" d="M8.952 26.386c-2.368 0-4.341-.544-5.92-1.632C1.453 23.644.504 22.13.184 20.21h4.64c.384 1.579 1.803 2.368 4.256 2.368 1.984 0 2.976-.48 2.976-1.44a.939.939 0 00-.064-.352.557.557 0 00-.16-.288 1.114 1.114 0 00-.224-.224 1.07 1.07 0 00-.384-.224 5.362 5.362 0 00-.416-.16 8.448 8.448 0 00-.576-.16 13.895 13.895 0 00-.64-.16c-.17-.043-.416-.096-.736-.16s-.597-.128-.832-.192c-2.624-.619-4.459-1.29-5.504-2.016-1.024-.747-1.536-1.856-1.536-3.328 0-1.835.693-3.264 2.08-4.288 1.408-1.045 3.285-1.568 5.632-1.568 2.347 0 4.17.512 5.472 1.536 1.301 1.003 2.112 2.368 2.432 4.096h-4.64c-.384-1.195-1.525-1.792-3.424-1.792-1.963 0-2.944.49-2.944 1.472 0 .384.203.661.608.832.405.17 1.323.416 2.752.736 1.43.32 2.56.619 3.392.896a11.68 11.68 0 012.368 1.024c.747.427 1.28.939 1.6 1.536.32.597.48 1.323.48 2.176 0 1.899-.736 3.35-2.208 4.352-1.472 1.003-3.35 1.504-5.632 1.504zM32.914 8.402h4.575l-.031 17.6h-4.576v-2.368c-1.344 1.835-3.18 2.752-5.504 2.752-2.326 0-4.246-.853-5.76-2.56-1.515-1.728-2.272-3.936-2.272-6.624 0-2.688.757-4.885 2.271-6.592 1.537-1.728 3.446-2.592 5.729-2.592 2.346 0 4.202.95 5.567 2.848V8.402zM28.4 22.034c1.302 0 2.38-.448 3.233-1.344.853-.896 1.28-2.059 1.28-3.488 0-1.43-.427-2.592-1.28-3.488-.854-.896-1.931-1.344-3.233-1.344-1.3 0-2.367.448-3.2 1.344-.832.896-1.248 2.059-1.248 3.488 0 1.43.416 2.592 1.248 3.488.854.896 1.92 1.344 3.2 1.344zm12.768 3.968V1.362h4.576v24.64h-4.576zM58.154 8.018c2.88 0 5.151.992 6.816 2.976 1.685 1.984 2.41 4.448 2.175 7.392H53.643c.15 1.365.64 2.41 1.472 3.136.833.725 1.867 1.088 3.105 1.088.895 0 1.695-.192 2.4-.576.703-.405 1.205-.95 1.504-1.632h4.736c-.62 1.984-1.707 3.477-3.264 4.48-1.558 1.003-3.34 1.504-5.344 1.504-2.731 0-4.96-.864-6.688-2.592-1.729-1.728-2.593-3.915-2.593-6.56 0-2.645.864-4.843 2.593-6.592 1.727-1.75 3.925-2.624 6.591-2.624zm-.032 3.776c-1.088 0-1.995.299-2.72.896-.726.576-1.238 1.355-1.536 2.336h8.416c-.257-.981-.747-1.76-1.473-2.336-.725-.597-1.62-.896-2.688-.896zM78.39 26.386c-2.368 0-4.342-.544-5.92-1.632-1.58-1.11-2.528-2.624-2.849-4.544h4.64c.385 1.579 1.803 2.368 4.257 2.368 1.983 0 2.975-.48 2.975-1.44a.939.939 0 00-.063-.352.557.557 0 00-.16-.288 1.114 1.114 0 00-.224-.224 1.07 1.07 0 00-.385-.224 5.362 5.362 0 00-.415-.16 8.448 8.448 0 00-.576-.16 13.905 13.905 0 00-.64-.16c-.171-.043-.416-.096-.737-.16-.32-.064-.597-.128-.832-.192-2.623-.619-4.458-1.29-5.504-2.016-1.023-.747-1.535-1.856-1.535-3.328 0-1.835.693-3.264 2.08-4.288 1.407-1.045 3.285-1.568 5.632-1.568 2.346 0 4.17.512 5.472 1.536 1.3 1.003 2.112 2.368 2.431 4.096h-4.64c-.384-1.195-1.525-1.792-3.424-1.792-1.962 0-2.944.49-2.944 1.472 0 .384.203.661.609.832.405.17 1.322.416 2.751.736 1.43.32 2.56.619 3.392.896a11.68 11.68 0 012.368 1.024c.747.427 1.28.939 1.6 1.536.32.597.48 1.323.48 2.176 0 1.899-.736 3.35-2.207 4.352-1.473 1.003-3.35 1.504-5.633 1.504zM105.903.978c4.715 0 8.608 1.408 11.68 4.224 3.072 2.816 4.608 6.645 4.608 11.488 0 3.03-.629 5.355-1.888 6.976-1.259 1.6-3.019 2.4-5.28 2.4-2.688 0-4.48-1.067-5.376-3.2-1.237 2.133-3.029 3.2-5.376 3.2-2.069 0-3.787-.768-5.152-2.304-1.344-1.536-2.016-3.488-2.016-5.856 0-2.39.672-4.352 2.016-5.888 1.365-1.536 3.061-2.304 5.088-2.304 2.112 0 3.776.864 4.992 2.592v-2.24h4.032l-.032 9.664c0 .832.192 1.461.576 1.888.405.405.939.608 1.6.608 1.792 0 2.688-1.664 2.688-4.992 0-2.133-.32-4.01-.96-5.632-.619-1.621-1.493-2.912-2.624-3.872a10.741 10.741 0 00-3.808-2.176c-1.408-.49-2.965-.736-4.672-.736-3.883 0-7.03 1.163-9.44 3.488-2.39 2.304-3.584 5.44-3.584 9.408 0 3.99 1.163 7.125 3.488 9.408 2.347 2.283 5.408 3.424 9.184 3.424 2.219 0 4.181-.395 5.888-1.184l.8 3.744c-2.027.853-4.299 1.28-6.816 1.28-4.907 0-8.917-1.536-12.032-4.608-3.093-3.072-4.64-7.083-4.64-12.032 0-4.97 1.59-9.003 4.768-12.096 3.2-3.115 7.296-4.672 12.288-4.672zm-.736 21.184c1.152 0 2.101-.395 2.848-1.184.768-.79 1.152-1.813 1.152-3.072 0-1.259-.384-2.283-1.152-3.072-.747-.81-1.696-1.216-2.848-1.216s-2.101.405-2.848 1.216c-.725.79-1.088 1.813-1.088 3.072 0 1.259.373 2.283 1.12 3.072.747.79 1.685 1.184 2.816 1.184zm25.593-.48h9.152v4.32H124.84v-4.32l8.896-8.96h-8.384v-4.32h14.336v4.32l-8.928 8.96zm22.366-13.664c1.962 0 3.509.619 4.64 1.856 1.13 1.237 1.696 2.933 1.696 5.088v11.04h-4.576V15.954c0-1.195-.256-2.09-.768-2.688-.512-.597-1.355-.896-2.528-.896-2.624 0-3.936 1.461-3.936 4.384v9.248h-4.576V1.362h4.576v9.44c1.322-1.856 3.146-2.784 5.472-2.784zm27.615 17.984h-5.856l-7.2-7.68v7.68h-4.576V1.362h4.576V15.73l6.688-7.328h5.824l-8.032 8.384 8.576 9.216zm3.897-4.288c.555-.512 1.238-.768 2.048-.768.811 0 1.483.256 2.016.768.555.512.832 1.163.832 1.952 0 .79-.277 1.44-.832 1.952-.533.512-1.205.768-2.016.768-.81 0-1.493-.256-2.048-.768-.533-.512-.8-1.163-.8-1.952 0-.79.267-1.44.8-1.952zm11.082-11.072c1.771-1.75 3.936-2.624 6.496-2.624 2.56 0 4.726.875 6.496 2.624 1.792 1.75 2.688 3.936 2.688 6.56 0 2.645-.885 4.843-2.656 6.592-1.749 1.728-3.925 2.592-6.528 2.592-2.581 0-4.757-.875-6.528-2.624-1.749-1.75-2.624-3.936-2.624-6.56 0-2.624.886-4.81 2.656-6.56zm9.728 3.072c-.853-.896-1.93-1.344-3.232-1.344-1.301 0-2.389.448-3.264 1.344-.853.896-1.28 2.059-1.28 3.488 0 1.43.427 2.592 1.28 3.488.875.896 1.963 1.344 3.264 1.344 1.302 0 2.379-.448 3.232-1.344.875-.896 1.312-2.059 1.312-3.488 0-1.43-.437-2.592-1.312-3.488zm19.205-5.696c1.984 0 3.542.619 4.672 1.856 1.131 1.237 1.696 2.933 1.696 5.088v11.04h-4.576V15.954c0-1.195-.256-2.09-.768-2.688-.512-.597-1.354-.896-2.528-.896-2.645 0-3.968 1.461-3.968 4.384v9.248h-4.576v-17.6h4.576v2.4c1.323-1.856 3.147-2.784 5.472-2.784zm9.891 17.984V1.362h4.576v24.64h-4.576zM245.066.274c.832 0 1.514.256 2.048.768.533.49.8 1.13.8 1.92s-.267 1.44-.8 1.952c-.534.512-1.216.768-2.048.768-.811 0-1.494-.256-2.048-.768-.534-.512-.8-1.163-.8-1.952 0-.768.266-1.408.8-1.92.554-.512 1.237-.768 2.048-.768zm-2.304 25.728v-17.6h4.576v17.6h-4.576zM261.06 8.018c1.984 0 3.541.619 4.672 1.856 1.13 1.237 1.696 2.933 1.696 5.088v11.04h-4.576V15.954c0-1.195-.256-2.09-.768-2.688-.512-.597-1.355-.896-2.528-.896-2.646 0-3.968 1.461-3.968 4.384v9.248h-4.576v-17.6h4.576v2.4c1.322-1.856 3.146-2.784 5.472-2.784zm18.626 0c2.88 0 5.152.992 6.816 2.976 1.685 1.984 2.41 4.448 2.176 7.392h-13.504c.149 1.365.64 2.41 1.472 3.136.832.725 1.866 1.088 3.104 1.088.896 0 1.696-.192 2.4-.576.704-.405 1.205-.95 1.504-1.632h4.736c-.619 1.984-1.707 3.477-3.264 4.48-1.558 1.003-3.339 1.504-5.344 1.504-2.731 0-4.96-.864-6.688-2.592-1.728-1.728-2.592-3.915-2.592-6.56 0-2.645.864-4.843 2.592-6.592 1.728-1.75 3.925-2.624 6.592-2.624zm-.032 3.776c-1.088 0-1.995.299-2.72.896-.726.576-1.238 1.355-1.536 2.336h8.416c-.256-.981-.747-1.76-1.472-2.336-.726-.597-1.622-.896-2.688-.896z"/>
</svg>
