<svg xmlns="http://www.w3.org/2000/svg" fill="none" viewBox="0 0 603 495">
  <path fill="url(#paint0_linear)" d="M111.911 400.164c13.806 12.549 26.137 19.948 35.586 25.512 92.217 54.338 197.569 38.711 230.14 33.325 52.542-8.642 96.908-14.739 135.041-45.163 86.655-69.136 82.433-213.327 16.219-302.647-7.841-10.595-73.921-97.133-179.541-109.326-2.614-.296-4.491-.474-6.166-.652C326.838-.326 225.64-8.376 143.074 52.71c-11.795 8.76-30.828 24.505-48.454 48.596-64.538 88.018-64.74 224.218 17.291 298.858z"/>
  <g opacity=".7">
    <g fill="#90AEEE" opacity=".64">
      <path d="M333.085 83.742a.917.917 0 00.317-.885 52.55 52.55 0 00-.499-2.439.92.92 0 00-1.111-.687.921.921 0 00-.688 1.111c.185.774.347 1.566.486 2.376.089.52.565.834 1.085.746.147-.046.277-.114.41-.222z" opacity=".64"/>
      <path d="M330.321 73.907a.96.96 0 00.294-1.05 51.435 51.435 0 00-1.92-4.464.944.944 0 00-1.239-.436.945.945 0 00-.436 1.24c.668 1.416 1.314 2.85 1.874 4.316.173.487.721.708 1.209.534.085-.032.151-.086.218-.14zm-5.707-11.142a.93.93 0 00.189-1.224 68.643 68.643 0 00-2.852-3.93.907.907 0 00-1.292-.134.907.907 0 00-.135 1.29 65.093 65.093 0 012.762 3.818c.281.438.842.537 1.279.257.004-.04.026-.059.049-.077zm-8.073-9.595l.089-.072c.365-.37.344-.943-.026-1.308a53.774 53.774 0 00-3.663-3.198.957.957 0 00-1.298.13.957.957 0 00.129 1.298 50.558 50.558 0 013.55 3.104c.356.303.863.335 1.219.046zm-9.977-7.57c.089-.072.138-.149.209-.244a.913.913 0 00-.317-1.257 50.619 50.619 0 00-4.267-2.302.92.92 0 00-1.229.443.92.92 0 00.443 1.229 57.4 57.4 0 014.131 2.227.94.94 0 001.03-.096zm-11.413-5.151a.971.971 0 00.289-.419c.153-.494-.119-1.012-.595-1.143a65.468 65.468 0 00-4.676-1.305.919.919 0 00-1.112.679.918.918 0 00.679 1.111c1.513.362 3.039.787 4.538 1.27.301.052.654-.013.877-.193zm-12.279-2.53a.872.872 0 00.332-.638c.033-.506-.329-.952-.835-.984a64.718 64.718 0 00-4.849-.243.937.937 0 00-.931.902c.008.511.414.92.902.93 1.568.022 3.132.084 4.688.226a.916.916 0 00.693-.192zm-12.512.282a.877.877 0 00.331-.822.928.928 0 00-1.04-.782c-1.594.221-3.214.5-4.78.846a.934.934 0 00-.705 1.09.935.935 0 001.089.705 51.506 51.506 0 014.614-.823c.188-.041.358-.105.491-.214zm-12.149 3.053a.921.921 0 00.271-1.032.917.917 0 00-1.186-.553 51.508 51.508 0 00-4.482 1.897.922.922 0 00-.435 1.24.922.922 0 001.239.435 62.694 62.694 0 014.334-1.85c.085-.033.17-.065.259-.137zm-24.016 17.251c.044-.036.089-.072.138-.149a62.58 62.58 0 013.122-3.528c.365-.37.344-.943-.026-1.308-.37-.365-.943-.343-1.308.026a53.711 53.711 0 00-3.216 3.641.957.957 0 00.129 1.299.914.914 0 001.161.019zm12.838-11.588a.929.929 0 00.189-1.224c-.28-.437-.841-.537-1.278-.256a54.794 54.794 0 00-3.947 2.83c-.402.325-.461.89-.158 1.309.325.401.89.46 1.31.157a52.313 52.313 0 013.835-2.74c.004-.04.027-.058.049-.076z" opacity=".64"/>
      <path d="M228.51 67.027a1.44 1.44 0 00.231-.261c.381-.715.78-1.407 1.201-2.118a.914.914 0 00-.318-1.257c-.44-.27-.986-.124-1.257.317-.421.71-.842 1.421-1.227 2.177-.23.445-.065 1.013.38 1.243a.904.904 0 00.99-.1z" opacity=".64"/>
    </g>
    <g fill="#90AEEE" opacity=".64">
      <path d="M224.364 110.935a.94.94 0 00.307-.988c-.247-.76-.471-1.538-.696-2.316a.915.915 0 00-1.115-.647.915.915 0 00-.647 1.115c.202.796.445 1.597.71 2.379a.957.957 0 001.16.611 1.05 1.05 0 00.281-.154z" opacity=".64"/>
      <path d="M313.254 137.41c.535-.434 1.07-.868 1.586-1.323.384-.348.425-.935.095-1.296a.943.943 0 00-1.295-.095 49.8 49.8 0 01-3.606 2.887.93.93 0 00-.198 1.305c.303.419.886.5 1.305.197.669-.542 1.4-1.097 2.113-1.675zm6.964-6.716l.134-.109a67.92 67.92 0 002.982-3.746.94.94 0 00-.192-1.285.94.94 0 00-1.284.192c-.906 1.251-1.889 2.454-2.889 3.634a.932.932 0 00.089 1.294c.315.298.804.309 1.16.02zm-15.539 12.447a.948.948 0 00.244-1.157.91.91 0 00-1.248-.355 57.347 57.347 0 01-4.149 2.033.885.885 0 00-.454 1.218.884.884 0 001.217.453 63.697 63.697 0 004.279-2.102l.111-.09zm-11.404 4.701a.951.951 0 00.308-.987c-.133-.483-.655-.762-1.138-.629a61.784 61.784 0 01-4.5 1.099.925.925 0 00-.724 1.067.924.924 0 001.067.723 59.515 59.515 0 004.666-1.123.745.745 0 00.321-.15zm-12.146 2.054a.95.95 0 00.344-.759.95.95 0 00-.968-.877c-1.541.104-3.091.105-4.637.066a.888.888 0 00-.931.902.889.889 0 00.902.93c1.587.044 3.199.029 4.78-.071a.862.862 0 00.51-.191zm-12.294-.634a.93.93 0 00.324-.557.939.939 0 00-.746-1.057 49.905 49.905 0 01-4.532-.944.918.918 0 00-1.111.679.919.919 0 00.679 1.112c1.531.384 3.128.715 4.693.96.22.043.493-.03.693-.193zm-11.89-3.324a.916.916 0 00.285-.378c.194-.49-.038-1.004-.528-1.198a56.264 56.264 0 01-4.228-1.89c-.445-.23-.995-.043-1.247.42-.23.445-.043.995.42 1.247a65.952 65.952 0 004.363 1.966c.337.096.69.031.935-.167zm-10.875-5.809a.784.784 0 00.183-.185.93.93 0 00-.233-1.289c-1.255-.865-2.525-1.794-3.687-2.772-.396-.306-.992-.267-1.298.13-.307.396-.267.991.129 1.298a52.217 52.217 0 003.84 2.87c.302.235.754.201 1.066-.052zm-9.335-8.054l.045-.036a.926.926 0 00.054-1.3 52.29 52.29 0 01-2.419-2.803l-.596-.735c-.326-.401-.891-.46-1.31-.157-.397.284-.46.89-.157 1.309l.614.758c.795.98 1.63 1.965 2.492 2.891a.96.96 0 001.277.073zm-7.348-9.886a.925.925 0 00.225-1.18 60.307 60.307 0 01-2.163-4.081.945.945 0 00-1.239-.436.945.945 0 00-.436 1.24 52.717 52.717 0 002.249 4.233.917.917 0 001.27.337.306.306 0 01.094-.113z" opacity=".64"/>
      <path d="M327.237 120.536c.089-.072.16-.166.231-.261.403-.733.766-1.47 1.151-2.225a.92.92 0 00-.443-1.229.92.92 0 00-1.229.442c-.34.719-.721 1.434-1.102 2.149-.23.445-.065 1.013.38 1.243a.975.975 0 001.012-.119z" opacity=".64"/>
    </g>
    <path fill="url(#paint1_linear)" d="M318.14 106.898c-.07.278-.297.499-.584.51l-8.153.921a35.777 35.777 0 01-6.642 9.483l1.919 7.972c.074.273-.059.565-.3.723l-8.304 5.291a.64.64 0 01-.771-.04l-6.421-5.098a35.671 35.671 0 01-11.408 2.009l-4.301 6.994a.683.683 0 01-.724.292l-9.588-2.126c-.278-.069-.499-.297-.51-.583l-.922-8.153a35.772 35.772 0 01-9.482-6.642l-7.972 1.919c-.273.074-.565-.059-.723-.3l-5.291-8.304a.64.64 0 01.04-.771l5.098-6.421a35.674 35.674 0 01-2.009-11.408l-6.994-4.301a.682.682 0 01-.292-.724l2.125-9.588c.07-.279.297-.5.584-.51l8.131-.904a35.758 35.758 0 016.642-9.482l-1.92-7.972c-.073-.273.059-.565.3-.723l8.304-5.291a.64.64 0 01.771.04l6.422 5.098a35.668 35.668 0 0111.408-2.009l4.301-6.994a.681.681 0 01.724-.292l9.588 2.125c.278.07.499.297.51.584l.921 8.153a35.772 35.772 0 019.483 6.642l7.972-1.92c.273-.073.565.06.723.3l5.291 8.305a.64.64 0 01-.04.77l-5.098 6.422a35.67 35.67 0 012.008 11.408l6.995 4.3a.683.683 0 01.291.725l-2.102 9.57z"/>
    <path fill="#fff" d="M283.679 100.967c3.321-2.692 4.819-7.267 3.39-11.536a10.42 10.42 0 00-5.295-6.122 10.561 10.561 0 00-8.077-.58 10.42 10.42 0 00-6.122 5.294 10.558 10.558 0 00-.58 8.078c1.827 5.535 7.814 8.547 13.372 6.702a10.65 10.65 0 003.312-1.836zm-11.001-13.572a6.562 6.562 0 012.184-1.18c1.752-.57 3.617-.457 5.262.388a7.008 7.008 0 013.458 3.993c1.192 3.612-.768 7.527-4.38 8.72-1.753.57-3.617.457-5.263-.388a7.002 7.002 0 01-3.457-3.992c-.572-1.753-.458-3.618.387-5.263a6.7 6.7 0 011.809-2.278z" opacity=".56"/>
    <path fill="#fff" d="M292.174 111.585c.491-.397.941-.799 1.413-1.219.134-.108.249-.239.365-.369a.597.597 0 00.044-.812l-.036-.044a.607.607 0 00-.856-.008c-1.162 1.163-2.45 2.171-3.851 3.085-9.616 6.132-22.124 4.232-29.547-3.969a18.294 18.294 0 01-.817-.963 26.914 26.914 0 01-1.55-2.14c-3.331-5.203-4.397-11.393-3.073-17.414 1.345-6.039 4.942-11.17 10.144-14.5 9.987-6.36 23.066-4.073 30.364 4.93.56.692 1.057 1.396 1.551 2.141 2.24 3.539 3.507 7.608 3.601 11.779a.57.57 0 00.146.362.654.654 0 00.485.234.63.63 0 00.596-.631 24.115 24.115 0 00-3.802-12.39 22.842 22.842 0 00-1.619-2.271c-7.677-9.472-21.456-11.892-31.987-5.203-5.484 3.485-9.275 8.921-10.695 15.28-1.42 6.357-.245 12.864 3.24 18.348a22.95 22.95 0 001.618 2.27c7.678 9.472 21.457 11.893 31.988 5.203a32.04 32.04 0 002.278-1.699z" opacity=".56"/>
  </g>
  <g opacity=".7">
    <g fill="#7A9DEA" opacity=".64">
      <path d="M387.754 83.26c.186.134.416.16.627.064.478-.22.934-.456 1.406-.716a.627.627 0 00.256-.842.626.626 0 00-.841-.257c-.456.237-.894.45-1.35.687-.307.131-.434.5-.303.808.043.137.112.188.205.255z" opacity=".64"/>
      <path d="M391.673 81.034c.209.152.479.17.7.012a33.943 33.943 0 002.445-1.805.62.62 0 00.09-.857.62.62 0 00-.856-.09 31.546 31.546 0 01-2.355 1.73c-.278.188-.341.568-.17.87.03.056.099.107.146.14zm4.624-3.733a.612.612 0 00.791-.064c.158-.169.339-.32.497-.49a31.77 31.77 0 001.574-1.729.613.613 0 00-.077-.87.613.613 0 00-.871.076c-.484.57-.992 1.123-1.523 1.66-.158.168-.316.337-.481.466a.62.62 0 00-.003.884l.093.067zm3.836-4.553c.279.202.68.138.859-.157a36.278 36.278 0 001.623-2.579c.179-.295.059-.666-.237-.846-.295-.178-.666-.058-.845.237-.48.857-1.007 1.68-1.556 2.487-.163.272-.099.672.156.858zm2.931-5.21c.024.016.07.05.093.067a.576.576 0 00.793-.31c.411-.908.791-1.872 1.092-2.824.093-.323-.068-.687-.391-.78-.323-.092-.687.068-.78.391-.307.911-.654 1.83-1.065 2.737-.058.276.026.55.258.719zm1.881-5.619c.069.05.156.078.219.089.34.069.658-.126.727-.465.215-.98.406-1.975.533-2.981a.651.651 0 00-.521-.698.652.652 0 00-.698.522 31.542 31.542 0 01-.529 2.877c-.018.27.083.521.269.656zm.785-5.917a.553.553 0 00.346.11.638.638 0 00.645-.596c.024-1.01.025-2.037-.03-3.035a.6.6 0 00-.646-.575.6.6 0 00-.575.646c.049.957.065 1.961.034 2.931-.008.207.064.401.226.52zm-.328-5.945a.631.631 0 00.449.113c.321-.05.58-.359.506-.696a38.209 38.209 0 00-.598-2.986.6.6 0 00-.747-.436.6.6 0 00-.436.747c.233.949.426 1.904.579 2.866a.63.63 0 00.247.392zm-1.434-5.79c.163.117.353.149.57.094a.632.632 0 00.39-.781c-.337-.953-.713-1.9-1.146-2.817-.131-.308-.501-.434-.808-.303-.308.131-.434.5-.303.808.427.877.78 1.807 1.086 2.703a.559.559 0 00.211.295zm-2.5-5.396a.66.66 0 00.684.035c.301-.17.387-.534.216-.835a30.577 30.577 0 00-1.658-2.55c-.188-.279-.568-.342-.863-.13-.278.187-.341.567-.13.862a43.79 43.79 0 011.599 2.437c.03.057.083.13.152.181zM385.949 25.48c.046.034.093.067.133.06.901.371 1.785.765 2.659 1.222.312.155.683.035.822-.254.156-.312.035-.683-.254-.822a26.172 26.172 0 00-2.768-1.265c-.306-.116-.671.044-.81.334a.637.637 0 00.218.725zm12.041 8.562a.614.614 0 00.774-.04c.272-.229.271-.619.067-.874a24.614 24.614 0 00-1.774-1.854c-.122-.125-.222-.232-.361-.333a.597.597 0 00-.86.013.598.598 0 00.013.861c.099.107.239.208.338.316.583.565 1.172 1.17 1.68 1.787.053.074.1.108.123.124zm-6.736-5.81l.023.016a33.07 33.07 0 012.385 1.696c.279.202.663.162.865-.117.202-.278.162-.662-.117-.864a35.75 35.75 0 00-2.478-1.764.614.614 0 00-.852.197.627.627 0 00.174.836z" opacity=".64"/>
      <path d="M381.623 24.113a.54.54 0 00.22.088c.489.107.962.238 1.457.385a.608.608 0 10.349-1.165c-.495-.147-1.008-.271-1.521-.395a.636.636 0 00-.75.448.599.599 0 00.245.639z" opacity=".64"/>
    </g>
    <g fill="#7A9DEA" opacity=".64">
      <path d="M357.073 28.342c.209.152.479.17.701.012.408-.27.857-.547 1.29-.8.301-.172.387-.535.216-.836-.171-.302-.534-.388-.835-.217-.449.277-.882.53-1.331.807a.637.637 0 00-.193.853c.03.057.083.13.152.18z" opacity=".64"/>
      <path d="M355.758 80.311a28.15 28.15 0 002.249 1.491.613.613 0 00.852-.197.613.613 0 00-.197-.852 38.118 38.118 0 01-2.598-1.744c-.278-.202-.662-.161-.864.117-.203.279-.162.663.116.865l.442.32zm-2.884-2.376a.596.596 0 00.808-.088.635.635 0 00-.037-.877c-.215-.192-.414-.407-.629-.598a51.65 51.65 0 01-1.552-1.623c-.228-.272-.618-.271-.873-.067-.272.228-.271.618-.067.874a29.8 29.8 0 001.605 1.696c.222.232.437.424.676.632l.069.05zm7.894 5.339l.092.067c.977.461 1.988.876 3.009 1.227a.6.6 0 00.78-.39.6.6 0 00-.391-.78 36.206 36.206 0 01-2.899-1.183c-.312-.156-.66-.019-.816.293a.67.67 0 00.225.766zm-12.123-10.11a.611.611 0 00.717-.012c.278-.188.341-.567.13-.863a36.036 36.036 0 01-1.711-2.624c-.171-.301-.534-.388-.835-.216-.302.17-.388.534-.217.835a35.393 35.393 0 001.77 2.738c.053.074.1.108.146.141zm-3.196-5.511c.162.118.415.16.626.065.308-.131.434-.5.303-.808a31.214 31.214 0 01-1.118-2.903.606.606 0 00-.781-.39.606.606 0 00-.39.78c.349 1.034.738 2.06 1.178 3.018a.551.551 0 00.182.238zm-1.989-6.051c.14.1.313.155.49.107a.6.6 0 00.459-.73 39.702 39.702 0 01-.53-3.08.598.598 0 00-.68-.528.598.598 0 00-.529.68 34.56 34.56 0 00.55 3.199.683.683 0 00.24.352zm-.735-6.313a.626.626 0 00.369.127.63.63 0 00.598-.63 31.177 31.177 0 01.101-3.117.605.605 0 10-1.207-.096 34.097 34.097 0 00-.121 3.244.61.61 0 00.26.472zm.531-6.349c.07.05.157.078.243.106.34.069.652-.166.721-.505.185-1.036.433-2.061.727-3.053a.608.608 0 00-1.165-.349c-.288 1.032-.569 2.104-.771 3.162a.611.611 0 00.245.64zm1.804-6.099c.047.034.07.05.133.061.306.116.677-.005.81-.334.381-.964.825-1.918 1.315-2.838.156-.312.059-.666-.253-.822-.313-.156-.667-.059-.823.254a29.822 29.822 0 00-1.383 2.93c-.139.29-.031.58.201.75zm2.988-5.63s.023.017 0 0c.302.219.679.139.858-.157.219-.302.415-.62.634-.922a48.5 48.5 0 011.226-1.592.613.613 0 00-.076-.87.613.613 0 00-.871.076c-.451.524-.873 1.104-1.277 1.661-.236.325-.455.627-.668.969a.65.65 0 00.174.835zm4.049-4.895a.612.612 0 00.791-.064 33.521 33.521 0 012.32-2.073.62.62 0 00.09-.857.62.62 0 00-.856-.09 28.524 28.524 0 00-2.428 2.173.62.62 0 00-.003.884c.04-.007.063.01.086.027z" opacity=".64"/>
      <path d="M366.798 85.418c.069.05.132.06.219.088.513.124 1.002.231 1.532.332a.595.595 0 00.704-.482.595.595 0 00-.482-.704l-1.468-.321c-.323-.093-.658.125-.751.448a.6.6 0 00.246.639z" opacity=".64"/>
    </g>
    <path fill="url(#paint2_linear)" d="M373.063 78.445a.347.347 0 01-.365-.23l-1.685-4.271a20.113 20.113 0 01-6.106-2.234l-4.045 2.203a.347.347 0 01-.42-.056l-4.064-3.73a.369.369 0 01-.087-.417l1.834-4.235c-1.257-1.834-2.149-3.828-2.744-5.89l-4.399-1.315c-.149-.038-.255-.185-.28-.345l-.242-5.528c-.002-.144.093-.323.23-.365l4.271-1.685a20.127 20.127 0 012.234-6.106l-2.203-4.046a.347.347 0 01.056-.42l3.73-4.063a.367.367 0 01.417-.087l4.235 1.833a19.633 19.633 0 015.891-2.743l1.314-4.4c.037-.149.185-.255.345-.28l5.528-.241a.347.347 0 01.365.23l1.685 4.27a20.106 20.106 0 016.106 2.235l4.046-2.204a.347.347 0 01.42.057l4.063 3.73a.367.367 0 01.087.417l-1.833 4.234c1.257 1.834 2.149 3.829 2.743 5.891l4.399 1.314c.15.038.256.185.281.346l.241 5.528c.003.143-.092.322-.229.365l-4.272 1.685a20.1 20.1 0 01-2.234 6.106l2.204 4.045c.082.131.051.32-.057.42l-3.729 4.064a.368.368 0 01-.418.087l-4.235-1.834c-1.833 1.257-3.828 2.15-5.89 2.744l-1.314 4.399c-.038.15-.185.255-.346.28l-5.528.242z"/>
    <path fill="#fff" d="M371.524 58.54c1.811 1.315 4.298 1.453 6.269.154 1.226-.81 2.079-2.035 2.361-3.497a5.44 5.44 0 00-.782-4.148c-.812-1.226-2.036-2.08-3.498-2.36a5.44 5.44 0 00-4.148.781c-2.55 1.659-3.237 5.095-1.578 7.646a5.948 5.948 0 001.376 1.424zm5.763-7.94c.418.303.786.676 1.062 1.125 1.299 1.971.739 4.648-1.232 5.947-1.971 1.3-4.648.739-5.947-1.232-1.299-1.971-.739-4.648 1.232-5.947a4.243 4.243 0 013.21-.613c.639.145 1.211.383 1.675.72z" opacity=".56"/>
    <path fill="#fff" d="M366.597 65.28l.418.303c.209.151.434.28.66.408l.047.034.046.034c.272.162.61.088.795-.168l.034-.046a.608.608 0 00-.214-.829 12.144 12.144 0 01-2.166-1.607c-5.024-4.604-5.489-12.315-1.197-17.495.118-.162.259-.308.4-.453 4.745-5.17 12.802-5.526 17.972-.78 4.809 4.411 5.45 11.683 1.709 16.837-.286.395-.596.773-.929 1.134a12.753 12.753 0 01-5.733 3.601.576.576 0 00-.312.235.656.656 0 00-.101.53.63.63 0 00.764.412 14.104 14.104 0 006.296-3.938 15.15 15.15 0 001.014-1.25c4.094-5.64 3.402-13.623-1.884-18.453-5.654-5.202-14.508-4.822-19.704.87-.366.408-.693.81-1.013 1.25-4.095 5.642-3.402 13.625 1.884 18.454l.047.034c.348.252.749.579 1.167.882z" opacity=".56"/>
  </g>
  <path fill="url(#paint3_linear)" d="M147.792 48.383s9.281-24.504-27.898-18.675C82.657 35.537 92.108 49.4 89.448 60.493c-2.66 11.091-18.052 23.994-61.173 42.046-43.178 18.109-29.087 64.116-9.111 78.999 19.976 14.883 30.389 4.414 35.595 30.842 5.206 26.427 23.937 47.535 46.007 24.447 22.127-23.089 47.196-50.309 39.104-85.055-8.093-34.69.226-28.295 13.921-44.649 13.638-16.355-16.524-31.068-5.999-58.74z"/>
  <path fill="url(#paint4_linear)" d="M135.343 112.046c3.905-7.47 18.844 6.338 21.391 9.337 6.394 7.583 12.676 14.261 22.409 17.826 5.999 2.207 13.299 2.547 18.901-1.132 8.093-5.319 13.808-13.015 14.544-22.862.283-3.961-.226-7.979-.962-11.884-.566-2.829-4.018-8.771-2.943-11.148.736-1.641 2.434-2.66 4.188-3.056 1.754-.396 3.565-.17 5.376 0 .566.057 1.188.113 1.584.51.623.565.623 1.47.566 2.263-.622 9.62 4.188 18.278 4.245 28.182.113 12.166-4.754 23.428-13.752 31.633-12.449 11.375-24.164 13.186-32.822 12.111-4.244-.17-8.319-1.528-12.11-3.735-1.471-.793-2.32-1.358-2.32-1.358l-.057-.114c-16.411-11.318-31.973-39.386-28.238-46.573z"/>
  <path fill="url(#paint5_linear)" d="M10.761 84.002c.51-1.306 2.395-1.296 2.872.01 1.778 4.79 5.94 13.145 13.155 15.554.275.065.631.033.793-.162.251-.202.316-.478.292-.746-.057-.625-.291-1.234-.8-1.908-1.02-1.348-.986-2.97-.662-4.35.122-.641.712-1.054 1.327-1.2.623-.056 1.279.245 1.594.757.541 1.03 1.447 2.12 2.692 2.997 2.774 1.91 4.455 6.618 3.03 10.706-2.418 14.978-6.366 34.863 16.895 47.075 23.172 12.22 50.364-31.451 50.364-31.451l4.757 36.83s-37.761 32.925-67.481 10.766c-29.721-22.159-14.706-59.603-14.706-59.603S3.124 102.78 10.76 84.002z"/>
  <path fill="url(#paint6_linear)" d="M140.395 109.845c-6.112-1.641-23.387-3.175-39.798 12.727-2.773 2.716-3.848 6.734-2.717 10.412 4.924 16.468 18.052 65.192 8.149 86.696 0 0 18.901 19.806 38.538 2.942 0 0 8.036-39.443 19.354-56.929 7.809-12.11-14.091-44.31-19.637-52.062-.849-1.132-2.531-3.39-3.889-3.786z"/>
  <path fill="url(#paint7_linear)" d="M123.232 78.715s-8.318 25.578-8.714 36.783c0 0 10.016 4.244 19.184-3.565 0 0 .339-25.352 1.641-29.88l-12.111-3.338z"/>
  <path fill="url(#paint8_linear)" d="M134.833 43.855s24.277 32.2 10.47 42.103c-13.752 9.903-31.012-13.016-31.012-13.016s-5.885-17.825-.396-24.05c5.546-6.225 20.938-5.037 20.938-5.037z"/>
  <path fill="url(#paint9_linear)" d="M105.747 44.251c4.187-10.808 18.052-7.979 18.052-7.979s10.809 2.264 12.45 7.13c.735 2.151-2.207 4.358-6.169 6.169a28.934 28.934 0 00-16.524 21.504l-.339 2.15c0 .057-11.658-18.165-7.47-28.974z"/>
  <path fill="url(#paint10_linear)" d="M118.762 70.396s-9.394-10.356-12.846-3.339c-3.452 6.96 8.489 11.827 12.507 8.375l.339-5.036z"/>
  <path fill="url(#paint11_linear)" d="M169.976 304.338c0 1.754 3.452 15.789 5.32 23.315a12.628 12.628 0 01-1.132 8.941L117.8 437.154a13.574 13.574 0 00-1.471 3.905c-.962 4.697-2.886 16.128-1.471 26.484l3.225 6.225-13.242-2.66-3.735-35.312 3.679-2.377a17.786 17.786 0 006.96-8.545c4.98-13.072 17.373-46.347 20.373-62.475 3.395-18.335 23.315-33.671 23.315-33.671l-3.792-8.318 18.335-16.072z"/>
  <path fill="url(#paint12_linear)" d="M89.901 459.338s6.848-11.432 7.583-15.846c.736-4.414 2.886-12.223 7.3-10.016 0 0 2.604 21.278 2.094 29.653-.509 8.375 9.621 7.809 9.621 7.809s2.829.34 4.923 2.321c1.471 1.358.509 3.848-1.471 4.018-3.283.283-8.602.509-14.148-.453a4.33 4.33 0 01-3.565-3.905l-2.094-24.503-8.715 11.544-1.528-.622z"/>
  <path fill="url(#paint13_linear)" d="M135.23 321.032s.17 88.676.17 101.296c.056 12.619 2.999 40.462 15.845 48.441l-5.376 4.187s-7.017-5.659-13.978-16.694c-7.866-12.449-10.186-14.656-10.186-14.656l2.377-5.207c1.018-2.263 1.301-4.81.735-7.243-3.056-13.129-13.242-56.816-15.958-66.21-3.226-11.092-3.792-25.975 6.112-38.708 9.79-12.732 20.259-5.206 20.259-5.206z"/>
  <path fill="url(#paint14_linear)" d="M127.534 479.427c-.396 0-.736-.283-.793-.623-.509-2.942-2.546-14.77-4.074-17.769-1.754-3.452-7.47-18.109-.509-19.58 0 0 18.052 24.956 21.447 28.295 3.452 3.339 7.583 1.019 7.583 1.019s3.282.905 5.829 3.961c1.188 1.471.17 3.678-1.698 3.735l-11.714.396a8.29 8.29 0 01-7.866-4.98c-2.207-5.093-5.942-12.563-10.129-15.789l2.659 20.486a.745.745 0 01-.735.849z"/>
  <path fill="url(#paint15_linear)" d="M147.057 213.002s-2.434 8.489 1.98 22.24l27.39 87.205c.452 1.358-.283 2.829-1.641 3.339-7.47 2.886-32.03 11.148-65.814 9.676-1.698-.056-3.169-1.245-3.566-2.886-2.49-9.959-10.921-43.913-12.676-50.93-6.62-26.598-13.977-55.289 14.827-73.454 13.581 5.433 26.258 8.545 39.5 4.81z"/>
  <path fill="#91B3FA" d="M109.142 41.592c-3.565.849-6.96 2.66-9.564 5.376-1.245 1.358-2.207 3.056-2.83 4.81l-.395 1.358-.227 1.415c-.17.962-.226 1.81-.34 2.716-1.13 7.13-4.074 13.978-8.6 19.637a40.402 40.402 0 01-7.697 7.526c-2.886 2.207-6.112 3.792-9.394 5.49a199.628 199.628 0 01-9.96 4.64 97.267 97.267 0 01-10.242 3.848c7.13-1.698 13.977-4.527 20.655-7.64 3.339-1.528 6.62-3.225 9.62-5.432 3-2.207 5.716-4.754 8.036-7.697 4.527-5.885 7.583-12.902 8.545-20.315.113-.906.17-1.868.283-2.773l.17-1.302.34-1.301c.508-1.698 1.414-3.282 2.546-4.64 2.32-2.717 5.602-4.641 9.054-5.716z"/>
  <path fill="#91B3FA" d="M16.278 120.817c-2.886 4.471-4.867 9.451-6.055 14.657-1.189 5.206-1.472 10.639-.68 15.959.906 5.319 2.943 10.412 5.942 14.826.793 1.075 1.528 2.207 2.434 3.169.452.509.848 1.019 1.301 1.528l1.415 1.415c.905.962 1.98 1.754 2.943 2.659 1.018.849 2.094 1.642 3.169 2.434-4.018-3.452-7.64-7.3-10.47-11.714-1.358-2.264-2.603-4.527-3.508-6.961a43.525 43.525 0 01-2.037-7.526c-.85-5.15-.623-10.413.396-15.562a59.992 59.992 0 012.037-7.583c.906-2.547 1.924-4.98 3.113-7.301z"/>
  <path fill="url(#paint16_linear)" d="M495.479 231.47l36.407-5.949s24.096-.557 25.953 20.958c1.806 21.511-7.474 147.605-10.222 173.586-.926 8.557-1.399 16.477-1.09 23.423.578 14.504-11.492 26.324-25.963 25.621l-66.782-3.246 41.697-234.393z"/>
  <path fill="#5D88E6" d="M460.103 476.542s13.802-99.888 68.779-157.701c.718-.773 1.879-.491 2.118.551 4.545 15.793 29.144 117.56-70.897 157.15z"/>
  <path fill="url(#paint17_linear)" d="M524.756 347.808c-.798 5.846-2.049 11.56-3.402 17.268-1.404 5.703-2.958 11.346-4.763 16.92-3.561 11.153-7.83 22.156-12.841 32.75-2.559 5.32-5.212 10.53-8.115 15.622-1.402 2.575-3.004 5.085-4.505 7.601-1.599 2.459-3.151 4.973-4.849 7.374-6.646 9.717-14.222 18.756-22.758 26.809a.637.637 0 01-.872-.007c-.242-.221-.215-.629.007-.871 7.708-8.723 14.733-17.953 20.922-27.752 1.596-2.408 3.046-4.928 4.543-7.393 1.449-2.521 2.947-4.986 4.297-7.564.701-1.288 1.399-2.524 2.049-3.815l2-3.868 1.95-3.873a93.488 93.488 0 001.85-3.93 264.59 264.59 0 003.603-7.917c1.15-2.643 2.303-5.337 3.354-8.037 2.201-5.343 4.256-10.799 6.208-16.261a313.269 313.269 0 005.407-16.571c1.7-5.53 3.254-11.172 4.652-16.774.074-.354.445-.535.748-.463.351.125.59.398.515.752z"/>
  <path fill="#5D88E6" d="M467.168 465.93s58.358-84.829 115.551-82.424c1.022.068 1.727 1.038 1.458 1.995-3.22 11.431-24.232 70.726-117.009 80.429z"/>
  <path fill="#5D88E6" d="M569.684 396.75c-3.714 3.396-7.522 6.683-11.324 9.868-1.951 1.564-3.854 3.182-5.855 4.742-1.95 1.564-3.901 3.127-5.899 4.636a432.438 432.438 0 01-24.399 17.518c-4.136 2.804-8.415 5.444-12.647 8.139l-6.413 3.884-3.207 1.942-3.251 1.837c-8.643 5.019-17.657 9.449-26.716 13.773-.316.133-.667.007-.851-.313-.133-.317-.007-.667.313-.851l6.686-3.353 3.343-1.677c1.116-.593 2.182-1.189 3.298-1.782l6.598-3.564c2.185-1.24 4.319-2.484 6.505-3.724l3.254-1.888 3.207-1.942 6.413-3.884c4.18-2.698 8.459-5.339 12.544-8.146 4.184-2.749 8.221-5.611 12.312-8.52l6.039-4.422 5.991-4.477a477.242 477.242 0 005.946-4.582c1.951-1.563 3.898-3.076 5.848-4.639 3.901-3.128 7.754-6.309 11.461-9.603.272-.239.681-.212.868.057.184.32.157.729-.064.971z"/>
  <path fill="#4369BA" d="M422.531 228.38s65.037 7.901 109.355-2.859c0 0-28.726-3.904-33.146 62.8-3.379 50.973-2.268 148.771-10.079 166.773-7.814 18.052-34.128 41.24-68.108 17.545-34.031-23.699 1.978-244.259 1.978-244.259z"/>
  <path fill="url(#paint18_linear)" d="M411.791 127.275s71.494 12.639 81.547 1.044c0 0-5.899-22.449-27.908-22.42-22.006-.022-53.639 21.376-53.639 21.376z"/>
  <path fill="#5D88E6" d="M176.025 136.479c0 77.013 4.894 221.065 5.794 294.175.204 16.276 12.327 29.955 28.501 32.053 57.519 7.557 187.13 23.38 237.477 19.945-11.069-6.376-17.495-18.55-16.547-31.312l24.276-326.039c.867-11.536 12.907-19.049 23.417-14.3 6.623 3.004 11.423 8.76 14.399 17.268-3.788-14.051-10.527-24.604-27.909-22.421 0 0-167.995-9.44-249.795-9.784-22.206-.086-40.14 18.168-39.613 40.415z"/>
  <mask id="a" width="297" height="386" x="160" y="94" mask-type="alpha" maskUnits="userSpaceOnUse">
    <path fill="url(#paint19_linear)" d="M219.769 105.726l226.122 6.265c-13.862 68.284-19.224 208.796-24.859 347.239-.338 8.185 3.972 15.909 11.148 19.873 0 0-150.582-8.235-214.887-17.114-15.149-2.081-26.795-14.447-28.044-29.663-4.961-59.836-16.019-214.21-6.258-294.924 2.25-18.472 18.139-32.193 36.778-31.676z"/>
  </mask>
  <g mask="url(#a)">
    <path fill="url(#paint20_linear)" d="M219.769 105.726l226.123 6.265c-13.862 68.284-19.225 208.796-24.86 347.239-.338 8.185 3.973 15.909 11.148 19.873 0 0-150.582-8.235-214.887-17.114-15.149-2.081-26.795-14.447-28.044-29.663-3.155-63.364-10.693-214.594-6.258-294.924 2.251-18.472 18.139-32.193 36.778-31.676z" opacity=".53"/>
    <path fill="url(#paint21_linear)" d="M211.53 212.661l1.043 25.456a9.314 9.314 0 008.405 8.948l14.677 1.5c5.299.543 9.963-3.416 10.302-8.729l1.74-27.278c.348-5.466-4.027-10.054-9.519-9.994l-17.459.323c-5.24.127-9.368 4.531-9.189 9.774z"/>
    <path fill="url(#paint22_linear)" d="M263.772 208.198c24.517.794 118.757 3.728 142.509 4.474 3.02.09 5.319 2.647 5.127 5.661a5.313 5.313 0 01-5.448 4.987l-142.449-3.804a5.304 5.304 0 01-5.172-4.946l-.06-.67c-.156-3.19 2.37-5.799 5.493-5.702z"/>
    <path fill="url(#paint23_linear)" d="M260.115 241.406c.363.741 1.103 1.199 1.921 1.251l97.757 4.081c1.229.027 2.261-.881 2.339-2.107l.411-6.437a2.262 2.262 0 00-2.206-2.397l-95.087-2.526c-4.249-.118-7.049 4.371-5.135 8.135z"/>
    <path fill="url(#paint24_linear)" d="M207.057 282.799l1.043 25.455a9.314 9.314 0 008.405 8.948l14.676 1.5c5.3.544 9.964-3.416 10.303-8.729l1.74-27.278c.348-5.466-4.027-10.053-9.519-9.993l-17.459.322c-5.24.127-9.368 4.532-9.189 9.775z"/>
    <path fill="url(#paint25_linear)" d="M259.299 278.335c24.517.794 118.757 3.728 142.508 4.474 3.021.09 5.32 2.647 5.127 5.661a5.312 5.312 0 01-5.447 4.987l-142.449-3.804a5.302 5.302 0 01-5.172-4.946l-.06-.67c-.156-3.19 2.37-5.799 5.493-5.702z"/>
    <path fill="#fff" d="M255.642 311.543c.363.741 1.103 1.199 1.921 1.251l97.756 4.081c1.23.028 2.262-.881 2.34-2.107l.411-6.437a2.263 2.263 0 00-2.207-2.397l-95.086-2.526c-4.25-.117-7.049 4.371-5.135 8.135z" opacity=".78"/>
    <path fill="url(#paint26_linear)" d="M202.584 352.936l1.043 25.456a9.313 9.313 0 008.405 8.947l14.676 1.501c5.3.543 9.964-3.417 10.302-8.729l1.74-27.279c.349-5.466-4.026-10.053-9.518-9.993l-17.459.322c-5.24.128-9.368 4.532-9.189 9.775z"/>
    <path fill="url(#paint27_linear)" d="M254.825 348.472c24.518.795 118.758 3.728 142.509 4.474 3.021.09 5.32 2.647 5.127 5.661a5.312 5.312 0 01-5.447 4.987l-142.449-3.803a5.306 5.306 0 01-5.173-4.946l-.059-.671c-.156-3.19 2.37-5.799 5.492-5.702z"/>
    <path fill="url(#paint28_linear)" d="M251.169 381.681c.363.741 1.103 1.198 1.92 1.25l97.757 4.082c1.229.027 2.262-.882 2.34-2.108l.411-6.436a2.264 2.264 0 00-2.207-2.398l-95.086-2.526c-4.25-.117-7.049 4.372-5.135 8.136z"/>
    <path fill="url(#paint29_linear)" d="M320.796 457.673c-1.124-.072-2.215-.654-3.321-1.802-4.088-4.262-4.824-10.412-4.708-16.252-2.136 2.121-4.316 4.136-6.496 6.151l-1.056-1.144a534.383 534.383 0 007.593-7.261 170.2 170.2 0 012.598-23.839c.871-4.817 2.014-9.873 4.408-14.439.759-1.439 2.02-3.513 3.994-4.72 2.081-1.253 4.696-1.24 6.409.049 1.907 1.456 2.258 3.991 2.349 5.792.663 10.506-3.978 19.75-8.051 25.696-3 4.425-6.537 8.406-10.265 12.168-.173 5.939.227 12.53 4.264 16.788.867.876 1.607 1.334 2.373 1.382 1.23.028 2.275-1.085 3.164-2.157a65.749 65.749 0 009.559-16.368c.369-1.771.943-3.53 1.813-5.116l1.398.602c-.519 1.711-1.138 3.364-1.753 4.966a15.655 15.655 0 00-.121 5.122c.145.932.675 3.89 2.845 4.438 1.615.411 3.379-.707 5.452-3.447l8.405-11.159-1.237 4.127c-.453 1.459-1.239 4.948.752 5.895 1.145.535 2.414-.051 3.896-.777 1.483-.726 3.016-1.449 4.638-1.14l.76.151-.202.756c-.132.454-.996 4.348 1.018 4.938.907.263 1.766-.349 3.01-1.347.975-.81 2.001-1.616 3.297-1.841l.263 1.504c-.881.149-1.693.815-2.559 1.529-1.244.998-2.65 2.14-4.412 1.617-2.317-.661-2.71-3.353-2.291-5.891-.929.095-1.882.547-2.939 1.044-1.588.77-3.441 1.678-5.231.794-1.494-.71-2.213-2.295-2.124-4.495l-3.921 5.187c-1.571 2.105-3.998 4.771-7.027 4.014-2.068-.542-3.572-2.69-3.993-5.743-.076-.415-.098-.878-.123-1.29a68.468 68.468 0 01-8.05 12.822c-1.059 1.318-2.488 2.816-4.381 2.747.105-.045.054-.048.003-.051zm6.668-62.714c-1.022-.065-2.066.227-2.817.743-1.656 1.023-2.747 2.851-3.445 4.14-2.279 4.369-3.415 9.323-4.277 13.987-1.331 7.198-2.161 14.582-2.525 21.894 3.239-3.333 6.286-6.883 8.89-10.717 3.906-5.752 8.426-14.696 7.784-24.739-.156-2.369-.729-3.842-1.753-4.677-.539-.393-1.193-.589-1.857-.631z"/>
    <path fill="#fff" d="M403.966 184.672l-180.048-6.18c-6.45-.208-11.595-5.563-11.487-12.07l.195-13.477c.118-6.661 5.637-11.95 12.339-11.675l180.932 6.8c6.752.278 11.971 6.1 11.386 12.833l-1.078 12.857c-.559 6.324-5.942 11.109-12.239 10.912z" opacity=".78"/>
  </g>
  <path fill="url(#paint30_linear)" d="M219.809 88.587c1.159.266 2.233.688 3.192 1.435 5.096 3.962 3.798 11.836 2.207 17.184-.739 2.513-5.742 16.621-10.067 11.245-.604-.798-.824-1.815-.988-2.822-1.016-5.874.487-22.91-9.745-17.788-.758.381-5.417 1.672-5.644 1.977 2.98-4.755 2.367-7.107 8.055-9.651 3.828-1.786 8.796-2.562 12.99-1.58z"/>
  <defs>
    <linearGradient id="paint0_linear" x1="70.5" x2="313.491" y1="465.02" y2="191.326" gradientUnits="userSpaceOnUse">
      <stop stop-color="#9BB7F3"/>
      <stop offset="1" stop-color="#E6EDFF"/>
    </linearGradient>
    <linearGradient id="paint1_linear" x1="319.131" x2="241.806" y1="-31.895" y2="197.051" gradientUnits="userSpaceOnUse">
      <stop stop-color="#4369BA"/>
      <stop offset="1" stop-color="#5D88E6"/>
    </linearGradient>
    <linearGradient id="paint2_linear" x1="452.521" x2="211.363" y1="59.066" y2="43.631" gradientUnits="userSpaceOnUse">
      <stop stop-color="#5D88E6"/>
      <stop offset="1" stop-color="#5D88E6"/>
    </linearGradient>
    <linearGradient id="paint3_linear" x1="268.564" x2="90.275" y1="55.581" y2="142.424" gradientUnits="userSpaceOnUse">
      <stop stop-color="#113685"/>
      <stop offset="1" stop-color="#053294"/>
    </linearGradient>
    <linearGradient id="paint4_linear" x1="126.56" x2="221.121" y1="80.71" y2="143.87" gradientUnits="userSpaceOnUse">
      <stop stop-color="#FF928E"/>
      <stop offset="1" stop-color="#FEB3B1"/>
    </linearGradient>
    <linearGradient id="paint5_linear" x1="-13.21" x2="98.071" y1="59.064" y2="172.83" gradientUnits="userSpaceOnUse">
      <stop stop-color="#FF928E"/>
      <stop offset="1" stop-color="#FEB3B1"/>
    </linearGradient>
    <linearGradient id="paint6_linear" x1="1.413" x2="225.197" y1="443.4" y2="93.355" gradientUnits="userSpaceOnUse">
      <stop offset=".136" stop-color="#149469"/>
      <stop offset="1" stop-color="#62E7BF"/>
    </linearGradient>
    <linearGradient id="paint7_linear" x1="130.484" x2="122.561" y1="55.323" y2="127.381" gradientUnits="userSpaceOnUse">
      <stop stop-color="#FF928E"/>
      <stop offset="1" stop-color="#FEB3B1"/>
    </linearGradient>
    <linearGradient id="paint8_linear" x1="-246.097" x2="-236.158" y1="2512.25" y2="2447.71" gradientUnits="userSpaceOnUse">
      <stop stop-color="#FF928E"/>
      <stop offset="1" stop-color="#FEB3B1"/>
    </linearGradient>
    <linearGradient id="paint9_linear" x1="231.336" x2="54.37" y1="-4.672" y2="84.835" gradientUnits="userSpaceOnUse">
      <stop stop-color="#113685"/>
      <stop offset="1" stop-color="#053294"/>
    </linearGradient>
    <linearGradient id="paint10_linear" x1="-263.507" x2="-253.568" y1="2509.53" y2="2445" gradientUnits="userSpaceOnUse">
      <stop stop-color="#FF928E"/>
      <stop offset="1" stop-color="#FEB3B1"/>
    </linearGradient>
    <linearGradient id="paint11_linear" x1="68.552" x2="170.089" y1="524.261" y2="329.617" gradientUnits="userSpaceOnUse">
      <stop stop-color="#FF928E"/>
      <stop offset="1" stop-color="#FEB3B1"/>
    </linearGradient>
    <linearGradient id="paint12_linear" x1="89.792" x2="121.403" y1="455.951" y2="454.857" gradientUnits="userSpaceOnUse">
      <stop stop-color="#09005D"/>
      <stop offset="1" stop-color="#1A0F91"/>
    </linearGradient>
    <linearGradient id="paint13_linear" x1="186.215" x2="26.278" y1="378.796" y2="436.11" gradientUnits="userSpaceOnUse">
      <stop stop-color="#FF928E"/>
      <stop offset="1" stop-color="#FEB3B1"/>
    </linearGradient>
    <linearGradient id="paint14_linear" x1="119.297" x2="156.981" y1="460.645" y2="459.341" gradientUnits="userSpaceOnUse">
      <stop stop-color="#09005D"/>
      <stop offset="1" stop-color="#1A0F91"/>
    </linearGradient>
    <linearGradient id="paint15_linear" x1="130.144" x2="85.671" y1="290.18" y2="533.2" gradientUnits="userSpaceOnUse">
      <stop stop-color="#09005D"/>
      <stop offset="1" stop-color="#1A0F91"/>
    </linearGradient>
    <linearGradient id="paint16_linear" x1="461.814" x2="553.229" y1="343.562" y2="349.621" gradientUnits="userSpaceOnUse">
      <stop stop-color="#113685"/>
      <stop offset=".693" stop-color="#053A94"/>
    </linearGradient>
    <linearGradient id="paint17_linear" x1="466.653" x2="520.543" y1="407.895" y2="411.466" gradientUnits="userSpaceOnUse">
      <stop stop-color="#DAE3FE"/>
      <stop offset="1" stop-color="#E9EFFD"/>
    </linearGradient>
    <linearGradient id="paint18_linear" x1="483.687" x2="371.313" y1="204.968" y2="-74.575" gradientUnits="userSpaceOnUse">
      <stop stop-color="#113685"/>
      <stop offset="1" stop-color="#053294"/>
    </linearGradient>
    <linearGradient id="paint19_linear" x1="418.268" x2="41.466" y1="179.621" y2="601.093" gradientUnits="userSpaceOnUse">
      <stop stop-color="#fff"/>
      <stop offset="1"/>
    </linearGradient>
    <linearGradient id="paint20_linear" x1="418.268" x2="41.467" y1="179.621" y2="601.093" gradientUnits="userSpaceOnUse">
      <stop stop-color="#fff"/>
      <stop offset="1" stop-color="#fff"/>
    </linearGradient>
    <linearGradient id="paint21_linear" x1="210.78" x2="246.847" y1="223.913" y2="226.214" gradientUnits="userSpaceOnUse">
      <stop stop-color="#DAE3FE"/>
      <stop offset="1" stop-color="#E9EFFD"/>
    </linearGradient>
    <linearGradient id="paint22_linear" x1="258.435" x2="411.266" y1="211.214" y2="220.962" gradientUnits="userSpaceOnUse">
      <stop stop-color="#DAE3FE"/>
      <stop offset="1" stop-color="#E9EFFD"/>
    </linearGradient>
    <linearGradient id="paint23_linear" x1="259.672" x2="362.256" y1="235.927" y2="242.47" gradientUnits="userSpaceOnUse">
      <stop stop-color="#DAE3FE"/>
      <stop offset="1" stop-color="#E9EFFD"/>
    </linearGradient>
    <linearGradient id="paint24_linear" x1="206.307" x2="242.374" y1="294.049" y2="296.349" gradientUnits="userSpaceOnUse">
      <stop stop-color="#DAE3FE"/>
      <stop offset="1" stop-color="#E9EFFD"/>
    </linearGradient>
    <linearGradient id="paint25_linear" x1="253.962" x2="406.793" y1="281.349" y2="291.097" gradientUnits="userSpaceOnUse">
      <stop stop-color="#DAE3FE"/>
      <stop offset="1" stop-color="#E9EFFD"/>
    </linearGradient>
    <linearGradient id="paint26_linear" x1="201.834" x2="237.901" y1="364.184" y2="366.485" gradientUnits="userSpaceOnUse">
      <stop stop-color="#DAE3FE"/>
      <stop offset="1" stop-color="#E9EFFD"/>
    </linearGradient>
    <linearGradient id="paint27_linear" x1="249.489" x2="402.32" y1="351.484" y2="361.233" gradientUnits="userSpaceOnUse">
      <stop stop-color="#DAE3FE"/>
      <stop offset="1" stop-color="#E9EFFD"/>
    </linearGradient>
    <linearGradient id="paint28_linear" x1="250.726" x2="353.31" y1="376.197" y2="382.741" gradientUnits="userSpaceOnUse">
      <stop stop-color="#DAE3FE"/>
      <stop offset="1" stop-color="#E9EFFD"/>
    </linearGradient>
    <linearGradient id="paint29_linear" x1="372.946" x2="317.085" y1="359.917" y2="479.794" gradientUnits="userSpaceOnUse">
      <stop stop-color="#113685"/>
      <stop offset="1" stop-color="#053294"/>
    </linearGradient>
    <linearGradient id="paint30_linear" x1="198.581" x2="225.776" y1="100.524" y2="105.403" gradientUnits="userSpaceOnUse">
      <stop stop-color="#FF928E"/>
      <stop offset="1" stop-color="#FEB3B1"/>
    </linearGradient>
  </defs>
</svg>
