<svg width="121" height="78" viewBox="0 0 121 78" fill="none" xmlns="http://www.w3.org/2000/svg">
<path d="M32.8953 58.7959C30.4621 57.4545 26.6855 55.8556 22.4999 55.8556C18.3144 55.8556 14.5376 57.4545 12.1046 58.7959C10.1422 59.8787 8.92236 61.9991 8.92236 64.3295V65.2609C8.92236 66.9371 10.2285 68.3018 11.8328 68.3018H33.1672C34.7715 68.3018 36.0775 66.9371 36.0775 65.2609V64.3295C36.0775 61.9991 34.8577 59.8788 32.8953 58.7959ZM33.8146 65.2609C33.8146 65.6897 33.5252 66.0388 33.1672 66.0388H11.8328C11.4748 66.0388 11.1854 65.6896 11.1854 65.2609V64.3295C11.1854 62.8234 11.9566 61.4622 13.1963 60.7782C15.3974 59.5649 18.7961 58.1186 22.4999 58.1186C26.2038 58.1186 29.6025 59.5649 31.8036 60.7782C33.0434 61.4622 33.8145 62.8234 33.8145 64.3295V65.2609H33.8146Z" fill="#05D9AE"/>
<path d="M22.5002 54.7242C26.2438 54.7242 29.289 51.679 29.289 47.9354C29.289 44.1918 26.2438 41.1466 22.5002 41.1466C18.7566 41.1466 15.7114 44.1918 15.7114 47.9354C15.7114 51.679 18.7566 54.7242 22.5002 54.7242ZM22.5002 43.4095C24.9952 43.4095 27.0261 45.4392 27.0261 47.9354C27.0261 50.4316 24.9952 52.4613 22.5002 52.4613C20.0052 52.4613 17.9743 50.4314 17.9743 47.9354C17.9743 45.4394 20.0052 43.4095 22.5002 43.4095Z" fill="#05D9AE"/>
<circle cx="22.5" cy="55.5" r="21.5" stroke="#05D9AE" stroke-width="2"/>
<path d="M108.895 58.7959C106.462 57.4545 102.685 55.8556 98.4999 55.8556C94.3144 55.8556 90.5376 57.4545 88.1046 58.7959C86.1422 59.8787 84.9224 61.9991 84.9224 64.3295V65.2609C84.9224 66.9371 86.2285 68.3018 87.8328 68.3018H109.167C110.772 68.3018 112.078 66.9371 112.078 65.2609V64.3295C112.078 61.9991 110.858 59.8788 108.895 58.7959ZM109.815 65.2609C109.815 65.6897 109.525 66.0388 109.167 66.0388H87.8328C87.4748 66.0388 87.1854 65.6896 87.1854 65.2609V64.3295C87.1854 62.8234 87.9566 61.4622 89.1963 60.7782C91.3974 59.5649 94.7961 58.1186 98.4999 58.1186C102.204 58.1186 105.603 59.5649 107.804 60.7782C109.043 61.4622 109.815 62.8234 109.815 64.3295V65.2609H109.815Z" fill="#05D9AE"/>
<path d="M98.5002 54.7242C102.244 54.7242 105.289 51.679 105.289 47.9354C105.289 44.1918 102.244 41.1466 98.5002 41.1466C94.7566 41.1466 91.7114 44.1918 91.7114 47.9354C91.7114 51.679 94.7566 54.7242 98.5002 54.7242ZM98.5002 43.4095C100.995 43.4095 103.026 45.4392 103.026 47.9354C103.026 50.4316 100.995 52.4613 98.5002 52.4613C96.0052 52.4613 93.9743 50.4314 93.9743 47.9354C93.9743 45.4394 96.0052 43.4095 98.5002 43.4095Z" fill="#05D9AE"/>
<circle cx="98.5" cy="55.5" r="21.5" stroke="#05D9AE" stroke-width="2"/>
<path d="M70.8953 25.7959C68.4621 24.4545 64.6855 22.8556 60.4999 22.8556C56.3144 22.8556 52.5376 24.4545 50.1046 25.7959C48.1422 26.8787 46.9224 28.9991 46.9224 31.3295V32.2609C46.9224 33.9371 48.2285 35.3018 49.8328 35.3018H71.1672C72.7715 35.3018 74.0775 33.9371 74.0775 32.2609V31.3295C74.0775 28.9991 72.8577 26.8788 70.8953 25.7959ZM71.8146 32.2609C71.8146 32.6897 71.5252 33.0388 71.1672 33.0388H49.8328C49.4748 33.0388 49.1854 32.6896 49.1854 32.2609V31.3295C49.1854 29.8234 49.9566 28.4622 51.1963 27.7782C53.3974 26.5649 56.7961 25.1186 60.4999 25.1186C64.2038 25.1186 67.6025 26.5649 69.8036 27.7782C71.0434 28.4622 71.8145 29.8234 71.8145 31.3295V32.2609H71.8146Z" fill="#05D9AE"/>
<path d="M60.5002 21.7242C64.2438 21.7242 67.289 18.679 67.289 14.9354C67.289 11.1918 64.2438 8.14661 60.5002 8.14661C56.7566 8.14661 53.7114 11.1918 53.7114 14.9354C53.7114 18.679 56.7566 21.7242 60.5002 21.7242ZM60.5002 10.4095C62.9952 10.4095 65.0261 12.4392 65.0261 14.9354C65.0261 17.4316 62.9952 19.4613 60.5002 19.4613C58.0052 19.4613 55.9743 17.4314 55.9743 14.9354C55.9743 12.4394 58.0052 10.4095 60.5002 10.4095Z" fill="#05D9AE"/>
<circle cx="60.5" cy="22.5" r="21.5" stroke="#05D9AE" stroke-width="2"/>
</svg>
