<svg width="88" height="78" viewBox="0 0 88 78" fill="none" xmlns="http://www.w3.org/2000/svg">
<path d="M43.7713 6.97278C39.044 6.97278 35.144 10.7546 35.144 15.4819C35.144 20.2091 39.044 23.991 43.7713 23.991C48.4986 23.991 52.3986 20.2091 52.3986 15.4819C52.3986 10.7546 48.4986 6.97278 43.7713 6.97278ZM43.7713 21.7455C40.344 21.7455 37.5077 19.0273 37.5077 15.6C37.5077 12.1728 40.344 9.4546 43.7713 9.4546C47.1986 9.4546 50.0349 12.1728 50.0349 15.6C50.0349 18.9091 47.1986 21.7455 43.7713 21.7455Z" fill="#05D9AE"/>
<path d="M86.908 53.7727L80.408 48.1V19.2636C80.408 18.5545 79.9352 18.0818 79.2261 18.0818H62.917C62.3261 8.03636 53.9352 0 43.7716 0C33.608 0 25.217 8.03636 24.508 18.0818H8.31705C7.60795 18.0818 7.13523 18.5545 7.13523 19.2636V48.1L0.398864 53.8909C0.0443181 54.2454 -0.0738636 54.7182 0.0443182 55.1909C0.1625 55.6636 0.635227 56.0182 1.10795 56.0182H2.52614V76.8182C2.52614 77.5273 2.99886 78 3.70795 78C7.37159 78 30.2989 78 33.8443 78C34.5534 78 35.0261 77.5273 35.0261 76.8182V55.9H36.4443C37.1534 55.9 37.6261 55.4273 37.6261 54.7182C37.6261 54.2455 37.3898 53.8909 37.0352 53.6545L19.6625 38.6455C19.1898 38.2909 18.5989 38.2909 18.1261 38.6455L9.49886 46.0909V20.4455H24.6261C25.217 30.6091 33.7261 38.5273 43.7716 38.5273C53.817 38.5273 62.3261 30.7273 62.917 20.4455H78.0443V46.0909L69.417 38.6455C68.9443 38.2909 68.3534 38.2909 67.8807 38.6455L50.2716 53.8909C49.917 54.2454 49.7989 54.7182 49.917 55.1909C50.0352 55.6636 50.508 56.0182 50.9807 56.0182H52.3989V76.8182C52.3989 77.5273 52.8716 78 53.5807 78C57.2443 78 80.1716 78 83.717 78C84.4261 78 84.8989 77.5273 84.8989 76.8182V55.9H86.317C87.0261 55.9 87.4989 55.4273 87.4989 54.7182C87.4989 54.3636 87.2625 53.8909 86.908 53.7727ZM14.3443 75.6364V63.4636H23.4443V75.6364H14.3443ZM32.7807 75.6364H25.808V62.2818C25.808 61.5727 25.3352 61.1 24.6261 61.1H13.1625C12.4534 61.1 11.9807 61.5727 11.9807 62.2818V75.6364H5.00795V55.9H32.7807V75.6364ZM18.8352 41.1273L33.2534 53.6545H4.41705L18.8352 41.1273ZM32.4261 31.7909C33.8443 28.7182 36.917 26.7091 40.2261 26.7091H47.1989C50.6261 26.7091 53.6989 28.7182 54.9989 31.7909C48.617 37.5818 38.9261 37.5818 32.4261 31.7909ZM56.8898 29.9C54.9989 26.4727 51.3352 24.3455 47.317 24.3455H40.2261C36.208 24.3455 32.5443 26.4727 30.6534 29.9C28.2898 26.9455 26.8716 23.2818 26.8716 19.2636C26.8716 9.92727 34.4352 2.36364 43.7716 2.36364C53.108 2.36364 60.6716 9.92727 60.6716 19.2636C60.6716 23.2818 59.2534 27.0636 56.8898 29.9ZM68.708 41.1273L83.1261 53.6545H54.1716L68.708 41.1273ZM64.0989 75.6364V63.4636H73.1989V75.6364H64.0989ZM82.5352 75.6364H75.5625V62.2818C75.5625 61.5727 75.0898 61.1 74.3807 61.1H62.917C62.208 61.1 61.7352 61.5727 61.7352 62.2818V75.6364H54.7625V55.9H82.5352V75.6364Z" fill="#05D9AE"/>
</svg>
